<svg xmlns="http://www.w3.org/2000/svg" viewBox="0 0 92.3 92.3"><defs><style>.cls-1{fill:#bababa;}.cls-2{fill:#aaa;}.cls-3{fill:#fff;}</style></defs><title>acción_colectiva_hover</title><g id="Capa_2" data-name="Capa 2"><g id="Layer_1" data-name="Layer 1"><circle class="cls-1" cx="46.15" cy="46.15" r="45.15"/><path class="cls-2" d="M46.15,92.3A46.15,46.15,0,1,1,92.3,46.15,46.2,46.2,0,0,1,46.15,92.3Zm0-90.3A44.15,44.15,0,1,0,90.3,46.15,44.2,44.2,0,0,0,46.15,2Z"/><path class="cls-3" d="M27.8,39.8l-.66-2.18H23.81l-.66,2.18H21.05l3.23-9.18h2.37l3.24,9.18ZM26.68,36l-1-3.35q-.12-.39-.17-.61-.21.8-1.18,4Z"/><path class="cls-3" d="M34.92,32.14a2,2,0,0,0-1.69.82,3.82,3.82,0,0,0-.6,2.29q0,3.06,2.29,3.06a7.25,7.25,0,0,0,2.33-.48v1.63a6.48,6.48,0,0,1-2.51.47,3.83,3.83,0,0,1-3.05-1.21,5.13,5.13,0,0,1-1.06-3.47,5.66,5.66,0,0,1,.52-2.5,3.75,3.75,0,0,1,1.49-1.65,4.42,4.42,0,0,1,2.28-.57,6.15,6.15,0,0,1,2.68.64L37,32.75a10.3,10.3,0,0,0-1-.43A3.1,3.1,0,0,0,34.92,32.14Z"/><path class="cls-3" d="M43.09,32.14a2,2,0,0,0-1.69.82,3.82,3.82,0,0,0-.6,2.29q0,3.06,2.29,3.06a7.25,7.25,0,0,0,2.33-.48v1.63a6.48,6.48,0,0,1-2.51.47,3.83,3.83,0,0,1-3.05-1.21,5.13,5.13,0,0,1-1.06-3.47,5.66,5.66,0,0,1,.52-2.5,3.75,3.75,0,0,1,1.49-1.65,4.42,4.42,0,0,1,2.28-.57,6.15,6.15,0,0,1,2.68.64l-.63,1.58a10.3,10.3,0,0,0-1-.43A3.1,3.1,0,0,0,43.09,32.14Z"/><path class="cls-3" d="M47.36,39.8V30.66H49.3V39.8Z"/><path class="cls-3" d="M59.9,35.22a5,5,0,0,1-1.13,3.49,4.88,4.88,0,0,1-6.45,0,5,5,0,0,1-1.13-3.5,4.91,4.91,0,0,1,1.13-3.49,4.22,4.22,0,0,1,3.24-1.2,4.16,4.16,0,0,1,3.22,1.21A5,5,0,0,1,59.9,35.22Zm-6.67,0a3.82,3.82,0,0,0,.58,2.31,2,2,0,0,0,1.74.78q2.32,0,2.32-3.08t-2.31-3.09a2,2,0,0,0-1.75.78A3.81,3.81,0,0,0,53.23,35.22Zm1.34-5.29v-.17A17.54,17.54,0,0,0,56,27.88h2.14V28q-.33.33-1.11,1t-1.23,1Z"/><path class="cls-3" d="M69.91,39.8H67.44l-4-6.92h-.06q.12,1.83.12,2.61v4.3H61.8V30.66h2.45l4,6.85h0q-.09-1.78-.09-2.52V30.66h1.75Z"/><path class="cls-3" d="M16.22,47.51a2,2,0,0,0-1.69.82,3.82,3.82,0,0,0-.6,2.29q0,3.06,2.29,3.06a7.25,7.25,0,0,0,2.33-.48v1.63a6.48,6.48,0,0,1-2.51.47A3.83,3.83,0,0,1,13,54.08a5.13,5.13,0,0,1-1.06-3.47,5.66,5.66,0,0,1,.52-2.5,3.75,3.75,0,0,1,1.49-1.65,4.42,4.42,0,0,1,2.28-.57,6.15,6.15,0,0,1,2.68.64l-.63,1.58a10.3,10.3,0,0,0-1-.43A3.1,3.1,0,0,0,16.22,47.51Z"/><path class="cls-3" d="M28.8,50.59a5,5,0,0,1-1.13,3.49,4.17,4.17,0,0,1-3.23,1.22,4.17,4.17,0,0,1-3.23-1.22,5,5,0,0,1-1.13-3.5,4.91,4.91,0,0,1,1.13-3.49,4.22,4.22,0,0,1,3.24-1.2,4.16,4.16,0,0,1,3.22,1.21A5,5,0,0,1,28.8,50.59Zm-6.67,0a3.82,3.82,0,0,0,.58,2.31,2,2,0,0,0,1.74.78q2.32,0,2.32-3.08T24.46,47.5a2,2,0,0,0-1.75.78A3.81,3.81,0,0,0,22.12,50.59Z"/><path class="cls-3" d="M30.69,55.17V46h1.94v7.54h3.71v1.6Z"/><path class="cls-3" d="M43.19,55.17H37.93V46h5.27v1.59H39.87v2H43v1.59h-3.1v2.36h3.33Z"/><path class="cls-3" d="M49,47.51a2,2,0,0,0-1.69.82,3.82,3.82,0,0,0-.6,2.29q0,3.06,2.29,3.06a7.25,7.25,0,0,0,2.33-.48v1.63a6.48,6.48,0,0,1-2.51.47,3.83,3.83,0,0,1-3.05-1.21,5.13,5.13,0,0,1-1.06-3.47,5.66,5.66,0,0,1,.52-2.5,3.75,3.75,0,0,1,1.49-1.65A4.42,4.42,0,0,1,49,45.89a6.15,6.15,0,0,1,2.68.64L51,48.12a10.3,10.3,0,0,0-1-.43A3.1,3.1,0,0,0,49,47.51Z"/><path class="cls-3" d="M56.79,55.17H54.85V47.64H52.37V46h6.9v1.61H56.79Z"/><path class="cls-3" d="M60.68,55.17V46h1.94v9.14Z"/><path class="cls-3" d="M70.13,46h2L69,55.17H66.87L63.77,46h2l1.72,5.44q.14.48.3,1.12t.19.89a16,16,0,0,1,.47-2Z"/><path class="cls-3" d="M78.84,55.17,78.18,53H74.84l-.66,2.18H72.09L75.32,46h2.37l3.24,9.18Zm-1.12-3.8-1-3.35q-.12-.39-.17-.61-.21.8-1.18,4Z"/></g></g></svg>