<svg xmlns="http://www.w3.org/2000/svg" viewBox="0 0 92.3 92.3"><defs><style>.cls-1{fill:#c6c6c6;}.cls-2{fill:#aaa;}.cls-3{fill:#fff;}</style></defs><title>acción_externa</title><g id="Capa_2" data-name="Capa 2"><g id="Capa_2-2" data-name="Capa 2"><circle class="cls-1" cx="46.15" cy="46.15" r="45.15"/><path class="cls-2" d="M46.15,92.3A46.15,46.15,0,1,1,92.3,46.15,46.2,46.2,0,0,1,46.15,92.3Zm0-90.3A44.15,44.15,0,1,0,90.3,46.15,44.2,44.2,0,0,0,46.15,2Z"/><path class="cls-3" d="M27.35,40.33l-.66-2.18H23.35l-.66,2.18H20.6l3.23-9.18H26.2l3.24,9.18Zm-1.13-3.8-1-3.35q-.12-.39-.17-.61-.21.8-1.18,4Z"/><path class="cls-3" d="M34.47,32.67a2,2,0,0,0-1.69.82,3.82,3.82,0,0,0-.6,2.29q0,3.06,2.29,3.06a7.25,7.25,0,0,0,2.33-.48V40a6.48,6.48,0,0,1-2.51.47,3.83,3.83,0,0,1-3.05-1.21,5.12,5.12,0,0,1-1.06-3.47,5.67,5.67,0,0,1,.52-2.5,3.75,3.75,0,0,1,1.49-1.65,4.42,4.42,0,0,1,2.28-.57,6.15,6.15,0,0,1,2.68.64l-.62,1.58a10.32,10.32,0,0,0-1-.43A3.09,3.09,0,0,0,34.47,32.67Z"/><path class="cls-3" d="M42.63,32.67a2,2,0,0,0-1.69.82,3.82,3.82,0,0,0-.6,2.29q0,3.06,2.29,3.06A7.25,7.25,0,0,0,45,38.37V40a6.48,6.48,0,0,1-2.51.47,3.83,3.83,0,0,1-3.05-1.21,5.12,5.12,0,0,1-1.06-3.47,5.67,5.67,0,0,1,.52-2.5,3.75,3.75,0,0,1,1.49-1.65,4.42,4.42,0,0,1,2.28-.57,6.15,6.15,0,0,1,2.68.64l-.62,1.58a10.32,10.32,0,0,0-1-.43A3.09,3.09,0,0,0,42.63,32.67Z"/><path class="cls-3" d="M46.91,40.33V31.19h1.94v9.14Z"/><path class="cls-3" d="M59.45,35.75a5,5,0,0,1-1.13,3.49,4.88,4.88,0,0,1-6.45,0,5,5,0,0,1-1.13-3.5,4.91,4.91,0,0,1,1.13-3.49A4.22,4.22,0,0,1,55.11,31a4.16,4.16,0,0,1,3.22,1.21A5,5,0,0,1,59.45,35.75Zm-6.67,0a3.82,3.82,0,0,0,.58,2.31,2,2,0,0,0,1.74.78q2.32,0,2.32-3.08t-2.31-3.09a2.05,2.05,0,0,0-1.74.78A3.81,3.81,0,0,0,52.77,35.75Zm1.34-5.29v-.17a17.52,17.52,0,0,0,1.47-1.88h2.14v.13q-.33.33-1.11,1t-1.23,1Z"/><path class="cls-3" d="M69.45,40.33H67l-4-6.92H63q.12,1.83.12,2.61v4.3H61.34V31.19h2.44l4,6.85h0q-.09-1.78-.09-2.52V31.19h1.74Z"/><path class="cls-3" d="M23,55.7H17.75V46.56H23v1.59H19.69v2h3.1v1.59h-3.1V54.1H23Z"/><path class="cls-3" d="M32.31,55.7H30.1L28,52.25,25.85,55.7H23.77l3-4.71L24,46.56H26.1l2,3.29L30,46.56h2.09l-2.87,4.53Z"/><path class="cls-3" d="M37,55.7H35.05V48.17H32.57V46.56h6.9v1.61H37Z"/><path class="cls-3" d="M46.15,55.7H40.88V46.56h5.27v1.59H42.82v2h3.1v1.59h-3.1V54.1h3.33Z"/><path class="cls-3" d="M50,52.2V55.7H48.05V46.56h2.66a4.56,4.56,0,0,1,2.76.68,2.7,2.7,0,0,1,.45,3.5,2.94,2.94,0,0,1-1.26,1q2.06,3.08,2.69,4H53.21L51,52.2Zm0-1.58h.63A2.39,2.39,0,0,0,52,50.31a1.09,1.09,0,0,0,.44-1,1,1,0,0,0-.45-.93,2.71,2.71,0,0,0-1.38-.28H50Z"/><path class="cls-3" d="M64.62,55.7H62.15l-4-6.92h-.06q.12,1.83.12,2.61v4.3H56.51V46.56H59l4,6.85h0q-.09-1.78-.09-2.52V46.56h1.74Z"/><path class="cls-3" d="M72.52,55.7l-.66-2.18H68.52l-.66,2.18H65.77L69,46.52h2.37L74.6,55.7Zm-1.13-3.8-1-3.35q-.12-.39-.17-.61-.21.8-1.18,4Z"/></g></g></svg>