<svg xmlns="http://www.w3.org/2000/svg" viewBox="0 0 105.39 105.39"><defs><style>.cls-1{fill:#c6c6c6;}.cls-2{fill:#878787;}.cls-3{fill:#fff;}</style></defs><title>Recurso 12</title><g id="Capa_2" data-name="Capa 2"><g id="Capa_2-2" data-name="Capa 2"><circle class="cls-1" cx="52.69" cy="52.7" r="51.69"/><path class="cls-2" d="M52.69,105.39A52.69,52.69,0,1,1,105.39,52.7,52.75,52.75,0,0,1,52.69,105.39ZM52.69,2a50.69,50.69,0,1,0,50.69,50.7A50.75,50.75,0,0,0,52.69,2Z"/><path class="cls-3" d="M15.4,42.32a2.26,2.26,0,0,0-1.94.94,4.38,4.38,0,0,0-.69,2.62q0,3.5,2.63,3.5a8.29,8.29,0,0,0,2.67-.55V50.7a7.43,7.43,0,0,1-2.88.54,4.39,4.39,0,0,1-3.49-1.39,5.86,5.86,0,0,1-1.21-4A6.49,6.49,0,0,1,11.09,43a4.3,4.3,0,0,1,1.71-1.88,5.05,5.05,0,0,1,2.61-.66,7.05,7.05,0,0,1,3.06.74L17.75,43a11.82,11.82,0,0,0-1.18-.49A3.52,3.52,0,0,0,15.4,42.32Z"/><path class="cls-3" d="M29.8,45.84a5.68,5.68,0,0,1-1.29,4,4.78,4.78,0,0,1-3.7,1.4,4.78,4.78,0,0,1-3.69-1.4,5.7,5.7,0,0,1-1.29-4,5.63,5.63,0,0,1,1.29-4,4.83,4.83,0,0,1,3.71-1.38,4.77,4.77,0,0,1,3.69,1.39A5.7,5.7,0,0,1,29.8,45.84Zm-7.64,0a4.38,4.38,0,0,0,.67,2.64,2.33,2.33,0,0,0,2,.89q2.66,0,2.66-3.53t-2.64-3.54a2.34,2.34,0,0,0-2,.89A4.35,4.35,0,0,0,22.16,45.84Z"/><path class="cls-3" d="M32,51.09V40.62h2.22v8.63h4.25v1.83Z"/><path class="cls-3" d="M40.26,51.09V40.62h2.22v8.63h4.25v1.83Z"/><path class="cls-3" d="M54.57,51.09h-6V40.62h6v1.82H50.76v2.3H54.3v1.82H50.76v2.7h3.81Z"/><path class="cls-3" d="M61.2,42.32a2.26,2.26,0,0,0-1.94.94,4.38,4.38,0,0,0-.69,2.62q0,3.5,2.63,3.5a8.29,8.29,0,0,0,2.67-.55V50.7a7.43,7.43,0,0,1-2.88.54,4.39,4.39,0,0,1-3.49-1.39,5.86,5.86,0,0,1-1.21-4A6.49,6.49,0,0,1,56.88,43a4.3,4.3,0,0,1,1.71-1.88,5.05,5.05,0,0,1,2.61-.66,7.05,7.05,0,0,1,3.06.74L63.55,43a11.82,11.82,0,0,0-1.18-.49A3.52,3.52,0,0,0,61.2,42.32Z"/><path class="cls-3" d="M70.14,51.09H67.92V42.47H65.07V40.62H73v1.85H70.14Z"/><path class="cls-3" d="M74.59,51.09V40.62h2.22V51.09Z"/><path class="cls-3" d="M85.42,40.62h2.24L84.1,51.09H81.68L78.13,40.62h2.24l2,6.23c.11.37.22.8.34,1.29s.19.83.22,1a18.37,18.37,0,0,1,.54-2.3Z"/><path class="cls-3" d="M95,51.09H89V40.62h6v1.82H91.19v2.3h3.54v1.82H91.19v2.7H95Z"/><path class="cls-3" d="M28.24,68.69l-.76-2.49H23.67l-.76,2.49H20.52l3.69-10.51h2.71l3.71,10.51ZM27,64.33q-1.05-3.39-1.18-3.83c-.09-.3-.15-.53-.19-.7q-.24.92-1.35,4.53Z"/><path class="cls-3" d="M36.4,59.92a2.26,2.26,0,0,0-1.94.94,4.38,4.38,0,0,0-.69,2.62q0,3.5,2.63,3.5a8.29,8.29,0,0,0,2.67-.55v1.86a7.43,7.43,0,0,1-2.88.54,4.39,4.39,0,0,1-3.49-1.39,5.86,5.86,0,0,1-1.21-4,6.49,6.49,0,0,1,.59-2.86,4.3,4.3,0,0,1,1.71-1.88,5.05,5.05,0,0,1,2.61-.66,7.05,7.05,0,0,1,3.06.74l-.72,1.8a11.82,11.82,0,0,0-1.18-.49A3.52,3.52,0,0,0,36.4,59.92Z"/><path class="cls-3" d="M45.33,68.69H43.11V60.07H40.27V58.22h7.9v1.85H45.33Z"/><path class="cls-3" d="M49.79,68.69V58.22H52V68.69Z"/><path class="cls-3" d="M64.14,63.44a5.68,5.68,0,0,1-1.29,4,4.78,4.78,0,0,1-3.7,1.4,4.78,4.78,0,0,1-3.69-1.4,5.7,5.7,0,0,1-1.29-4,5.63,5.63,0,0,1,1.29-4,4.83,4.83,0,0,1,3.71-1.38,4.77,4.77,0,0,1,3.69,1.39A5.7,5.7,0,0,1,64.14,63.44Zm-7.64,0a4.38,4.38,0,0,0,.67,2.64,2.33,2.33,0,0,0,2,.89q2.66,0,2.66-3.53T59.17,59.9a2.34,2.34,0,0,0-2,.89A4.35,4.35,0,0,0,56.5,63.44Z"/><path class="cls-3" d="M75.6,68.69H72.78l-4.55-7.92h-.06q.13,2.1.14,3v4.93h-2V58.22h2.8l4.55,7.84h.05q-.11-2-.11-2.88v-5h2Z"/><path class="cls-3" d="M84.41,65.78a2.71,2.71,0,0,1-1,2.23,4.44,4.44,0,0,1-2.84.82,6.66,6.66,0,0,1-3-.63V66.14a12.32,12.32,0,0,0,1.79.67,5.31,5.31,0,0,0,1.34.19,1.91,1.91,0,0,0,1.12-.28,1,1,0,0,0,.39-.83.92.92,0,0,0-.17-.55,2,2,0,0,0-.5-.46,13.16,13.16,0,0,0-1.36-.71,6.39,6.39,0,0,1-1.44-.87,3.25,3.25,0,0,1-.77-1A2.77,2.77,0,0,1,77.71,61a2.7,2.7,0,0,1,.94-2.18,3.91,3.91,0,0,1,2.6-.79,6.15,6.15,0,0,1,1.56.19,10.74,10.74,0,0,1,1.55.54l-.72,1.73a10.44,10.44,0,0,0-1.39-.48,4.45,4.45,0,0,0-1.08-.14,1.43,1.43,0,0,0-1,.29,1,1,0,0,0-.34.77,1,1,0,0,0,.14.51,1.48,1.48,0,0,0,.43.42,13.28,13.28,0,0,0,1.41.73,5.59,5.59,0,0,1,2,1.41A2.74,2.74,0,0,1,84.41,65.78Z"/></g></g></svg>