<svg xmlns="http://www.w3.org/2000/svg" viewBox="0 0 105.39 105.39"><defs><style>.cls-1{fill:#bababa;}.cls-2{fill:#878787;}.cls-3{fill:#fff;}</style></defs><title>hover3</title><g id="Capa_2" data-name="Capa 2"><g id="Capa_2-2" data-name="Capa 2"><circle class="cls-1" cx="52.69" cy="52.69" r="51.69"/><path class="cls-2" d="M52.69,105.39a52.69,52.69,0,1,1,52.69-52.69A52.75,52.75,0,0,1,52.69,105.39ZM52.69,2a50.69,50.69,0,1,0,50.69,50.69A50.75,50.75,0,0,0,52.69,2Z"/><path class="cls-3" d="M22.48,51h-6V40.48h6V42.3H18.67v2.3h3.54v1.82H18.67v2.7h3.81Z"/><path class="cls-3" d="M33.13,51H30.59l-2.43-4-2.43,4H23.35l3.47-5.4-3.25-5.07H26l2.25,3.77,2.21-3.77h2.39l-3.29,5.19Z"/><path class="cls-3" d="M38.48,51H36.26V42.33H33.42V40.48h7.9v1.85H38.48Z"/><path class="cls-3" d="M49,51h-6V40.48h6V42.3H45.16v2.3H48.7v1.82H45.16v2.7H49Z"/><path class="cls-3" d="M53.37,46.94v4H51.15V40.48h3a5.22,5.22,0,0,1,3.16.78,3.1,3.1,0,0,1,.52,4,3.38,3.38,0,0,1-1.44,1.13Q58.8,49.92,59.51,51H57l-2.5-4Zm0-1.8h.72a2.73,2.73,0,0,0,1.55-.35,1.25,1.25,0,0,0,.5-1.1,1.15,1.15,0,0,0-.51-1.06A3.11,3.11,0,0,0,54,42.3h-.67Z"/><path class="cls-3" d="M70.11,51H67.29L62.74,43h-.06q.13,2.1.14,3V51h-2V40.48h2.8l4.55,7.84h.05q-.11-2-.11-2.88v-5h2Z"/><path class="cls-3" d="M79.16,51l-.76-2.49H74.58L73.82,51H71.43l3.69-10.51h2.71L81.55,51ZM77.87,46.6q-1.05-3.39-1.18-3.83c-.09-.3-.15-.53-.19-.7q-.24.92-1.35,4.53Z"/><path class="cls-3" d="M82.87,51V40.48h2.22v8.63h4.25V51Z"/><path class="cls-3" d="M28,68.55l-.76-2.49H23.4l-.76,2.49H20.24L23.94,58h2.71l3.71,10.51Zm-1.29-4.35q-1.05-3.39-1.18-3.83c-.09-.3-.15-.53-.19-.7q-.24.92-1.35,4.53Z"/><path class="cls-3" d="M36.13,59.78a2.26,2.26,0,0,0-1.94.94,4.38,4.38,0,0,0-.69,2.62q0,3.5,2.63,3.5a8.29,8.29,0,0,0,2.67-.55v1.86a7.43,7.43,0,0,1-2.88.54,4.39,4.39,0,0,1-3.49-1.39,5.86,5.86,0,0,1-1.21-4,6.49,6.49,0,0,1,.59-2.86,4.3,4.3,0,0,1,1.71-1.88,5.05,5.05,0,0,1,2.61-.66,7.05,7.05,0,0,1,3.06.74l-.72,1.8A11.82,11.82,0,0,0,37.29,60,3.52,3.52,0,0,0,36.13,59.78Z"/><path class="cls-3" d="M45.06,68.55H42.84V59.93H40V58.08h7.9v1.85H45.06Z"/><path class="cls-3" d="M49.52,68.55V58.08h2.22V68.55Z"/><path class="cls-3" d="M63.87,63.3a5.68,5.68,0,0,1-1.29,4,4.78,4.78,0,0,1-3.7,1.4,4.78,4.78,0,0,1-3.69-1.4,5.7,5.7,0,0,1-1.29-4,5.63,5.63,0,0,1,1.29-4,4.83,4.83,0,0,1,3.71-1.38,4.77,4.77,0,0,1,3.69,1.39A5.7,5.7,0,0,1,63.87,63.3Zm-7.64,0a4.38,4.38,0,0,0,.67,2.64,2.33,2.33,0,0,0,2,.89q2.66,0,2.66-3.53T58.9,59.76a2.34,2.34,0,0,0-2,.89A4.35,4.35,0,0,0,56.23,63.3Z"/><path class="cls-3" d="M75.33,68.55H72.51L68,60.63h-.06q.13,2.1.14,3v4.93H66V58.08h2.8l4.55,7.84h.05q-.11-2-.11-2.88v-5h2Z"/><path class="cls-3" d="M84.14,65.64a2.71,2.71,0,0,1-1,2.23,4.44,4.44,0,0,1-2.84.82,6.66,6.66,0,0,1-3-.63V66a12.32,12.32,0,0,0,1.79.67,5.31,5.31,0,0,0,1.34.19,1.91,1.91,0,0,0,1.12-.28,1,1,0,0,0,.39-.83.92.92,0,0,0-.17-.55,2,2,0,0,0-.5-.46A13.16,13.16,0,0,0,79.93,64a6.39,6.39,0,0,1-1.44-.87,3.25,3.25,0,0,1-.77-1,2.77,2.77,0,0,1-.29-1.29,2.7,2.7,0,0,1,.94-2.18,3.91,3.91,0,0,1,2.6-.79,6.15,6.15,0,0,1,1.56.19,10.74,10.74,0,0,1,1.55.54l-.72,1.73A10.44,10.44,0,0,0,82,59.91a4.45,4.45,0,0,0-1.08-.14,1.43,1.43,0,0,0-1,.29,1,1,0,0,0-.34.77,1,1,0,0,0,.14.51,1.48,1.48,0,0,0,.43.42,13.28,13.28,0,0,0,1.41.73,5.59,5.59,0,0,1,2,1.41A2.74,2.74,0,0,1,84.14,65.64Z"/></g></g></svg>