<svg xmlns="http://www.w3.org/2000/svg" viewBox="0 0 92.3 92.3"><defs><style>.cls-1{fill:#bababa;}.cls-2{fill:#aaa;}.cls-3{fill:#fff;}</style></defs><title>acción_interna_hover</title><g id="Capa_2" data-name="Capa 2"><g id="Layer_1" data-name="Layer 1"><circle class="cls-1" cx="46.15" cy="46.15" r="45.15"/><path class="cls-2" d="M46.15,92.3A46.15,46.15,0,1,1,92.3,46.15,46.2,46.2,0,0,1,46.15,92.3Zm0-90.3A44.15,44.15,0,1,0,90.3,46.15,44.2,44.2,0,0,0,46.15,2Z"/><path class="cls-3" d="M27.73,54.49l-.66-2.18H23.73l-.66,2.18H21l3.23-9.18h2.37l3.24,9.18Zm-1.13-3.8-1-3.35q-.12-.39-.17-.61-.21.8-1.18,4Z"/><path class="cls-3" d="M34.85,46.83a2,2,0,0,0-1.69.82,3.82,3.82,0,0,0-.6,2.29q0,3.06,2.29,3.06a7.25,7.25,0,0,0,2.33-.48v1.63a6.48,6.48,0,0,1-2.51.47,3.83,3.83,0,0,1-3.05-1.21,5.13,5.13,0,0,1-1.06-3.47,5.66,5.66,0,0,1,.52-2.5,3.75,3.75,0,0,1,1.49-1.65,4.42,4.42,0,0,1,2.28-.57,6.15,6.15,0,0,1,2.68.64l-.63,1.58a10.3,10.3,0,0,0-1-.43A3.1,3.1,0,0,0,34.85,46.83Z"/><path class="cls-3" d="M43,46.83a2,2,0,0,0-1.69.82,3.82,3.82,0,0,0-.6,2.29Q40.72,53,43,53a7.25,7.25,0,0,0,2.33-.48v1.63a6.48,6.48,0,0,1-2.51.47,3.83,3.83,0,0,1-3.05-1.21,5.13,5.13,0,0,1-1.06-3.47,5.66,5.66,0,0,1,.52-2.5,3.75,3.75,0,0,1,1.49-1.65A4.42,4.42,0,0,1,43,45.22a6.15,6.15,0,0,1,2.68.64l-.63,1.58A10.3,10.3,0,0,0,44,47,3.1,3.1,0,0,0,43,46.83Z"/><path class="cls-3" d="M47.29,54.49V45.35h1.94v9.14Z"/><path class="cls-3" d="M59.83,49.91A5,5,0,0,1,58.7,53.4a4.88,4.88,0,0,1-6.45,0,5,5,0,0,1-1.13-3.5,4.91,4.91,0,0,1,1.13-3.49,4.22,4.22,0,0,1,3.24-1.2,4.16,4.16,0,0,1,3.22,1.21A5,5,0,0,1,59.83,49.91Zm-6.67,0a3.82,3.82,0,0,0,.58,2.31,2,2,0,0,0,1.74.78q2.32,0,2.32-3.08t-2.31-3.09a2,2,0,0,0-1.75.78A3.81,3.81,0,0,0,53.16,49.91Zm1.34-5.29v-.17A17.54,17.54,0,0,0,56,42.57H58.1v.13q-.33.33-1.11,1t-1.23,1Z"/><path class="cls-3" d="M69.84,54.49H67.37l-4-6.92h-.06q.12,1.83.12,2.61v4.3H61.72V45.35h2.45l4,6.85h0q-.09-1.78-.09-2.52V45.35h1.75Z"/><path class="cls-3" d="M18.66,69.86V60.72H20.6v9.14Z"/><path class="cls-3" d="M31,69.86H28.55l-4-6.92h-.06q.12,1.83.12,2.61v4.3H22.9V60.72h2.44l4,6.85h0q-.09-1.78-.09-2.52V60.72H31Z"/><path class="cls-3" d="M36.84,69.86H34.9V62.33H32.42V60.72h6.9v1.61H36.84Z"/><path class="cls-3" d="M46,69.86H40.73V60.72H46v1.59H42.67v2h3.1V65.9h-3.1v2.36H46Z"/><path class="cls-3" d="M49.84,66.35v3.51H47.9V60.72h2.66a4.56,4.56,0,0,1,2.76.68,2.7,2.7,0,0,1,.45,3.5,2.94,2.94,0,0,1-1.26,1q2.06,3.08,2.69,4H53.06l-2.18-3.51Zm0-1.58h.63a2.39,2.39,0,0,0,1.36-.31,1.09,1.09,0,0,0,.44-1,1,1,0,0,0-.45-.93,2.71,2.71,0,0,0-1.39-.28h-.59Z"/><path class="cls-3" d="M64.47,69.86H62l-4-6.92H58q.12,1.83.12,2.61v4.3H56.36V60.72H58.8l4,6.85h0q-.09-1.78-.09-2.52V60.72h1.75Z"/><path class="cls-3" d="M72.37,69.86l-.66-2.18H68.37l-.66,2.18H65.62l3.23-9.18h2.37l3.24,9.18Zm-1.12-3.8-1-3.35q-.12-.39-.17-.61-.21.8-1.18,4Z"/></g></g></svg>