<svg xmlns="http://www.w3.org/2000/svg" viewBox="0 0 105.39 105.39"><defs><style>.cls-1{fill:#bababa;}.cls-2{fill:#878787;}.cls-3{fill:#fff;}</style></defs><title>hover1</title><g id="Capa_2" data-name="Capa 2"><g id="Capa_2-2" data-name="Capa 2"><circle class="cls-1" cx="52.69" cy="52.69" r="51.69"/><path class="cls-2" d="M52.69,105.39a52.69,52.69,0,1,1,52.69-52.69A52.75,52.75,0,0,1,52.69,105.39ZM52.69,2a50.69,50.69,0,1,0,50.69,50.69A50.75,50.75,0,0,0,52.69,2Z"/><path class="cls-3" d="M17.33,67V56.53h2.22V67Z"/><path class="cls-3" d="M31.47,67H28.65L24.1,59.08H24q.13,2.1.14,3V67h-2V56.53H25l4.55,7.84h.05q-.11-2-.11-2.88v-5h2Z"/><path class="cls-3" d="M38.14,67H35.92V58.38H33.08V56.53H41v1.85H38.14Z"/><path class="cls-3" d="M48.63,67h-6V56.53h6v1.82H44.82v2.3h3.54v1.82H44.82v2.7h3.81Z"/><path class="cls-3" d="M53,63v4H50.81V56.53h3A5.22,5.22,0,0,1,57,57.3a3.1,3.1,0,0,1,.52,4,3.38,3.38,0,0,1-1.44,1.13Q58.46,66,59.17,67H56.71l-2.5-4Zm0-1.8h.72a2.73,2.73,0,0,0,1.55-.35,1.25,1.25,0,0,0,.5-1.1,1.15,1.15,0,0,0-.51-1.06,3.11,3.11,0,0,0-1.59-.32H53Z"/><path class="cls-3" d="M69.78,67H67L62.4,59.08h-.06q.13,2.1.14,3V67h-2V56.53h2.8l4.55,7.84h.05q-.11-2-.11-2.88v-5h2Z"/><path class="cls-3" d="M78.82,67l-.76-2.49H74.24L73.49,67H71.09l3.69-10.51H77.5L81.21,67Zm-1.29-4.35q-1.05-3.39-1.18-3.83c-.09-.3-.15-.53-.19-.7q-.24.92-1.35,4.53Z"/><path class="cls-3" d="M82.53,67V56.53h2.22v8.63H89V67Z"/><path class="cls-3" d="M28.24,84.59l-.76-2.49H23.67l-.76,2.49H20.52l3.69-10.51h2.71l3.71,10.51ZM27,80.24q-1.05-3.39-1.18-3.83c-.09-.3-.15-.53-.19-.7q-.24.92-1.35,4.53Z"/><path class="cls-3" d="M36.4,75.82a2.26,2.26,0,0,0-1.94.94,4.38,4.38,0,0,0-.69,2.62q0,3.5,2.63,3.5a8.29,8.29,0,0,0,2.67-.55V84.2a7.43,7.43,0,0,1-2.88.54,4.39,4.39,0,0,1-3.49-1.39,5.86,5.86,0,0,1-1.21-4,6.49,6.49,0,0,1,.59-2.86,4.3,4.3,0,0,1,1.71-1.88A5.05,5.05,0,0,1,36.4,74a7.05,7.05,0,0,1,3.06.74l-.72,1.8A11.82,11.82,0,0,0,37.56,76,3.52,3.52,0,0,0,36.4,75.82Z"/><path class="cls-3" d="M45.33,84.59H43.11V76H40.27V74.12h7.9V76H45.33Z"/><path class="cls-3" d="M49.79,84.59V74.12H52V84.59Z"/><path class="cls-3" d="M64.14,79.34a5.68,5.68,0,0,1-1.29,4,4.78,4.78,0,0,1-3.7,1.4,4.78,4.78,0,0,1-3.69-1.4,5.7,5.7,0,0,1-1.29-4,5.63,5.63,0,0,1,1.29-4A4.83,4.83,0,0,1,59.17,74a4.77,4.77,0,0,1,3.69,1.39A5.7,5.7,0,0,1,64.14,79.34Zm-7.64,0A4.38,4.38,0,0,0,57.17,82a2.33,2.33,0,0,0,2,.89q2.66,0,2.66-3.53t-2.64-3.54a2.34,2.34,0,0,0-2,.89A4.35,4.35,0,0,0,56.5,79.34Z"/><path class="cls-3" d="M75.6,84.59H72.78l-4.55-7.92h-.06q.13,2.1.14,3v4.93h-2V74.12h2.8L73.66,82h.05q-.11-2-.11-2.88v-5h2Z"/><path class="cls-3" d="M84.41,81.68a2.71,2.71,0,0,1-1,2.23,4.44,4.44,0,0,1-2.84.82,6.66,6.66,0,0,1-3-.63V82a12.32,12.32,0,0,0,1.79.67,5.31,5.31,0,0,0,1.34.19,1.91,1.91,0,0,0,1.12-.28,1,1,0,0,0,.39-.83.92.92,0,0,0-.17-.55,2,2,0,0,0-.5-.46,13.16,13.16,0,0,0-1.36-.71,6.39,6.39,0,0,1-1.44-.87,3.25,3.25,0,0,1-.77-1A2.77,2.77,0,0,1,77.71,77a2.7,2.7,0,0,1,.94-2.18,3.91,3.91,0,0,1,2.6-.79,6.15,6.15,0,0,1,1.56.19,10.74,10.74,0,0,1,1.55.54l-.72,1.73A10.44,10.44,0,0,0,82.26,76a4.45,4.45,0,0,0-1.08-.14,1.43,1.43,0,0,0-1,.29,1,1,0,0,0-.34.77,1,1,0,0,0,.14.51,1.48,1.48,0,0,0,.43.42,13.28,13.28,0,0,0,1.41.73,5.59,5.59,0,0,1,2,1.41A2.74,2.74,0,0,1,84.41,81.68Z"/></g></g></svg>