<?xml version="1.0" encoding="utf-8"?>
<!-- Generator: Adobe Illustrator 23.0.1, SVG Export Plug-In . SVG Version: 6.00 Build 0)  -->
<svg version="1.1" id="Capa_1" xmlns="http://www.w3.org/2000/svg" xmlns:xlink="http://www.w3.org/1999/xlink" x="0px" y="0px"
	 viewBox="0 0 96.9 85.8" style="enable-background:new 0 0 96.9 85.8;" xml:space="preserve">
<style type="text/css">
	.st0{fill:none;stroke:#FFFFFF;stroke-width:3.75;stroke-linejoin:round;}
</style>
<circle class="st0" cx="48" cy="43.1" r="11.9"/>
<circle class="st0" cx="48" cy="43.1" r="25"/>
<path class="st0" d="M30.2,25.3c-3.9,3.9-6.6,9.2-7.2,15c0,0.4-0.1,0.8-0.1,1.2c0,0-12.4-9-7.1-23.5c0.5-1.5,2.4-2,3.6-1L30.2,25.3z
	"/>
<path class="st0" d="M49,18c-5.6-0.2-11.2,1.4-15.9,4.9c-0.3,0.2-0.7,0.5-1,0.8c0,0-1.8-15.3,12.5-21.2c1.4-0.6,3,0.4,3.2,2L49,18z"
	/>
<path class="st0" d="M66.7,26.4c-3.7-4.1-8.8-7-14.6-7.9c-0.4-0.1-0.8-0.1-1.2-0.2c0,0,9.6-12,23.8-6c1.4,0.6,1.8,2.5,0.8,3.6
	L66.7,26.4z"/>
<path class="st0" d="M73.1,44.7c0.3-5.6-1.1-11.2-4.5-16c-0.2-0.3-0.5-0.7-0.7-1c0,0,15.3-1.4,20.9,12.9c0.6,1.5-0.5,3-2,3.1
	L73.1,44.7z"/>
<path class="st0" d="M65.9,61.2c3.9-3.9,6.6-9.2,7.2-15c0-0.4,0.1-0.8,0.1-1.2c0,0,12.4,9,7.1,23.5c-0.5,1.5-2.4,2-3.6,1L65.9,61.2z
	"/>
<path class="st0" d="M47,68.5c5.6,0.2,11.2-1.4,15.9-4.9c0.3-0.2,0.7-0.5,1-0.8c0,0,1.8,15.3-12.5,21.2c-1.4,0.6-3-0.4-3.2-2
	L47,68.5z"/>
<path class="st0" d="M29.3,60.1c3.7,4.1,8.8,7,14.6,7.9c0.4,0.1,0.8,0.1,1.2,0.2c0,0-9.6,12-23.8,6c-1.4-0.6-1.8-2.5-0.8-3.6
	L29.3,60.1z"/>
<path class="st0" d="M22.9,41.8c-0.3,5.6,1.1,11.2,4.5,16c0.2,0.3,0.5,0.7,0.7,1c0,0-15.3,1.4-20.9-12.9c-0.6-1.5,0.5-3,2-3.1
	L22.9,41.8z"/>
</svg>
