<svg xmlns="http://www.w3.org/2000/svg" viewBox="0 0 89 89"><defs><style>.cls-1{fill:#2e73ba;}.cls-2{fill:#fff;}</style></defs><title>base_de_datos</title><g id="Capa_2" data-name="Capa 2"><g id="Capa_1-2" data-name="Capa 1"><circle class="cls-1" cx="44.5" cy="44.5" r="44.5"/><g id="Capa_2-2" data-name="Capa 2"><g id="Capa_1-2-2" data-name="Capa 1-2"><path class="cls-2" d="M69.45,41.73a1.19,1.19,0,0,0-1.19,1.19h0v19.8a5.16,5.16,0,0,1-5.15,5.15H35.39a5.16,5.16,0,0,1-5.15-5.15V61.53H53.61A7.53,7.53,0,0,0,61.13,54V34.2a1.19,1.19,0,0,0-2.38,0V54a5.16,5.16,0,0,1-5.15,5.15H25.89A5.16,5.16,0,0,1,20.74,54V26.28a5.16,5.16,0,0,1,5.15-5.15h19.8a1.19,1.19,0,0,0,0-2.38H25.89a7.53,7.53,0,0,0-7.52,7.52V54a7.53,7.53,0,0,0,7.52,7.52h2v1.19a7.53,7.53,0,0,0,7.52,7.52H63.11a7.53,7.53,0,0,0,7.52-7.52V42.92a1.19,1.19,0,0,0-1.19-1.19Z"/><path class="cls-2" d="M29.39,33.32A1.19,1.19,0,0,0,27.73,35l9.5,8.77a1.2,1.2,0,0,0,1.69,0l0,0L59.31,21.26a1.2,1.2,0,0,0-1.79-1.58L38,41.23Z"/></g></g></g></g></svg>