<svg xmlns="http://www.w3.org/2000/svg" viewBox="0 0 103.87 155.56"><defs><style>.cls-1{fill:#d9d9d9;}</style></defs><title>icono_desarrollo_de_los_trabajadores</title><g id="Capa_2" data-name="Capa 2"><g id="Capa_1-2" data-name="Capa 1"><rect class="cls-1" x="74.9" y="106.87" width="6" height="32.46"/><path class="cls-1" d="M64.67,155.56h-6v-6.49a3,3,0,0,1,1.41-2.54l26-16.23,3.18,5.09L64.67,150.73Z"/><rect class="cls-1" x="22.97" y="106.87" width="6" height="32.46"/><path class="cls-1" d="M100.38,145.82h-6v-13c0-1.77-.58-2.4-2-3.92l-.45-.5-9.69-9.69,4.24-4.24,9.74,9.74.11.12.48.53c1.66,1.81,3.53,3.87,3.53,8Z"/><path class="cls-1" d="M9.49,145.82h-6v-13c0-4.1,1.88-6.15,3.53-8l.48-.53.11-.12,9.74-9.74,4.24,4.24L11.46,128.92c-1.39,1.52-2,2.15-2,3.92Z"/><path class="cls-1" d="M45.2,155.56h-6v-4.83L14.64,135.38l3.18-5.09,26,16.23a3,3,0,0,1,1.41,2.54Z"/><path class="cls-1" d="M55.18,122.85H48.69a26.31,26.31,0,0,1-18.27-7.29C29.13,114.4,19.33,105.57,17,102c-2.83-4.25-3.75-13.89-3.75-17.89V64.67h6V84.15c0,4.83,1.2,12.25,2.74,14.57s8.44,8.79,12.49,12.41l.07.07a20.34,20.34,0,0,0,14.15,5.66h6.49a20.34,20.34,0,0,0,14.15-5.66l.07-.07c4-3.63,11-10.21,12.49-12.41S84.64,89,84.64,84.15V64.67h6V84.15c0,4-.92,13.64-3.75,17.89-2.35,3.53-12.15,12.36-13.44,13.52A26.31,26.31,0,0,1,55.18,122.85Z"/><path class="cls-1" d="M64.67,32.21h-6V6H45.2V32.21h-6V3a3,3,0,0,1,3-3H61.67a3,3,0,0,1,3,3Z"/><rect class="cls-1" y="58.43" width="103.87" height="6"/><path class="cls-1" d="M103.62,54.93h-6V50.3l-4.83-2.42a3,3,0,0,1-1.66-2.68V38.71c0-13.62-7.87-21.53-16.72-27.19v11h-6V6.25a3,3,0,0,1,4.46-2.62c11.29,6.3,24.26,16,24.26,35.08v4.64L102,45.76a3,3,0,0,1,1.66,2.68Z"/><path class="cls-1" d="M6.25,54.93h-6V48.44A3,3,0,0,1,1.9,45.76l4.83-2.42V38.71c0-19.4,13-28.94,24.29-35.09a3,3,0,0,1,4.43,2.64V22.48h-6v-11c-11.67,7.4-16.72,15.75-16.72,27.23V45.2a3,3,0,0,1-1.66,2.68L6.25,50.3Z"/></g></g></svg>