<svg xmlns="http://www.w3.org/2000/svg" viewBox="0 0 165.56 165.56"><defs><style>.cls-1{fill:#d9d9d9;}.cls-2{fill:#68c460;}.cls-3{fill:#fff;}</style></defs><title>design-hover</title><g id="Capa_2" data-name="Capa 2"><g id="Capa_2-2" data-name="Capa 2"><circle class="cls-1" cx="82.78" cy="82.78" r="82.78"/><circle class="cls-2" cx="82.78" cy="82.78" r="76.63"/><path class="cls-3" d="M59.76,87.69a5,5,0,0,1-1.34,3.78,5.31,5.31,0,0,1-3.87,1.31H51.78v-10h3.06a4.49,4.49,0,0,1,4.92,4.9Zm-1.23,0a4,4,0,0,0-1-2.95,3.93,3.93,0,0,0-2.92-1H52.95v8h1.42a4.3,4.3,0,0,0,3.12-1A4,4,0,0,0,58.53,87.73Z"/><path class="cls-3" d="M64.84,92.92a3.44,3.44,0,0,1-2.62-1,3.92,3.92,0,0,1-1-2.81,4.35,4.35,0,0,1,.89-2.88,3,3,0,0,1,2.4-1.07,2.83,2.83,0,0,1,2.23.93,3.55,3.55,0,0,1,.82,2.44v.72H62.44a3,3,0,0,0,.67,2,2.3,2.3,0,0,0,1.78.68,6,6,0,0,0,2.39-.51v1a6,6,0,0,1-1.14.37A6.33,6.33,0,0,1,64.84,92.92Zm-.31-6.82a1.86,1.86,0,0,0-1.44.59,2.71,2.71,0,0,0-.63,1.63h3.92a2.49,2.49,0,0,0-.48-1.64A1.68,1.68,0,0,0,64.54,86.1Z"/><path class="cls-3" d="M74.23,90.74a1.88,1.88,0,0,1-.78,1.61,3.67,3.67,0,0,1-2.19.57,4.76,4.76,0,0,1-2.32-.47V91.39a5.58,5.58,0,0,0,1.16.43,4.85,4.85,0,0,0,1.19.16,2.7,2.7,0,0,0,1.37-.28,1,1,0,0,0,.1-1.61,6,6,0,0,0-1.48-.73,8.09,8.09,0,0,1-1.49-.68,2.06,2.06,0,0,1-.66-.66,1.73,1.73,0,0,1-.21-.88,1.68,1.68,0,0,1,.75-1.45,3.48,3.48,0,0,1,2-.53,6,6,0,0,1,2.37.49l-.4.92a5.44,5.44,0,0,0-2-.46,2.35,2.35,0,0,0-1.22.25.78.78,0,0,0-.41.7.84.84,0,0,0,.15.51,1.51,1.51,0,0,0,.5.4,10.91,10.91,0,0,0,1.31.55,4.9,4.9,0,0,1,1.8,1A1.73,1.73,0,0,1,74.23,90.74Z"/><path class="cls-3" d="M75.84,83.26a.75.75,0,0,1,.19-.57.71.71,0,0,1,1,0,.74.74,0,0,1,.2.57.76.76,0,0,1-.2.57.7.7,0,0,1-1,0A.77.77,0,0,1,75.84,83.26Zm1.23,9.52H75.93V85.29h1.13Z"/><path class="cls-3" d="M85.47,85.29V86l-1.39.16a2.44,2.44,0,0,1,.49,1.5,2.22,2.22,0,0,1-.75,1.76,3,3,0,0,1-2.06.66,3.47,3.47,0,0,1-.63-.05,1.12,1.12,0,0,0-.72,1,.49.49,0,0,0,.25.46,1.85,1.85,0,0,0,.87.15h1.33a3,3,0,0,1,1.87.51,1.78,1.78,0,0,1,.65,1.49,2.13,2.13,0,0,1-1,1.9,5.35,5.35,0,0,1-2.91.65,4,4,0,0,1-2.27-.55,1.77,1.77,0,0,1-.8-1.54,1.73,1.73,0,0,1,.44-1.18,2.23,2.23,0,0,1,1.23-.68,1.18,1.18,0,0,1-.48-.4,1.06,1.06,0,0,1-.2-.64,1.21,1.21,0,0,1,.22-.72,2.3,2.3,0,0,1,.69-.59,2,2,0,0,1-.95-.81A2.39,2.39,0,0,1,79,87.71a2.43,2.43,0,0,1,.74-1.9,3,3,0,0,1,2.09-.67,3.82,3.82,0,0,1,1.06.14Zm-6,8.75A1,1,0,0,0,80,95a2.83,2.83,0,0,0,1.47.31,4.11,4.11,0,0,0,2.12-.43,1.31,1.31,0,0,0,.69-1.16.92.92,0,0,0-.38-.84,2.94,2.94,0,0,0-1.42-.24H81.13a1.79,1.79,0,0,0-1.2.37A1.32,1.32,0,0,0,79.49,94Zm.62-6.35a1.53,1.53,0,0,0,.44,1.19,1.78,1.78,0,0,0,1.24.4,1.45,1.45,0,0,0,1.66-1.61A1.49,1.49,0,0,0,81.77,86a1.66,1.66,0,0,0-1.23.43A1.73,1.73,0,0,0,80.11,87.69Z"/><path class="cls-3" d="M92,92.78V87.93a2,2,0,0,0-.42-1.37,1.7,1.7,0,0,0-1.31-.45,2.15,2.15,0,0,0-1.72.64,3.21,3.21,0,0,0-.55,2.1v3.93H86.86V85.29h.92l.18,1H88a2.31,2.31,0,0,1,1-.86,3.17,3.17,0,0,1,1.4-.3,2.85,2.85,0,0,1,2,.65,2.78,2.78,0,0,1,.68,2.09v4.89Z"/><path class="cls-3" d="M103.42,92.78l-.23-1.07h-.05a3.14,3.14,0,0,1-1.12,1,3.39,3.39,0,0,1-1.39.25,2.5,2.5,0,0,1-1.75-.57,2.09,2.09,0,0,1-.63-1.63q0-2.27,3.63-2.38l1.27,0v-.46a1.89,1.89,0,0,0-.38-1.3,1.55,1.55,0,0,0-1.21-.42,4.94,4.94,0,0,0-2.12.57l-.35-.87a5.35,5.35,0,0,1,1.21-.47,5.23,5.23,0,0,1,1.32-.17,2.86,2.86,0,0,1,2,.59,2.49,2.49,0,0,1,.65,1.91v5.11Zm-2.56-.8a2.31,2.31,0,0,0,1.67-.58,2.15,2.15,0,0,0,.6-1.63v-.68l-1.13,0a4.14,4.14,0,0,0-2,.42,1.27,1.27,0,0,0-.6,1.16,1.17,1.17,0,0,0,.37.94A1.55,1.55,0,0,0,100.86,92Z"/><path class="cls-3" d="M111.59,92.78V87.93a2,2,0,0,0-.42-1.37,1.7,1.7,0,0,0-1.31-.45,2.15,2.15,0,0,0-1.72.64,3.21,3.21,0,0,0-.55,2.1v3.93h-1.13V85.29h.92l.18,1h.05a2.31,2.31,0,0,1,1-.86,3.17,3.17,0,0,1,1.4-.3,2.85,2.85,0,0,1,2,.65,2.78,2.78,0,0,1,.68,2.09v4.89Z"/><path class="cls-3" d="M120,91.77H120a2.67,2.67,0,0,1-2.35,1.14,2.78,2.78,0,0,1-2.29-1,4.42,4.42,0,0,1-.82-2.86,4.5,4.5,0,0,1,.82-2.88,2.76,2.76,0,0,1,2.28-1,2.72,2.72,0,0,1,2.34,1.11H120l0-.54,0-.53v-3h1.13V92.78h-.92Zm-2.27.19a2.07,2.07,0,0,0,1.69-.63,3.2,3.2,0,0,0,.52-2v-.24a3.76,3.76,0,0,0-.53-2.27,2,2,0,0,0-1.69-.68,1.74,1.74,0,0,0-1.53.78,3.85,3.85,0,0,0-.53,2.19,3.7,3.7,0,0,0,.53,2.17A1.78,1.78,0,0,0,117.74,92Z"/><path class="cls-3" d="M32,109.72a3.44,3.44,0,0,1-2.62-1,3.92,3.92,0,0,1-1-2.81,4.35,4.35,0,0,1,.89-2.88,3,3,0,0,1,2.4-1.07,2.83,2.83,0,0,1,2.23.93,3.55,3.55,0,0,1,.82,2.44V106H29.64a3,3,0,0,0,.67,2,2.3,2.3,0,0,0,1.78.68,6,6,0,0,0,2.39-.51v1a6,6,0,0,1-1.14.37A6.33,6.33,0,0,1,32,109.72Zm-.31-6.82a1.86,1.86,0,0,0-1.44.59,2.71,2.71,0,0,0-.63,1.63h3.92a2.49,2.49,0,0,0-.48-1.64A1.68,1.68,0,0,0,31.74,102.9Z"/><path class="cls-3" d="M38.4,105.74l-2.6-3.66h1.29l2,2.87,2-2.87h1.28l-2.6,3.66,2.74,3.83H41.16l-2.1-3-2.12,3H35.66Z"/><path class="cls-3" d="M47,109.72a3.44,3.44,0,0,1-2.62-1,3.92,3.92,0,0,1-1-2.81,4.35,4.35,0,0,1,.89-2.88,3,3,0,0,1,2.4-1.07,2.83,2.83,0,0,1,2.23.93,3.55,3.55,0,0,1,.82,2.44V106H44.55a3,3,0,0,0,.67,2,2.3,2.3,0,0,0,1.78.68,6,6,0,0,0,2.39-.51v1a6,6,0,0,1-1.14.37A6.33,6.33,0,0,1,47,109.72Zm-.31-6.82a1.86,1.86,0,0,0-1.44.59,2.71,2.71,0,0,0-.63,1.63h3.92a2.49,2.49,0,0,0-.48-1.64A1.68,1.68,0,0,0,46.65,102.9Z"/><path class="cls-3" d="M54.5,109.72a3.2,3.2,0,0,1-2.52-1,4.12,4.12,0,0,1-.89-2.83A4.25,4.25,0,0,1,52,103a3.26,3.26,0,0,1,2.58-1,5.14,5.14,0,0,1,1.08.12,3.55,3.55,0,0,1,.85.27l-.35,1a5.36,5.36,0,0,0-.82-.25,3.7,3.7,0,0,0-.79-.1q-2.28,0-2.28,2.91a3.46,3.46,0,0,0,.56,2.12,1.94,1.94,0,0,0,1.65.74,5.05,5.05,0,0,0,1.92-.4v1A4.09,4.09,0,0,1,54.5,109.72Z"/><path class="cls-3" d="M59.1,102.09v4.86a2,2,0,0,0,.42,1.37,1.7,1.7,0,0,0,1.31.45,2.13,2.13,0,0,0,1.72-.64,3.24,3.24,0,0,0,.54-2.1v-3.94h1.13v7.49h-.94l-.16-1h-.06a2.26,2.26,0,0,1-1,.85,3.24,3.24,0,0,1-1.41.29,2.87,2.87,0,0,1-2-.65,2.77,2.77,0,0,1-.68-2.08v-4.9Z"/><path class="cls-3" d="M68.9,108.78a3.75,3.75,0,0,0,.58,0l.44-.09v.87a2,2,0,0,1-.54.15,4.06,4.06,0,0,1-.65.06q-2.17,0-2.17-2.29V103H65.49v-.55l1.07-.47.48-1.6h.66v1.74h2.17V103H67.7v4.41a1.52,1.52,0,0,0,.32,1A1.12,1.12,0,0,0,68.9,108.78Z"/><path class="cls-3" d="M71.19,100.06a.75.75,0,0,1,.19-.57.71.71,0,0,1,1,0,.74.74,0,0,1,.2.57.76.76,0,0,1-.2.57.7.7,0,0,1-1,0A.77.77,0,0,1,71.19,100.06Zm1.23,9.52H71.28v-7.49h1.13Z"/><path class="cls-3" d="M81.15,105.83a4.13,4.13,0,0,1-.92,2.86,3.25,3.25,0,0,1-2.55,1,3.38,3.38,0,0,1-1.78-.47,3.11,3.11,0,0,1-1.2-1.35,4.72,4.72,0,0,1-.42-2.06,4.13,4.13,0,0,1,.92-2.85,3.24,3.24,0,0,1,2.54-1,3.17,3.17,0,0,1,2.5,1A4.12,4.12,0,0,1,81.15,105.83Zm-5.71,0A3.56,3.56,0,0,0,76,108a2.28,2.28,0,0,0,3.38,0,3.53,3.53,0,0,0,.58-2.19,3.48,3.48,0,0,0-.58-2.17,2,2,0,0,0-1.71-.74,2,2,0,0,0-1.68.73A3.52,3.52,0,0,0,75.44,105.83Z"/><path class="cls-3" d="M88.13,109.58v-4.85a2,2,0,0,0-.42-1.37,1.7,1.7,0,0,0-1.31-.45,2.15,2.15,0,0,0-1.72.64,3.21,3.21,0,0,0-.55,2.1v3.93H83v-7.49h.92l.18,1h.05a2.31,2.31,0,0,1,1-.86,3.17,3.17,0,0,1,1.4-.3,2.85,2.85,0,0,1,2,.65,2.78,2.78,0,0,1,.68,2.09v4.89Z"/><path class="cls-3" d="M101.42,105.83a4.13,4.13,0,0,1-.92,2.86,3.25,3.25,0,0,1-2.55,1,3.38,3.38,0,0,1-1.78-.47,3.11,3.11,0,0,1-1.2-1.35,4.72,4.72,0,0,1-.42-2.06,4.13,4.13,0,0,1,.92-2.85A3.24,3.24,0,0,1,98,102a3.17,3.17,0,0,1,2.5,1A4.12,4.12,0,0,1,101.42,105.83Zm-5.71,0a3.56,3.56,0,0,0,.57,2.19,2.28,2.28,0,0,0,3.38,0,3.53,3.53,0,0,0,.58-2.19,3.48,3.48,0,0,0-.58-2.17,2,2,0,0,0-1.71-.74,2,2,0,0,0-1.68.73A3.52,3.52,0,0,0,95.71,105.83Z"/><path class="cls-3" d="M106.64,103h-1.91v6.61H103.6V103h-1.34v-.51l1.34-.41v-.42q0-2.76,2.41-2.76a5,5,0,0,1,1.39.24l-.29.91A3.75,3.75,0,0,0,106,99.8a1.09,1.09,0,0,0-1,.43,2.38,2.38,0,0,0-.31,1.37v.49h1.91Z"/><path class="cls-3" d="M114.74,103h-1.91v6.61H111.7V103h-1.34v-.51l1.34-.41v-.42q0-2.76,2.41-2.76a5,5,0,0,1,1.39.24l-.29.91a3.75,3.75,0,0,0-1.12-.21,1.09,1.09,0,0,0-1,.43,2.38,2.38,0,0,0-.31,1.37v.49h1.91Z"/><path class="cls-3" d="M119.39,102a4.44,4.44,0,0,1,.9.08l-.16,1.05a3.86,3.86,0,0,0-.82-.1,2,2,0,0,0-1.55.74,2.69,2.69,0,0,0-.65,1.84v4H116v-7.49h.94l.13,1.39h.05a3.31,3.31,0,0,1,1-1.13A2.26,2.26,0,0,1,119.39,102Z"/><path class="cls-3" d="M126.15,109.58l-.23-1.07h-.05a3.14,3.14,0,0,1-1.12,1,3.39,3.39,0,0,1-1.39.25,2.5,2.5,0,0,1-1.75-.57,2.09,2.09,0,0,1-.63-1.63q0-2.27,3.63-2.38l1.27,0v-.46a1.89,1.89,0,0,0-.38-1.3,1.55,1.55,0,0,0-1.21-.42,4.94,4.94,0,0,0-2.12.57l-.35-.87a5.35,5.35,0,0,1,1.21-.47,5.23,5.23,0,0,1,1.32-.17,2.86,2.86,0,0,1,2,.59,2.49,2.49,0,0,1,.65,1.91v5.11Zm-2.56-.8a2.31,2.31,0,0,0,1.67-.58,2.15,2.15,0,0,0,.6-1.63v-.68l-1.13,0a4.14,4.14,0,0,0-2,.42,1.27,1.27,0,0,0-.6,1.16,1.17,1.17,0,0,0,.37.94A1.55,1.55,0,0,0,123.59,108.78Z"/><path class="cls-3" d="M130.26,102.09v4.86a2,2,0,0,0,.42,1.37,1.7,1.7,0,0,0,1.31.45,2.13,2.13,0,0,0,1.72-.64,3.24,3.24,0,0,0,.54-2.1v-3.94h1.13v7.49h-.94l-.16-1h-.06a2.26,2.26,0,0,1-1,.85,3.24,3.24,0,0,1-1.41.29,2.87,2.87,0,0,1-2-.65,2.77,2.77,0,0,1-.68-2.08v-4.9Z"/><path class="cls-3" d="M142.75,108.57h-.06a2.67,2.67,0,0,1-2.35,1.14,2.78,2.78,0,0,1-2.29-1,4.42,4.42,0,0,1-.82-2.86A4.5,4.5,0,0,1,138,103a2.76,2.76,0,0,1,2.28-1,2.72,2.72,0,0,1,2.34,1.11h.09l0-.54,0-.53v-3h1.13v10.64h-.92Zm-2.27.19a2.07,2.07,0,0,0,1.69-.63,3.2,3.2,0,0,0,.52-2v-.24a3.76,3.76,0,0,0-.53-2.27,2,2,0,0,0-1.69-.68,1.74,1.74,0,0,0-1.53.78,3.85,3.85,0,0,0-.53,2.19,3.7,3.7,0,0,0,.53,2.17A1.78,1.78,0,0,0,140.48,108.77Z"/><path class="cls-3" d="M51.83,118.75a4.44,4.44,0,0,1,.9.08l-.16,1.05a3.86,3.86,0,0,0-.82-.1,2,2,0,0,0-1.55.74,2.69,2.69,0,0,0-.65,1.84v4H48.41v-7.49h.94l.13,1.39h.05a3.31,3.31,0,0,1,1-1.13A2.26,2.26,0,0,1,51.83,118.75Z"/><path class="cls-3" d="M53.89,116.86a.75.75,0,0,1,.19-.57.71.71,0,0,1,1,0,.74.74,0,0,1,.2.57.76.76,0,0,1-.2.57.7.7,0,0,1-1,0A.77.77,0,0,1,53.89,116.86Zm1.23,9.52H54v-7.49h1.13Z"/><path class="cls-3" d="M62.22,124.34a1.88,1.88,0,0,1-.78,1.61,3.67,3.67,0,0,1-2.19.57,4.76,4.76,0,0,1-2.32-.47V125a5.58,5.58,0,0,0,1.16.43,4.85,4.85,0,0,0,1.19.16,2.7,2.7,0,0,0,1.37-.28,1,1,0,0,0,.1-1.61,6,6,0,0,0-1.48-.73,8.09,8.09,0,0,1-1.49-.68,2.06,2.06,0,0,1-.66-.66,1.73,1.73,0,0,1-.21-.88,1.68,1.68,0,0,1,.75-1.45,3.48,3.48,0,0,1,2-.53,6,6,0,0,1,2.37.49l-.4.92a5.44,5.44,0,0,0-2-.46,2.35,2.35,0,0,0-1.22.25.78.78,0,0,0-.41.7.84.84,0,0,0,.15.51,1.51,1.51,0,0,0,.5.4,10.91,10.91,0,0,0,1.31.55,4.9,4.9,0,0,1,1.8,1A1.73,1.73,0,0,1,62.22,124.34Z"/><path class="cls-3" d="M65,122.54a13.29,13.29,0,0,1,.9-1.09l2.42-2.56h1.35l-3,3.19,3.25,4.3H68.54l-2.65-3.54-.85.74v2.8H63.92V115.74H65v5.64q0,.38-.05,1.16Z"/><path class="cls-3" d="M77.62,126.52a3.2,3.2,0,0,1-2.52-1,4.12,4.12,0,0,1-.89-2.83,4.25,4.25,0,0,1,.91-2.91,3.26,3.26,0,0,1,2.58-1,5.14,5.14,0,0,1,1.08.12,3.55,3.55,0,0,1,.85.27l-.35,1a5.36,5.36,0,0,0-.82-.25,3.7,3.7,0,0,0-.79-.1q-2.28,0-2.28,2.91a3.46,3.46,0,0,0,.56,2.12,1.94,1.94,0,0,0,1.65.74,5.05,5.05,0,0,0,1.92-.4v1A4.09,4.09,0,0,1,77.62,126.52Z"/><path class="cls-3" d="M87.62,122.63a4.13,4.13,0,0,1-.92,2.86,3.25,3.25,0,0,1-2.55,1,3.38,3.38,0,0,1-1.78-.47,3.11,3.11,0,0,1-1.2-1.35,4.72,4.72,0,0,1-.42-2.06,4.13,4.13,0,0,1,.92-2.85,3.24,3.24,0,0,1,2.54-1,3.17,3.17,0,0,1,2.5,1A4.12,4.12,0,0,1,87.62,122.63Zm-5.71,0a3.56,3.56,0,0,0,.57,2.19,2.28,2.28,0,0,0,3.38,0,3.53,3.53,0,0,0,.58-2.19,3.48,3.48,0,0,0-.58-2.17,2,2,0,0,0-1.71-.74,2,2,0,0,0-1.68.73A3.52,3.52,0,0,0,81.91,122.63Z"/><path class="cls-3" d="M94.6,126.38v-4.85a2,2,0,0,0-.42-1.37,1.7,1.7,0,0,0-1.31-.45,2.15,2.15,0,0,0-1.72.64,3.21,3.21,0,0,0-.55,2.1v3.93H89.47v-7.49h.92l.18,1h.05a2.31,2.31,0,0,1,1-.86,3.17,3.17,0,0,1,1.4-.3,2.85,2.85,0,0,1,2,.65,2.78,2.78,0,0,1,.68,2.09v4.89Z"/><path class="cls-3" d="M100.34,125.58a3.75,3.75,0,0,0,.58,0l.44-.09v.87a2,2,0,0,1-.54.15,4.06,4.06,0,0,1-.65.06q-2.17,0-2.17-2.29v-4.46H96.93v-.55l1.07-.47.48-1.6h.66v1.74h2.17v.88H99.14v4.41a1.52,1.52,0,0,0,.32,1A1.12,1.12,0,0,0,100.34,125.58Z"/><path class="cls-3" d="M106.14,118.75a4.44,4.44,0,0,1,.9.08l-.16,1.05a3.86,3.86,0,0,0-.82-.1,2,2,0,0,0-1.55.74,2.69,2.69,0,0,0-.65,1.84v4h-1.13v-7.49h.94l.13,1.39h.05a3.31,3.31,0,0,1,1-1.13A2.26,2.26,0,0,1,106.14,118.75Z"/><path class="cls-3" d="M114.77,122.63a4.13,4.13,0,0,1-.92,2.86,3.25,3.25,0,0,1-2.55,1,3.38,3.38,0,0,1-1.78-.47,3.11,3.11,0,0,1-1.2-1.35,4.72,4.72,0,0,1-.42-2.06,4.13,4.13,0,0,1,.92-2.85,3.24,3.24,0,0,1,2.54-1,3.17,3.17,0,0,1,2.5,1A4.12,4.12,0,0,1,114.77,122.63Zm-5.71,0a3.56,3.56,0,0,0,.57,2.19,2.28,2.28,0,0,0,3.38,0,3.53,3.53,0,0,0,.58-2.19,3.48,3.48,0,0,0-.58-2.17,2,2,0,0,0-1.71-.74,2,2,0,0,0-1.68.73A3.52,3.52,0,0,0,109.06,122.63Z"/><path class="cls-3" d="M117.75,126.38h-1.13V115.74h1.13Z"/><path class="cls-3" d="M124.85,124.34a1.88,1.88,0,0,1-.78,1.61,3.67,3.67,0,0,1-2.19.57,4.76,4.76,0,0,1-2.32-.47V125a5.58,5.58,0,0,0,1.16.43,4.85,4.85,0,0,0,1.19.16,2.7,2.7,0,0,0,1.37-.28,1,1,0,0,0,.1-1.61,6,6,0,0,0-1.48-.73,8.09,8.09,0,0,1-1.49-.68,2.06,2.06,0,0,1-.66-.66,1.73,1.73,0,0,1-.21-.88,1.68,1.68,0,0,1,.75-1.45,3.48,3.48,0,0,1,2-.53,6,6,0,0,1,2.37.49l-.4.92a5.44,5.44,0,0,0-2-.46A2.35,2.35,0,0,0,121,120a.78.78,0,0,0-.41.7.84.84,0,0,0,.15.51,1.51,1.51,0,0,0,.5.4,10.91,10.91,0,0,0,1.31.55,4.9,4.9,0,0,1,1.8,1A1.73,1.73,0,0,1,124.85,124.34Z"/><path class="cls-3" d="M89.35,37.44a5.4,5.4,0,1,0,5.39,5.4A5.4,5.4,0,0,0,89.35,37.44Zm0,8.69a3.29,3.29,0,1,1,3.29-3.29A3.3,3.3,0,0,1,89.35,46.13Z"/><path class="cls-3" d="M70.33,49a5.4,5.4,0,1,0,5.39,5.39A5.4,5.4,0,0,0,70.33,49Zm0,8.69a3.29,3.29,0,1,1,3.29-3.29A3.3,3.3,0,0,1,70.33,57.72Z"/><path class="cls-3" d="M89.35,60.62A5.4,5.4,0,1,0,94.74,66,5.4,5.4,0,0,0,89.35,60.62Zm0,8.69A3.29,3.29,0,1,1,92.64,66,3.3,3.3,0,0,1,89.35,69.3Z"/><path class="cls-3" d="M85.37,44.38l-.25,0a1,1,0,0,0-.55.16l-10.9,6.75a1.05,1.05,0,0,0-.47.65,1,1,0,0,0,.13.79,1.06,1.06,0,0,0,.66.46,1,1,0,0,0,.79-.12l10.9-6.75a1.05,1.05,0,0,0-.31-1.92Z"/><path class="cls-3" d="M74.33,56.77a1,1,0,0,0,.34,1.45L84.09,64a1.06,1.06,0,0,0,.8.12,1,1,0,0,0,.65-.46h0a1.05,1.05,0,0,0-.34-1.45l-9.41-5.79a1,1,0,0,0-.55-.16,1,1,0,0,0-.24,0A1,1,0,0,0,74.33,56.77Z"/><path class="cls-3" d="M90.07,47.19a1,1,0,0,0-.74-.31h0a1,1,0,0,0-1,1.05l0,13a1.07,1.07,0,0,0,1,1h0a1.05,1.05,0,0,0,1-1.05l0-13a1,1,0,0,0-.16-.55A1,1,0,0,0,90.07,47.19Z"/></g></g></svg>