<svg xmlns="http://www.w3.org/2000/svg" viewBox="0 0 165.56 165.56"><defs><style>.cls-1{fill:#d9d9d9;}.cls-2{fill:#2e73ba;}.cls-3{fill:#fff;}</style></defs><title>diseño</title><g id="Capa_2" data-name="Capa 2"><g id="Capa_2-2" data-name="Capa 2"><circle class="cls-1" cx="82.78" cy="82.78" r="82.78"/><circle class="cls-2" cx="82.78" cy="82.78" r="76.63"/><path class="cls-3" d="M36.18,87.69a5,5,0,0,1-1.34,3.78A5.31,5.31,0,0,1,31,92.78H28.2v-10h3.06a4.49,4.49,0,0,1,4.92,4.9Zm-1.23,0a4,4,0,0,0-1-2.95,3.93,3.93,0,0,0-2.92-1H29.37v8h1.42a4.3,4.3,0,0,0,3.12-1A4,4,0,0,0,35,87.73Z"/><path class="cls-3" d="M38,83.26a.75.75,0,0,1,.19-.57.71.71,0,0,1,1,0,.74.74,0,0,1,.2.57.76.76,0,0,1-.2.57.7.7,0,0,1-1,0A.77.77,0,0,1,38,83.26Zm1.23,9.52H38.1V85.29h1.13Z"/><path class="cls-3" d="M46.33,90.74a1.88,1.88,0,0,1-.78,1.61,3.67,3.67,0,0,1-2.19.57A4.76,4.76,0,0,1,41,92.44V91.39a5.58,5.58,0,0,0,1.16.43,4.85,4.85,0,0,0,1.19.16,2.7,2.7,0,0,0,1.37-.28,1,1,0,0,0,.1-1.61,6,6,0,0,0-1.48-.73,8.09,8.09,0,0,1-1.49-.68,2.06,2.06,0,0,1-.66-.66,1.73,1.73,0,0,1-.21-.88,1.68,1.68,0,0,1,.75-1.45,3.48,3.48,0,0,1,2-.53,6,6,0,0,1,2.37.49l-.4.92a5.44,5.44,0,0,0-2-.46,2.35,2.35,0,0,0-1.22.25.78.78,0,0,0-.41.7.84.84,0,0,0,.15.51,1.51,1.51,0,0,0,.5.4,10.91,10.91,0,0,0,1.31.55,4.9,4.9,0,0,1,1.8,1A1.73,1.73,0,0,1,46.33,90.74Z"/><path class="cls-3" d="M51.2,92.92a3.44,3.44,0,0,1-2.62-1,3.92,3.92,0,0,1-1-2.81,4.35,4.35,0,0,1,.89-2.88,3,3,0,0,1,2.4-1.07,2.83,2.83,0,0,1,2.23.93A3.55,3.55,0,0,1,54,88.52v.72H48.8a3,3,0,0,0,.67,2,2.3,2.3,0,0,0,1.78.68,6,6,0,0,0,2.39-.51v1a6,6,0,0,1-1.14.37A6.33,6.33,0,0,1,51.2,92.92ZM50.9,86.1a1.86,1.86,0,0,0-1.44.59,2.71,2.71,0,0,0-.63,1.63h3.92a2.49,2.49,0,0,0-.48-1.64A1.68,1.68,0,0,0,50.9,86.1Z"/><path class="cls-3" d="M60.88,92.78V87.93a2,2,0,0,0-.42-1.37,1.7,1.7,0,0,0-1.31-.45,2.15,2.15,0,0,0-1.72.64,3.21,3.21,0,0,0-.55,2.1v3.93H55.75V85.29h.92l.18,1h.05a2.31,2.31,0,0,1,1-.86,3.17,3.17,0,0,1,1.4-.3,2.85,2.85,0,0,1,2,.65A2.78,2.78,0,0,1,62,87.89v4.89ZM60,84.28a1.38,1.38,0,0,1-.57-.13c-.19-.08-.37-.18-.55-.28l-.52-.28a1.05,1.05,0,0,0-.48-.13.64.64,0,0,0-.52.21,1.47,1.47,0,0,0-.27.62h-.67a2.36,2.36,0,0,1,.48-1.3,1.26,1.26,0,0,1,1-.47,1.53,1.53,0,0,1,.61.13,5.27,5.27,0,0,1,.56.28l.51.28a1,1,0,0,0,.46.13.61.61,0,0,0,.5-.2,1.61,1.61,0,0,0,.27-.63h.68a2.41,2.41,0,0,1-.47,1.3A1.27,1.27,0,0,1,60,84.28Z"/><path class="cls-3" d="M70.67,89a4.13,4.13,0,0,1-.92,2.86,3.25,3.25,0,0,1-2.55,1,3.38,3.38,0,0,1-1.78-.47,3.11,3.11,0,0,1-1.2-1.35A4.72,4.72,0,0,1,63.79,89a4.13,4.13,0,0,1,.92-2.85,3.24,3.24,0,0,1,2.54-1,3.17,3.17,0,0,1,2.5,1A4.12,4.12,0,0,1,70.67,89ZM65,89a3.56,3.56,0,0,0,.57,2.19,2.28,2.28,0,0,0,3.38,0A3.53,3.53,0,0,0,69.5,89a3.48,3.48,0,0,0-.58-2.17,2,2,0,0,0-1.71-.74,2,2,0,0,0-1.68.73A3.52,3.52,0,0,0,65,89Z"/><path class="cls-3" d="M74.83,85.29H76l1.64,4.27a16.28,16.28,0,0,1,.67,2.11h.05q.09-.35.37-1.19t1.86-5.19h1.22l-3.22,8.53a4.26,4.26,0,0,1-1.12,1.79,2.38,2.38,0,0,1-1.57.53,4.58,4.58,0,0,1-1-.12v-.91a4,4,0,0,0,.84.08,1.73,1.73,0,0,0,1.67-1.31l.42-1.07Z"/><path class="cls-3" d="M89.59,92.92a3.44,3.44,0,0,1-2.62-1,3.92,3.92,0,0,1-1-2.81,4.35,4.35,0,0,1,.89-2.88,3,3,0,0,1,2.4-1.07,2.83,2.83,0,0,1,2.23.93,3.55,3.55,0,0,1,.82,2.44v.72H87.19a3,3,0,0,0,.67,2,2.3,2.3,0,0,0,1.78.68A6,6,0,0,0,92,91.42v1a6,6,0,0,1-1.14.37A6.33,6.33,0,0,1,89.59,92.92Zm-.31-6.82a1.86,1.86,0,0,0-1.44.59,2.71,2.71,0,0,0-.63,1.63h3.92a2.49,2.49,0,0,0-.48-1.64A1.68,1.68,0,0,0,89.29,86.1Z"/><path class="cls-3" d="M93.23,96.14A2.73,2.73,0,0,1,92.18,96V95a3.34,3.34,0,0,0,.93.14,1,1,0,0,0,.78-.29,1.33,1.33,0,0,0,.25-.88V85.29h1.13v8.64Q95.28,96.14,93.23,96.14ZM94,83.26a.75.75,0,0,1,.19-.57.71.71,0,0,1,1,0,.74.74,0,0,1,.2.57.76.76,0,0,1-.2.57.7.7,0,0,1-1,0A.77.77,0,0,1,94,83.26Z"/><path class="cls-3" d="M100.71,92.92a3.44,3.44,0,0,1-2.62-1,3.92,3.92,0,0,1-1-2.81A4.35,4.35,0,0,1,98,86.22a3,3,0,0,1,2.4-1.07,2.83,2.83,0,0,1,2.23.93,3.55,3.55,0,0,1,.82,2.44v.72H98.3a3,3,0,0,0,.67,2,2.3,2.3,0,0,0,1.78.68,6,6,0,0,0,2.39-.51v1a6,6,0,0,1-1.14.37A6.33,6.33,0,0,1,100.71,92.92Zm-.31-6.82a1.86,1.86,0,0,0-1.44.59,2.71,2.71,0,0,0-.63,1.63h3.92a2.49,2.49,0,0,0-.48-1.64A1.68,1.68,0,0,0,100.4,86.1Z"/><path class="cls-3" d="M108.25,92.92a3.2,3.2,0,0,1-2.52-1,4.12,4.12,0,0,1-.89-2.83,4.25,4.25,0,0,1,.91-2.91,3.26,3.26,0,0,1,2.58-1,5.14,5.14,0,0,1,1.08.12,3.55,3.55,0,0,1,.85.27l-.35,1a5.36,5.36,0,0,0-.82-.25,3.7,3.7,0,0,0-.79-.1q-2.28,0-2.28,2.91a3.46,3.46,0,0,0,.56,2.12,1.94,1.94,0,0,0,1.65.74,5.05,5.05,0,0,0,1.92-.4v1A4.09,4.09,0,0,1,108.25,92.92Z"/><path class="cls-3" d="M112.85,85.29v4.86a2,2,0,0,0,.42,1.37,1.7,1.7,0,0,0,1.31.45,2.13,2.13,0,0,0,1.72-.64,3.24,3.24,0,0,0,.54-2.1V85.29H118v7.49H117l-.16-1h-.06a2.26,2.26,0,0,1-1,.85,3.24,3.24,0,0,1-1.41.29,2.87,2.87,0,0,1-2-.65,2.77,2.77,0,0,1-.68-2.08v-4.9Z"/><path class="cls-3" d="M123.23,92.92a3.2,3.2,0,0,1-2.52-1,4.12,4.12,0,0,1-.89-2.83,4.25,4.25,0,0,1,.91-2.91,3.26,3.26,0,0,1,2.58-1,5.14,5.14,0,0,1,1.08.12,3.55,3.55,0,0,1,.85.27l-.35,1a5.36,5.36,0,0,0-.82-.25,3.7,3.7,0,0,0-.79-.1q-2.28,0-2.28,2.91a3.46,3.46,0,0,0,.56,2.12,1.94,1.94,0,0,0,1.65.74,5.05,5.05,0,0,0,1.92-.4v1A4.09,4.09,0,0,1,123.23,92.92Z"/><path class="cls-3" d="M126.67,83.26a.75.75,0,0,1,.19-.57.71.71,0,0,1,1,0,.74.74,0,0,1,.2.57.76.76,0,0,1-.2.57.7.7,0,0,1-1,0A.77.77,0,0,1,126.67,83.26Zm1.23,9.52h-1.13V85.29h1.13Z"/><path class="cls-3" d="M136.63,89a4.13,4.13,0,0,1-.92,2.86,3.25,3.25,0,0,1-2.55,1,3.38,3.38,0,0,1-1.78-.47,3.11,3.11,0,0,1-1.2-1.35,4.72,4.72,0,0,1-.42-2.06,4.13,4.13,0,0,1,.92-2.85,3.24,3.24,0,0,1,2.54-1,3.17,3.17,0,0,1,2.5,1A4.12,4.12,0,0,1,136.63,89Zm-5.71,0a3.56,3.56,0,0,0,.57,2.19,2.28,2.28,0,0,0,3.38,0,3.53,3.53,0,0,0,.58-2.19,3.48,3.48,0,0,0-.58-2.17,2,2,0,0,0-1.71-.74,2,2,0,0,0-1.68.73A3.52,3.52,0,0,0,130.92,89Zm1.31-4.9q.33-.42.71-1a12,12,0,0,0,.6-1h1.38v.14a10.07,10.07,0,0,1-.9,1.09,10.2,10.2,0,0,1-1,1h-.76Z"/><path class="cls-3" d="M143.61,92.78V87.93a2,2,0,0,0-.42-1.37,1.7,1.7,0,0,0-1.31-.45,2.15,2.15,0,0,0-1.72.64,3.21,3.21,0,0,0-.55,2.1v3.93h-1.13V85.29h.92l.18,1h.05a2.31,2.31,0,0,1,1-.86,3.17,3.17,0,0,1,1.4-.3,2.85,2.85,0,0,1,2,.65,2.78,2.78,0,0,1,.68,2.09v4.89Z"/><path class="cls-3" d="M29.54,109.72a3.2,3.2,0,0,1-2.52-1,4.12,4.12,0,0,1-.89-2.83A4.25,4.25,0,0,1,27,103a3.26,3.26,0,0,1,2.58-1,5.14,5.14,0,0,1,1.08.12,3.55,3.55,0,0,1,.85.27l-.35,1a5.36,5.36,0,0,0-.82-.25,3.7,3.7,0,0,0-.79-.1q-2.28,0-2.28,2.91a3.46,3.46,0,0,0,.56,2.12,1.94,1.94,0,0,0,1.65.74,5.05,5.05,0,0,0,1.92-.4v1A4.09,4.09,0,0,1,29.54,109.72Z"/><path class="cls-3" d="M39.54,105.83a4.13,4.13,0,0,1-.92,2.86,3.25,3.25,0,0,1-2.55,1,3.38,3.38,0,0,1-1.78-.47,3.11,3.11,0,0,1-1.2-1.35,4.72,4.72,0,0,1-.42-2.06,4.13,4.13,0,0,1,.92-2.85,3.24,3.24,0,0,1,2.54-1,3.17,3.17,0,0,1,2.5,1A4.12,4.12,0,0,1,39.54,105.83Zm-5.71,0a3.56,3.56,0,0,0,.57,2.19,2.28,2.28,0,0,0,3.38,0,3.53,3.53,0,0,0,.58-2.19,3.48,3.48,0,0,0-.58-2.17,2,2,0,0,0-1.71-.74,2,2,0,0,0-1.68.73A3.52,3.52,0,0,0,33.83,105.83Z"/><path class="cls-3" d="M46.52,109.58v-4.85a2,2,0,0,0-.42-1.37,1.7,1.7,0,0,0-1.31-.45,2.15,2.15,0,0,0-1.72.64,3.21,3.21,0,0,0-.55,2.1v3.93H41.39v-7.49h.92l.18,1h.05a2.31,2.31,0,0,1,1-.86,3.17,3.17,0,0,1,1.4-.3,2.85,2.85,0,0,1,2,.65,2.78,2.78,0,0,1,.68,2.09v4.89Z"/><path class="cls-3" d="M52.26,108.78a3.75,3.75,0,0,0,.58,0l.44-.09v.87a2,2,0,0,1-.54.15,4.06,4.06,0,0,1-.65.06q-2.17,0-2.17-2.29V103H48.85v-.55l1.07-.47.48-1.6h.66v1.74h2.17V103H51.06v4.41a1.52,1.52,0,0,0,.32,1A1.12,1.12,0,0,0,52.26,108.78Z"/><path class="cls-3" d="M58.06,102a4.44,4.44,0,0,1,.9.08l-.16,1.05A3.86,3.86,0,0,0,58,103a2,2,0,0,0-1.55.74,2.69,2.69,0,0,0-.65,1.84v4H54.65v-7.49h.94l.13,1.39h.05a3.31,3.31,0,0,1,1-1.13A2.26,2.26,0,0,1,58.06,102Z"/><path class="cls-3" d="M66.69,105.83a4.13,4.13,0,0,1-.92,2.86,3.25,3.25,0,0,1-2.55,1,3.38,3.38,0,0,1-1.78-.47,3.11,3.11,0,0,1-1.2-1.35,4.72,4.72,0,0,1-.42-2.06,4.13,4.13,0,0,1,.92-2.85,3.24,3.24,0,0,1,2.54-1,3.17,3.17,0,0,1,2.5,1A4.12,4.12,0,0,1,66.69,105.83Zm-5.71,0a3.56,3.56,0,0,0,.57,2.19,2.28,2.28,0,0,0,3.38,0,3.53,3.53,0,0,0,.58-2.19,3.48,3.48,0,0,0-.58-2.17,2,2,0,0,0-1.71-.74,2,2,0,0,0-1.68.73A3.52,3.52,0,0,0,61,105.83Z"/><path class="cls-3" d="M69.67,109.58H68.54V98.94h1.13Z"/><path class="cls-3" d="M75.1,109.72a3.44,3.44,0,0,1-2.62-1,3.92,3.92,0,0,1-1-2.81,4.35,4.35,0,0,1,.89-2.88,3,3,0,0,1,2.4-1.07,2.83,2.83,0,0,1,2.23.93,3.55,3.55,0,0,1,.82,2.44V106H72.7a3,3,0,0,0,.67,2,2.3,2.3,0,0,0,1.78.68,6,6,0,0,0,2.39-.51v1a6,6,0,0,1-1.14.37A6.33,6.33,0,0,1,75.1,109.72Zm-.31-6.82a1.86,1.86,0,0,0-1.44.59,2.71,2.71,0,0,0-.63,1.63h3.92a2.49,2.49,0,0,0-.48-1.64A1.68,1.68,0,0,0,74.79,102.9Z"/><path class="cls-3" d="M84.49,107.54a1.88,1.88,0,0,1-.78,1.61,3.67,3.67,0,0,1-2.19.57,4.76,4.76,0,0,1-2.32-.47v-1.05a5.58,5.58,0,0,0,1.16.43,4.85,4.85,0,0,0,1.19.16,2.7,2.7,0,0,0,1.37-.28,1,1,0,0,0,.1-1.61,6,6,0,0,0-1.48-.73,8.09,8.09,0,0,1-1.49-.68,2.06,2.06,0,0,1-.66-.66,1.73,1.73,0,0,1-.21-.88,1.68,1.68,0,0,1,.75-1.45,3.48,3.48,0,0,1,2-.53,6,6,0,0,1,2.37.49l-.4.92a5.44,5.44,0,0,0-2-.46,2.35,2.35,0,0,0-1.22.25.78.78,0,0,0-.41.7.84.84,0,0,0,.15.51,1.51,1.51,0,0,0,.5.4,10.91,10.91,0,0,0,1.31.55,4.9,4.9,0,0,1,1.8,1A1.73,1.73,0,0,1,84.49,107.54Z"/><path class="cls-3" d="M93.11,102a4.44,4.44,0,0,1,.9.08l-.16,1.05A3.86,3.86,0,0,0,93,103a2,2,0,0,0-1.55.74,2.69,2.69,0,0,0-.65,1.84v4H89.69v-7.49h.94l.13,1.39h.05a3.31,3.31,0,0,1,1-1.13A2.26,2.26,0,0,1,93.11,102Z"/><path class="cls-3" d="M95.17,100.06a.75.75,0,0,1,.19-.57.71.71,0,0,1,1,0,.74.74,0,0,1,.2.57.76.76,0,0,1-.2.57.7.7,0,0,1-1,0A.77.77,0,0,1,95.17,100.06Zm1.23,9.52H95.26v-7.49H96.4Z"/><path class="cls-3" d="M101.83,109.72a3.44,3.44,0,0,1-2.62-1,3.92,3.92,0,0,1-1-2.81,4.35,4.35,0,0,1,.89-2.88,3,3,0,0,1,2.4-1.07,2.83,2.83,0,0,1,2.23.93,3.55,3.55,0,0,1,.82,2.44V106H99.42a3,3,0,0,0,.67,2,2.3,2.3,0,0,0,1.78.68,6,6,0,0,0,2.39-.51v1a6,6,0,0,1-1.14.37A6.33,6.33,0,0,1,101.83,109.72Zm-.31-6.82a1.86,1.86,0,0,0-1.44.59,2.71,2.71,0,0,0-.63,1.63h3.92a2.49,2.49,0,0,0-.48-1.64A1.68,1.68,0,0,0,101.52,102.9Z"/><path class="cls-3" d="M111.21,107.54a1.88,1.88,0,0,1-.78,1.61,3.67,3.67,0,0,1-2.19.57,4.76,4.76,0,0,1-2.32-.47v-1.05a5.58,5.58,0,0,0,1.16.43,4.85,4.85,0,0,0,1.19.16,2.7,2.7,0,0,0,1.37-.28,1,1,0,0,0,.1-1.61,6,6,0,0,0-1.48-.73,8.09,8.09,0,0,1-1.49-.68,2.06,2.06,0,0,1-.66-.66,1.73,1.73,0,0,1-.21-.88,1.68,1.68,0,0,1,.75-1.45,3.48,3.48,0,0,1,2-.53,6,6,0,0,1,2.37.49l-.4.92a5.44,5.44,0,0,0-2-.46,2.35,2.35,0,0,0-1.22.25.78.78,0,0,0-.41.7.84.84,0,0,0,.15.51,1.51,1.51,0,0,0,.5.4,10.91,10.91,0,0,0,1.31.55,4.9,4.9,0,0,1,1.8,1A1.73,1.73,0,0,1,111.21,107.54Z"/><path class="cls-3" d="M119,102.09v.72l-1.39.16a2.44,2.44,0,0,1,.49,1.5,2.22,2.22,0,0,1-.75,1.76,3,3,0,0,1-2.06.66,3.47,3.47,0,0,1-.63-.05,1.12,1.12,0,0,0-.72,1,.49.49,0,0,0,.25.46,1.85,1.85,0,0,0,.87.15h1.33a3,3,0,0,1,1.87.51,1.78,1.78,0,0,1,.65,1.49,2.13,2.13,0,0,1-1,1.9,5.35,5.35,0,0,1-2.91.65,4,4,0,0,1-2.27-.55,1.77,1.77,0,0,1-.8-1.54,1.73,1.73,0,0,1,.44-1.18,2.23,2.23,0,0,1,1.23-.68,1.18,1.18,0,0,1-.48-.4,1.06,1.06,0,0,1-.2-.64,1.21,1.21,0,0,1,.22-.72,2.3,2.3,0,0,1,.69-.59,2,2,0,0,1-.95-.81,2.39,2.39,0,0,1-.37-1.31,2.43,2.43,0,0,1,.74-1.9,3,3,0,0,1,2.09-.67,3.82,3.82,0,0,1,1.06.14Zm-6,8.75a1,1,0,0,0,.51.92,2.83,2.83,0,0,0,1.47.31,4.11,4.11,0,0,0,2.12-.43,1.31,1.31,0,0,0,.69-1.16.92.92,0,0,0-.38-.84,2.94,2.94,0,0,0-1.42-.24h-1.36a1.79,1.79,0,0,0-1.2.37A1.32,1.32,0,0,0,113.07,110.84Zm.62-6.35a1.53,1.53,0,0,0,.44,1.19,1.78,1.78,0,0,0,1.24.4,1.45,1.45,0,0,0,1.66-1.61,1.49,1.49,0,0,0-1.68-1.69,1.66,1.66,0,0,0-1.23.43A1.73,1.73,0,0,0,113.69,104.49Z"/><path class="cls-3" d="M126.91,105.83a4.13,4.13,0,0,1-.92,2.86,3.25,3.25,0,0,1-2.55,1,3.38,3.38,0,0,1-1.78-.47,3.11,3.11,0,0,1-1.2-1.35,4.72,4.72,0,0,1-.42-2.06,4.13,4.13,0,0,1,.92-2.85,3.24,3.24,0,0,1,2.54-1,3.17,3.17,0,0,1,2.5,1A4.12,4.12,0,0,1,126.91,105.83Zm-5.71,0a3.56,3.56,0,0,0,.57,2.19,2.28,2.28,0,0,0,3.38,0,3.53,3.53,0,0,0,.58-2.19,3.48,3.48,0,0,0-.58-2.17,2,2,0,0,0-1.71-.74,2,2,0,0,0-1.68.73A3.52,3.52,0,0,0,121.21,105.83Z"/><path class="cls-3" d="M137.36,108.57h-.06a2.67,2.67,0,0,1-2.35,1.14,2.78,2.78,0,0,1-2.29-1,4.42,4.42,0,0,1-.82-2.86,4.5,4.5,0,0,1,.82-2.88,2.76,2.76,0,0,1,2.28-1,2.72,2.72,0,0,1,2.34,1.11h.09l0-.54,0-.53v-3h1.13v10.64h-.92Zm-2.27.19a2.07,2.07,0,0,0,1.69-.63,3.2,3.2,0,0,0,.52-2v-.24a3.76,3.76,0,0,0-.53-2.27,2,2,0,0,0-1.69-.68,1.74,1.74,0,0,0-1.53.78,3.85,3.85,0,0,0-.53,2.19,3.7,3.7,0,0,0,.53,2.17A1.78,1.78,0,0,0,135.09,108.77Z"/><path class="cls-3" d="M143.86,109.72a3.44,3.44,0,0,1-2.62-1,3.92,3.92,0,0,1-1-2.81,4.35,4.35,0,0,1,.89-2.88,3,3,0,0,1,2.4-1.07,2.83,2.83,0,0,1,2.23.93,3.55,3.55,0,0,1,.82,2.44V106h-5.16a3,3,0,0,0,.67,2,2.3,2.3,0,0,0,1.78.68,6,6,0,0,0,2.39-.51v1a6,6,0,0,1-1.14.37A6.33,6.33,0,0,1,143.86,109.72Zm-.31-6.82a1.86,1.86,0,0,0-1.44.59,2.71,2.71,0,0,0-.63,1.63h3.92a2.49,2.49,0,0,0-.48-1.64A1.68,1.68,0,0,0,143.56,102.9Z"/><path class="cls-3" d="M69.64,119.77H67.74v6.61H66.6v-6.61H65.26v-.51l1.34-.41v-.42q0-2.76,2.41-2.76a5,5,0,0,1,1.39.24l-.29.91A3.75,3.75,0,0,0,69,116.6a1.09,1.09,0,0,0-1,.43,2.38,2.38,0,0,0-.31,1.37v.49h1.91Z"/><path class="cls-3" d="M74.29,118.75a4.44,4.44,0,0,1,.9.08L75,119.88a3.86,3.86,0,0,0-.82-.1,2,2,0,0,0-1.55.74,2.69,2.69,0,0,0-.65,1.84v4H70.87v-7.49h.94l.13,1.39H72a3.31,3.31,0,0,1,1-1.13A2.26,2.26,0,0,1,74.29,118.75Z"/><path class="cls-3" d="M81.05,126.38l-.23-1.07h-.05a3.14,3.14,0,0,1-1.12,1,3.39,3.39,0,0,1-1.39.25,2.5,2.5,0,0,1-1.75-.57,2.09,2.09,0,0,1-.63-1.63q0-2.27,3.63-2.38l1.27,0v-.46a1.89,1.89,0,0,0-.38-1.3,1.55,1.55,0,0,0-1.21-.42,4.94,4.94,0,0,0-2.12.57l-.35-.87a5.35,5.35,0,0,1,1.21-.47,5.23,5.23,0,0,1,1.32-.17,2.86,2.86,0,0,1,2,.59,2.49,2.49,0,0,1,.65,1.91v5.11Zm-2.56-.8a2.31,2.31,0,0,0,1.67-.58,2.15,2.15,0,0,0,.6-1.63v-.68l-1.13,0a4.14,4.14,0,0,0-2,.42,1.27,1.27,0,0,0-.6,1.16,1.17,1.17,0,0,0,.37.94A1.55,1.55,0,0,0,78.49,125.58Z"/><path class="cls-3" d="M85.16,118.89v4.86a2,2,0,0,0,.42,1.37,1.7,1.7,0,0,0,1.31.45,2.13,2.13,0,0,0,1.72-.64,3.24,3.24,0,0,0,.54-2.1v-3.94h1.13v7.49h-.94l-.16-1h-.06a2.26,2.26,0,0,1-1,.85,3.24,3.24,0,0,1-1.41.29,2.87,2.87,0,0,1-2-.65,2.77,2.77,0,0,1-.68-2.08v-4.9Z"/><path class="cls-3" d="M97.64,125.37h-.06a2.67,2.67,0,0,1-2.35,1.14,2.78,2.78,0,0,1-2.29-1,4.42,4.42,0,0,1-.82-2.86,4.5,4.5,0,0,1,.82-2.88,2.76,2.76,0,0,1,2.28-1,2.72,2.72,0,0,1,2.34,1.11h.09l0-.54,0-.53v-3h1.13v10.64h-.92Zm-2.27.19a2.07,2.07,0,0,0,1.69-.63,3.2,3.2,0,0,0,.52-2v-.24a3.76,3.76,0,0,0-.53-2.27,2,2,0,0,0-1.69-.68,1.74,1.74,0,0,0-1.53.78,3.85,3.85,0,0,0-.53,2.19,3.7,3.7,0,0,0,.53,2.17A1.78,1.78,0,0,0,95.37,125.57Z"/><path class="cls-3" d="M104.15,126.52a3.44,3.44,0,0,1-2.62-1,3.92,3.92,0,0,1-1-2.81,4.35,4.35,0,0,1,.89-2.88,3,3,0,0,1,2.4-1.07,2.83,2.83,0,0,1,2.23.93,3.55,3.55,0,0,1,.82,2.44v.72h-5.16a3,3,0,0,0,.67,2,2.3,2.3,0,0,0,1.78.68,6,6,0,0,0,2.39-.51v1a6,6,0,0,1-1.14.37A6.33,6.33,0,0,1,104.15,126.52Zm-.31-6.82a1.86,1.86,0,0,0-1.44.59,2.71,2.71,0,0,0-.63,1.63h3.92a2.49,2.49,0,0,0-.48-1.64A1.68,1.68,0,0,0,103.84,119.7Z"/><path class="cls-3" d="M89.35,37.44a5.4,5.4,0,1,0,5.39,5.4A5.4,5.4,0,0,0,89.35,37.44Zm0,8.69a3.29,3.29,0,1,1,3.29-3.29A3.3,3.3,0,0,1,89.35,46.13Z"/><path class="cls-3" d="M70.33,49a5.4,5.4,0,1,0,5.39,5.39A5.4,5.4,0,0,0,70.33,49Zm0,8.69a3.29,3.29,0,1,1,3.29-3.29A3.3,3.3,0,0,1,70.33,57.72Z"/><path class="cls-3" d="M89.35,60.62A5.4,5.4,0,1,0,94.74,66,5.4,5.4,0,0,0,89.35,60.62Zm0,8.69A3.29,3.29,0,1,1,92.64,66,3.3,3.3,0,0,1,89.35,69.3Z"/><path class="cls-3" d="M85.37,44.38l-.25,0a1,1,0,0,0-.55.16l-10.9,6.75a1.05,1.05,0,0,0-.47.65,1,1,0,0,0,.13.79,1.06,1.06,0,0,0,.66.46,1,1,0,0,0,.79-.12l10.9-6.75a1.05,1.05,0,0,0-.31-1.92Z"/><path class="cls-3" d="M74.33,56.77a1,1,0,0,0,.34,1.45L84.09,64a1.06,1.06,0,0,0,.8.12,1,1,0,0,0,.65-.46h0a1.05,1.05,0,0,0-.34-1.45l-9.41-5.79a1,1,0,0,0-.55-.16,1,1,0,0,0-.24,0A1,1,0,0,0,74.33,56.77Z"/><path class="cls-3" d="M90.07,47.19a1,1,0,0,0-.74-.31h0a1,1,0,0,0-1,1.05l0,13a1.07,1.07,0,0,0,1,1h0a1.05,1.05,0,0,0,1-1.05l0-13a1,1,0,0,0-.16-.55A1,1,0,0,0,90.07,47.19Z"/></g></g></svg>