<svg xmlns="http://www.w3.org/2000/svg" viewBox="0 0 89 89"><defs><style>.cls-1{fill:red;}.cls-2{fill:#fff;}</style></defs><title>alerta</title><g id="Capa_2" data-name="Capa 2"><g id="Capa_1-2" data-name="Capa 1"><circle class="cls-1" cx="44.5" cy="44.5" r="44.5"/><path class="cls-2" d="M73.67,60.67,47.47,13.85a3.15,3.15,0,0,0-2.91-1.69,3.36,3.36,0,0,0-2.91,1.68L15.33,60.67a3.14,3.14,0,0,0,0,3.14,3.36,3.36,0,0,0,2.91,1.68H70.76a3.36,3.36,0,0,0,2.91-1.68A3.14,3.14,0,0,0,73.67,60.67Zm-2.09,1.8,0,.09a.82.82,0,0,1-.69.36H18.24a.83.83,0,0,1-.71-.38.71.71,0,0,1,0-.7l26.3-46.71a.84.84,0,0,1,.72-.41.83.83,0,0,1,.71.39L71.59,62A.65.65,0,0,1,71.58,62.47Z"/><path class="cls-2" d="M43.27,31.27V48.16a1.29,1.29,0,1,0,2.57,0V31.27A1.29,1.29,0,0,0,44.55,30,1.23,1.23,0,0,0,43.27,31.27Z"/><path class="cls-2" d="M44.55,51.43a1.23,1.23,0,0,0-1.29,1.29v.93a1.29,1.29,0,0,0,2.57,0v-.93A1.23,1.23,0,0,0,44.55,51.43Z"/></g></g></svg>