<svg xmlns="http://www.w3.org/2000/svg" viewBox="0 0 213.6 115.83"><defs><style>.cls-1{fill:red;}.cls-2,.cls-3{fill:#fff;}.cls-2{stroke:#fff;stroke-miterlimit:10;stroke-width:2px;}.cls-4{fill:#636363;}.cls-5{fill:#444;}</style></defs><title>Recurso 5</title><g id="Capa_2" data-name="Capa 2"><g id="Capa_2-2" data-name="Capa 2"><path class="cls-1" d="M.3,55l53.28,60.49a.88.88,0,0,0,1,.34L212.85,54.92a1.43,1.43,0,0,0,0-2.52L54.67,0a.88.88,0,0,0-1,.33L.31,53.1A1.57,1.57,0,0,0,.3,55Z"/><path class="cls-2" d="M13.27,54.51l42.84,50.75a.43.43,0,0,0,.49.17L187.09,54.36a.7.7,0,0,0,0-1.24L56.68,10.4a.43.43,0,0,0-.49.16l-42.92,43A.77.77,0,0,0,13.27,54.51Z"/><circle class="cls-1" cx="37.36" cy="54.98" r="15.43"/><path class="cls-3" d="M39.18,54.22h-.89V45a1,1,0,0,0-1-1h0a1,1,0,0,0-1,1h0v9.22h-.89V45a1.9,1.9,0,0,1,1.89-1.89h0A1.9,1.9,0,0,1,39.18,45h0v9.22Z"/><path class="cls-3" d="M42.07,54.22h-.89V46.58a1,1,0,0,0-1-1h0a1,1,0,0,0-1,1h-.89a1.89,1.89,0,0,1,1.89-1.89h0a1.89,1.89,0,0,1,1.89,1.89h0v7.64Z"/><path class="cls-3" d="M44.12,64.6a3.27,3.27,0,0,1-2.43.9h-7A2.22,2.22,0,0,1,33,64.65h0v0S28.05,57,27.32,55.73h0a2.87,2.87,0,0,1-.49-1.38h0a2.22,2.22,0,0,1,2.22-2.22h0a2.22,2.22,0,0,1,1.84,1h0l1.6,2V47.63a1.89,1.89,0,0,1,1.89-1.89h0a1.89,1.89,0,0,1,1.89,1.89h-.89a1,1,0,0,0-1-1h0a1,1,0,0,0-1,1h0v9.95l-3.22-4h0A1.33,1.33,0,0,0,29.05,53h0a1.33,1.33,0,0,0-1.33,1.33h0a2.15,2.15,0,0,0,.36.93h0c.35.59,1.76,2.82,3.07,4.88h0l2.52,4h0a1.33,1.33,0,0,0,1,.5h7A2.39,2.39,0,0,0,43.48,64h0a2.43,2.43,0,0,0,.6-1.75h0v-12a1,1,0,0,0-1-1h0a1,1,0,0,0-1,1h-.89a1.89,1.89,0,0,1,1.89-1.89h0A1.89,1.89,0,0,1,45,50.27h0v12h0a3.31,3.31,0,0,1-.85,2.37Z"/><path class="cls-4" d="M69.23,44.16a3.78,3.78,0,0,1-1,2.84,4,4,0,0,1-2.9,1H63.25v-7.5h2.3a3.36,3.36,0,0,1,3.69,3.68Zm-.92,0A3,3,0,0,0,67.58,42a3,3,0,0,0-2.19-.74H64.12v6h1.06a3.23,3.23,0,0,0,2.34-.77A3,3,0,0,0,68.31,44.19Z"/><path class="cls-4" d="M72.89,48.08a2.58,2.58,0,0,1-2-.76,2.94,2.94,0,0,1-.72-2.11,3.26,3.26,0,0,1,.67-2.16,2.22,2.22,0,0,1,1.8-.8,2.12,2.12,0,0,1,1.67.69A2.66,2.66,0,0,1,75,44.79v.54H71.08a2.22,2.22,0,0,0,.5,1.5,1.73,1.73,0,0,0,1.33.51A4.52,4.52,0,0,0,74.71,47v.76a4.51,4.51,0,0,1-.85.28A4.82,4.82,0,0,1,72.89,48.08ZM72.66,43a1.39,1.39,0,0,0-1.08.44,2,2,0,0,0-.47,1.22H74a1.87,1.87,0,0,0-.36-1.23A1.26,1.26,0,0,0,72.66,43Z"/><path class="cls-4" d="M78,47.38a2.76,2.76,0,0,0,.44,0l.33-.07v.65a1.56,1.56,0,0,1-.41.11,3.09,3.09,0,0,1-.49,0q-1.63,0-1.63-1.72V43h-.8v-.41l.8-.35.36-1.2h.49v1.3h1.63V43H77.05v3.31a1.14,1.14,0,0,0,.24.78A.84.84,0,0,0,78,47.38Z"/><path class="cls-4" d="M82,48.08a2.58,2.58,0,0,1-2-.76,2.94,2.94,0,0,1-.72-2.11,3.26,3.26,0,0,1,.67-2.16,2.22,2.22,0,0,1,1.8-.8,2.12,2.12,0,0,1,1.67.69A2.66,2.66,0,0,1,84,44.79v.54H80.16a2.22,2.22,0,0,0,.5,1.5,1.73,1.73,0,0,0,1.33.51A4.52,4.52,0,0,0,83.79,47v.76a4.51,4.51,0,0,1-.85.28A4.82,4.82,0,0,1,82,48.08ZM81.73,43a1.39,1.39,0,0,0-1.08.44,2,2,0,0,0-.47,1.22h2.94a1.87,1.87,0,0,0-.36-1.23A1.26,1.26,0,0,0,81.73,43Z"/><path class="cls-4" d="M87.46,48.08a2.4,2.4,0,0,1-1.89-.75,3.09,3.09,0,0,1-.67-2.12A3.19,3.19,0,0,1,85.58,43a2.45,2.45,0,0,1,1.94-.77,3.88,3.88,0,0,1,.81.09,2.73,2.73,0,0,1,.64.21l-.26.72a4,4,0,0,0-.62-.19A2.74,2.74,0,0,0,87.5,43q-1.71,0-1.71,2.18a2.6,2.6,0,0,0,.42,1.59,1.45,1.45,0,0,0,1.24.55,3.79,3.79,0,0,0,1.44-.3v.75A3.08,3.08,0,0,1,87.46,48.08Z"/><path class="cls-4" d="M91.77,47.38a2.76,2.76,0,0,0,.44,0l.33-.07v.65a1.56,1.56,0,0,1-.41.11,3.09,3.09,0,0,1-.49,0Q90,48.08,90,46.36V43h-.8v-.41l.8-.35.36-1.2h.49v1.3h1.63V43H90.86v3.31a1.14,1.14,0,0,0,.24.78A.84.84,0,0,0,91.77,47.38Z"/><path class="cls-4" d="M93.32,40.84a.56.56,0,0,1,.14-.43.53.53,0,0,1,.71,0,.55.55,0,0,1,.15.43.56.56,0,0,1-.15.43.49.49,0,0,1-.35.14.49.49,0,0,1-.36-.14A.57.57,0,0,1,93.32,40.84ZM94.25,48H93.4V42.36h.85Z"/><path class="cls-4" d="M97,48l-2.13-5.62h.91L97,45.69q.41,1.17.48,1.52h0a11.29,11.29,0,0,1,.36-1.13q.3-.85,1.35-3.72h.91L98,48Z"/><path class="cls-4" d="M103.16,48.08a2.58,2.58,0,0,1-2-.76,2.94,2.94,0,0,1-.72-2.11,3.26,3.26,0,0,1,.67-2.16,2.22,2.22,0,0,1,1.8-.8,2.12,2.12,0,0,1,1.67.69,2.66,2.66,0,0,1,.62,1.83v.54h-3.87a2.22,2.22,0,0,0,.5,1.5,1.73,1.73,0,0,0,1.33.51A4.52,4.52,0,0,0,105,47v.76a4.51,4.51,0,0,1-.85.28A4.82,4.82,0,0,1,103.16,48.08ZM102.93,43a1.39,1.39,0,0,0-1.08.44,2,2,0,0,0-.47,1.22h2.94A1.87,1.87,0,0,0,104,43.4,1.26,1.26,0,0,0,102.93,43Z"/><path class="cls-4" d="M68,57.77a3.1,3.1,0,0,1-.69,2.15,2.44,2.44,0,0,1-1.91.77A2.54,2.54,0,0,1,64,60.33a2.34,2.34,0,0,1-.9-1,3.53,3.53,0,0,1-.32-1.55,3.09,3.09,0,0,1,.69-2.14,2.43,2.43,0,0,1,1.91-.77,2.38,2.38,0,0,1,1.87.78A3.09,3.09,0,0,1,68,57.77Zm-4.28,0a2.67,2.67,0,0,0,.43,1.64,1.71,1.71,0,0,0,2.54,0,2.65,2.65,0,0,0,.43-1.64,2.61,2.61,0,0,0-.43-1.63,1.52,1.52,0,0,0-1.28-.56,1.5,1.5,0,0,0-1.26.55A2.64,2.64,0,0,0,63.69,57.77Z"/><path class="cls-4" d="M71.77,54.86a3.34,3.34,0,0,1,.67.06l-.12.79a2.9,2.9,0,0,0-.62-.08,1.5,1.5,0,0,0-1.17.55,2,2,0,0,0-.48,1.38v3H69.2V55h.7l.1,1h0a2.47,2.47,0,0,1,.75-.85A1.69,1.69,0,0,1,71.77,54.86Z"/><path class="cls-5" d="M78.76,60.68a1.9,1.9,0,0,1-1.58-.73h-.08c.05.48.08.76.08.83V63.1H75.61V54.85h1.27l.22.74h.07a1.81,1.81,0,0,1,1.63-.85,1.86,1.86,0,0,1,1.59.78A3.63,3.63,0,0,1,81,57.7a4.3,4.3,0,0,1-.27,1.59,2.23,2.23,0,0,1-.77,1A2,2,0,0,1,78.76,60.68ZM78.3,56a1,1,0,0,0-.85.36,2,2,0,0,0-.28,1.18v.17A2.42,2.42,0,0,0,77.45,59a1,1,0,0,0,.87.4q1.05,0,1.05-1.73a2.47,2.47,0,0,0-.26-1.27A.88.88,0,0,0,78.3,56Z"/><path class="cls-5" d="M85.63,60.58l-.3-.78h0a2.31,2.31,0,0,1-.81.69,2.63,2.63,0,0,1-1.09.19,1.76,1.76,0,0,1-1.3-.47,1.81,1.81,0,0,1-.47-1.34,1.51,1.51,0,0,1,.64-1.35A3.7,3.7,0,0,1,84.17,57l1,0v-.25a.78.78,0,0,0-.89-.87,4.06,4.06,0,0,0-1.62.42l-.52-1.06a4.66,4.66,0,0,1,2.19-.52,2.74,2.74,0,0,1,1.77.5,1.86,1.86,0,0,1,.62,1.53v3.82Zm-.46-2.66-.6,0a1.94,1.94,0,0,0-1,.25.77.77,0,0,0-.33.69q0,.66.76.66a1.2,1.2,0,0,0,.87-.31,1.1,1.1,0,0,0,.33-.83Z"/><path class="cls-5" d="M91.27,54.74a2.53,2.53,0,0,1,.53,0l-.12,1.47a1.79,1.79,0,0,0-.46-.05,1.66,1.66,0,0,0-1.17.38,1.39,1.39,0,0,0-.42,1.08v2.92H88.07V54.85h1.18l.23,1h.08a2.16,2.16,0,0,1,.72-.78A1.78,1.78,0,0,1,91.27,54.74Z"/><path class="cls-5" d="M95,59.44a3.39,3.39,0,0,0,1-.18v1.16a3.5,3.5,0,0,1-1.44.26,1.76,1.76,0,0,1-1.37-.47,2.06,2.06,0,0,1-.43-1.42V56H92v-.66l.86-.52.45-1.21h1v1.22h1.61V56H94.31v2.76a.61.61,0,0,0,.19.49A.74.74,0,0,0,95,59.44Z"/><path class="cls-5" d="M96.81,53.37q0-.76.85-.76t.85.76a.75.75,0,0,1-.21.57.9.9,0,0,1-.64.2Q96.8,54.14,96.81,53.37Zm1.63,7.21H96.87V54.85h1.56Z"/><path class="cls-5" d="M102.14,60.68q-2.68,0-2.68-2.94a3.13,3.13,0,0,1,.73-2.23,2.73,2.73,0,0,1,2.09-.77,4,4,0,0,1,1.78.39l-.46,1.21q-.37-.15-.69-.24a2.2,2.2,0,0,0-.64-.09q-1.22,0-1.22,1.73t1.22,1.68a2.79,2.79,0,0,0,.84-.12,3,3,0,0,0,.77-.38v1.34a2.51,2.51,0,0,1-.77.33A4.32,4.32,0,0,1,102.14,60.68Z"/><path class="cls-5" d="M104.88,53.37q0-.76.85-.76t.85.76a.75.75,0,0,1-.21.57.9.9,0,0,1-.64.2Q104.88,54.14,104.88,53.37Zm1.63,7.21h-1.56V54.85h1.56Z"/><path class="cls-5" d="M111,60.68a1.9,1.9,0,0,1-1.58-.73h-.08c.05.48.08.76.08.83V63.1h-1.56V54.85h1.27l.22.74h.07a1.81,1.81,0,0,1,1.63-.85,1.86,1.86,0,0,1,1.59.78,3.63,3.63,0,0,1,.57,2.18A4.3,4.3,0,0,1,113,59.3a2.23,2.23,0,0,1-.77,1A2,2,0,0,1,111,60.68ZM110.58,56a1,1,0,0,0-.85.36,2,2,0,0,0-.28,1.18v.17a2.42,2.42,0,0,0,.27,1.32,1,1,0,0,0,.87.4q1.05,0,1.05-1.73a2.47,2.47,0,0,0-.26-1.27A.88.88,0,0,0,110.58,56Z"/><path class="cls-5" d="M117.91,60.58l-.3-.78h0a2.31,2.31,0,0,1-.81.69,2.63,2.63,0,0,1-1.09.19,1.76,1.76,0,0,1-1.3-.47,1.81,1.81,0,0,1-.47-1.34,1.51,1.51,0,0,1,.64-1.35,3.7,3.7,0,0,1,1.92-.48l1,0v-.25a.78.78,0,0,0-.89-.87,4.06,4.06,0,0,0-1.62.42l-.52-1.06a4.66,4.66,0,0,1,2.19-.52,2.74,2.74,0,0,1,1.77.5,1.86,1.86,0,0,1,.62,1.53v3.82Zm-.46-2.66-.6,0a1.94,1.94,0,0,0-1,.25.77.77,0,0,0-.33.69q0,.66.76.66a1.2,1.2,0,0,0,.87-.31,1.1,1.1,0,0,0,.33-.83Z"/><path class="cls-5" d="M122.77,59.44a3.39,3.39,0,0,0,1-.18v1.16a3.5,3.5,0,0,1-1.44.26,1.76,1.76,0,0,1-1.37-.47,2.06,2.06,0,0,1-.43-1.42V56h-.75v-.66l.86-.52.45-1.21h1v1.22h1.61V56h-1.61v2.76a.61.61,0,0,0,.19.49A.74.74,0,0,0,122.77,59.44Z"/><path class="cls-5" d="M124.58,53.37q0-.76.85-.76t.85.76a.75.75,0,0,1-.21.57.9.9,0,0,1-.64.2Q124.58,54.14,124.58,53.37Zm1.63,7.21h-1.56V54.85h1.56Z"/><path class="cls-5" d="M132.8,57.7a3.08,3.08,0,0,1-.74,2.19,2.68,2.68,0,0,1-2.06.79,2.88,2.88,0,0,1-1.46-.36,2.4,2.4,0,0,1-1-1,3.48,3.48,0,0,1-.34-1.58,3.06,3.06,0,0,1,.73-2.18,2.69,2.69,0,0,1,2.06-.78,2.89,2.89,0,0,1,1.46.36,2.4,2.4,0,0,1,1,1A3.47,3.47,0,0,1,132.8,57.7Zm-4,0a2.4,2.4,0,0,0,.28,1.29,1,1,0,0,0,.91.44,1,1,0,0,0,.9-.43,2.44,2.44,0,0,0,.27-1.29,2.36,2.36,0,0,0-.28-1.28,1.18,1.18,0,0,0-1.81,0A2.37,2.37,0,0,0,128.83,57.7Z"/><path class="cls-5" d="M139.12,60.58h-1.56V57.23a1.61,1.61,0,0,0-.22-.93.8.8,0,0,0-.7-.31,1.06,1.06,0,0,0-.95.44,2.72,2.72,0,0,0-.29,1.45v2.7h-1.56V54.85H135l.21.73h.09A1.65,1.65,0,0,1,136,55a2.46,2.46,0,0,1,1-.21,2,2,0,0,1,1.52.54,2.17,2.17,0,0,1,.52,1.56Z"/><path class="cls-5" d="M65.63,73.28a3,3,0,0,1-2.16-.76,2.89,2.89,0,0,1-.78-2.16,3.18,3.18,0,0,1,.72-2.23,2.56,2.56,0,0,1,2-.79A2.53,2.53,0,0,1,67.3,68,2.62,2.62,0,0,1,68,69.94v.76h-3.7a1.51,1.51,0,0,0,.4,1,1.39,1.39,0,0,0,1,.37,4.3,4.3,0,0,0,1-.11,4.87,4.87,0,0,0,1-.34v1.21a3.65,3.65,0,0,1-.88.31A5.51,5.51,0,0,1,65.63,73.28Zm-.22-4.83a1,1,0,0,0-.78.32,1.46,1.46,0,0,0-.32.89h2.19a1.3,1.3,0,0,0-.3-.89A1,1,0,0,0,65.41,68.45Z"/><path class="cls-5" d="M70.55,73.18H69v-8h1.56Z"/><path class="cls-5" d="M74.52,73.28a3,3,0,0,1-2.16-.76,2.89,2.89,0,0,1-.78-2.16,3.18,3.18,0,0,1,.72-2.23,2.56,2.56,0,0,1,2-.79,2.53,2.53,0,0,1,1.89.69,2.62,2.62,0,0,1,.68,1.91v.76h-3.7a1.51,1.51,0,0,0,.4,1,1.39,1.39,0,0,0,1,.37,4.3,4.3,0,0,0,1-.11,4.87,4.87,0,0,0,1-.34v1.21a3.65,3.65,0,0,1-.88.31A5.51,5.51,0,0,1,74.52,73.28Zm-.22-4.83a1,1,0,0,0-.78.32,1.46,1.46,0,0,0-.32.89h2.19a1.3,1.3,0,0,0-.3-.89A1,1,0,0,0,74.3,68.45Z"/><path class="cls-5" d="M83,73.18H81.43V69.83a1.68,1.68,0,0,0-.21-.93.73.73,0,0,0-.65-.31,1,1,0,0,0-.87.44,2.88,2.88,0,0,0-.27,1.45v2.7H77.87V67.45h1.19l.21.73h.09a1.59,1.59,0,0,1,.67-.62,2.17,2.17,0,0,1,1-.22,1.8,1.8,0,0,1,1.74.84h.14a1.55,1.55,0,0,1,.68-.62,2.27,2.27,0,0,1,1-.22,2,2,0,0,1,1.47.5,2.2,2.2,0,0,1,.5,1.6v3.74H85V69.83a1.68,1.68,0,0,0-.21-.93.73.73,0,0,0-.65-.31,1,1,0,0,0-.86.41A2.32,2.32,0,0,0,83,70.3Z"/><path class="cls-5" d="M90.51,73.28a3,3,0,0,1-2.16-.76,2.89,2.89,0,0,1-.78-2.16,3.18,3.18,0,0,1,.72-2.23,2.56,2.56,0,0,1,2-.79,2.53,2.53,0,0,1,1.89.69,2.62,2.62,0,0,1,.68,1.91v.76h-3.7a1.51,1.51,0,0,0,.4,1,1.39,1.39,0,0,0,1,.37,4.3,4.3,0,0,0,1-.11,4.87,4.87,0,0,0,1-.34v1.21a3.65,3.65,0,0,1-.88.31A5.51,5.51,0,0,1,90.51,73.28Zm-.22-4.83a1,1,0,0,0-.78.32,1.46,1.46,0,0,0-.32.89h2.19a1.3,1.3,0,0,0-.3-.89A1,1,0,0,0,90.29,68.45Z"/><path class="cls-5" d="M99.15,73.18H97.58V69.83a1.61,1.61,0,0,0-.22-.93.8.8,0,0,0-.7-.31,1.06,1.06,0,0,0-.95.44,2.72,2.72,0,0,0-.29,1.45v2.7H93.85V67.45H95l.21.73h.09a1.65,1.65,0,0,1,.72-.63,2.46,2.46,0,0,1,1-.21,2,2,0,0,1,1.52.54,2.17,2.17,0,0,1,.52,1.56Z"/><path class="cls-5" d="M102.91,72a3.39,3.39,0,0,0,1-.18V73a3.5,3.5,0,0,1-1.44.26,1.76,1.76,0,0,1-1.37-.47,2.06,2.06,0,0,1-.43-1.42V68.62h-.75V68l.86-.52.45-1.21h1v1.22h1.61v1.17h-1.61v2.76a.61.61,0,0,0,.19.49A.74.74,0,0,0,102.91,72Z"/><path class="cls-5" d="M108.79,71.48a1.58,1.58,0,0,1-.61,1.34,3,3,0,0,1-1.83.46,5.78,5.78,0,0,1-1.07-.08,4,4,0,0,1-.83-.25V71.66a5.43,5.43,0,0,0,1,.34,4,4,0,0,0,1,.14q.85,0,.85-.49a.41.41,0,0,0-.11-.3,1.64,1.64,0,0,0-.39-.26q-.28-.15-.74-.34a4.64,4.64,0,0,1-1-.51,1.45,1.45,0,0,1-.45-.54,1.79,1.79,0,0,1-.14-.75,1.36,1.36,0,0,1,.59-1.18,2.89,2.89,0,0,1,1.68-.42,4.77,4.77,0,0,1,2,.45l-.47,1.13q-.43-.18-.8-.3a2.53,2.53,0,0,0-.76-.12q-.69,0-.69.37a.44.44,0,0,0,.22.36,6.08,6.08,0,0,0,1,.46,4.51,4.51,0,0,1,1,.51,1.5,1.5,0,0,1,.46.54A1.68,1.68,0,0,1,108.79,71.48Z"/></g></g></svg>