<svg xmlns="http://www.w3.org/2000/svg" viewBox="0 0 213.6 115.83"><defs><style>.cls-1{fill:#2e73ba;}.cls-2,.cls-3{fill:#fff;}.cls-2{stroke:#fff;stroke-miterlimit:10;stroke-width:2px;}.cls-4{fill:#636363;}.cls-5{fill:#444;}</style></defs><title>Recurso 6</title><g id="Capa_2" data-name="Capa 2"><g id="Capa_2-2" data-name="Capa 2"><path class="cls-1" d="M213.3,55,160,115.45a.88.88,0,0,1-1,.34L.75,54.92a1.43,1.43,0,0,1,0-2.52L158.94,0a.88.88,0,0,1,1,.33L213.3,53.1A1.57,1.57,0,0,1,213.3,55Z"/><path class="cls-2" d="M200.33,54.51l-42.84,50.75a.43.43,0,0,1-.49.17L26.51,54.36a.7.7,0,0,1,0-1.24L156.92,10.4a.43.43,0,0,1,.49.16l42.92,43A.77.77,0,0,1,200.33,54.51Z"/><circle class="cls-1" cx="176.11" cy="54.98" r="15.43"/><path class="cls-3" d="M180.42,56.19H172a.42.42,0,0,0,0,.85h8.39a.42.42,0,0,0,0-.85Z"/><path class="cls-3" d="M178.74,52.84H172a.42.42,0,1,0,0,.85h6.71a.42.42,0,1,0,0-.85Z"/><path class="cls-3" d="M172,60.4h8.39a.42.42,0,1,0,0-.85H172a.42.42,0,1,0,0,.85Z"/><path class="cls-3" d="M178.74,45.7h-8.81a.48.48,0,0,0-.43.43v17.2a.45.45,0,0,0,.42.42h12.59a.45.45,0,0,0,.42-.42V49.9a.44.44,0,0,0-.12-.3L179,45.83A.43.43,0,0,0,178.74,45.7Zm3.35,17.21H170.35V46.55h8V49.9a.45.45,0,0,0,.42.42h3.35Zm-2.93-15.76,2.33,2.33h-2.33Z"/><path class="cls-4" d="M106.56,42.59a2.1,2.1,0,0,1-.78,1.75,3.52,3.52,0,0,1-2.22.61h-.88V47.9h-.87v-7.5h1.94Q106.56,40.41,106.56,42.59Zm-3.88,1.62h.78a2.92,2.92,0,0,0,1.68-.37,1.38,1.38,0,0,0,.52-1.2,1.29,1.29,0,0,0-.49-1.11,2.54,2.54,0,0,0-1.52-.36h-1Z"/><path class="cls-4" d="M110.3,42.18a3.34,3.34,0,0,1,.67.06l-.12.79a2.9,2.9,0,0,0-.62-.08,1.5,1.5,0,0,0-1.17.55,2,2,0,0,0-.48,1.38v3h-.85V42.28h.7l.1,1h0a2.47,2.47,0,0,1,.75-.85A1.69,1.69,0,0,1,110.3,42.18Z"/><path class="cls-4" d="M114.14,48a2.58,2.58,0,0,1-2-.76,2.94,2.94,0,0,1-.72-2.11,3.26,3.26,0,0,1,.67-2.16,2.22,2.22,0,0,1,1.8-.8,2.12,2.12,0,0,1,1.67.69,2.66,2.66,0,0,1,.62,1.83v.54h-3.87a2.22,2.22,0,0,0,.5,1.5,1.73,1.73,0,0,0,1.33.51,4.52,4.52,0,0,0,1.79-.38v.76a4.51,4.51,0,0,1-.85.28A4.82,4.82,0,0,1,114.14,48Zm-.23-5.11a1.39,1.39,0,0,0-1.08.44,2,2,0,0,0-.47,1.22h2.94a1.87,1.87,0,0,0-.36-1.23A1.26,1.26,0,0,0,113.91,42.89Z"/><path class="cls-4" d="M118.62,47.9l-2.13-5.62h.91l1.21,3.33q.41,1.17.48,1.52h0a11.29,11.29,0,0,1,.36-1.13q.3-.85,1.35-3.72h.91l-2.13,5.62Z"/><path class="cls-4" d="M124.77,48a2.58,2.58,0,0,1-2-.76,2.94,2.94,0,0,1-.72-2.11,3.26,3.26,0,0,1,.67-2.16,2.22,2.22,0,0,1,1.8-.8,2.12,2.12,0,0,1,1.67.69,2.66,2.66,0,0,1,.62,1.83v.54H123a2.22,2.22,0,0,0,.5,1.5,1.73,1.73,0,0,0,1.33.51,4.52,4.52,0,0,0,1.79-.38v.76a4.51,4.51,0,0,1-.85.28A4.82,4.82,0,0,1,124.77,48Zm-.23-5.11a1.39,1.39,0,0,0-1.08.44,2,2,0,0,0-.47,1.22h2.94a1.87,1.87,0,0,0-.36-1.23A1.26,1.26,0,0,0,124.53,42.89Z"/><path class="cls-4" d="M131.87,47.9V44.27a1.46,1.46,0,0,0-.31-1,1.27,1.27,0,0,0-1-.34,1.61,1.61,0,0,0-1.29.48,2.4,2.4,0,0,0-.41,1.57V47.9H128V42.28h.69l.14.77h0a1.74,1.74,0,0,1,.73-.64,2.39,2.39,0,0,1,1.05-.23,2.13,2.13,0,0,1,1.53.49,2.08,2.08,0,0,1,.51,1.57V47.9Z"/><path class="cls-4" d="M136,47.3a2.76,2.76,0,0,0,.44,0l.33-.07v.65a1.56,1.56,0,0,1-.41.11,3.09,3.09,0,0,1-.49,0q-1.63,0-1.63-1.72V42.94h-.8v-.41l.8-.35.36-1.2h.49v1.3h1.63v.66h-1.63v3.31a1.14,1.14,0,0,0,.24.78A.84.84,0,0,0,136,47.3Z"/><path class="cls-4" d="M137.57,40.76a.56.56,0,0,1,.14-.43.53.53,0,0,1,.71,0,.55.55,0,0,1,.15.43.56.56,0,0,1-.15.43.49.49,0,0,1-.35.14.49.49,0,0,1-.36-.14A.57.57,0,0,1,137.57,40.76Zm.92,7.14h-.85V42.28h.85Z"/><path class="cls-4" d="M141.27,47.9l-2.13-5.62H140l1.21,3.33q.41,1.17.48,1.52h0a11.29,11.29,0,0,1,.36-1.13q.3-.85,1.35-3.72h.91l-2.13,5.62Z"/><path class="cls-4" d="M147.41,48a2.58,2.58,0,0,1-2-.76,2.94,2.94,0,0,1-.72-2.11,3.26,3.26,0,0,1,.67-2.16,2.22,2.22,0,0,1,1.8-.8,2.12,2.12,0,0,1,1.67.69,2.66,2.66,0,0,1,.62,1.83v.54h-3.87a2.22,2.22,0,0,0,.5,1.5,1.73,1.73,0,0,0,1.33.51,4.52,4.52,0,0,0,1.79-.38v.76a4.51,4.51,0,0,1-.85.28A4.82,4.82,0,0,1,147.41,48Zm-.23-5.11a1.39,1.39,0,0,0-1.08.44,2,2,0,0,0-.47,1.22h2.94a1.87,1.87,0,0,0-.36-1.23A1.26,1.26,0,0,0,147.18,42.89Z"/><path class="cls-4" d="M97.32,60.6a2.58,2.58,0,0,1-2-.76,2.94,2.94,0,0,1-.72-2.11,3.26,3.26,0,0,1,.67-2.16,2.22,2.22,0,0,1,1.8-.8,2.12,2.12,0,0,1,1.67.69,2.66,2.66,0,0,1,.62,1.83v.54H95.51a2.22,2.22,0,0,0,.5,1.5,1.73,1.73,0,0,0,1.33.51,4.52,4.52,0,0,0,1.79-.38v.76a4.51,4.51,0,0,1-.85.28A4.82,4.82,0,0,1,97.32,60.6Zm-.23-5.11a1.39,1.39,0,0,0-1.08.44,2,2,0,0,0-.47,1.22h2.94a1.87,1.87,0,0,0-.36-1.23A1.26,1.26,0,0,0,97.08,55.49Z"/><path class="cls-4" d="M101.42,60.5h-.85v-8h.85Z"/><path class="cls-4" d="M105.34,60.6a2.58,2.58,0,0,1-2-.76,2.94,2.94,0,0,1-.72-2.11,3.26,3.26,0,0,1,.67-2.16,2.22,2.22,0,0,1,1.8-.8,2.12,2.12,0,0,1,1.67.69,2.66,2.66,0,0,1,.62,1.83v.54h-3.87a2.22,2.22,0,0,0,.5,1.5,1.73,1.73,0,0,0,1.33.51,4.52,4.52,0,0,0,1.79-.38v.76a4.51,4.51,0,0,1-.85.28A4.82,4.82,0,0,1,105.34,60.6Zm-.23-5.11a1.39,1.39,0,0,0-1.08.44,2,2,0,0,0-.47,1.22h2.94a1.87,1.87,0,0,0-.36-1.23A1.26,1.26,0,0,0,105.11,55.49Z"/><path class="cls-4" d="M115.75,60.5V56.85a1.52,1.52,0,0,0-.29-1,1.11,1.11,0,0,0-.89-.34,1.44,1.44,0,0,0-1.17.46,2.17,2.17,0,0,0-.38,1.4V60.5h-.85V56.85a1.52,1.52,0,0,0-.29-1,1.12,1.12,0,0,0-.9-.34,1.39,1.39,0,0,0-1.17.48,2.59,2.59,0,0,0-.37,1.57V60.5h-.85V54.88h.69l.14.77h0a1.68,1.68,0,0,1,.68-.64,2.08,2.08,0,0,1,1-.23,1.67,1.67,0,0,1,1.72,1h0a1.79,1.79,0,0,1,.73-.7,2.26,2.26,0,0,1,1.09-.26,1.9,1.9,0,0,1,1.43.49,2.19,2.19,0,0,1,.47,1.57V60.5Z"/><path class="cls-4" d="M120.47,60.6a2.58,2.58,0,0,1-2-.76,2.94,2.94,0,0,1-.72-2.11,3.26,3.26,0,0,1,.67-2.16,2.22,2.22,0,0,1,1.8-.8,2.12,2.12,0,0,1,1.67.69,2.66,2.66,0,0,1,.62,1.83v.54h-3.87a2.22,2.22,0,0,0,.5,1.5,1.73,1.73,0,0,0,1.33.51,4.52,4.52,0,0,0,1.79-.38v.76a4.51,4.51,0,0,1-.85.28A4.82,4.82,0,0,1,120.47,60.6Zm-.23-5.11a1.39,1.39,0,0,0-1.08.44,2,2,0,0,0-.47,1.22h2.94a1.87,1.87,0,0,0-.36-1.23A1.26,1.26,0,0,0,120.24,55.49Z"/><path class="cls-4" d="M127.57,60.5V56.87a1.46,1.46,0,0,0-.31-1,1.27,1.27,0,0,0-1-.34A1.61,1.61,0,0,0,125,56a2.4,2.4,0,0,0-.41,1.57V60.5h-.85V54.88h.69l.14.77h0a1.74,1.74,0,0,1,.73-.64,2.39,2.39,0,0,1,1.05-.23,2.13,2.13,0,0,1,1.53.49,2.08,2.08,0,0,1,.51,1.57V60.5Z"/><path class="cls-4" d="M131.72,59.9a2.76,2.76,0,0,0,.44,0l.33-.07v.65a1.56,1.56,0,0,1-.41.11,3.09,3.09,0,0,1-.49,0q-1.63,0-1.63-1.72V55.54h-.8v-.41l.8-.35.36-1.2h.49v1.3h1.63v.66h-1.63v3.31a1.14,1.14,0,0,0,.24.78A.84.84,0,0,0,131.72,59.9Z"/><path class="cls-4" d="M137,59a1.41,1.41,0,0,1-.58,1.21,2.74,2.74,0,0,1-1.64.43,3.57,3.57,0,0,1-1.74-.35v-.79a4.19,4.19,0,0,0,.87.32,3.63,3.63,0,0,0,.89.12,2,2,0,0,0,1-.21.73.73,0,0,0,.07-1.21,4.46,4.46,0,0,0-1.11-.55,6,6,0,0,1-1.12-.51,1.52,1.52,0,0,1-.49-.49,1.29,1.29,0,0,1-.16-.66,1.26,1.26,0,0,1,.56-1.08,2.6,2.6,0,0,1,1.53-.4,4.49,4.49,0,0,1,1.77.37l-.3.69a4.07,4.07,0,0,0-1.53-.35,1.76,1.76,0,0,0-.91.19.59.59,0,0,0-.31.52.63.63,0,0,0,.12.38,1.14,1.14,0,0,0,.37.3,8.23,8.23,0,0,0,1,.42,3.69,3.69,0,0,1,1.35.73A1.29,1.29,0,0,1,137,59Z"/><path class="cls-4" d="M145.41,57.69a3.1,3.1,0,0,1-.69,2.15,2.44,2.44,0,0,1-1.91.77,2.54,2.54,0,0,1-1.34-.35,2.34,2.34,0,0,1-.9-1,3.53,3.53,0,0,1-.32-1.55,3.09,3.09,0,0,1,.69-2.14,2.43,2.43,0,0,1,1.91-.77,2.38,2.38,0,0,1,1.87.78A3.09,3.09,0,0,1,145.41,57.69Zm-4.28,0a2.67,2.67,0,0,0,.43,1.64,1.71,1.71,0,0,0,2.54,0,2.65,2.65,0,0,0,.43-1.64,2.61,2.61,0,0,0-.43-1.63,1.52,1.52,0,0,0-1.28-.56,1.5,1.5,0,0,0-1.26.55A2.64,2.64,0,0,0,141.13,57.69Z"/><path class="cls-4" d="M149.2,54.78a3.34,3.34,0,0,1,.67.06l-.12.79a2.9,2.9,0,0,0-.62-.08,1.5,1.5,0,0,0-1.17.55,2,2,0,0,0-.48,1.38v3h-.85V54.88h.7l.1,1h0a2.47,2.47,0,0,1,.75-.85A1.69,1.69,0,0,1,149.2,54.78Z"/><path class="cls-5" d="M104.58,67.37v.79l-.9.23a1.56,1.56,0,0,1,.25.86,1.74,1.74,0,0,1-.64,1.44,2.79,2.79,0,0,1-1.79.52l-.28,0-.23,0a.52.52,0,0,0-.24.41q0,.34.86.34h1a2.22,2.22,0,0,1,1.44.41,1.45,1.45,0,0,1,.5,1.19,1.76,1.76,0,0,1-.84,1.56,4.37,4.37,0,0,1-2.41.55,3.33,3.33,0,0,1-1.83-.42A1.33,1.33,0,0,1,98.8,74a1.23,1.23,0,0,1,.32-.87,1.84,1.84,0,0,1,.95-.5,1,1,0,0,1-.42-.34.82.82,0,0,1,0-1,2.17,2.17,0,0,1,.55-.43,1.54,1.54,0,0,1-.71-.63,1.91,1.91,0,0,1-.26-1,1.79,1.79,0,0,1,.61-1.45,2.64,2.64,0,0,1,1.74-.51,4.43,4.43,0,0,1,.57,0l.42.06Zm-4.42,6.54a.57.57,0,0,0,.31.51,1.71,1.71,0,0,0,.87.18,3.08,3.08,0,0,0,1.32-.23.7.7,0,0,0,.48-.63.45.45,0,0,0-.28-.45,2.31,2.31,0,0,0-.87-.12h-.81a1.23,1.23,0,0,0-.72.2A.62.62,0,0,0,100.16,73.91Zm.57-4.67a1.17,1.17,0,0,0,.21.74.77.77,0,0,0,.65.27.76.76,0,0,0,.65-.27,1.2,1.2,0,0,0,.21-.74q0-1-.85-1T100.72,69.25Z"/><path class="cls-5" d="M109.32,73.1l-.21-.73H109a1.66,1.66,0,0,1-.71.62,2.44,2.44,0,0,1-1.05.22,2,2,0,0,1-1.52-.54,2.17,2.17,0,0,1-.51-1.56V67.37h1.56v3.35a1.6,1.6,0,0,0,.22.93.8.8,0,0,0,.7.31,1.06,1.06,0,0,0,.95-.44,2.72,2.72,0,0,0,.29-1.45v-2.7h1.56V73.1Z"/><path class="cls-5" d="M111.83,65.89q0-.76.85-.76t.85.76a.75.75,0,0,1-.21.57.9.9,0,0,1-.64.2Q111.83,66.66,111.83,65.89Zm1.63,7.21H111.9V67.37h1.56Z"/><path class="cls-5" d="M116.66,73.21a1.86,1.86,0,0,1-1.59-.78,4.39,4.39,0,0,1,0-4.37,1.91,1.91,0,0,1,1.62-.79,1.87,1.87,0,0,1,1.65.84h.05a6.34,6.34,0,0,1-.12-1.14V65.12h1.57v8h-1.2l-.3-.74h-.07A1.79,1.79,0,0,1,116.66,73.21ZM117.2,72a1.06,1.06,0,0,0,.88-.35,2,2,0,0,0,.3-1.18v-.17a2.34,2.34,0,0,0-.28-1.32,1.06,1.06,0,0,0-.93-.4.92.92,0,0,0-.81.44,2.36,2.36,0,0,0-.29,1.29,2.25,2.25,0,0,0,.29,1.27A1,1,0,0,0,117.2,72Z"/><path class="cls-5" d="M123.82,73.21a3,3,0,0,1-2.16-.76,2.89,2.89,0,0,1-.78-2.16,3.18,3.18,0,0,1,.72-2.23,2.56,2.56,0,0,1,2-.79,2.53,2.53,0,0,1,1.89.69,2.62,2.62,0,0,1,.68,1.91v.76h-3.7a1.51,1.51,0,0,0,.4,1,1.39,1.39,0,0,0,1,.37,4.3,4.3,0,0,0,1-.11,4.87,4.87,0,0,0,1-.34V72.8a3.65,3.65,0,0,1-.88.31A5.51,5.51,0,0,1,123.82,73.21Zm-.22-4.83a1,1,0,0,0-.78.32,1.46,1.46,0,0,0-.32.89h2.19a1.3,1.3,0,0,0-.3-.89A1,1,0,0,0,123.6,68.38Z"/><path class="cls-5" d="M128.73,73.1h-1.56v-8h1.56Z"/><path class="cls-5" d="M130,65.89q0-.76.85-.76t.85.76a.75.75,0,0,1-.21.57.9.9,0,0,1-.64.2Q130,66.66,130,65.89Zm1.63,7.21h-1.56V67.37h1.56Z"/><path class="cls-5" d="M138.34,73.1h-1.56V69.75a1.61,1.61,0,0,0-.22-.93.8.8,0,0,0-.7-.31,1.06,1.06,0,0,0-.95.44,2.72,2.72,0,0,0-.29,1.45v2.7H133V67.37h1.19l.21.73h.09a1.65,1.65,0,0,1,.72-.63,2.46,2.46,0,0,1,1-.21,2,2,0,0,1,1.52.54,2.17,2.17,0,0,1,.52,1.56Z"/><path class="cls-5" d="M142.28,73.21a3,3,0,0,1-2.16-.76,2.89,2.89,0,0,1-.78-2.16,3.18,3.18,0,0,1,.72-2.23,2.56,2.56,0,0,1,2-.79,2.53,2.53,0,0,1,1.89.69,2.62,2.62,0,0,1,.68,1.91v.76h-3.7a1.51,1.51,0,0,0,.4,1,1.39,1.39,0,0,0,1,.37,4.3,4.3,0,0,0,1-.11,4.87,4.87,0,0,0,1-.34V72.8a3.65,3.65,0,0,1-.88.31A5.51,5.51,0,0,1,142.28,73.21Zm-.22-4.83a1,1,0,0,0-.78.32,1.46,1.46,0,0,0-.32.89h2.19a1.3,1.3,0,0,0-.3-.89A1,1,0,0,0,142.06,68.38Z"/><path class="cls-5" d="M149.63,71.4a1.58,1.58,0,0,1-.61,1.34,3,3,0,0,1-1.83.46,5.78,5.78,0,0,1-1.07-.08,4,4,0,0,1-.83-.25V71.58a5.43,5.43,0,0,0,1,.34,4,4,0,0,0,1,.14q.85,0,.85-.49a.41.41,0,0,0-.11-.3,1.64,1.64,0,0,0-.39-.26q-.28-.15-.74-.34a4.64,4.64,0,0,1-1-.51,1.45,1.45,0,0,1-.45-.54,1.79,1.79,0,0,1-.14-.75,1.36,1.36,0,0,1,.59-1.18,2.89,2.89,0,0,1,1.68-.42,4.77,4.77,0,0,1,2,.45l-.47,1.13q-.43-.18-.8-.3a2.53,2.53,0,0,0-.76-.12q-.69,0-.69.37a.44.44,0,0,0,.22.36,6.08,6.08,0,0,0,1,.46,4.51,4.51,0,0,1,1,.51,1.5,1.5,0,0,1,.46.54A1.68,1.68,0,0,1,149.63,71.4Z"/></g></g></svg>