<svg xmlns="http://www.w3.org/2000/svg" viewBox="0 0 169.71 73.91"><defs><style>.cls-1{fill:#2e73ba;}.cls-2,.cls-3{fill:#fff;}.cls-2{stroke:#fff;stroke-miterlimit:10;stroke-width:2px;}.cls-4{fill:#636363;}.cls-5{fill:#444;}</style></defs><title>fecha_azul</title><g id="Capa_2" data-name="Capa 2"><g id="Capa_2-2" data-name="Capa 2"><path class="cls-1" d="M169.45,37.18,133,73.65a.89.89,0,0,1-.87.23L.66,37.55a.89.89,0,0,1,0-1.73L132.41,0a.89.89,0,0,1,.86.23l36.17,35.65A.89.89,0,0,1,169.45,37.18Z"/><path class="cls-2" d="M160.68,36.89,130.9,66.67a.44.44,0,0,1-.43.11L23.29,37.16a.44.44,0,0,1,0-.85L130.79,7.11a.44.44,0,0,1,.42.11l29.47,29A.44.44,0,0,1,160.68,36.89Z"/><circle class="cls-1" cx="136.37" cy="36.62" r="13.47"/><path class="cls-3" d="M140.13,37.67H132.8a.37.37,0,0,0,0,.74h7.33a.37.37,0,0,0,0-.74Z"/><path class="cls-3" d="M138.67,34.74H132.8a.37.37,0,1,0,0,.74h5.86a.37.37,0,1,0,0-.74Z"/><path class="cls-3" d="M132.8,41.35h7.33a.37.37,0,1,0,0-.74H132.8a.37.37,0,1,0,0,.74Z"/><path class="cls-3" d="M138.67,28.51H131a.42.42,0,0,0-.37.37v15a.39.39,0,0,0,.37.37h11a.39.39,0,0,0,.37-.37V32.18a.38.38,0,0,0-.11-.26l-3.3-3.3A.38.38,0,0,0,138.67,28.51Zm2.93,15H131.34V29.25h7v2.93a.39.39,0,0,0,.37.37h2.93ZM139,29.77l2,2h-2Z"/><path class="cls-4" d="M81.16,28.41H78V22.7h3.18v.59H78.64v1.84H81v.59H78.64v2.1h2.52Z"/><path class="cls-4" d="M83,28.41h-.65V22.33H83Z"/><path class="cls-4" d="M86.16,28.49a2,2,0,0,1-1.5-.58,2.24,2.24,0,0,1-.55-1.61,2.48,2.48,0,0,1,.51-1.64A1.69,1.69,0,0,1,86,24.05a1.61,1.61,0,0,1,1.27.53,2,2,0,0,1,.47,1.4v.41H84.78a1.7,1.7,0,0,0,.38,1.14,1.32,1.32,0,0,0,1,.39,3.45,3.45,0,0,0,1.37-.29v.58a3.41,3.41,0,0,1-.65.21A3.66,3.66,0,0,1,86.16,28.49ZM86,24.59a1.06,1.06,0,0,0-.82.34,1.55,1.55,0,0,0-.36.93H87a1.43,1.43,0,0,0-.27-.94A1,1,0,0,0,86,24.59Z"/><path class="cls-4" d="M94.29,28.41V25.63a1.15,1.15,0,0,0-.22-.77.85.85,0,0,0-.68-.26,1.1,1.1,0,0,0-.89.35A1.65,1.65,0,0,0,92.21,26v2.39h-.65V25.63a1.15,1.15,0,0,0-.22-.77.85.85,0,0,0-.68-.26,1.06,1.06,0,0,0-.89.37,2,2,0,0,0-.28,1.2v2.25h-.65V24.13h.53l.11.59h0a1.27,1.27,0,0,1,.52-.49,1.58,1.58,0,0,1,.75-.18,1.27,1.27,0,0,1,1.31.73h0a1.36,1.36,0,0,1,.55-.53,1.72,1.72,0,0,1,.83-.2,1.45,1.45,0,0,1,1.09.37,1.67,1.67,0,0,1,.36,1.19v2.79Z"/><path class="cls-4" d="M98.09,28.49a2,2,0,0,1-1.5-.58A2.24,2.24,0,0,1,96,26.31a2.48,2.48,0,0,1,.51-1.64,1.69,1.69,0,0,1,1.37-.61,1.61,1.61,0,0,1,1.27.53,2,2,0,0,1,.47,1.4v.41H96.71a1.7,1.7,0,0,0,.38,1.14,1.32,1.32,0,0,0,1,.39,3.45,3.45,0,0,0,1.37-.29v.58a3.41,3.41,0,0,1-.65.21A3.66,3.66,0,0,1,98.09,28.49Zm-.18-3.89a1.06,1.06,0,0,0-.82.34,1.55,1.55,0,0,0-.36.93H99a1.43,1.43,0,0,0-.27-.94A1,1,0,0,0,97.91,24.59Z"/><path class="cls-4" d="M103.7,28.41V25.64a1.12,1.12,0,0,0-.24-.78,1,1,0,0,0-.75-.26,1.23,1.23,0,0,0-1,.36,1.83,1.83,0,0,0-.31,1.2v2.25h-.65V24.13h.53l.11.59h0a1.32,1.32,0,0,1,.56-.49,1.82,1.82,0,0,1,.8-.17,1.63,1.63,0,0,1,1.16.37,1.59,1.59,0,0,1,.39,1.19v2.79Z"/><path class="cls-4" d="M107.06,28l.33,0,.25-.05v.5a1.19,1.19,0,0,1-.31.08l-.37,0q-1.24,0-1.24-1.31V24.63h-.61v-.31l.61-.27.27-.91h.38v1h1.24v.5h-1.24v2.52a.87.87,0,0,0,.18.59A.64.64,0,0,0,107.06,28Z"/><path class="cls-4" d="M112.2,26.27a2.36,2.36,0,0,1-.53,1.63,1.86,1.86,0,0,1-1.46.59,1.93,1.93,0,0,1-1-.27,1.78,1.78,0,0,1-.69-.77,2.69,2.69,0,0,1-.24-1.18,2.36,2.36,0,0,1,.52-1.63,1.85,1.85,0,0,1,1.45-.58,1.81,1.81,0,0,1,1.43.6A2.35,2.35,0,0,1,112.2,26.27Zm-3.26,0a2,2,0,0,0,.33,1.25,1.3,1.3,0,0,0,1.93,0,2,2,0,0,0,.33-1.25A2,2,0,0,0,111.2,25a1.16,1.16,0,0,0-1-.42,1.14,1.14,0,0,0-1,.42A2,2,0,0,0,108.94,26.27Z"/><path class="cls-4" d="M116.1,27.24a1.07,1.07,0,0,1-.45.92,2.09,2.09,0,0,1-1.25.32,2.72,2.72,0,0,1-1.33-.27v-.6a3.22,3.22,0,0,0,.66.25,2.76,2.76,0,0,0,.68.09,1.55,1.55,0,0,0,.78-.16.56.56,0,0,0,.06-.92,3.41,3.41,0,0,0-.85-.42,4.58,4.58,0,0,1-.85-.39,1.16,1.16,0,0,1-.37-.38,1,1,0,0,1-.12-.5,1,1,0,0,1,.43-.83,2,2,0,0,1,1.17-.3,3.42,3.42,0,0,1,1.35.28l-.23.53a3.1,3.1,0,0,0-1.17-.27,1.35,1.35,0,0,0-.7.14.45.45,0,0,0-.23.4.48.48,0,0,0,.09.29.87.87,0,0,0,.28.23,6.41,6.41,0,0,0,.75.32,2.8,2.8,0,0,1,1,.56A1,1,0,0,1,116.1,27.24Z"/><path class="cls-4" d="M68.67,38.09a1.85,1.85,0,0,1-.76-.15,1.44,1.44,0,0,1-.58-.47h0a5.74,5.74,0,0,1,0,.71v1.76h-.65v-6.2h.53l.09.59h0a1.5,1.5,0,0,1,.58-.51,1.77,1.77,0,0,1,.76-.16,1.58,1.58,0,0,1,1.31.58,3.1,3.1,0,0,1,0,3.27A1.59,1.59,0,0,1,68.67,38.09Zm-.09-3.89a1.15,1.15,0,0,0-.95.36,1.87,1.87,0,0,0-.3,1.16v.14a2.14,2.14,0,0,0,.3,1.29,1.14,1.14,0,0,0,1,.39,1,1,0,0,0,.87-.45,2.13,2.13,0,0,0,.31-1.24,2.05,2.05,0,0,0-.31-1.23A1,1,0,0,0,68.57,34.2Z"/><path class="cls-4" d="M73.53,33.65a2.54,2.54,0,0,1,.51,0l-.09.6a2.21,2.21,0,0,0-.47-.06,1.14,1.14,0,0,0-.89.42,1.54,1.54,0,0,0-.37,1.05V38h-.65V33.73h.54l.07.79h0a1.88,1.88,0,0,1,.57-.64A1.29,1.29,0,0,1,73.53,33.65Z"/><path class="cls-4" d="M76.65,38.09a2,2,0,0,1-1.5-.58,2.24,2.24,0,0,1-.55-1.61,2.48,2.48,0,0,1,.51-1.64,1.69,1.69,0,0,1,1.37-.61,1.61,1.61,0,0,1,1.27.53,2,2,0,0,1,.47,1.4V36H75.28a1.7,1.7,0,0,0,.38,1.14,1.32,1.32,0,0,0,1,.39A3.45,3.45,0,0,0,78,37.23v.58a3.41,3.41,0,0,1-.65.21A3.66,3.66,0,0,1,76.65,38.09Zm-.18-3.89a1.06,1.06,0,0,0-.82.34,1.55,1.55,0,0,0-.36.93h2.24a1.43,1.43,0,0,0-.27-.94A1,1,0,0,0,76.47,34.19Z"/><path class="cls-4" d="M80.27,38l-1.62-4.28h.7l.92,2.54a12,12,0,0,1,.37,1.16h0a8.77,8.77,0,0,1,.27-.86q.23-.65,1-2.84h.7L81,38Z"/><path class="cls-4" d="M85.15,38.09a2,2,0,0,1-1.5-.58,2.24,2.24,0,0,1-.55-1.61,2.48,2.48,0,0,1,.51-1.64A1.69,1.69,0,0,1,85,33.65a1.61,1.61,0,0,1,1.27.53,2,2,0,0,1,.47,1.4V36H83.77a1.7,1.7,0,0,0,.38,1.14,1.32,1.32,0,0,0,1,.39,3.45,3.45,0,0,0,1.37-.29v.58a3.41,3.41,0,0,1-.65.21A3.66,3.66,0,0,1,85.15,38.09ZM85,34.19a1.06,1.06,0,0,0-.82.34,1.55,1.55,0,0,0-.36.93H86a1.43,1.43,0,0,0-.27-.94A1,1,0,0,0,85,34.19Z"/><path class="cls-4" d="M90.76,38V35.24a1.12,1.12,0,0,0-.24-.78,1,1,0,0,0-.75-.26,1.23,1.23,0,0,0-1,.36,1.83,1.83,0,0,0-.31,1.2V38h-.65V33.73h.53l.11.59h0a1.32,1.32,0,0,1,.56-.49,1.82,1.82,0,0,1,.8-.17A1.63,1.63,0,0,1,91,34a1.59,1.59,0,0,1,.39,1.19V38Z"/><path class="cls-4" d="M94.12,37.55l.33,0,.25-.05V38a1.19,1.19,0,0,1-.31.08l-.37,0q-1.24,0-1.24-1.31V34.23h-.61v-.31l.61-.27.27-.91h.38v1h1.24v.5H93.43v2.52a.87.87,0,0,0,.18.59A.64.64,0,0,0,94.12,37.55Z"/><path class="cls-4" d="M95.51,32.57a.43.43,0,0,1,.11-.33.4.4,0,0,1,.54,0,.42.42,0,0,1,.11.32.43.43,0,0,1-.11.33.38.38,0,0,1-.27.11.37.37,0,0,1-.27-.11A.44.44,0,0,1,95.51,32.57Zm.7,5.44h-.65V33.73h.65Z"/><path class="cls-4" d="M98.52,38,96.9,33.73h.7l.92,2.54a12,12,0,0,1,.37,1.16h0a8.77,8.77,0,0,1,.27-.86q.23-.65,1-2.84h.7L99.28,38Z"/><path class="cls-4" d="M105.29,35.87a2.36,2.36,0,0,1-.53,1.63,1.86,1.86,0,0,1-1.46.59,1.93,1.93,0,0,1-1-.27,1.78,1.78,0,0,1-.69-.77,2.69,2.69,0,0,1-.24-1.18,2.36,2.36,0,0,1,.52-1.63,1.85,1.85,0,0,1,1.45-.58,1.81,1.81,0,0,1,1.43.6A2.35,2.35,0,0,1,105.29,35.87Zm-3.26,0a2,2,0,0,0,.33,1.25,1.3,1.3,0,0,0,1.93,0,2,2,0,0,0,.33-1.25,2,2,0,0,0-.33-1.24,1.16,1.16,0,0,0-1-.42,1.14,1.14,0,0,0-1,.42A2,2,0,0,0,102,35.87Z"/><path class="cls-4" d="M109.19,36.84a1.07,1.07,0,0,1-.45.92,2.09,2.09,0,0,1-1.25.32,2.72,2.72,0,0,1-1.33-.27v-.6a3.22,3.22,0,0,0,.66.25,2.76,2.76,0,0,0,.68.09,1.55,1.55,0,0,0,.78-.16.56.56,0,0,0,.06-.92,3.41,3.41,0,0,0-.85-.42,4.58,4.58,0,0,1-.85-.39,1.16,1.16,0,0,1-.37-.38,1,1,0,0,1-.12-.5,1,1,0,0,1,.43-.83,2,2,0,0,1,1.17-.3,3.42,3.42,0,0,1,1.35.28l-.23.53a3.1,3.1,0,0,0-1.17-.27,1.35,1.35,0,0,0-.7.14.45.45,0,0,0-.23.4.48.48,0,0,0,.09.29.87.87,0,0,0,.28.23,6.41,6.41,0,0,0,.75.32,2.8,2.8,0,0,1,1,.56A1,1,0,0,1,109.19,36.84Z"/><path class="cls-4" d="M116,35.87a2.36,2.36,0,0,1-.53,1.63,1.86,1.86,0,0,1-1.46.59,1.93,1.93,0,0,1-1-.27,1.78,1.78,0,0,1-.69-.77,2.69,2.69,0,0,1-.24-1.18,2.36,2.36,0,0,1,.52-1.63,1.85,1.85,0,0,1,1.45-.58,1.81,1.81,0,0,1,1.43.6A2.35,2.35,0,0,1,116,35.87Zm-3.26,0a2,2,0,0,0,.33,1.25,1.3,1.3,0,0,0,1.93,0,2,2,0,0,0,.33-1.25,2,2,0,0,0-.33-1.24,1.16,1.16,0,0,0-1-.42,1.14,1.14,0,0,0-1,.42A2,2,0,0,0,112.75,35.87Z"/><path class="cls-5" d="M65.9,47.61H64.71V41.53H65.9Z"/><path class="cls-5" d="M67.1,42.11q0-.58.65-.58t.65.58a.57.57,0,0,1-.16.43.68.68,0,0,1-.49.15Q67.1,42.7,67.1,42.11Zm1.24,5.5H67.15V43.24h1.19Z"/><path class="cls-5" d="M73.62,47.61H72.43V45.06a1.23,1.23,0,0,0-.17-.71.61.61,0,0,0-.54-.24.8.8,0,0,0-.72.33,2.07,2.07,0,0,0-.22,1.11v2.05H69.59V43.24h.91l.16.56h.07a1.26,1.26,0,0,1,.55-.48,1.87,1.87,0,0,1,.79-.16,1.53,1.53,0,0,1,1.16.41,1.65,1.65,0,0,1,.39,1.19Z"/><path class="cls-5" d="M76.82,47.69a2.25,2.25,0,0,1-1.65-.58,2.2,2.2,0,0,1-.59-1.65,2.42,2.42,0,0,1,.55-1.7,2,2,0,0,1,1.52-.6,1.92,1.92,0,0,1,1.44.53,2,2,0,0,1,.52,1.46v.58H75.79a1.15,1.15,0,0,0,.3.79,1.06,1.06,0,0,0,.79.29,3.27,3.27,0,0,0,.75-.08,3.75,3.75,0,0,0,.73-.26v.92a2.81,2.81,0,0,1-.67.23A4.21,4.21,0,0,1,76.82,47.69ZM76.65,44a.76.76,0,0,0-.59.24,1.11,1.11,0,0,0-.25.68h1.67a1,1,0,0,0-.23-.68A.78.78,0,0,0,76.65,44Z"/><path class="cls-5" d="M82.35,47.61,82.12,47h0a1.76,1.76,0,0,1-.62.53,2,2,0,0,1-.83.15,1.34,1.34,0,0,1-1-.36,1.38,1.38,0,0,1-.36-1,1.15,1.15,0,0,1,.49-1,2.82,2.82,0,0,1,1.47-.37l.76,0V44.7a.59.59,0,0,0-.68-.66,3.1,3.1,0,0,0-1.23.32l-.39-.8a3.55,3.55,0,0,1,1.67-.39,2.08,2.08,0,0,1,1.35.38,1.41,1.41,0,0,1,.47,1.16v2.91Zm-.35-2-.46,0a1.47,1.47,0,0,0-.77.19.59.59,0,0,0-.25.52q0,.5.58.5a.92.92,0,0,0,.66-.24.84.84,0,0,0,.25-.63Z"/><path class="cls-5" d="M88.31,47.61H87.12V45.06a1.29,1.29,0,0,0-.16-.71.56.56,0,0,0-.5-.24.72.72,0,0,0-.66.34,2.2,2.2,0,0,0-.21,1.11v2.05H84.4V43.24h.91l.16.56h.07a1.21,1.21,0,0,1,.51-.47,1.65,1.65,0,0,1,.76-.17,1.37,1.37,0,0,1,1.33.64h.11a1.18,1.18,0,0,1,.52-.47,1.73,1.73,0,0,1,.77-.17,1.52,1.52,0,0,1,1.12.38A1.67,1.67,0,0,1,91,44.76v2.85h-1.2V45.06a1.29,1.29,0,0,0-.16-.71.56.56,0,0,0-.5-.24.74.74,0,0,0-.65.31,1.77,1.77,0,0,0-.22,1Z"/><path class="cls-5" d="M92.21,42.11q0-.58.65-.58t.65.58a.57.57,0,0,1-.16.43.68.68,0,0,1-.49.15Q92.21,42.7,92.21,42.11Zm1.24,5.5H92.26V43.24h1.19Z"/><path class="cls-5" d="M96.68,47.69A2.25,2.25,0,0,1,95,47.11a2.2,2.2,0,0,1-.59-1.65,2.42,2.42,0,0,1,.55-1.7,2,2,0,0,1,1.52-.6,1.92,1.92,0,0,1,1.44.53,2,2,0,0,1,.52,1.46v.58H95.64a1.15,1.15,0,0,0,.3.79,1.06,1.06,0,0,0,.79.29,3.27,3.27,0,0,0,.75-.08,3.75,3.75,0,0,0,.73-.26v.92a2.81,2.81,0,0,1-.67.23A4.21,4.21,0,0,1,96.68,47.69ZM96.51,44a.76.76,0,0,0-.59.24,1.11,1.11,0,0,0-.25.68h1.67a1,1,0,0,0-.23-.68A.78.78,0,0,0,96.51,44Z"/><path class="cls-5" d="M103.46,47.61h-1.19V45.06a1.23,1.23,0,0,0-.17-.71.61.61,0,0,0-.54-.24.8.8,0,0,0-.72.33,2.07,2.07,0,0,0-.22,1.11v2.05H99.43V43.24h.91l.16.56h.07a1.26,1.26,0,0,1,.55-.48,1.87,1.87,0,0,1,.79-.16,1.53,1.53,0,0,1,1.16.41,1.65,1.65,0,0,1,.39,1.19Z"/><path class="cls-5" d="M106.53,46.74a2.58,2.58,0,0,0,.75-.14v.89a2.67,2.67,0,0,1-1.09.2,1.34,1.34,0,0,1-1-.36,1.57,1.57,0,0,1-.33-1.08V44.14h-.57v-.5l.66-.4.34-.92H106v.93h1.22v.89H106v2.11a.46.46,0,0,0,.14.38A.56.56,0,0,0,106.53,46.74Z"/><path class="cls-5" d="M112.13,45.42a2.35,2.35,0,0,1-.56,1.67,2,2,0,0,1-1.57.6,2.19,2.19,0,0,1-1.11-.28,1.83,1.83,0,0,1-.74-.79,2.66,2.66,0,0,1-.26-1.2,2.33,2.33,0,0,1,.56-1.66,2.05,2.05,0,0,1,1.57-.59,2.2,2.2,0,0,1,1.11.27,1.82,1.82,0,0,1,.74.79A2.63,2.63,0,0,1,112.13,45.42Zm-3,0a1.83,1.83,0,0,0,.21,1,.76.76,0,0,0,.69.33.75.75,0,0,0,.69-.33,1.86,1.86,0,0,0,.21-1,1.8,1.8,0,0,0-.21-1,.9.9,0,0,0-1.38,0A1.8,1.8,0,0,0,109.11,45.42Z"/><path class="cls-5" d="M116.16,46.31a1.2,1.2,0,0,1-.47,1,2.31,2.31,0,0,1-1.4.35,4.39,4.39,0,0,1-.81-.06,3.06,3.06,0,0,1-.63-.19v-1a4.16,4.16,0,0,0,.75.26,3,3,0,0,0,.73.11q.65,0,.65-.37a.31.31,0,0,0-.09-.23,1.24,1.24,0,0,0-.3-.2l-.56-.26a3.55,3.55,0,0,1-.74-.39A1.1,1.1,0,0,1,113,45a1.36,1.36,0,0,1-.11-.57,1,1,0,0,1,.45-.9,2.2,2.2,0,0,1,1.28-.32,3.63,3.63,0,0,1,1.54.34l-.36.86q-.33-.14-.61-.23a1.92,1.92,0,0,0-.58-.09q-.53,0-.53.29a.34.34,0,0,0,.17.28,4.64,4.64,0,0,0,.74.35,3.46,3.46,0,0,1,.75.39,1.15,1.15,0,0,1,.35.41A1.27,1.27,0,0,1,116.16,46.31Z"/></g></g></svg>