<svg xmlns="http://www.w3.org/2000/svg" viewBox="0 0 169.71 73.91"><defs><style>.cls-1{fill:red;}.cls-2,.cls-3{fill:#fff;}.cls-2{stroke:#fff;stroke-miterlimit:10;stroke-width:2px;}.cls-4{fill:#636363;}.cls-5{fill:#444;}</style></defs><title>fecha_roja</title><g id="Capa_2" data-name="Capa 2"><g id="Capa_2-2" data-name="Capa 2"><path class="cls-1" d="M.26,36.74,36.74.26A.89.89,0,0,1,37.61,0L169.06,36.36a.89.89,0,0,1,0,1.73L37.3,73.88a.89.89,0,0,1-.86-.23L.27,38A.89.89,0,0,1,.26,36.74Z"/><path class="cls-2" d="M9,37,38.81,7.24a.44.44,0,0,1,.43-.11L146.42,36.75a.44.44,0,0,1,0,.85L38.92,66.8a.44.44,0,0,1-.42-.11L9,37.65A.44.44,0,0,1,9,37Z"/><circle class="cls-1" cx="33.93" cy="37.15" r="13.47"/><path class="cls-3" d="M35.52,36.48h-.78V28.43a.88.88,0,0,0-.88-.88h0a.88.88,0,0,0-.88.88h0v8.05h-.78V28.43a1.66,1.66,0,0,1,1.65-1.65h0a1.66,1.66,0,0,1,1.65,1.65h0v8.05Z"/><path class="cls-3" d="M38,36.48h-.78V29.81a.88.88,0,0,0-.88-.88h0a.88.88,0,0,0-.88.88h-.78a1.65,1.65,0,0,1,1.65-1.65h0A1.65,1.65,0,0,1,38,29.81h0v6.67Z"/><path class="cls-3" d="M39.83,45.55a2.86,2.86,0,0,1-2.12.79h-6.1a1.94,1.94,0,0,1-1.53-.74h0v0s-4.27-6.68-4.91-7.76h0a2.51,2.51,0,0,1-.43-1.21h0a1.94,1.94,0,0,1,1.94-1.94h0a1.94,1.94,0,0,1,1.6.84h0l1.4,1.73V30.73a1.65,1.65,0,0,1,1.65-1.65h0A1.65,1.65,0,0,1,33,30.73h-.78a.88.88,0,0,0-.88-.88h0a.88.88,0,0,0-.88.88h0v8.69L27.65,36h0a1.16,1.16,0,0,0-1-.51h0a1.17,1.17,0,0,0-1.16,1.16h0a1.88,1.88,0,0,0,.32.81h0c.31.52,1.54,2.46,2.68,4.27h0l2.2,3.46h0a1.16,1.16,0,0,0,.91.43h6.1A2.09,2.09,0,0,0,39.27,45h0a2.13,2.13,0,0,0,.52-1.53h0V33a.88.88,0,0,0-.88-.88h0A.88.88,0,0,0,38,33h-.78a1.65,1.65,0,0,1,1.65-1.65h0A1.65,1.65,0,0,1,40.58,33h0V43.48h0a2.89,2.89,0,0,1-.74,2.07Z"/><path class="cls-4" d="M56.55,28.48H53.36V22.76h3.18v.59H54v1.84h2.37v.59H54v2.1h2.52Z"/><path class="cls-4" d="M58.36,28.48h-.65V22.4h.65Z"/><path class="cls-4" d="M61.55,28.55A2,2,0,0,1,60,28a2.24,2.24,0,0,1-.55-1.61A2.48,2.48,0,0,1,60,24.73a1.69,1.69,0,0,1,1.37-.61,1.61,1.61,0,0,1,1.27.53,2,2,0,0,1,.47,1.4v.41H60.17a1.69,1.69,0,0,0,.38,1.14,1.32,1.32,0,0,0,1,.39,3.44,3.44,0,0,0,1.37-.29v.58a3.43,3.43,0,0,1-.65.21A3.65,3.65,0,0,1,61.55,28.55Zm-.18-3.89a1.06,1.06,0,0,0-.82.34,1.55,1.55,0,0,0-.36.93h2.24a1.42,1.42,0,0,0-.27-.94A1,1,0,0,0,61.37,24.66Z"/><path class="cls-4" d="M69.68,28.48V25.69a1.16,1.16,0,0,0-.22-.77.85.85,0,0,0-.68-.26,1.1,1.1,0,0,0-.89.35,1.65,1.65,0,0,0-.29,1.07v2.39H67V25.69a1.16,1.16,0,0,0-.22-.77.85.85,0,0,0-.68-.26,1.06,1.06,0,0,0-.89.37,2,2,0,0,0-.28,1.2v2.25h-.65V24.19h.53l.11.59h0a1.27,1.27,0,0,1,.52-.49,1.58,1.58,0,0,1,.75-.18,1.27,1.27,0,0,1,1.31.73h0a1.37,1.37,0,0,1,.55-.53,1.72,1.72,0,0,1,.83-.2,1.45,1.45,0,0,1,1.09.37,1.67,1.67,0,0,1,.36,1.19v2.79Z"/><path class="cls-4" d="M73.48,28.55A2,2,0,0,1,72,28a2.24,2.24,0,0,1-.55-1.61,2.48,2.48,0,0,1,.51-1.64,1.69,1.69,0,0,1,1.37-.61,1.61,1.61,0,0,1,1.27.53A2,2,0,0,1,75,26v.41H72.1a1.69,1.69,0,0,0,.38,1.14,1.32,1.32,0,0,0,1,.39,3.44,3.44,0,0,0,1.37-.29v.58a3.43,3.43,0,0,1-.65.21A3.65,3.65,0,0,1,73.48,28.55Zm-.18-3.89a1.06,1.06,0,0,0-.82.34,1.55,1.55,0,0,0-.36.93h2.24a1.42,1.42,0,0,0-.27-.94A1,1,0,0,0,73.3,24.66Z"/><path class="cls-4" d="M79.08,28.48V25.71a1.12,1.12,0,0,0-.24-.78,1,1,0,0,0-.75-.26,1.23,1.23,0,0,0-1,.36,1.84,1.84,0,0,0-.31,1.2v2.25h-.65V24.19h.53l.11.59h0a1.32,1.32,0,0,1,.56-.49,1.82,1.82,0,0,1,.8-.17,1.63,1.63,0,0,1,1.16.37,1.59,1.59,0,0,1,.39,1.19v2.79Z"/><path class="cls-4" d="M82.45,28l.33,0,.25-.05v.5a1.19,1.19,0,0,1-.31.08l-.37,0q-1.24,0-1.24-1.31V24.7H80.5v-.31l.61-.27.27-.91h.38v1H83v.5H81.76v2.52a.87.87,0,0,0,.18.59A.64.64,0,0,0,82.45,28Z"/><path class="cls-4" d="M87.58,26.33A2.36,2.36,0,0,1,87.06,28a1.86,1.86,0,0,1-1.46.59,1.93,1.93,0,0,1-1-.27,1.78,1.78,0,0,1-.69-.77,2.7,2.7,0,0,1-.24-1.18,2.36,2.36,0,0,1,.52-1.63,1.85,1.85,0,0,1,1.45-.58,1.81,1.81,0,0,1,1.43.6A2.35,2.35,0,0,1,87.58,26.33Zm-3.26,0a2,2,0,0,0,.33,1.25,1.3,1.3,0,0,0,1.93,0,2,2,0,0,0,.33-1.25,2,2,0,0,0-.33-1.24,1.16,1.16,0,0,0-1-.42,1.14,1.14,0,0,0-1,.42A2,2,0,0,0,84.32,26.33Z"/><path class="cls-4" d="M91.48,27.31a1.07,1.07,0,0,1-.45.92,2.09,2.09,0,0,1-1.25.32,2.72,2.72,0,0,1-1.33-.27v-.6a3.24,3.24,0,0,0,.66.25,2.76,2.76,0,0,0,.68.09,1.55,1.55,0,0,0,.78-.16.56.56,0,0,0,.06-.92,3.42,3.42,0,0,0-.85-.42,4.58,4.58,0,0,1-.85-.39,1.16,1.16,0,0,1-.37-.38,1,1,0,0,1-.12-.5,1,1,0,0,1,.43-.83,2,2,0,0,1,1.17-.3,3.42,3.42,0,0,1,1.35.28l-.23.53A3.1,3.1,0,0,0,90,24.66a1.34,1.34,0,0,0-.7.14.45.45,0,0,0-.23.4.48.48,0,0,0,.09.29.87.87,0,0,0,.28.23,6.34,6.34,0,0,0,.75.32,2.81,2.81,0,0,1,1,.56A1,1,0,0,1,91.48,27.31Z"/><path class="cls-4" d="M56.18,37.5h0a1.52,1.52,0,0,1-1.34.65,1.59,1.59,0,0,1-1.31-.57A2.53,2.53,0,0,1,53,35.95a2.57,2.57,0,0,1,.47-1.64,1.58,1.58,0,0,1,1.3-.59,1.56,1.56,0,0,1,1.34.63h.05l0-.31,0-.3V32h.65v6.08h-.53Zm-1.3.11a1.18,1.18,0,0,0,1-.36,1.83,1.83,0,0,0,.3-1.17v-.14a2.15,2.15,0,0,0-.3-1.3,1.15,1.15,0,0,0-1-.39,1,1,0,0,0-.87.44A2.2,2.2,0,0,0,53.7,36a2.12,2.12,0,0,0,.3,1.24A1,1,0,0,0,54.88,37.61Z"/><path class="cls-4" d="M60,38.15a2,2,0,0,1-1.5-.58A2.24,2.24,0,0,1,57.93,36a2.48,2.48,0,0,1,.51-1.64,1.69,1.69,0,0,1,1.37-.61,1.61,1.61,0,0,1,1.27.53,2,2,0,0,1,.47,1.4v.41H58.6A1.69,1.69,0,0,0,59,37.2a1.32,1.32,0,0,0,1,.39,3.44,3.44,0,0,0,1.37-.29v.58a3.43,3.43,0,0,1-.65.21A3.65,3.65,0,0,1,60,38.15Zm-.18-3.89a1.06,1.06,0,0,0-.82.34,1.55,1.55,0,0,0-.36.93h2.24a1.42,1.42,0,0,0-.27-.94A1,1,0,0,0,59.8,34.26Z"/><path class="cls-4" d="M64,37.62l.33,0,.25-.05V38a1.19,1.19,0,0,1-.31.08l-.37,0q-1.24,0-1.24-1.31V34.3h-.61V34l.61-.27L63,32.8h.38v1h1.24v.5H63.35v2.52a.87.87,0,0,0,.18.59A.64.64,0,0,0,64,37.62Z"/><path class="cls-4" d="M67.29,38.15a2,2,0,0,1-1.5-.58A2.24,2.24,0,0,1,65.24,36a2.48,2.48,0,0,1,.51-1.64,1.69,1.69,0,0,1,1.37-.61,1.61,1.61,0,0,1,1.27.53,2,2,0,0,1,.47,1.4v.41H65.91a1.69,1.69,0,0,0,.38,1.14,1.32,1.32,0,0,0,1,.39,3.44,3.44,0,0,0,1.37-.29v.58a3.43,3.43,0,0,1-.65.21A3.65,3.65,0,0,1,67.29,38.15Zm-.18-3.89a1.06,1.06,0,0,0-.82.34,1.55,1.55,0,0,0-.36.93h2.24a1.42,1.42,0,0,0-.27-.94A1,1,0,0,0,67.11,34.26Z"/><path class="cls-4" d="M71.68,38.15a1.83,1.83,0,0,1-1.44-.57A2.35,2.35,0,0,1,69.73,36a2.43,2.43,0,0,1,.52-1.66,1.86,1.86,0,0,1,1.47-.59,2.92,2.92,0,0,1,.62.07,2,2,0,0,1,.48.16l-.2.55a3.07,3.07,0,0,0-.47-.14,2.1,2.1,0,0,0-.45-.06q-1.31,0-1.3,1.66a2,2,0,0,0,.32,1.21,1.11,1.11,0,0,0,.94.42,2.88,2.88,0,0,0,1.1-.23v.57A2.34,2.34,0,0,1,71.68,38.15Z"/><path class="cls-4" d="M75.16,37.62l.33,0,.25-.05V38a1.19,1.19,0,0,1-.31.08l-.37,0q-1.24,0-1.24-1.31V34.3h-.61V34l.61-.27.27-.91h.38v1h1.24v.5H74.47v2.52a.87.87,0,0,0,.18.59A.64.64,0,0,0,75.16,37.62Z"/><path class="cls-4" d="M76.55,32.63a.43.43,0,0,1,.11-.33.4.4,0,0,1,.54,0,.42.42,0,0,1,.11.32.43.43,0,0,1-.11.33.4.4,0,0,1-.54,0A.44.44,0,0,1,76.55,32.63Zm.7,5.44H76.6V33.79h.65Z"/><path class="cls-4" d="M79.56,38.08l-1.62-4.28h.7l.92,2.54a12,12,0,0,1,.37,1.16h0a8.63,8.63,0,0,1,.27-.86q.23-.65,1-2.84h.7l-1.62,4.28Z"/><path class="cls-4" d="M86.33,35.93a2.36,2.36,0,0,1-.53,1.63,1.86,1.86,0,0,1-1.46.59,1.93,1.93,0,0,1-1-.27,1.78,1.78,0,0,1-.69-.77,2.7,2.7,0,0,1-.24-1.18,2.36,2.36,0,0,1,.52-1.63,1.85,1.85,0,0,1,1.45-.58,1.81,1.81,0,0,1,1.43.6A2.35,2.35,0,0,1,86.33,35.93Zm-3.26,0a2,2,0,0,0,.33,1.25,1.3,1.3,0,0,0,1.93,0,2,2,0,0,0,.33-1.25,2,2,0,0,0-.33-1.24,1.16,1.16,0,0,0-1-.42,1.14,1.14,0,0,0-1,.42A2,2,0,0,0,83.07,35.93Z"/><path class="cls-4" d="M90.23,36.91a1.07,1.07,0,0,1-.45.92,2.09,2.09,0,0,1-1.25.32,2.72,2.72,0,0,1-1.33-.27v-.6a3.24,3.24,0,0,0,.66.25,2.76,2.76,0,0,0,.68.09,1.55,1.55,0,0,0,.78-.16.56.56,0,0,0,.06-.92,3.42,3.42,0,0,0-.85-.42,4.58,4.58,0,0,1-.85-.39,1.16,1.16,0,0,1-.37-.38,1,1,0,0,1-.12-.5,1,1,0,0,1,.43-.83,2,2,0,0,1,1.17-.3,3.42,3.42,0,0,1,1.35.28l-.23.53a3.1,3.1,0,0,0-1.17-.27,1.34,1.34,0,0,0-.7.14.45.45,0,0,0-.23.4.48.48,0,0,0,.09.29.87.87,0,0,0,.28.23,6.34,6.34,0,0,0,.75.32,2.81,2.81,0,0,1,1,.56A1,1,0,0,1,90.23,36.91Z"/><path class="cls-4" d="M97.05,35.93a2.36,2.36,0,0,1-.53,1.63,1.86,1.86,0,0,1-1.46.59,1.93,1.93,0,0,1-1-.27,1.78,1.78,0,0,1-.69-.77,2.7,2.7,0,0,1-.24-1.18,2.36,2.36,0,0,1,.52-1.63,1.85,1.85,0,0,1,1.45-.58,1.81,1.81,0,0,1,1.43.6A2.35,2.35,0,0,1,97.05,35.93Zm-3.26,0a2,2,0,0,0,.33,1.25,1.3,1.3,0,0,0,1.93,0,2,2,0,0,0,.33-1.25,2,2,0,0,0-.33-1.24,1.16,1.16,0,0,0-1-.42,1.14,1.14,0,0,0-1,.42A2,2,0,0,0,93.79,35.93Z"/><path class="cls-4" d="M103.18,37.5h0a1.52,1.52,0,0,1-1.34.65,1.59,1.59,0,0,1-1.31-.57,2.53,2.53,0,0,1-.47-1.63,2.57,2.57,0,0,1,.47-1.64,1.58,1.58,0,0,1,1.3-.59,1.56,1.56,0,0,1,1.34.63h.05l0-.31,0-.3V32h.65v6.08h-.53Zm-1.3.11a1.18,1.18,0,0,0,1-.36,1.83,1.83,0,0,0,.3-1.17v-.14a2.15,2.15,0,0,0-.3-1.3,1.15,1.15,0,0,0-1-.39,1,1,0,0,0-.87.44,2.2,2.2,0,0,0-.3,1.25,2.12,2.12,0,0,0,.3,1.24A1,1,0,0,0,101.89,37.61Z"/><path class="cls-4" d="M107,38.15a2,2,0,0,1-1.5-.58,2.24,2.24,0,0,1-.55-1.61,2.48,2.48,0,0,1,.51-1.64,1.69,1.69,0,0,1,1.37-.61,1.61,1.61,0,0,1,1.27.53,2,2,0,0,1,.47,1.4v.41H105.6A1.69,1.69,0,0,0,106,37.2a1.32,1.32,0,0,0,1,.39,3.44,3.44,0,0,0,1.37-.29v.58a3.43,3.43,0,0,1-.65.21A3.65,3.65,0,0,1,107,38.15Zm-.18-3.89a1.06,1.06,0,0,0-.82.34,1.55,1.55,0,0,0-.36.93h2.24a1.42,1.42,0,0,0-.27-.94A1,1,0,0,0,106.8,34.26Z"/><path class="cls-5" d="M55.6,47.75a1.45,1.45,0,0,1-1.21-.56h-.06q.06.55.06.63V49.6H53.2V43.31h1l.17.57h.05a1.38,1.38,0,0,1,1.24-.65,1.42,1.42,0,0,1,1.21.6,2.76,2.76,0,0,1,.44,1.66,3.28,3.28,0,0,1-.21,1.21,1.7,1.7,0,0,1-.58.79A1.5,1.5,0,0,1,55.6,47.75Zm-.35-3.57a.75.75,0,0,0-.64.27,1.55,1.55,0,0,0-.21.9v.13a1.84,1.84,0,0,0,.21,1,.75.75,0,0,0,.66.3q.8,0,.8-1.32a1.88,1.88,0,0,0-.2-1A.67.67,0,0,0,55.25,44.18Z"/><path class="cls-5" d="M61,47.67l-.23-.59h0a1.76,1.76,0,0,1-.62.53,2,2,0,0,1-.83.15,1.34,1.34,0,0,1-1-.36,1.38,1.38,0,0,1-.36-1,1.15,1.15,0,0,1,.49-1A2.82,2.82,0,0,1,59.93,45l.76,0v-.19A.59.59,0,0,0,60,44.1a3.1,3.1,0,0,0-1.23.32l-.39-.8a3.55,3.55,0,0,1,1.67-.39,2.08,2.08,0,0,1,1.35.38,1.41,1.41,0,0,1,.47,1.16v2.91Zm-.35-2-.46,0a1.47,1.47,0,0,0-.77.19.59.59,0,0,0-.25.52q0,.5.58.5a.92.92,0,0,0,.66-.24.84.84,0,0,0,.25-.63Z"/><path class="cls-5" d="M65.53,43.23a1.92,1.92,0,0,1,.4,0l-.09,1.12a1.38,1.38,0,0,0-.35,0,1.26,1.26,0,0,0-.89.29,1.06,1.06,0,0,0-.32.82v2.22H63.1V43.31H64l.18.73h.06a1.65,1.65,0,0,1,.55-.59A1.35,1.35,0,0,1,65.53,43.23Z"/><path class="cls-5" d="M68.57,46.8a2.58,2.58,0,0,0,.75-.14v.89a2.67,2.67,0,0,1-1.09.2,1.34,1.34,0,0,1-1-.36,1.57,1.57,0,0,1-.33-1.08V44.2h-.57v-.5l.66-.4.34-.92H68v.93h1.22v.89H68v2.11a.47.47,0,0,0,.14.38A.56.56,0,0,0,68.57,46.8Z"/><path class="cls-5" d="M70.15,42.18q0-.58.65-.58t.65.58a.57.57,0,0,1-.16.43.68.68,0,0,1-.49.15Q70.15,42.76,70.15,42.18Zm1.24,5.5H70.2V43.31h1.19Z"/><path class="cls-5" d="M74.42,47.75q-2,0-2-2.24a2.39,2.39,0,0,1,.55-1.7,2.08,2.08,0,0,1,1.59-.59,3,3,0,0,1,1.36.3l-.35.92L75,44.26a1.68,1.68,0,0,0-.48-.07q-.93,0-.93,1.32t.93,1.28a2.12,2.12,0,0,0,.64-.09,2.29,2.29,0,0,0,.59-.29v1a1.92,1.92,0,0,1-.58.25A3.28,3.28,0,0,1,74.42,47.75Z"/><path class="cls-5" d="M76.71,42.18q0-.58.65-.58t.65.58a.57.57,0,0,1-.16.43.68.68,0,0,1-.49.15Q76.71,42.76,76.71,42.18Zm1.24,5.5H76.76V43.31h1.19Z"/><path class="cls-5" d="M81.6,47.75a1.45,1.45,0,0,1-1.21-.56h-.06q.06.55.06.63V49.6H79.2V43.31h1l.17.57h.05a1.38,1.38,0,0,1,1.24-.65,1.42,1.42,0,0,1,1.21.6,2.76,2.76,0,0,1,.44,1.66,3.28,3.28,0,0,1-.21,1.21,1.7,1.7,0,0,1-.58.79A1.5,1.5,0,0,1,81.6,47.75Zm-.35-3.57a.75.75,0,0,0-.64.27,1.55,1.55,0,0,0-.21.9v.13a1.84,1.84,0,0,0,.21,1,.75.75,0,0,0,.66.3q.8,0,.8-1.32a1.88,1.88,0,0,0-.2-1A.67.67,0,0,0,81.25,44.18Z"/><path class="cls-5" d="M87,47.67l-.23-.59h0a1.76,1.76,0,0,1-.62.53,2,2,0,0,1-.83.15,1.34,1.34,0,0,1-1-.36,1.38,1.38,0,0,1-.36-1,1.15,1.15,0,0,1,.49-1A2.82,2.82,0,0,1,85.92,45l.76,0v-.19A.59.59,0,0,0,86,44.1a3.1,3.1,0,0,0-1.23.32l-.39-.8A3.55,3.55,0,0,1,86,43.22a2.08,2.08,0,0,1,1.35.38,1.41,1.41,0,0,1,.47,1.16v2.91Zm-.35-2-.46,0a1.47,1.47,0,0,0-.77.19.59.59,0,0,0-.25.52q0,.5.58.5a.92.92,0,0,0,.66-.24.84.84,0,0,0,.25-.63Z"/><path class="cls-5" d="M90.87,47.75q-2,0-2-2.24a2.39,2.39,0,0,1,.55-1.7A2.08,2.08,0,0,1,91,43.23a3,3,0,0,1,1.36.3l-.35.92-.52-.19a1.68,1.68,0,0,0-.48-.07q-.93,0-.93,1.32T91,46.79a2.12,2.12,0,0,0,.64-.09,2.29,2.29,0,0,0,.59-.29v1a1.92,1.92,0,0,1-.58.25A3.28,3.28,0,0,1,90.87,47.75Z"/><path class="cls-5" d="M93.16,42.18q0-.58.65-.58t.65.58a.57.57,0,0,1-.16.43.68.68,0,0,1-.49.15Q93.15,42.76,93.16,42.18Zm1.24,5.5H93.21V43.31H94.4Z"/><path class="cls-5" d="M99.62,45.48a2.35,2.35,0,0,1-.56,1.67,2,2,0,0,1-1.57.6,2.19,2.19,0,0,1-1.11-.28,1.83,1.83,0,0,1-.74-.79,2.66,2.66,0,0,1-.26-1.2,2.34,2.34,0,0,1,.56-1.66,2,2,0,0,1,1.57-.59,2.21,2.21,0,0,1,1.11.27,1.82,1.82,0,0,1,.74.79A2.63,2.63,0,0,1,99.62,45.48Zm-3,0a1.84,1.84,0,0,0,.21,1,.76.76,0,0,0,.69.33.75.75,0,0,0,.69-.33,1.86,1.86,0,0,0,.21-1,1.8,1.8,0,0,0-.21-1,.9.9,0,0,0-1.38,0A1.8,1.8,0,0,0,96.6,45.48Zm.25-2.66v-.11a11,11,0,0,0,.92-1.18H99.1v.08q-.2.2-.69.6t-.77.6Z"/><path class="cls-5" d="M104.63,47.67h-1.19V45.12a1.22,1.22,0,0,0-.17-.71.61.61,0,0,0-.54-.24.8.8,0,0,0-.72.33,2.07,2.07,0,0,0-.22,1.11v2.05H100.6V43.31h.91l.16.56h.07a1.26,1.26,0,0,1,.55-.48,1.87,1.87,0,0,1,.79-.16,1.53,1.53,0,0,1,1.16.41,1.66,1.66,0,0,1,.39,1.19Z"/></g></g></svg>