<svg xmlns="http://www.w3.org/2000/svg" viewBox="0 0 73.91 169.71"><defs><style>.cls-1{fill:#68c460;}.cls-2,.cls-3{fill:#fff;}.cls-2{stroke:#fff;stroke-miterlimit:10;stroke-width:2px;}.cls-4{fill:#636363;}.cls-5{fill:#444;}</style></defs><title>flecha_verde</title><g id="Capa_2" data-name="Capa 2"><g id="Capa_2-2" data-name="Capa 2"><path class="cls-1" d="M37.18.26,73.65,36.74a.89.89,0,0,1,.23.87L37.55,169.06a.89.89,0,0,1-1.73,0L0,37.3a.89.89,0,0,1,.23-.86L35.91.27A.89.89,0,0,1,37.18.26Z"/><path class="cls-2" d="M36.89,9,66.67,38.81a.44.44,0,0,1,.11.43L37.16,146.42a.44.44,0,0,1-.85,0L7.11,38.92a.44.44,0,0,1,.11-.42L36.26,9A.44.44,0,0,1,36.89,9Z"/><circle class="cls-1" cx="36.7" cy="33.08" r="13.47"/><path class="cls-3" d="M36.63,24.22A8.63,8.63,0,0,0,28,32.84a.59.59,0,1,0,1.17,0s0,0,0,0a7.45,7.45,0,0,1,13.36-4.53H40.12a.59.59,0,0,0,0,1.17h3.71a.59.59,0,0,0,.59-.59V25.2a.59.59,0,0,0-.57-.6h0a.59.59,0,0,0-.58.59h0v2.08A8.63,8.63,0,0,0,36.63,24.22Zm8,8a.59.59,0,0,0-.57.59,7.45,7.45,0,0,1-13.37,4.54h2.43a.59.59,0,1,0,0-1.17H29.39a.59.59,0,0,0-.53.59v3.7a.59.59,0,1,0,1.17,0s0,0,0,0V38.4a8.63,8.63,0,0,0,15.23-5.56.59.59,0,0,0-.58-.59Z"/><path class="cls-4" d="M20.54,59.29H17.35V53.58h3.18v.59H18V56h2.37v.59H18v2.1h2.52Z"/><path class="cls-4" d="M22.35,59.29h-.65V53.21h.65Z"/><path class="cls-4" d="M25.54,59.37a2,2,0,0,1-1.5-.58,2.24,2.24,0,0,1-.55-1.61A2.48,2.48,0,0,1,24,55.54a1.69,1.69,0,0,1,1.37-.61,1.62,1.62,0,0,1,1.27.53,2,2,0,0,1,.47,1.4v.41H24.16a1.69,1.69,0,0,0,.38,1.14,1.32,1.32,0,0,0,1,.39,3.45,3.45,0,0,0,1.37-.29v.58a3.47,3.47,0,0,1-.65.21A3.65,3.65,0,0,1,25.54,59.37Zm-.18-3.89a1.06,1.06,0,0,0-.82.34,1.55,1.55,0,0,0-.36.93h2.24a1.42,1.42,0,0,0-.27-.94A1,1,0,0,0,25.36,55.47Z"/><path class="cls-4" d="M33.67,59.29V56.51a1.16,1.16,0,0,0-.22-.77.84.84,0,0,0-.68-.26,1.1,1.1,0,0,0-.89.35,1.65,1.65,0,0,0-.29,1.07v2.39h-.65V56.51a1.16,1.16,0,0,0-.22-.77.85.85,0,0,0-.68-.26,1.06,1.06,0,0,0-.89.37,2,2,0,0,0-.28,1.2v2.25h-.65V55h.53l.11.59h0a1.27,1.27,0,0,1,.52-.49,1.58,1.58,0,0,1,.75-.18,1.27,1.27,0,0,1,1.31.73h0a1.37,1.37,0,0,1,.55-.53,1.73,1.73,0,0,1,.83-.2A1.45,1.45,0,0,1,34,55.3a1.67,1.67,0,0,1,.36,1.19v2.79Z"/><path class="cls-4" d="M37.47,59.37a2,2,0,0,1-1.5-.58,2.24,2.24,0,0,1-.55-1.61,2.48,2.48,0,0,1,.51-1.64,1.69,1.69,0,0,1,1.37-.61,1.62,1.62,0,0,1,1.27.53,2,2,0,0,1,.47,1.4v.41H36.09a1.69,1.69,0,0,0,.38,1.14,1.32,1.32,0,0,0,1,.39,3.45,3.45,0,0,0,1.37-.29v.58a3.47,3.47,0,0,1-.65.21A3.65,3.65,0,0,1,37.47,59.37Zm-.18-3.89a1.06,1.06,0,0,0-.82.34,1.55,1.55,0,0,0-.36.93h2.24a1.42,1.42,0,0,0-.27-.94A1,1,0,0,0,37.29,55.47Z"/><path class="cls-4" d="M43.08,59.29V56.52a1.12,1.12,0,0,0-.24-.78,1,1,0,0,0-.75-.26,1.23,1.23,0,0,0-1,.36A1.84,1.84,0,0,0,40.8,57v2.25h-.65V55h.53l.11.59h0a1.33,1.33,0,0,1,.56-.49,1.81,1.81,0,0,1,.8-.17,1.63,1.63,0,0,1,1.16.37,1.59,1.59,0,0,1,.39,1.19v2.79Z"/><path class="cls-4" d="M46.44,58.83l.33,0,.25-.05v.5a1.19,1.19,0,0,1-.31.08,2.29,2.29,0,0,1-.37,0q-1.24,0-1.24-1.31V55.51h-.61V55.2l.61-.27.27-.91h.38v1H47v.5H45.75V58a.87.87,0,0,0,.18.59A.64.64,0,0,0,46.44,58.83Z"/><path class="cls-4" d="M51.58,57.15A2.36,2.36,0,0,1,51,58.78a1.86,1.86,0,0,1-1.46.59,1.93,1.93,0,0,1-1-.27,1.78,1.78,0,0,1-.69-.77,2.7,2.7,0,0,1-.24-1.18,2.36,2.36,0,0,1,.52-1.63,1.85,1.85,0,0,1,1.45-.58,1.81,1.81,0,0,1,1.43.6A2.35,2.35,0,0,1,51.58,57.15Zm-3.26,0a2,2,0,0,0,.33,1.25,1.3,1.3,0,0,0,1.93,0,2,2,0,0,0,.33-1.25,2,2,0,0,0-.33-1.24,1.16,1.16,0,0,0-1-.42,1.14,1.14,0,0,0-1,.42A2,2,0,0,0,48.31,57.15Z"/><path class="cls-4" d="M55.47,58.12A1.07,1.07,0,0,1,55,59a2.1,2.1,0,0,1-1.25.32,2.72,2.72,0,0,1-1.33-.27v-.6a3.19,3.19,0,0,0,.66.25,2.78,2.78,0,0,0,.68.09,1.54,1.54,0,0,0,.78-.16.56.56,0,0,0,.06-.92,3.42,3.42,0,0,0-.85-.42,4.61,4.61,0,0,1-.85-.39,1.16,1.16,0,0,1-.37-.38,1,1,0,0,1-.12-.5,1,1,0,0,1,.43-.83,2,2,0,0,1,1.17-.3,3.42,3.42,0,0,1,1.35.28l-.23.53A3.11,3.11,0,0,0,54,55.47a1.34,1.34,0,0,0-.7.14.45.45,0,0,0-.23.4.49.49,0,0,0,.09.29.87.87,0,0,0,.28.23,6.17,6.17,0,0,0,.75.32,2.8,2.8,0,0,1,1,.56A1,1,0,0,1,55.47,58.12Z"/><path class="cls-4" d="M18.12,69a1.83,1.83,0,0,1-1.44-.57,2.35,2.35,0,0,1-.51-1.62,2.43,2.43,0,0,1,.52-1.66,1.86,1.86,0,0,1,1.47-.59,3,3,0,0,1,.62.07,2,2,0,0,1,.48.16l-.2.55a3.07,3.07,0,0,0-.47-.14,2.07,2.07,0,0,0-.45-.06q-1.31,0-1.3,1.66A2,2,0,0,0,17.16,68a1.11,1.11,0,0,0,.94.42,2.89,2.89,0,0,0,1.1-.23v.57A2.34,2.34,0,0,1,18.12,69Z"/><path class="cls-4" d="M23.91,66.75a2.36,2.36,0,0,1-.53,1.63,1.86,1.86,0,0,1-1.46.59,1.93,1.93,0,0,1-1-.27,1.78,1.78,0,0,1-.69-.77A2.7,2.7,0,0,1,20,66.75a2.36,2.36,0,0,1,.52-1.63A1.85,1.85,0,0,1,22,64.53a1.81,1.81,0,0,1,1.43.6A2.35,2.35,0,0,1,23.91,66.75Zm-3.26,0A2,2,0,0,0,21,68a1.3,1.3,0,0,0,1.93,0,2,2,0,0,0,.33-1.25,2,2,0,0,0-.33-1.24,1.16,1.16,0,0,0-1-.42,1.14,1.14,0,0,0-1,.42A2,2,0,0,0,20.65,66.75Z"/><path class="cls-4" d="M27,64.53a2.54,2.54,0,0,1,.51,0l-.09.6a2.2,2.2,0,0,0-.47-.06,1.14,1.14,0,0,0-.89.42,1.54,1.54,0,0,0-.37,1.05v2.3H25V64.61h.54l.07.79h0a1.89,1.89,0,0,1,.57-.64A1.29,1.29,0,0,1,27,64.53Z"/><path class="cls-4" d="M30.27,64.53a2.54,2.54,0,0,1,.51,0l-.09.6a2.2,2.2,0,0,0-.47-.06,1.14,1.14,0,0,0-.89.42A1.54,1.54,0,0,0,29,66.59v2.3h-.65V64.61h.54l.07.79h0a1.89,1.89,0,0,1,.57-.64A1.29,1.29,0,0,1,30.27,64.53Z"/><path class="cls-4" d="M33.39,69a2,2,0,0,1-1.5-.58,2.24,2.24,0,0,1-.55-1.61,2.48,2.48,0,0,1,.51-1.64,1.69,1.69,0,0,1,1.37-.61,1.62,1.62,0,0,1,1.27.53,2,2,0,0,1,.47,1.4v.41H32A1.69,1.69,0,0,0,32.39,68a1.32,1.32,0,0,0,1,.39,3.45,3.45,0,0,0,1.37-.29v.58a3.47,3.47,0,0,1-.65.21A3.65,3.65,0,0,1,33.39,69Zm-.18-3.89a1.06,1.06,0,0,0-.82.34,1.55,1.55,0,0,0-.36.93h2.24A1.42,1.42,0,0,0,34,65.4,1,1,0,0,0,33.21,65.07Z"/><path class="cls-4" d="M37.78,69a1.83,1.83,0,0,1-1.44-.57,2.35,2.35,0,0,1-.51-1.62,2.43,2.43,0,0,1,.52-1.66,1.86,1.86,0,0,1,1.47-.59,3,3,0,0,1,.62.07,2,2,0,0,1,.48.16l-.2.55a3.07,3.07,0,0,0-.47-.14,2.07,2.07,0,0,0-.45-.06q-1.31,0-1.3,1.66A2,2,0,0,0,36.82,68a1.11,1.11,0,0,0,.94.42,2.89,2.89,0,0,0,1.1-.23v.57A2.34,2.34,0,0,1,37.78,69Z"/><path class="cls-4" d="M41.26,68.43l.33,0,.25-.05v.5a1.19,1.19,0,0,1-.31.08,2.29,2.29,0,0,1-.37,0q-1.24,0-1.24-1.31V65.11h-.61V64.8l.61-.27.27-.91h.38v1h1.24v.5H40.57v2.52a.87.87,0,0,0,.18.59A.64.64,0,0,0,41.26,68.43Z"/><path class="cls-4" d="M42.64,63.45a.43.43,0,0,1,.11-.33.4.4,0,0,1,.54,0,.42.42,0,0,1,.11.32.43.43,0,0,1-.11.33.4.4,0,0,1-.54,0A.44.44,0,0,1,42.64,63.45Zm.7,5.44H42.7V64.61h.65Z"/><path class="cls-4" d="M45.66,68.89,44,64.61h.7l.92,2.54A12,12,0,0,1,46,68.3h0a8.67,8.67,0,0,1,.27-.86q.23-.65,1-2.84H48l-1.62,4.28Z"/><path class="cls-4" d="M52.43,66.75a2.36,2.36,0,0,1-.53,1.63,1.86,1.86,0,0,1-1.46.59,1.93,1.93,0,0,1-1-.27,1.78,1.78,0,0,1-.69-.77,2.7,2.7,0,0,1-.24-1.18A2.36,2.36,0,0,1,49,65.11a1.85,1.85,0,0,1,1.45-.58,1.81,1.81,0,0,1,1.43.6A2.35,2.35,0,0,1,52.43,66.75Zm-3.26,0A2,2,0,0,0,49.49,68a1.3,1.3,0,0,0,1.93,0,2,2,0,0,0,.33-1.25,2,2,0,0,0-.33-1.24,1.16,1.16,0,0,0-1-.42,1.14,1.14,0,0,0-1,.42A2,2,0,0,0,49.16,66.75Z"/><path class="cls-4" d="M56.32,67.72a1.07,1.07,0,0,1-.45.92,2.1,2.1,0,0,1-1.25.32,2.72,2.72,0,0,1-1.33-.27v-.6a3.19,3.19,0,0,0,.66.25,2.78,2.78,0,0,0,.68.09,1.54,1.54,0,0,0,.78-.16.56.56,0,0,0,.06-.92,3.42,3.42,0,0,0-.85-.42,4.61,4.61,0,0,1-.85-.39,1.16,1.16,0,0,1-.37-.38,1,1,0,0,1-.12-.5,1,1,0,0,1,.43-.83,2,2,0,0,1,1.17-.3,3.42,3.42,0,0,1,1.35.28l-.23.53a3.11,3.11,0,0,0-1.17-.27,1.34,1.34,0,0,0-.7.14.45.45,0,0,0-.23.4.49.49,0,0,0,.09.29.87.87,0,0,0,.28.23,6.17,6.17,0,0,0,.75.32,2.8,2.8,0,0,1,1,.56A1,1,0,0,1,56.32,67.72Z"/><path class="cls-4" d="M32.44,76.35A2.36,2.36,0,0,1,31.91,78a1.86,1.86,0,0,1-1.46.59,1.93,1.93,0,0,1-1-.27,1.78,1.78,0,0,1-.69-.77,2.7,2.7,0,0,1-.24-1.18A2.36,2.36,0,0,1,29,74.72a1.85,1.85,0,0,1,1.45-.58,1.81,1.81,0,0,1,1.43.6A2.35,2.35,0,0,1,32.44,76.35Zm-3.26,0a2,2,0,0,0,.33,1.25,1.3,1.3,0,0,0,1.93,0,2,2,0,0,0,.33-1.25,2,2,0,0,0-.33-1.24,1.16,1.16,0,0,0-1-.42,1.14,1.14,0,0,0-1,.42A2,2,0,0,0,29.18,76.35Z"/><path class="cls-4" d="M38.57,77.92h0a1.52,1.52,0,0,1-1.34.65A1.59,1.59,0,0,1,35.88,78a2.53,2.53,0,0,1-.47-1.63,2.57,2.57,0,0,1,.47-1.64,1.58,1.58,0,0,1,1.3-.59,1.56,1.56,0,0,1,1.34.63h.05l0-.31,0-.3V72.41h.65v6.08h-.53Zm-1.3.11a1.18,1.18,0,0,0,1-.36,1.83,1.83,0,0,0,.3-1.17v-.14a2.15,2.15,0,0,0-.3-1.3,1.15,1.15,0,0,0-1-.39,1,1,0,0,0-.87.44,2.2,2.2,0,0,0-.3,1.25,2.12,2.12,0,0,0,.3,1.24A1,1,0,0,0,37.27,78Z"/><path class="cls-4" d="M42.36,78.57a2,2,0,0,1-1.5-.58,2.24,2.24,0,0,1-.55-1.61,2.48,2.48,0,0,1,.51-1.64,1.69,1.69,0,0,1,1.37-.61,1.62,1.62,0,0,1,1.27.53,2,2,0,0,1,.47,1.4v.41H41a1.69,1.69,0,0,0,.38,1.14,1.32,1.32,0,0,0,1,.39,3.45,3.45,0,0,0,1.37-.29v.58a3.47,3.47,0,0,1-.65.21A3.65,3.65,0,0,1,42.36,78.57Zm-.18-3.89a1.06,1.06,0,0,0-.82.34,1.55,1.55,0,0,0-.36.93h2.24A1.42,1.42,0,0,0,43,75,1,1,0,0,0,42.19,74.67Z"/><path class="cls-5" d="M26.52,88.09H25.33V85.54a1.28,1.28,0,0,0-.16-.71.56.56,0,0,0-.5-.24.72.72,0,0,0-.66.34A2.21,2.21,0,0,0,23.8,86v2.05H22.61V83.72h.91l.16.56h.07a1.21,1.21,0,0,1,.51-.47,1.65,1.65,0,0,1,.76-.17,1.37,1.37,0,0,1,1.33.64h.11a1.18,1.18,0,0,1,.52-.47,1.72,1.72,0,0,1,.77-.17,1.52,1.52,0,0,1,1.12.38,1.67,1.67,0,0,1,.38,1.22v2.85H28V85.54a1.28,1.28,0,0,0-.16-.71.56.56,0,0,0-.5-.24.74.74,0,0,0-.65.31,1.77,1.77,0,0,0-.22,1Z"/><path class="cls-5" d="M32.44,88.17a2.25,2.25,0,0,1-1.65-.58,2.2,2.2,0,0,1-.59-1.65,2.42,2.42,0,0,1,.55-1.7,2,2,0,0,1,1.52-.6,1.92,1.92,0,0,1,1.44.53,2,2,0,0,1,.52,1.46v.58H31.41a1.15,1.15,0,0,0,.3.79,1.06,1.06,0,0,0,.79.29,3.28,3.28,0,0,0,.75-.08,3.71,3.71,0,0,0,.73-.26v.92a2.77,2.77,0,0,1-.67.23A4.22,4.22,0,0,1,32.44,88.17Zm-.17-3.68a.76.76,0,0,0-.59.24,1.11,1.11,0,0,0-.25.68h1.67a1,1,0,0,0-.23-.68A.78.78,0,0,0,32.27,84.49Z"/><path class="cls-5" d="M34.84,90a2.76,2.76,0,0,1-.79-.1V89a2.11,2.11,0,0,0,.56.07.54.54,0,0,0,.44-.17.76.76,0,0,0,.14-.5V83.72h1.19v4.84a1.4,1.4,0,0,1-.4,1.07A1.61,1.61,0,0,1,34.84,90Zm.3-7.42q0-.58.65-.58t.65.58a.57.57,0,0,1-.16.43.68.68,0,0,1-.49.15Q35.14,83.18,35.14,82.59Z"/><path class="cls-5" d="M41.6,85.9A2.35,2.35,0,0,1,41,87.57a2,2,0,0,1-1.57.6,2.19,2.19,0,0,1-1.11-.28,1.83,1.83,0,0,1-.74-.79,2.66,2.66,0,0,1-.26-1.2,2.33,2.33,0,0,1,.56-1.66,2.05,2.05,0,0,1,1.57-.59,2.2,2.2,0,0,1,1.11.27,1.83,1.83,0,0,1,.74.79A2.63,2.63,0,0,1,41.6,85.9Zm-3,0a1.84,1.84,0,0,0,.21,1,.76.76,0,0,0,.69.33.75.75,0,0,0,.69-.33,1.86,1.86,0,0,0,.21-1,1.8,1.8,0,0,0-.21-1,.9.9,0,0,0-1.38,0A1.8,1.8,0,0,0,38.58,85.9Z"/><path class="cls-5" d="M45,83.64a1.92,1.92,0,0,1,.4,0l-.09,1.12a1.35,1.35,0,0,0-.35,0,1.26,1.26,0,0,0-.89.29,1.06,1.06,0,0,0-.32.82v2.22H42.59V83.72h.9l.18.73h.06a1.64,1.64,0,0,1,.55-.59A1.36,1.36,0,0,1,45,83.64Z"/><path class="cls-5" d="M49,88.09l-.23-.59h0a1.76,1.76,0,0,1-.62.53,2,2,0,0,1-.83.15,1.34,1.34,0,0,1-1-.36,1.38,1.38,0,0,1-.36-1,1.15,1.15,0,0,1,.49-1,2.82,2.82,0,0,1,1.47-.37l.76,0v-.19a.59.59,0,0,0-.68-.66,3.1,3.1,0,0,0-1.23.32l-.39-.8A3.55,3.55,0,0,1,48,83.63a2.08,2.08,0,0,1,1.35.38,1.41,1.41,0,0,1,.47,1.16v2.91Zm-.35-2-.46,0a1.48,1.48,0,0,0-.77.19.59.59,0,0,0-.25.52q0,.5.58.5a.91.91,0,0,0,.66-.24.84.84,0,0,0,.25-.63Z"/></g></g></svg>