<svg xmlns="http://www.w3.org/2000/svg" viewBox="0 0 108.03 213.6"><defs><style>.cls-1{fill:#68c460;}.cls-2,.cls-3{fill:#fff;}.cls-2{stroke:#fff;stroke-miterlimit:10;stroke-width:2px;}.cls-4{fill:#636363;}.cls-5{fill:#444;}</style></defs><title>Recurso 7</title><g id="Capa_2" data-name="Capa 2"><g id="Capa_2-2" data-name="Capa 2"><path class="cls-1" d="M54.93.3l52.72,61a.88.88,0,0,1,.34,1l-53.1,150.5a1.43,1.43,0,0,1-2.52,0L0,62a.88.88,0,0,1,.33-1L53.07.31A1.57,1.57,0,0,1,54.93.3Z"/><path class="cls-2" d="M54.49,13.27l43,50.62a.43.43,0,0,1,.17.49L54.34,187.09a.7.7,0,0,1-1.24,0L10.4,64a.43.43,0,0,1,.16-.49l43-50.25A.77.77,0,0,1,54.49,13.27Z"/><circle class="cls-1" cx="53.84" cy="40.29" r="15.43"/><path class="cls-3" d="M53.75,30.14A9.88,9.88,0,0,0,43.88,40a.67.67,0,1,0,1.34,0s0,0,0,0a8.53,8.53,0,0,1,15.3-5.19H57.75a.67.67,0,0,0,0,1.34H62a.67.67,0,0,0,.67-.67V31.27a.67.67,0,0,0-.66-.69h0a.67.67,0,0,0-.66.68h0v2.38A9.88,9.88,0,0,0,53.75,30.14Zm9.2,9.2a.67.67,0,0,0-.66.68A8.53,8.53,0,0,1,47,45.21h2.78a.67.67,0,1,0,0-1.34H45.47a.67.67,0,0,0-.61.67v4.23a.67.67,0,1,0,1.34,0s0,0,0,0V46.38A9.88,9.88,0,0,0,63.63,40a.67.67,0,0,0-.66-.68Z"/><path class="cls-4" d="M28.63,66.5a2.45,2.45,0,0,0-2,.82A3.32,3.32,0,0,0,26,69.57a3.38,3.38,0,0,0,.69,2.27,2.45,2.45,0,0,0,2,.8,6.72,6.72,0,0,0,1.79-.28v.76a5.53,5.53,0,0,1-1.92.29,3.25,3.25,0,0,1-2.56-1,4.13,4.13,0,0,1-.9-2.86,4.5,4.5,0,0,1,.43-2,3.12,3.12,0,0,1,1.25-1.34,3.79,3.79,0,0,1,1.92-.47,4.65,4.65,0,0,1,2.06.43l-.37.75A4,4,0,0,0,28.63,66.5Z"/><path class="cls-4" d="M36.5,70.5a3.1,3.1,0,0,1-.69,2.15,2.44,2.44,0,0,1-1.91.77,2.54,2.54,0,0,1-1.34-.35,2.34,2.34,0,0,1-.9-1,3.53,3.53,0,0,1-.32-1.55A3.09,3.09,0,0,1,32,68.36a2.43,2.43,0,0,1,1.91-.77,2.38,2.38,0,0,1,1.87.78A3.09,3.09,0,0,1,36.5,70.5Zm-4.28,0a2.67,2.67,0,0,0,.43,1.64,1.71,1.71,0,0,0,2.54,0,2.65,2.65,0,0,0,.43-1.64,2.61,2.61,0,0,0-.43-1.63,1.52,1.52,0,0,0-1.28-.56,1.5,1.5,0,0,0-1.26.55A2.64,2.64,0,0,0,32.22,70.5Z"/><path class="cls-4" d="M40.29,67.6a3.34,3.34,0,0,1,.67.06l-.12.79a2.9,2.9,0,0,0-.62-.08,1.5,1.5,0,0,0-1.17.55,2,2,0,0,0-.48,1.38v3h-.85V67.7h.7l.1,1h0a2.47,2.47,0,0,1,.75-.85A1.69,1.69,0,0,1,40.29,67.6Z"/><path class="cls-4" d="M44.32,67.6a3.34,3.34,0,0,1,.67.06l-.12.79a2.9,2.9,0,0,0-.62-.08,1.5,1.5,0,0,0-1.17.55,2,2,0,0,0-.48,1.38v3h-.85V67.7h.7l.1,1h0a2.47,2.47,0,0,1,.75-.85A1.69,1.69,0,0,1,44.32,67.6Z"/><path class="cls-4" d="M48.15,73.42a2.58,2.58,0,0,1-2-.76,2.94,2.94,0,0,1-.72-2.11,3.26,3.26,0,0,1,.67-2.16,2.22,2.22,0,0,1,1.8-.8,2.12,2.12,0,0,1,1.67.69,2.66,2.66,0,0,1,.62,1.83v.54H46.35a2.22,2.22,0,0,0,.5,1.5,1.73,1.73,0,0,0,1.33.51A4.52,4.52,0,0,0,50,72.3v.76a4.51,4.51,0,0,1-.85.28A4.82,4.82,0,0,1,48.15,73.42Zm-.23-5.11a1.39,1.39,0,0,0-1.08.44A2,2,0,0,0,46.37,70h2.94a1.87,1.87,0,0,0-.36-1.23A1.26,1.26,0,0,0,47.92,68.31Z"/><path class="cls-4" d="M53.65,73.42a2.4,2.4,0,0,1-1.89-.75,3.09,3.09,0,0,1-.67-2.12,3.19,3.19,0,0,1,.68-2.18,2.45,2.45,0,0,1,1.94-.77,3.88,3.88,0,0,1,.81.09,2.73,2.73,0,0,1,.64.21l-.26.72a4,4,0,0,0-.62-.19,2.74,2.74,0,0,0-.59-.07Q52,68.35,52,70.54a2.6,2.6,0,0,0,.42,1.59,1.45,1.45,0,0,0,1.24.55,3.79,3.79,0,0,0,1.44-.3v.75A3.08,3.08,0,0,1,53.65,73.42Z"/><path class="cls-4" d="M58,72.72a2.76,2.76,0,0,0,.44,0l.33-.07v.65a1.56,1.56,0,0,1-.41.11,3.09,3.09,0,0,1-.49,0q-1.63,0-1.63-1.72V68.36h-.8V68l.8-.35.36-1.2h.49v1.3h1.63v.66H57.05v3.31a1.14,1.14,0,0,0,.24.78A.84.84,0,0,0,58,72.72Z"/><path class="cls-4" d="M59.51,66.18a.56.56,0,0,1,.14-.43.53.53,0,0,1,.71,0,.55.55,0,0,1,.15.43.56.56,0,0,1-.15.43.49.49,0,0,1-.35.14.49.49,0,0,1-.36-.14A.57.57,0,0,1,59.51,66.18Zm.92,7.14h-.85V67.7h.85Z"/><path class="cls-4" d="M63.21,73.32,61.08,67.7H62L63.2,71q.41,1.17.48,1.52h0a11.29,11.29,0,0,1,.36-1.13q.3-.85,1.35-3.72h.91l-2.13,5.62Z"/><path class="cls-4" d="M69.35,73.42a2.58,2.58,0,0,1-2-.76,2.94,2.94,0,0,1-.72-2.11,3.26,3.26,0,0,1,.67-2.16,2.22,2.22,0,0,1,1.8-.8,2.12,2.12,0,0,1,1.67.69,2.66,2.66,0,0,1,.62,1.83v.54H67.55a2.22,2.22,0,0,0,.5,1.5,1.73,1.73,0,0,0,1.33.51,4.52,4.52,0,0,0,1.79-.38v.76a4.51,4.51,0,0,1-.85.28A4.82,4.82,0,0,1,69.35,73.42Zm-.23-5.11a1.39,1.39,0,0,0-1.08.44A2,2,0,0,0,67.57,70h2.94a1.87,1.87,0,0,0-.36-1.23A1.26,1.26,0,0,0,69.12,68.31Z"/><path class="cls-4" d="M79.92,70.5a3.1,3.1,0,0,1-.69,2.15,2.44,2.44,0,0,1-1.91.77A2.54,2.54,0,0,1,76,73.07a2.34,2.34,0,0,1-.9-1,3.53,3.53,0,0,1-.32-1.55,3.09,3.09,0,0,1,.69-2.14,2.43,2.43,0,0,1,1.91-.77,2.38,2.38,0,0,1,1.87.78A3.09,3.09,0,0,1,79.92,70.5Zm-4.28,0a2.67,2.67,0,0,0,.43,1.64,1.71,1.71,0,0,0,2.54,0A2.65,2.65,0,0,0,79,70.5a2.61,2.61,0,0,0-.43-1.63,1.52,1.52,0,0,0-1.28-.56,1.5,1.5,0,0,0-1.26.55A2.64,2.64,0,0,0,75.64,70.5Z"/><path class="cls-4" d="M83.71,67.6a3.34,3.34,0,0,1,.67.06l-.12.79a2.9,2.9,0,0,0-.62-.08,1.5,1.5,0,0,0-1.17.55A2,2,0,0,0,82,70.3v3h-.85V67.7h.7l.1,1h0a2.47,2.47,0,0,1,.75-.85A1.69,1.69,0,0,1,83.71,67.6Z"/><path class="cls-5" d="M20.74,78.71q0-.76.85-.76t.85.76a.74.74,0,0,1-.21.57.89.89,0,0,1-.64.2Q20.74,79.47,20.74,78.71Zm1.63,7.21H20.8V80.19h1.56Z"/><path class="cls-5" d="M28.88,85.92H27.31V82.57a1.68,1.68,0,0,0-.21-.93.73.73,0,0,0-.65-.31,1,1,0,0,0-.87.44,2.88,2.88,0,0,0-.27,1.45v2.7H23.75V80.19h1.19l.21.73h.09a1.59,1.59,0,0,1,.67-.62,2.16,2.16,0,0,1,1-.22,1.8,1.8,0,0,1,1.74.84h.14a1.55,1.55,0,0,1,.68-.62,2.27,2.27,0,0,1,1-.22,2,2,0,0,1,1.47.5,2.2,2.2,0,0,1,.5,1.6v3.74H30.88V82.57a1.68,1.68,0,0,0-.21-.93.73.73,0,0,0-.65-.31,1,1,0,0,0-.86.41,2.32,2.32,0,0,0-.29,1.3Z"/><path class="cls-5" d="M36.94,86a1.9,1.9,0,0,1-1.58-.73h-.08q.08.72.08.83v2.32H33.79V80.19h1.27l.22.74h.07A1.81,1.81,0,0,1,37,80.08a1.86,1.86,0,0,1,1.59.79A3.63,3.63,0,0,1,39.15,83a4.3,4.3,0,0,1-.27,1.59,2.23,2.23,0,0,1-.77,1A2,2,0,0,1,36.94,86Zm-.46-4.69a1,1,0,0,0-.85.36,2,2,0,0,0-.28,1.18V83a2.42,2.42,0,0,0,.27,1.32,1,1,0,0,0,.87.4q1.05,0,1.05-1.73a2.47,2.47,0,0,0-.26-1.27A.89.89,0,0,0,36.48,81.33Z"/><path class="cls-5" d="M43.38,80.08a2.49,2.49,0,0,1,.53,0l-.12,1.47a1.79,1.79,0,0,0-.46-.05,1.66,1.66,0,0,0-1.17.38A1.39,1.39,0,0,0,41.74,83v2.92H40.18V80.19h1.18l.23,1h.08a2.16,2.16,0,0,1,.72-.78A1.78,1.78,0,0,1,43.38,80.08Z"/><path class="cls-5" d="M49.89,83a3.08,3.08,0,0,1-.74,2.19A2.67,2.67,0,0,1,47.1,86a2.87,2.87,0,0,1-1.46-.36,2.4,2.4,0,0,1-1-1A3.48,3.48,0,0,1,44.33,83a3.06,3.06,0,0,1,.73-2.18,2.69,2.69,0,0,1,2.06-.78,2.89,2.89,0,0,1,1.46.36,2.4,2.4,0,0,1,1,1A3.47,3.47,0,0,1,49.89,83Zm-4,0a2.4,2.4,0,0,0,.28,1.29,1,1,0,0,0,.91.44,1,1,0,0,0,.9-.43A2.44,2.44,0,0,0,48.29,83,2.36,2.36,0,0,0,48,81.77a1.18,1.18,0,0,0-1.81,0A2.37,2.37,0,0,0,45.93,83Z"/><path class="cls-5" d="M52.28,85.92,50.1,80.19h1.64l1.11,3.27a5.78,5.78,0,0,1,.23,1.17h0a5.13,5.13,0,0,1,.23-1.17l1.1-3.27h1.63l-2.18,5.73Z"/><path class="cls-5" d="M59.22,86a3,3,0,0,1-2.16-.76,2.89,2.89,0,0,1-.78-2.16A3.18,3.18,0,0,1,57,80.87a2.56,2.56,0,0,1,2-.79,2.52,2.52,0,0,1,1.89.69,2.62,2.62,0,0,1,.68,1.91v.76h-3.7a1.51,1.51,0,0,0,.4,1,1.39,1.39,0,0,0,1,.37,4.33,4.33,0,0,0,1-.11,4.87,4.87,0,0,0,1-.34v1.21a3.71,3.71,0,0,1-.88.31A5.55,5.55,0,0,1,59.22,86ZM59,81.19a1,1,0,0,0-.78.31,1.46,1.46,0,0,0-.32.89H60.1a1.3,1.3,0,0,0-.3-.89A1,1,0,0,0,59,81.19Z"/><path class="cls-5" d="M67.7,85.92H66.14V82.57a1.68,1.68,0,0,0-.21-.93.73.73,0,0,0-.65-.31,1,1,0,0,0-.87.44,2.88,2.88,0,0,0-.27,1.45v2.7H62.57V80.19h1.19l.21.73h.09a1.59,1.59,0,0,1,.67-.62,2.16,2.16,0,0,1,1-.22,1.8,1.8,0,0,1,1.74.84h.14a1.55,1.55,0,0,1,.68-.62,2.27,2.27,0,0,1,1-.22,2,2,0,0,1,1.47.5,2.2,2.2,0,0,1,.5,1.6v3.74H69.71V82.57a1.68,1.68,0,0,0-.21-.93.73.73,0,0,0-.65-.31,1,1,0,0,0-.86.41A2.32,2.32,0,0,0,67.7,83Z"/><path class="cls-5" d="M75.21,86a3,3,0,0,1-2.16-.76,2.89,2.89,0,0,1-.78-2.16A3.18,3.18,0,0,1,73,80.87a2.56,2.56,0,0,1,2-.79,2.52,2.52,0,0,1,1.89.69,2.62,2.62,0,0,1,.68,1.91v.76h-3.7a1.51,1.51,0,0,0,.4,1,1.39,1.39,0,0,0,1,.37,4.33,4.33,0,0,0,1-.11,4.87,4.87,0,0,0,1-.34v1.21a3.71,3.71,0,0,1-.88.31A5.55,5.55,0,0,1,75.21,86ZM75,81.19a1,1,0,0,0-.78.31,1.46,1.46,0,0,0-.32.89h2.19a1.3,1.3,0,0,0-.3-.89A1,1,0,0,0,75,81.19Z"/><path class="cls-5" d="M83.85,85.92H82.29V82.57a1.61,1.61,0,0,0-.22-.93.8.8,0,0,0-.7-.31,1.06,1.06,0,0,0-.95.44,2.72,2.72,0,0,0-.29,1.45v2.7H78.56V80.19h1.19l.21.73h.09a1.65,1.65,0,0,1,.72-.63,2.46,2.46,0,0,1,1-.21,2,2,0,0,1,1.52.54,2.17,2.17,0,0,1,.52,1.56Z"/><path class="cls-5" d="M87.61,84.78a3.4,3.4,0,0,0,1-.18v1.16a3.5,3.5,0,0,1-1.44.26,1.75,1.75,0,0,1-1.37-.47,2.06,2.06,0,0,1-.43-1.42V81.36h-.75V80.7l.86-.52L85.93,79h1v1.22h1.61v1.17H86.93v2.76a.61.61,0,0,0,.19.49A.74.74,0,0,0,87.61,84.78Z"/><path class="cls-5" d="M34.39,98.62a3,3,0,0,1-2.16-.76,2.89,2.89,0,0,1-.78-2.16,3.18,3.18,0,0,1,.72-2.23,2.56,2.56,0,0,1,2-.79,2.52,2.52,0,0,1,1.89.69,2.62,2.62,0,0,1,.68,1.91V96H33a1.51,1.51,0,0,0,.4,1,1.39,1.39,0,0,0,1,.37,4.33,4.33,0,0,0,1-.11,4.87,4.87,0,0,0,1-.34v1.21a3.71,3.71,0,0,1-.88.31A5.55,5.55,0,0,1,34.39,98.62Zm-.22-4.83a1,1,0,0,0-.78.31,1.46,1.46,0,0,0-.32.89h2.19a1.3,1.3,0,0,0-.3-.89A1,1,0,0,0,34.17,93.79Z"/><path class="cls-5" d="M39.3,98.52H37.74v-8H39.3Z"/><path class="cls-5" d="M43.27,98.62a3,3,0,0,1-2.16-.76,2.89,2.89,0,0,1-.78-2.16,3.18,3.18,0,0,1,.72-2.23,2.56,2.56,0,0,1,2-.79,2.52,2.52,0,0,1,1.89.69,2.62,2.62,0,0,1,.68,1.91V96h-3.7a1.51,1.51,0,0,0,.4,1,1.39,1.39,0,0,0,1,.37,4.33,4.33,0,0,0,1-.11,4.87,4.87,0,0,0,1-.34v1.21a3.71,3.71,0,0,1-.88.31A5.55,5.55,0,0,1,43.27,98.62Zm-.22-4.83a1,1,0,0,0-.78.31A1.46,1.46,0,0,0,42,95h2.19a1.3,1.3,0,0,0-.3-.89A1,1,0,0,0,43.05,93.79Z"/><path class="cls-5" d="M51.75,98.52H50.19V95.17a1.68,1.68,0,0,0-.21-.93.73.73,0,0,0-.65-.31,1,1,0,0,0-.87.44,2.88,2.88,0,0,0-.27,1.45v2.7H46.62V92.79h1.19l.21.73h.09a1.59,1.59,0,0,1,.67-.62,2.16,2.16,0,0,1,1-.22,1.8,1.8,0,0,1,1.74.84h.14a1.55,1.55,0,0,1,.68-.62,2.27,2.27,0,0,1,1-.22,2,2,0,0,1,1.47.5,2.2,2.2,0,0,1,.5,1.6v3.74H53.76V95.17a1.68,1.68,0,0,0-.21-.93.73.73,0,0,0-.65-.31,1,1,0,0,0-.86.41,2.32,2.32,0,0,0-.29,1.3Z"/><path class="cls-5" d="M59.26,98.62a3,3,0,0,1-2.16-.76,2.89,2.89,0,0,1-.78-2.16A3.18,3.18,0,0,1,57,93.47a2.56,2.56,0,0,1,2-.79,2.52,2.52,0,0,1,1.89.69,2.62,2.62,0,0,1,.68,1.91V96h-3.7a1.51,1.51,0,0,0,.4,1,1.39,1.39,0,0,0,1,.37,4.33,4.33,0,0,0,1-.11,4.87,4.87,0,0,0,1-.34v1.21a3.71,3.71,0,0,1-.88.31A5.55,5.55,0,0,1,59.26,98.62ZM59,93.79a1,1,0,0,0-.78.31,1.46,1.46,0,0,0-.32.89h2.19a1.3,1.3,0,0,0-.3-.89A1,1,0,0,0,59,93.79Z"/><path class="cls-5" d="M67.9,98.52H66.34V95.17a1.61,1.61,0,0,0-.22-.93.8.8,0,0,0-.7-.31,1.06,1.06,0,0,0-.95.44,2.72,2.72,0,0,0-.29,1.45v2.7H62.61V92.79H63.8l.21.73h.09a1.65,1.65,0,0,1,.72-.63,2.46,2.46,0,0,1,1-.21,2,2,0,0,1,1.52.54,2.17,2.17,0,0,1,.52,1.56Z"/><path class="cls-5" d="M71.66,97.38a3.4,3.4,0,0,0,1-.18v1.16a3.5,3.5,0,0,1-1.44.26,1.75,1.75,0,0,1-1.37-.47,2.06,2.06,0,0,1-.43-1.42V94h-.75V93.3l.86-.52L70,91.57h1v1.22h1.61V94H71v2.76a.61.61,0,0,0,.19.49A.74.74,0,0,0,71.66,97.38Z"/><path class="cls-5" d="M77.54,96.82a1.58,1.58,0,0,1-.61,1.34,3,3,0,0,1-1.83.46A5.73,5.73,0,0,1,74,98.54a4,4,0,0,1-.83-.25V97a5.39,5.39,0,0,0,1,.34,4,4,0,0,0,1,.14q.85,0,.85-.49a.41.41,0,0,0-.11-.3,1.63,1.63,0,0,0-.39-.26c-.18-.1-.43-.21-.74-.34a4.66,4.66,0,0,1-1-.51,1.45,1.45,0,0,1-.45-.54,1.79,1.79,0,0,1-.14-.75,1.36,1.36,0,0,1,.59-1.18,2.89,2.89,0,0,1,1.68-.42,4.77,4.77,0,0,1,2,.45L77,94.26a8.57,8.57,0,0,0-.8-.3,2.52,2.52,0,0,0-.76-.12q-.69,0-.69.37a.44.44,0,0,0,.22.36,6,6,0,0,0,1,.46,4.53,4.53,0,0,1,1,.51,1.5,1.5,0,0,1,.46.54A1.68,1.68,0,0,1,77.54,96.82Z"/></g></g></svg>