<svg xmlns="http://www.w3.org/2000/svg" viewBox="0 0 165.56 165.56"><defs><style>.cls-1{fill:#d9d9d9;}.cls-2{fill:#2e73ba;}.cls-3,.cls-4{fill:#fff;}.cls-4{stroke:#fff;stroke-miterlimit:10;stroke-width:0.25px;}</style></defs><title>fraud-risk</title><g id="Capa_2" data-name="Capa 2"><g id="Capa_2-2" data-name="Capa 2"><circle class="cls-1" cx="82.78" cy="82.78" r="82.78"/><circle class="cls-2" cx="82.78" cy="82.78" r="76.63"/><path class="cls-3" d="M53.58,82.78H52.42v-10H58v1H53.58v3.66h4.14v1H53.58Z"/><path class="cls-3" d="M62.75,75.15a4.44,4.44,0,0,1,.9.08l-.16,1.05a3.86,3.86,0,0,0-.82-.1,2,2,0,0,0-1.55.74,2.69,2.69,0,0,0-.65,1.84v4H59.34V75.29h.94l.13,1.39h.05a3.31,3.31,0,0,1,1-1.13A2.26,2.26,0,0,1,62.75,75.15Z"/><path class="cls-3" d="M69.52,82.78l-.23-1.07h-.05a3.14,3.14,0,0,1-1.12,1,3.39,3.39,0,0,1-1.39.25A2.5,2.5,0,0,1,65,82.34a2.09,2.09,0,0,1-.63-1.63q0-2.27,3.63-2.38l1.27,0v-.46a1.89,1.89,0,0,0-.38-1.3,1.55,1.55,0,0,0-1.21-.42,4.94,4.94,0,0,0-2.12.57l-.35-.87a5.35,5.35,0,0,1,1.21-.47,5.23,5.23,0,0,1,1.32-.17,2.86,2.86,0,0,1,2,.59,2.49,2.49,0,0,1,.65,1.91v5.11ZM67,82a2.31,2.31,0,0,0,1.67-.58,2.15,2.15,0,0,0,.6-1.63V79.1l-1.13,0a4.14,4.14,0,0,0-2,.42,1.27,1.27,0,0,0-.6,1.16,1.17,1.17,0,0,0,.37.94A1.55,1.55,0,0,0,67,82Z"/><path class="cls-3" d="M73.62,75.29v4.86A2,2,0,0,0,74,81.52a1.7,1.7,0,0,0,1.31.45,2.13,2.13,0,0,0,1.72-.64,3.24,3.24,0,0,0,.54-2.1V75.29h1.13v7.49h-.94l-.16-1h-.06a2.26,2.26,0,0,1-1,.85,3.24,3.24,0,0,1-1.41.29,2.87,2.87,0,0,1-2-.65,2.77,2.77,0,0,1-.68-2.08v-4.9Z"/><path class="cls-3" d="M86.11,81.77H86a2.67,2.67,0,0,1-2.35,1.14,2.78,2.78,0,0,1-2.29-1,4.42,4.42,0,0,1-.82-2.86,4.5,4.5,0,0,1,.82-2.88,2.76,2.76,0,0,1,2.28-1A2.72,2.72,0,0,1,86,76.26h.09l0-.54,0-.53v-3h1.13V82.78h-.92ZM83.84,82a2.07,2.07,0,0,0,1.69-.63,3.2,3.2,0,0,0,.52-2v-.24a3.76,3.76,0,0,0-.53-2.27,2,2,0,0,0-1.69-.68,1.74,1.74,0,0,0-1.53.78,3.85,3.85,0,0,0-.53,2.19,3.7,3.7,0,0,0,.53,2.17A1.78,1.78,0,0,0,83.84,82Z"/><path class="cls-3" d="M96.36,75.15a4.44,4.44,0,0,1,.9.08l-.16,1.05a3.86,3.86,0,0,0-.82-.1,2,2,0,0,0-1.55.74,2.69,2.69,0,0,0-.65,1.84v4H92.95V75.29h.94L94,76.68h.05a3.31,3.31,0,0,1,1-1.13A2.26,2.26,0,0,1,96.36,75.15Z"/><path class="cls-3" d="M98.42,73.26a.75.75,0,0,1,.19-.57.71.71,0,0,1,1,0,.74.74,0,0,1,.2.57.76.76,0,0,1-.2.57.7.7,0,0,1-1,0A.77.77,0,0,1,98.42,73.26Zm1.23,9.52H98.52V75.29h1.13Z"/><path class="cls-3" d="M106.75,80.74a1.88,1.88,0,0,1-.78,1.61,3.67,3.67,0,0,1-2.19.57,4.76,4.76,0,0,1-2.32-.47V81.39a5.58,5.58,0,0,0,1.16.43,4.85,4.85,0,0,0,1.19.16,2.7,2.7,0,0,0,1.37-.28,1,1,0,0,0,.1-1.61,6,6,0,0,0-1.48-.73,8.09,8.09,0,0,1-1.49-.68,2.06,2.06,0,0,1-.66-.66,1.73,1.73,0,0,1-.21-.88,1.68,1.68,0,0,1,.75-1.45,3.48,3.48,0,0,1,2-.53,6,6,0,0,1,2.37.49l-.4.92a5.44,5.44,0,0,0-2-.46,2.35,2.35,0,0,0-1.22.25.78.78,0,0,0-.41.7.84.84,0,0,0,.15.51,1.51,1.51,0,0,0,.5.4,10.91,10.91,0,0,0,1.31.55,4.9,4.9,0,0,1,1.8,1A1.73,1.73,0,0,1,106.75,80.74Z"/><path class="cls-3" d="M109.58,78.94a13.29,13.29,0,0,1,.9-1.09l2.42-2.56h1.35l-3,3.19,3.25,4.3h-1.37l-2.65-3.54-.85.74v2.8h-1.12V72.14h1.12v5.64q0,.38-.05,1.16Z"/><path class="cls-3" d="M43.73,93H41.82v6.61H40.69V93H39.35v-.51L40.69,92v-.42q0-2.76,2.41-2.76a5,5,0,0,1,1.39.24L44.2,90a3.75,3.75,0,0,0-1.12-.21,1.09,1.09,0,0,0-1,.43,2.38,2.38,0,0,0-.31,1.37v.49h1.91Z"/><path class="cls-3" d="M51.42,95.83a4.13,4.13,0,0,1-.92,2.86,3.25,3.25,0,0,1-2.55,1,3.38,3.38,0,0,1-1.78-.47A3.11,3.11,0,0,1,45,97.89a4.72,4.72,0,0,1-.42-2.06A4.13,4.13,0,0,1,45.46,93,3.24,3.24,0,0,1,48,92a3.17,3.17,0,0,1,2.5,1A4.12,4.12,0,0,1,51.42,95.83Zm-5.71,0A3.56,3.56,0,0,0,46.29,98a2.28,2.28,0,0,0,3.38,0,3.53,3.53,0,0,0,.58-2.19,3.48,3.48,0,0,0-.58-2.17A2,2,0,0,0,48,92.91a2,2,0,0,0-1.68.73A3.52,3.52,0,0,0,45.72,95.83Z"/><path class="cls-3" d="M54.41,99.58H53.27V88.94h1.13Z"/><path class="cls-3" d="M57.81,99.58H56.67V88.94h1.13Z"/><path class="cls-3" d="M66.54,95.83a4.13,4.13,0,0,1-.92,2.86,3.25,3.25,0,0,1-2.55,1,3.38,3.38,0,0,1-1.78-.47,3.11,3.11,0,0,1-1.2-1.35,4.72,4.72,0,0,1-.42-2.06A4.13,4.13,0,0,1,60.58,93a3.24,3.24,0,0,1,2.54-1,3.17,3.17,0,0,1,2.5,1A4.12,4.12,0,0,1,66.54,95.83Zm-5.71,0A3.56,3.56,0,0,0,61.41,98a2.28,2.28,0,0,0,3.38,0,3.53,3.53,0,0,0,.58-2.19,3.48,3.48,0,0,0-.58-2.17,2,2,0,0,0-1.71-.74,2,2,0,0,0-1.68.73A3.52,3.52,0,0,0,60.84,95.83Z"/><path class="cls-3" d="M74.51,99.58l-1.37-4.4q-.13-.4-.49-1.83H72.6q-.27,1.2-.48,1.85L70.7,99.58H69.39l-2-7.49h1.19l1.1,4.3a17.53,17.53,0,0,1,.43,2h.05q.07-.39.24-1t.29-1L72,92.09h1.23l1.34,4.3a14.52,14.52,0,0,1,.52,2h.05a7.28,7.28,0,0,1,.15-.76q.12-.51,1.42-5.52h1.18l-2.07,7.49Z"/><path class="cls-3" d="M83.7,92.09v4.86a2,2,0,0,0,.42,1.37,1.7,1.7,0,0,0,1.31.45,2.13,2.13,0,0,0,1.72-.64,3.24,3.24,0,0,0,.54-2.1V92.09h1.13v7.49h-.94l-.16-1h-.06a2.26,2.26,0,0,1-1,.85,3.24,3.24,0,0,1-1.41.29,2.87,2.87,0,0,1-2-.65A2.77,2.77,0,0,1,82.56,97v-4.9Z"/><path class="cls-3" d="M94.58,99.72a3.24,3.24,0,0,1-1.34-.27,2.51,2.51,0,0,1-1-.83h-.08a10.05,10.05,0,0,1,.08,1.24v3.08H91.09V92.09H92l.16,1h.05a2.64,2.64,0,0,1,1-.89A3.09,3.09,0,0,1,94.58,92a2.77,2.77,0,0,1,2.3,1,5.43,5.43,0,0,1,0,5.73A2.78,2.78,0,0,1,94.58,99.72Zm-.16-6.8a2,2,0,0,0-1.66.64,3.27,3.27,0,0,0-.53,2v.25a3.75,3.75,0,0,0,.53,2.26,2,2,0,0,0,1.69.68A1.76,1.76,0,0,0,96,98a3.73,3.73,0,0,0,.55-2.17A3.59,3.59,0,0,0,96,93.66,1.81,1.81,0,0,0,94.41,92.91Z"/><path class="cls-3" d="M107.63,99.58l-.23-1.07h-.05a3.14,3.14,0,0,1-1.12,1,3.39,3.39,0,0,1-1.39.25,2.5,2.5,0,0,1-1.75-.57,2.09,2.09,0,0,1-.63-1.63q0-2.27,3.63-2.38l1.27,0v-.46a1.89,1.89,0,0,0-.38-1.3,1.55,1.55,0,0,0-1.21-.42,4.94,4.94,0,0,0-2.12.57l-.35-.87a5.35,5.35,0,0,1,1.21-.47,5.23,5.23,0,0,1,1.32-.17,2.86,2.86,0,0,1,2,.59,2.49,2.49,0,0,1,.65,1.91v5.11Zm-2.56-.8a2.31,2.31,0,0,0,1.67-.58,2.15,2.15,0,0,0,.6-1.63V95.9l-1.13,0a4.14,4.14,0,0,0-2,.42,1.27,1.27,0,0,0-.6,1.16,1.17,1.17,0,0,0,.37.94A1.55,1.55,0,0,0,105.07,98.78Z"/><path class="cls-3" d="M115.8,99.58V94.73a2,2,0,0,0-.42-1.37,1.7,1.7,0,0,0-1.31-.45,2.15,2.15,0,0,0-1.72.64,3.21,3.21,0,0,0-.55,2.1v3.93h-1.13V92.09h.92l.18,1h.05a2.31,2.31,0,0,1,1-.86,3.17,3.17,0,0,1,1.4-.3,2.85,2.85,0,0,1,2,.65,2.78,2.78,0,0,1,.68,2.09v4.89Z"/><path class="cls-3" d="M124.23,98.57h-.06a2.67,2.67,0,0,1-2.35,1.14,2.78,2.78,0,0,1-2.29-1,4.42,4.42,0,0,1-.82-2.86,4.5,4.5,0,0,1,.82-2.88,2.76,2.76,0,0,1,2.28-1,2.72,2.72,0,0,1,2.34,1.11h.09l0-.54,0-.53v-3h1.13V99.58h-.92Zm-2.27.19a2.07,2.07,0,0,0,1.69-.63,3.2,3.2,0,0,0,.52-2v-.24a3.76,3.76,0,0,0-.53-2.27,2,2,0,0,0-1.69-.68,1.74,1.74,0,0,0-1.53.78,3.85,3.85,0,0,0-.53,2.19,3.7,3.7,0,0,0,.53,2.17A1.78,1.78,0,0,0,122,98.77Z"/><path class="cls-3" d="M50.88,116.38l-.23-1.07H50.6a3.14,3.14,0,0,1-1.12,1,3.39,3.39,0,0,1-1.39.25,2.5,2.5,0,0,1-1.75-.57,2.09,2.09,0,0,1-.63-1.63q0-2.27,3.63-2.38l1.27,0v-.46a1.89,1.89,0,0,0-.38-1.3A1.55,1.55,0,0,0,49,109.7a4.94,4.94,0,0,0-2.12.57l-.35-.87a5.35,5.35,0,0,1,1.21-.47,5.23,5.23,0,0,1,1.32-.17,2.86,2.86,0,0,1,2,.59,2.49,2.49,0,0,1,.65,1.91v5.11Zm-2.56-.8A2.31,2.31,0,0,0,50,115a2.15,2.15,0,0,0,.6-1.63v-.68l-1.13,0a4.14,4.14,0,0,0-2,.42,1.27,1.27,0,0,0-.6,1.16,1.17,1.17,0,0,0,.37.94A1.55,1.55,0,0,0,48.32,115.58Z"/><path class="cls-3" d="M58.75,114.34a1.88,1.88,0,0,1-.78,1.61,3.67,3.67,0,0,1-2.19.57,4.76,4.76,0,0,1-2.32-.47V115a5.58,5.58,0,0,0,1.16.43,4.85,4.85,0,0,0,1.19.16,2.7,2.7,0,0,0,1.37-.28,1,1,0,0,0,.1-1.61,6,6,0,0,0-1.48-.73,8.09,8.09,0,0,1-1.49-.68,2.06,2.06,0,0,1-.66-.66,1.73,1.73,0,0,1-.21-.88,1.68,1.68,0,0,1,.75-1.45,3.48,3.48,0,0,1,2-.53,6,6,0,0,1,2.37.49l-.4.92a5.44,5.44,0,0,0-2-.46,2.35,2.35,0,0,0-1.22.25.78.78,0,0,0-.41.7.84.84,0,0,0,.15.51,1.51,1.51,0,0,0,.5.4,10.91,10.91,0,0,0,1.31.55,4.9,4.9,0,0,1,1.8,1A1.73,1.73,0,0,1,58.75,114.34Z"/><path class="cls-3" d="M65.29,114.34a1.88,1.88,0,0,1-.78,1.61,3.67,3.67,0,0,1-2.19.57A4.76,4.76,0,0,1,60,116V115a5.58,5.58,0,0,0,1.16.43,4.85,4.85,0,0,0,1.19.16,2.7,2.7,0,0,0,1.37-.28,1,1,0,0,0,.1-1.61,6,6,0,0,0-1.48-.73,8.09,8.09,0,0,1-1.49-.68,2.06,2.06,0,0,1-.66-.66,1.73,1.73,0,0,1-.21-.88,1.68,1.68,0,0,1,.75-1.45,3.48,3.48,0,0,1,2-.53,6,6,0,0,1,2.37.49l-.4.92a5.44,5.44,0,0,0-2-.46,2.35,2.35,0,0,0-1.22.25.78.78,0,0,0-.41.7.84.84,0,0,0,.15.51,1.51,1.51,0,0,0,.5.4,10.91,10.91,0,0,0,1.31.55,4.9,4.9,0,0,1,1.8,1A1.73,1.73,0,0,1,65.29,114.34Z"/><path class="cls-3" d="M70.16,116.52a3.44,3.44,0,0,1-2.62-1,3.92,3.92,0,0,1-1-2.81,4.35,4.35,0,0,1,.89-2.88,3,3,0,0,1,2.4-1.07,2.83,2.83,0,0,1,2.23.93,3.55,3.55,0,0,1,.82,2.44v.72H67.76a3,3,0,0,0,.67,2,2.3,2.3,0,0,0,1.78.68A6,6,0,0,0,72.6,115v1a6,6,0,0,1-1.14.37A6.33,6.33,0,0,1,70.16,116.52Zm-.31-6.82a1.86,1.86,0,0,0-1.44.59,2.71,2.71,0,0,0-.63,1.63H71.7a2.49,2.49,0,0,0-.48-1.64A1.68,1.68,0,0,0,69.86,109.7Z"/><path class="cls-3" d="M79.55,114.34a1.88,1.88,0,0,1-.78,1.61,3.67,3.67,0,0,1-2.19.57,4.76,4.76,0,0,1-2.32-.47V115a5.58,5.58,0,0,0,1.16.43,4.85,4.85,0,0,0,1.19.16A2.7,2.7,0,0,0,78,115.3a1,1,0,0,0,.1-1.61,6,6,0,0,0-1.48-.73,8.09,8.09,0,0,1-1.49-.68,2.06,2.06,0,0,1-.66-.66,1.73,1.73,0,0,1-.21-.88,1.68,1.68,0,0,1,.75-1.45,3.48,3.48,0,0,1,2-.53,6,6,0,0,1,2.37.49l-.4.92a5.44,5.44,0,0,0-2-.46,2.35,2.35,0,0,0-1.22.25.78.78,0,0,0-.41.7.84.84,0,0,0,.15.51,1.51,1.51,0,0,0,.5.4,10.91,10.91,0,0,0,1.31.55,4.9,4.9,0,0,1,1.8,1A1.73,1.73,0,0,1,79.55,114.34Z"/><path class="cls-3" d="M86.09,114.34a1.88,1.88,0,0,1-.78,1.61,3.67,3.67,0,0,1-2.19.57,4.76,4.76,0,0,1-2.32-.47V115a5.58,5.58,0,0,0,1.16.43,4.85,4.85,0,0,0,1.19.16,2.7,2.7,0,0,0,1.37-.28,1,1,0,0,0,.1-1.61,6,6,0,0,0-1.48-.73,8.09,8.09,0,0,1-1.49-.68,2.06,2.06,0,0,1-.66-.66,1.73,1.73,0,0,1-.21-.88,1.68,1.68,0,0,1,.75-1.45,3.48,3.48,0,0,1,2-.53,6,6,0,0,1,2.37.49l-.4.92a5.44,5.44,0,0,0-2-.46,2.35,2.35,0,0,0-1.22.25.78.78,0,0,0-.41.7.84.84,0,0,0,.15.51,1.51,1.51,0,0,0,.5.4,10.91,10.91,0,0,0,1.31.55,4.9,4.9,0,0,1,1.8,1A1.73,1.73,0,0,1,86.09,114.34Z"/><path class="cls-3" d="M97.34,116.38v-4.87a2,2,0,0,0-.38-1.34,1.48,1.48,0,0,0-1.19-.45,1.92,1.92,0,0,0-1.57.61,2.89,2.89,0,0,0-.51,1.87v4.18H92.56v-4.87a2,2,0,0,0-.38-1.34,1.49,1.49,0,0,0-1.2-.45,1.85,1.85,0,0,0-1.56.64,3.45,3.45,0,0,0-.5,2.09v3.93H87.79v-7.49h.92l.18,1H89a2.23,2.23,0,0,1,.91-.85,2.76,2.76,0,0,1,1.31-.31,2.23,2.23,0,0,1,2.3,1.27h.05a2.39,2.39,0,0,1,1-.93,3,3,0,0,1,1.45-.34,2.54,2.54,0,0,1,1.9.65,2.93,2.93,0,0,1,.63,2.09v4.89Z"/><path class="cls-3" d="M103.84,116.52a3.44,3.44,0,0,1-2.62-1,3.92,3.92,0,0,1-1-2.81,4.35,4.35,0,0,1,.89-2.88,3,3,0,0,1,2.4-1.07,2.83,2.83,0,0,1,2.23.93,3.55,3.55,0,0,1,.82,2.44v.72h-5.16a3,3,0,0,0,.67,2,2.3,2.3,0,0,0,1.78.68,6,6,0,0,0,2.39-.51v1a6,6,0,0,1-1.14.37A6.33,6.33,0,0,1,103.84,116.52Zm-.31-6.82a1.86,1.86,0,0,0-1.44.59,2.71,2.71,0,0,0-.63,1.63h3.92a2.49,2.49,0,0,0-.48-1.64A1.68,1.68,0,0,0,103.53,109.7Z"/><path class="cls-3" d="M113.51,116.38v-4.85a2,2,0,0,0-.42-1.37,1.7,1.7,0,0,0-1.31-.45,2.15,2.15,0,0,0-1.72.64,3.21,3.21,0,0,0-.55,2.1v3.93h-1.13v-7.49h.92l.18,1h.05a2.31,2.31,0,0,1,1-.86,3.17,3.17,0,0,1,1.4-.3,2.85,2.85,0,0,1,2,.65,2.78,2.78,0,0,1,.68,2.09v4.89Z"/><path class="cls-3" d="M119.26,115.58a3.75,3.75,0,0,0,.58,0l.44-.09v.87a2,2,0,0,1-.54.15,4.06,4.06,0,0,1-.65.06q-2.17,0-2.17-2.29v-4.46h-1.07v-.55l1.07-.47.48-1.6h.66v1.74h2.17v.88h-2.17v4.41a1.52,1.52,0,0,0,.32,1A1.12,1.12,0,0,0,119.26,115.58Z"/><path class="cls-4" d="M95.77,33.37a.69.69,0,0,0-.15-.22L88.78,26.3a.67.67,0,0,0-.22-.15.69.69,0,0,0-.26-.05H70.51a.68.68,0,0,0-.68.68V59.63a.68.68,0,0,0,.68.68H95.14a.68.68,0,0,0,.68-.68v-26A.69.69,0,0,0,95.77,33.37ZM89,28.44l4.51,4.51H89ZM71.19,58.95V27.47H87.62v6.16a.68.68,0,0,0,.68.68h6.16V58.95Z"/><path class="cls-4" d="M82.83,32.94H76a.68.68,0,0,0,0,1.37h6.84a.68.68,0,0,0,0-1.37Z"/><path class="cls-4" d="M82.83,39.79H76a.68.68,0,1,0,0,1.37h6.84a.68.68,0,1,0,0-1.37Z"/><path class="cls-4" d="M82.83,46.63H76A.68.68,0,1,0,76,48h6.84a.68.68,0,1,0,0-1.37Z"/><path class="cls-4" d="M82.83,53.47H76a.68.68,0,0,0,0,1.37h6.84a.68.68,0,0,0,0-1.37Z"/><path class="cls-4" d="M90.47,37.35l-2.27,3.41L87.42,40a.68.68,0,0,0-1,1l1.37,1.37a.68.68,0,0,0,.48.2h.07a.68.68,0,0,0,.5-.3l2.74-4.11a.68.68,0,0,0-1.14-.76Z"/><path class="cls-4" d="M90.47,44.2l-2.27,3.41-.78-.78a.68.68,0,0,0-1,1l1.37,1.37a.68.68,0,0,0,.48.2h.07a.68.68,0,0,0,.5-.3L91.61,45a.68.68,0,1,0-1.14-.76Z"/></g></g></svg>