<svg xmlns="http://www.w3.org/2000/svg" viewBox="0 0 165.56 165.56"><defs><style>.cls-1{fill:#d9d9d9;}.cls-2{fill:#68c460;}.cls-3{fill:#fff;}</style></defs><title>fraud-hover</title><g id="Capa_2" data-name="Capa 2"><g id="Capa_2-2" data-name="Capa 2"><circle class="cls-1" cx="82.78" cy="82.78" r="82.78"/><circle class="cls-2" cx="82.78" cy="82.78" r="76.63"/><path class="cls-3" d="M52.07,92.78H50.91v-10h5.57v1H52.07v3.66h4.14v1H52.07Z"/><path class="cls-3" d="M61.24,85.15a4.44,4.44,0,0,1,.9.08L62,86.29a3.86,3.86,0,0,0-.82-.1,2,2,0,0,0-1.55.74A2.69,2.69,0,0,0,59,88.76v4H57.82V85.29h.94l.13,1.39h.05a3.31,3.31,0,0,1,1-1.13A2.26,2.26,0,0,1,61.24,85.15Z"/><path class="cls-3" d="M68,92.78l-.23-1.07h-.05a3.14,3.14,0,0,1-1.12,1,3.39,3.39,0,0,1-1.39.25,2.5,2.5,0,0,1-1.75-.57,2.09,2.09,0,0,1-.63-1.63q0-2.27,3.63-2.38l1.27,0v-.46a1.89,1.89,0,0,0-.38-1.3,1.55,1.55,0,0,0-1.21-.42,4.94,4.94,0,0,0-2.12.57l-.35-.87a5.35,5.35,0,0,1,1.21-.47,5.23,5.23,0,0,1,1.32-.17,2.86,2.86,0,0,1,2,.59,2.49,2.49,0,0,1,.65,1.91v5.11ZM65.44,92a2.31,2.31,0,0,0,1.67-.58,2.15,2.15,0,0,0,.6-1.63v-.68l-1.13,0a4.14,4.14,0,0,0-2,.42,1.27,1.27,0,0,0-.6,1.16,1.17,1.17,0,0,0,.37.94A1.55,1.55,0,0,0,65.44,92Z"/><path class="cls-3" d="M72.11,85.29v4.86a2,2,0,0,0,.42,1.37,1.7,1.7,0,0,0,1.31.45,2.13,2.13,0,0,0,1.72-.64,3.24,3.24,0,0,0,.54-2.1V85.29h1.13v7.49h-.94l-.16-1h-.06a2.26,2.26,0,0,1-1,.85,3.24,3.24,0,0,1-1.41.29,2.87,2.87,0,0,1-2-.65A2.77,2.77,0,0,1,71,90.19v-4.9Z"/><path class="cls-3" d="M84.59,91.77h-.06a2.67,2.67,0,0,1-2.35,1.14,2.78,2.78,0,0,1-2.29-1,4.42,4.42,0,0,1-.82-2.86,4.5,4.5,0,0,1,.82-2.88,2.76,2.76,0,0,1,2.28-1,2.72,2.72,0,0,1,2.34,1.11h.09l0-.54,0-.53v-3h1.13V92.78h-.92ZM82.32,92A2.07,2.07,0,0,0,84,91.33a3.2,3.2,0,0,0,.52-2v-.24A3.76,3.76,0,0,0,84,86.78a2,2,0,0,0-1.69-.68,1.74,1.74,0,0,0-1.53.78,3.85,3.85,0,0,0-.53,2.19,3.7,3.7,0,0,0,.53,2.17A1.78,1.78,0,0,0,82.32,92Z"/><path class="cls-3" d="M92.76,88.62v4.16H91.6v-10h2.74a4.31,4.31,0,0,1,2.72.7,2.55,2.55,0,0,1,.88,2.12,2.65,2.65,0,0,1-2,2.68l2.71,4.49H97.27l-2.42-4.16Zm0-1h1.59a2.75,2.75,0,0,0,1.8-.49,1.82,1.82,0,0,0,.57-1.47,1.67,1.67,0,0,0-.58-1.43,3.17,3.17,0,0,0-1.88-.44H92.76Z"/><path class="cls-3" d="M99.85,83.26a.75.75,0,0,1,.19-.57.71.71,0,0,1,1,0,.74.74,0,0,1,.2.57.76.76,0,0,1-.2.57.7.7,0,0,1-1,0A.77.77,0,0,1,99.85,83.26Zm1.23,9.52H99.94V85.29h1.13Z"/><path class="cls-3" d="M108.18,90.74a1.88,1.88,0,0,1-.78,1.61,3.67,3.67,0,0,1-2.19.57,4.76,4.76,0,0,1-2.32-.47V91.39a5.58,5.58,0,0,0,1.16.43,4.85,4.85,0,0,0,1.19.16,2.7,2.7,0,0,0,1.37-.28,1,1,0,0,0,.1-1.61,6,6,0,0,0-1.48-.73,8.09,8.09,0,0,1-1.49-.68,2.06,2.06,0,0,1-.66-.66,1.73,1.73,0,0,1-.21-.88,1.68,1.68,0,0,1,.75-1.45,3.48,3.48,0,0,1,2-.53,6,6,0,0,1,2.37.49l-.4.92a5.44,5.44,0,0,0-2-.46,2.35,2.35,0,0,0-1.22.25.78.78,0,0,0-.41.7.84.84,0,0,0,.15.51,1.51,1.51,0,0,0,.5.4,10.91,10.91,0,0,0,1.31.55,4.9,4.9,0,0,1,1.8,1A1.73,1.73,0,0,1,108.18,90.74Z"/><path class="cls-3" d="M111,88.94a13.29,13.29,0,0,1,.9-1.09l2.42-2.56h1.35l-3,3.19,3.25,4.3H114.5l-2.65-3.54L111,90v2.8h-1.12V82.14H111v5.64q0,.38-.05,1.16Z"/><path class="cls-3" d="M42.15,109.58v-10h1.16v10Z"/><path class="cls-3" d="M50.85,108.57h-.06a2.67,2.67,0,0,1-2.35,1.14,2.78,2.78,0,0,1-2.29-1,4.42,4.42,0,0,1-.82-2.86,4.5,4.5,0,0,1,.82-2.88,2.76,2.76,0,0,1,2.28-1,2.72,2.72,0,0,1,2.34,1.11h.09l0-.54,0-.53v-3h1.13v10.64H51Zm-2.27.19a2.07,2.07,0,0,0,1.69-.63,3.2,3.2,0,0,0,.52-2v-.24a3.76,3.76,0,0,0-.53-2.27,2,2,0,0,0-1.69-.68,1.74,1.74,0,0,0-1.53.78,3.85,3.85,0,0,0-.53,2.19A3.7,3.7,0,0,0,47,108,1.78,1.78,0,0,0,48.58,108.77Z"/><path class="cls-3" d="M57.35,109.72a3.44,3.44,0,0,1-2.62-1,3.92,3.92,0,0,1-1-2.81,4.35,4.35,0,0,1,.89-2.88,3,3,0,0,1,2.4-1.07,2.83,2.83,0,0,1,2.23.93,3.55,3.55,0,0,1,.82,2.44V106H54.94a3,3,0,0,0,.67,2,2.3,2.3,0,0,0,1.78.68,6,6,0,0,0,2.39-.51v1a6,6,0,0,1-1.14.37A6.33,6.33,0,0,1,57.35,109.72ZM57,102.9a1.86,1.86,0,0,0-1.44.59,2.71,2.71,0,0,0-.63,1.63h3.92a2.49,2.49,0,0,0-.48-1.64A1.68,1.68,0,0,0,57,102.9Z"/><path class="cls-3" d="M67,109.58v-4.85a2,2,0,0,0-.42-1.37,1.7,1.7,0,0,0-1.31-.45,2.15,2.15,0,0,0-1.72.64,3.21,3.21,0,0,0-.55,2.1v3.93H61.9v-7.49h.92l.18,1h.05a2.31,2.31,0,0,1,1-.86,3.17,3.17,0,0,1,1.4-.3,2.85,2.85,0,0,1,2,.65,2.78,2.78,0,0,1,.68,2.09v4.89Z"/><path class="cls-3" d="M72.77,108.78a3.75,3.75,0,0,0,.58,0l.44-.09v.87a2,2,0,0,1-.54.15,4.06,4.06,0,0,1-.65.06q-2.17,0-2.17-2.29V103H69.36v-.55l1.07-.47.48-1.6h.66v1.74h2.17V103H71.57v4.41a1.52,1.52,0,0,0,.32,1A1.12,1.12,0,0,0,72.77,108.78Z"/><path class="cls-3" d="M75.06,100.06a.75.75,0,0,1,.19-.57.71.71,0,0,1,1,0,.74.74,0,0,1,.2.57.76.76,0,0,1-.2.57.7.7,0,0,1-1,0A.77.77,0,0,1,75.06,100.06Zm1.23,9.52H75.15v-7.49h1.13Z"/><path class="cls-3" d="M81.93,103H80v6.61H78.89V103H77.55v-.51l1.34-.41v-.42q0-2.76,2.41-2.76a5,5,0,0,1,1.39.24l-.29.91a3.75,3.75,0,0,0-1.12-.21,1.09,1.09,0,0,0-1,.43A2.38,2.38,0,0,0,80,101.6v.49h1.91Zm1.27-2.91a.75.75,0,0,1,.19-.57.71.71,0,0,1,1,0,.74.74,0,0,1,.2.57.76.76,0,0,1-.2.57.7.7,0,0,1-1,0A.77.77,0,0,1,83.2,100.06Zm1.23,9.52H83.3v-7.49h1.13Z"/><path class="cls-3" d="M89.69,109.72a3.2,3.2,0,0,1-2.52-1,4.12,4.12,0,0,1-.89-2.83,4.25,4.25,0,0,1,.91-2.91,3.26,3.26,0,0,1,2.58-1,5.14,5.14,0,0,1,1.08.12,3.55,3.55,0,0,1,.85.27l-.35,1a5.36,5.36,0,0,0-.82-.25,3.7,3.7,0,0,0-.79-.1q-2.28,0-2.28,2.91A3.46,3.46,0,0,0,88,108a1.94,1.94,0,0,0,1.65.74,5.05,5.05,0,0,0,1.92-.4v1A4.09,4.09,0,0,1,89.69,109.72Z"/><path class="cls-3" d="M97.83,109.58l-.23-1.07h-.05a3.14,3.14,0,0,1-1.12,1,3.39,3.39,0,0,1-1.39.25,2.5,2.5,0,0,1-1.75-.57,2.09,2.09,0,0,1-.63-1.63q0-2.27,3.63-2.38l1.27,0v-.46a1.89,1.89,0,0,0-.38-1.3A1.55,1.55,0,0,0,96,102.9a4.94,4.94,0,0,0-2.12.57l-.35-.87a5.35,5.35,0,0,1,1.21-.47A5.23,5.23,0,0,1,96,102a2.86,2.86,0,0,1,2,.59,2.49,2.49,0,0,1,.65,1.91v5.11Zm-2.56-.8a2.31,2.31,0,0,0,1.67-.58,2.15,2.15,0,0,0,.6-1.63v-.68l-1.13,0a4.14,4.14,0,0,0-2,.42,1.27,1.27,0,0,0-.6,1.16,1.17,1.17,0,0,0,.37.94A1.55,1.55,0,0,0,95.27,108.78Z"/><path class="cls-3" d="M103.29,108.78a3.75,3.75,0,0,0,.58,0l.44-.09v.87a2,2,0,0,1-.54.15,4.06,4.06,0,0,1-.65.06q-2.17,0-2.17-2.29V103H99.88v-.55L101,102l.48-1.6h.66v1.74h2.17V103h-2.17v4.41a1.52,1.52,0,0,0,.32,1A1.12,1.12,0,0,0,103.29,108.78Z"/><path class="cls-3" d="M105.58,100.06a.75.75,0,0,1,.19-.57.71.71,0,0,1,1,0,.74.74,0,0,1,.2.57.76.76,0,0,1-.2.57.7.7,0,0,1-1,0A.77.77,0,0,1,105.58,100.06Zm1.23,9.52h-1.13v-7.49h1.13Z"/><path class="cls-3" d="M115.54,105.83a4.13,4.13,0,0,1-.92,2.86,3.25,3.25,0,0,1-2.55,1,3.38,3.38,0,0,1-1.78-.47,3.11,3.11,0,0,1-1.2-1.35,4.72,4.72,0,0,1-.42-2.06,4.13,4.13,0,0,1,.92-2.85,3.24,3.24,0,0,1,2.54-1,3.17,3.17,0,0,1,2.5,1A4.12,4.12,0,0,1,115.54,105.83Zm-5.71,0a3.56,3.56,0,0,0,.57,2.19,2.28,2.28,0,0,0,3.38,0,3.53,3.53,0,0,0,.58-2.19,3.48,3.48,0,0,0-.58-2.17,2,2,0,0,0-1.71-.74,2,2,0,0,0-1.68.73A3.52,3.52,0,0,0,109.83,105.83Z"/><path class="cls-3" d="M122.52,109.58v-4.85a2,2,0,0,0-.42-1.37,1.7,1.7,0,0,0-1.31-.45,2.15,2.15,0,0,0-1.72.64,3.21,3.21,0,0,0-.55,2.1v3.93h-1.13v-7.49h.92l.18,1h.05a2.31,2.31,0,0,1,1-.86,3.17,3.17,0,0,1,1.4-.3,2.85,2.85,0,0,1,2,.65,2.78,2.78,0,0,1,.68,2.09v4.89Z"/><path class="cls-3" d="M96.11,41a12.48,12.48,0,0,0-8.9-3.69A12.33,12.33,0,0,0,78.36,41a12.53,12.53,0,0,0-.61,17.11L66.08,69.82a1.06,1.06,0,0,0,0,1.44,1.2,1.2,0,0,0,.72.27,1,1,0,0,0,.72-.3L79.23,59.52a12.5,12.5,0,0,0,8,2.89,12.33,12.33,0,0,0,8.86-3.69A12.57,12.57,0,0,0,96.11,41ZM94.67,57.31a10.53,10.53,0,1,1,0-14.9A10.5,10.5,0,0,1,94.67,57.31Z"/><path class="cls-3" d="M95.77,47a12.67,12.67,0,0,0-5.25-5.44,1,1,0,0,0-1,1.75,10.92,10.92,0,0,1,2.39,1.79,11.29,11.29,0,0,1,2,2.77,1.06,1.06,0,0,0,.91.57,1,1,0,0,0,.46-.11A1,1,0,0,0,95.77,47Z"/></g></g></svg>