<svg viewBox="0 0 59.25 87.29" xmlns="http://www.w3.org/2000/svg"><path d="m38.08 1.27a1.72 1.72 0 0 0 -.5-.12h-.05a24.45 24.45 0 0 0 -7.35-1.15 1.59 1.59 0 0 0 -.38 0h-.18a29.66 29.66 0 0 0 -29.62 29.66c0 9.14 3.92 15.42 7.33 19.87.68.89 1.35 1.72 2 2.52 1 1.29 2 2.5 2.77 3.63a9 9 0 0 1 1.91 5v14a6.56 6.56 0 0 0 4.74 6.24.38.38 0 0 1 .26.36v1.94a4 4 0 0 0 1.6 3 4.84 4.84 0 0 0 3 1h12a4.84 4.84 0 0 0 3-1 4 4 0 0 0 1.6-3v-1.97a.38.38 0 0 1 .26-.36 6.56 6.56 0 0 0 4.74-6.24v-14a9 9 0 0 1 1.91-5c.76-1.12 1.74-2.34 2.77-3.62.64-.79 1.31-1.63 2-2.52 3.41-4.45 7.33-10.72 7.33-19.87a29.8 29.8 0 0 0 -21.14-28.37zm3.92 73.39a3.38 3.38 0 0 1 -3.37 3.34 1.63 1.63 0 0 0 -1.63 1.66v3.5a.38.38 0 0 1 -.16.31l-.2.18a2 2 0 0 1 -1 .39h-12a2 2 0 0 1 -1-.39 2 2 0 0 1 -.2-.17.38.38 0 0 1 -.16-.31v-3.5a1.63 1.63 0 0 0 -1.65-1.67 3.38 3.38 0 0 1 -3.37-3.37v-6a.38.38 0 0 1 .38-.37h24a.38.38 0 0 1 .38.38zm7.36-27.12c-.63.82-1.27 1.61-1.9 2.39-1.08 1.33-2.1 2.59-3 3.9a12.16 12.16 0 0 0 -2.46 6.83v4a.38.38 0 0 1 -.37.38h-16.94a.38.38 0 0 1 -.37-.4 23.29 23.29 0 0 1 2-8.48.38.38 0 0 1 .27-.21c6.41-1.17 11.41-3.48 14.93-6.87a19.58 19.58 0 0 0 5.73-14.42c0-6.76-2.74-11.71-9.31-20.94a1.63 1.63 0 0 0 -2.79.23c-1.48 3.06-4.3 5.81-7.29 8.72-.79.77-1.58 1.54-2.38 2.35-3.62 3.66-7.34 8.27-7.49 14.62-.1 4.38 1.42 9 5.08 15.56a.37.37 0 0 1 0 .33 27.27 27.27 0 0 0 -2 9.16.38.38 0 0 1 -.37.35h-3.07a.38.38 0 0 1 -.37-.37v-4a12.16 12.16 0 0 0 -2.47-6.82c-.89-1.31-1.91-2.57-3-3.9-.63-.78-1.27-1.57-1.9-2.39-3.45-4.49-6.64-9.77-6.64-17.88a26.4 26.4 0 0 1 26.38-26.39 1.53 1.53 0 0 0 .34 0h.11a26 26 0 0 1 6.79 1h.08l.19.06a26.55 26.55 0 0 1 18.86 25.31c0 8.11-3.19 13.39-6.64 17.88zm-11.44-15.89a1.61 1.61 0 0 0 -1.07-.65 1.65 1.65 0 0 0 -.35 0 1.63 1.63 0 0 0 -1.5 1.45c-.86 6.47-3.65 10.27-6.6 14.3l-.69.94c-.83 1.14-1.64 2.27-2.39 3.48a.39.39 0 0 1 -.33.18.37.37 0 0 1 -.32-.21c-2.45-4.82-3.52-8.35-3.45-11.46.11-4.89 2.7-8.48 6.55-12.38.72-.73 1.48-1.46 2.24-2.2a49.54 49.54 0 0 0 6.37-7 .37.37 0 0 1 .31-.16.38.38 0 0 1 .31.16c4.62 6.69 7 11.09 7 16.56 0 5-1.56 9-4.77 12.11a22.36 22.36 0 0 1 -9.69 5.16h-.1a.38.38 0 0 1 -.31-.59c.41-.59.83-1.17 1.25-1.76l.5-.69c3-4.08 6.36-8.7 7.34-16a1.62 1.62 0 0 0 -.3-1.24z" fill="#fff"/></svg>