<svg xmlns="http://www.w3.org/2000/svg" viewBox="0 0 123.54 136.24"><defs><style>.cls-1{fill:#d9d9d9;}</style></defs><title>icono_gestion_del_agua</title><g id="Capa_2" data-name="Capa 2"><g id="Capa_1-2" data-name="Capa 1"><path class="cls-1" d="M102.59,89.7l-2.21-5.58a27.85,27.85,0,0,0,17.17-25.37c0-11.56-6.55-19.52-13.49-28C99.57,25.36,95,19.79,92,13.05c-3,6.73-7.62,12.3-12.1,17.74-1.56,1.89-3.17,3.85-4.65,5.79l-4.77-3.64c1.55-2,3.19-4,4.78-6C81.42,19.45,87.28,12.33,89,2.48a3,3,0,0,1,5.91,0c1.72,9.84,7.57,17,13.77,24.5C116,35.87,123.54,45,123.54,58.75A34,34,0,0,1,102.59,89.7Z"/><path class="cls-1" d="M47.47,136.24C22.18,136.24,0,114.52,0,89.76,0,70.33,11.59,57.22,22.81,44.54,32.15,34,41.81,23,44.54,8.47a3,3,0,0,1,5.9,0C53.16,23,62.82,34,72.15,44.53c11.21,12.68,22.79,25.8,22.79,45.23C94.95,114.52,72.76,136.24,47.47,136.24Zm0-116.64C42.94,30.82,35,39.78,27.3,48.51,16.35,60.9,6,72.61,6,89.76c0,21.56,19.38,40.48,41.47,40.48s41.47-18.91,41.47-40.48c0-17.16-10.34-28.86-21.29-41.25C59.95,39.78,52,30.82,47.49,19.6Zm3.16,103.93A38.84,38.84,0,0,1,12.69,85.59a3,3,0,0,1,6,0,32.85,32.85,0,0,0,32,31.94,3,3,0,0,1,0,6Z"/></g></g></svg>