<svg xmlns="http://www.w3.org/2000/svg" viewBox="0 0 134.47 135.36"><defs><style>.cls-1{fill:#d9d9d9;}</style></defs><title>icono_gestion_social</title><g id="Capa_2" data-name="Capa 2"><g id="Capa_1-2" data-name="Capa 1"><path class="cls-1" d="M111.79,73.49v-6A8.58,8.58,0,0,0,120,59.24V48c0-4.13-1.8-11.06-13.87-11.06H92.1c-6.9,0-8.85,2.59-13.56,8.84L77.62,47l-4.78-3.62.91-1.21c5.09-6.76,8.46-11.23,18.35-11.23h14.06C115.77,30.93,126,35.42,126,48V59.24A14.62,14.62,0,0,1,111.79,73.49Z"/><path class="cls-1" d="M92.29,67.68h-6V57.07l-4.09,2-2.68-5.37,5.62-2.81a3,3,0,0,1,1.34-.32h2.81a3,3,0,0,1,3,3Z"/><rect class="cls-1" x="108.79" y="50.81" width="6" height="28.12"/><path class="cls-1" d="M131.47,135.36H3a3,3,0,0,1-3-3.07A68.16,68.16,0,0,1,10.9,97.54l5,3.28a62.47,62.47,0,0,0-9.77,28.54H128.33C126.07,98,99.28,73,67.24,73a61.81,61.81,0,0,0-11.29,1l-1.1-5.9A67.84,67.84,0,0,1,67.24,67c36.33,0,66.49,29.28,67.24,65.28a3,3,0,0,1-3,3.06Z"/><path class="cls-1" d="M33.24,132.36h-6v-5.31c0-5.43,3.34-8.94,8.52-8.94H54.12a4.59,4.59,0,0,0,4-4.18v-2.62c0-5.64,4-10.06,9-10.07h0c1,0,2.21,0,2.21-3V95.57c0-2.17-.41-2.39-2.18-2.39H55.54v-6H67.24c5.2,0,8.18,3.06,8.18,8.39v2.62c0,5.57-3.14,9-8.19,9h0c-1.88,0-3,2.11-3,4.07v2.62a10.52,10.52,0,0,1-10,10.18H35.76c-1.22,0-2.52.23-2.52,2.94Z"/><path class="cls-1" d="M78.23,132.36h-6v-4c0-7.81,7.59-13.06,14.68-13.06H100c1.35,0,3.13-1.45,3.13-2.54v-.3c0-1.06-1.76-2.41-3.13-2.41H94.78c-4.76,0-8.49-3.48-8.49-7.92V99.5C86.29,95.1,90,90,94.78,90H114.6v6H94.78c-.92,0-2.49,2-2.49,3.51v2.62c0,1.2,1.27,1.92,2.49,1.92H100c4.31,0,9.13,3.6,9.13,8.41v.3c0,4.81-4.91,8.54-9.13,8.54H86.91c-4.1,0-8.68,3-8.68,7.06Z"/><path class="cls-1" d="M50.11,109.86h-6V50.81a3,3,0,0,1,3-3h3a3,3,0,0,1,1.82.61s6.46,4.92,11,8.45c3,2.33,6.42,1.47,8.72.35-3.36-3.52-9.32-9.69-12.56-12.62-5.24-4.73-10-7.66-17.68-7.66H27.42c-2.32,0-13.87.67-13.87,13.87V62.06c0,4.37,4.61,8.25,8.25,8.25v6c-6.59,0-14.25-6.22-14.25-14.25V50.81c0-13.73,10-19.87,19.87-19.87H41.48c10.1,0,16.4,4.43,21.7,9.21,4.84,4.37,15,15.11,15.39,15.57A3,3,0,0,1,78.34,60c-3.43,3-11.82,7.12-19,1.59-3.07-2.36-7-5.36-9.23-7.07Z"/><rect class="cls-1" x="18.8" y="48" width="6" height="61.87"/><rect class="cls-1" x="30.05" y="70.49" width="6" height="39.37"/><path class="cls-1" d="M34.45,28.5c-7.2,0-12.84-5.27-12.84-12V12c0-6.73,5.64-12,12.84-12S47.3,5.27,47.3,12v4.5C47.3,23.23,41.65,28.5,34.45,28.5Zm0-22.5c-3.36,0-6.84,2.24-6.84,6v4.5c0,3.75,3.48,6,6.84,6s6.84-2.24,6.84-6V12C41.3,8.24,37.82,6,34.45,6Z"/><path class="cls-1" d="M101.95,28.5c-7.2,0-12.84-5.27-12.84-12V12c0-6.73,5.64-12,12.84-12s12.84,5.27,12.84,12v4.5C114.79,23.23,109.15,28.5,101.95,28.5Zm0-22.5c-3.36,0-6.84,2.24-6.84,6v4.5c0,3.75,3.48,6,6.84,6s6.84-2.24,6.84-6V12C108.79,8.24,105.31,6,101.95,6Z"/></g></g></svg>