<svg xmlns="http://www.w3.org/2000/svg" viewBox="0 0 105.65 55.92"><defs><style>.cls-1{fill:#2e73ba;fill-rule:evenodd;}.cls-2{fill:#fff;}</style></defs><title>ICON_POLITICA_AMBIENTAL_9</title><g id="Capa_2" data-name="Capa 2"><g id="Modo_de_aislamiento" data-name="Modo de aislamiento"><path class="cls-1" d="M2,53.41s-2.48-26.27,13.09-26,23.2,2.38,23.3,11.6a17.41,17.41,0,0,1,14-5.25c8.72.79,13.48,2.78,13.68,7.73,0,0,2.68-15.31,18.14-13.55s18.64,5.23,19,14.74.5,10.71.5,10.71Z"/><path class="cls-2" d="M105.65,40.41a15.11,15.11,0,0,0-9.73-14.15l-.83-.32.62-.64a14.77,14.77,0,0,0,4.17-9.14A15,15,0,0,0,86.12.05,14.78,14.78,0,0,0,75.25,3.53a15,15,0,0,0-1.7,21.18,3.3,3.3,0,0,0,.3.29l.32.3.61.64-.83.32a15.34,15.34,0,0,0-8.43,8.05L65.2,35l-.61-.51A12.09,12.09,0,0,0,62.2,33l-.67-.33.47-.58a11.83,11.83,0,1,0-18.34,0l.47.58-.67.33a12,12,0,0,0-2.41,1.58l-.61.51-.32-.72a15.35,15.35,0,0,0-8.44-8.06l-.83-.32.62-.64a14.79,14.79,0,0,0,4.17-9.14A15,15,0,0,0,21.89.05,14.93,14.93,0,0,0,5.78,13.81a14.89,14.89,0,0,0,3.54,10.9,3.3,3.3,0,0,0,.3.29l.32.3.61.64-.83.32A15.11,15.11,0,0,0,0,40.41V53.56a2.36,2.36,0,0,0,4.72,0V40.41a10.51,10.51,0,0,1,10.49-10.5h4.5c.36,0,.68,0,1,0l.4,0h5.09A10.51,10.51,0,0,1,36.7,40.41V53.56a2.36,2.36,0,0,0,4.72,0V43.7a7.29,7.29,0,0,1,7.28-7.28h3.37c.29,0,.53,0,.77,0l.33,0h3.77a7.29,7.29,0,0,1,7.28,7.28v9.86a2.36,2.36,0,0,0,4.72,0V40.41a10.51,10.51,0,0,1,10.49-10.5h4.5c.36,0,.69,0,1,0l.4,0h5.09a10.51,10.51,0,0,1,10.49,10.5V53.56a2.36,2.36,0,0,0,4.72,0ZM20.73,25.21H19.9a10.25,10.25,0,0,1-5.85-18h0a10.25,10.25,0,1,1,6.68,18ZM57.44,30a7,7,0,0,1-4.62,1.68h-.47a7.1,7.1,0,1,1,1-14.15,7.11,7.11,0,0,1,4,12.48ZM91.6,22.78A10.06,10.06,0,0,1,85,25.21h-.84a10.24,10.24,0,1,1,7.47-2.42Z"/></g></g></svg>