<svg xmlns="http://www.w3.org/2000/svg" viewBox="0 0 118.92 74.9"><defs><style>.cls-1{fill:#249ec3;}.cls-1,.cls-2{fill-rule:evenodd;}.cls-2{fill:none;stroke:#fff;stroke-linecap:round;stroke-linejoin:round;stroke-width:3px;}</style></defs><title>ICON_POLITICA_AMBIENTAL_4</title><g id="Capa_2" data-name="Capa 2"><g id="Modo_de_aislamiento" data-name="Modo de aislamiento"><path class="cls-1" d="M17.69,22.48s-6.76-2-6.22-7.94,1.16-5.87,1.47-6.62,2.19-5.44,4.37-5.81,6.75.19,8,3.06A52.92,52.92,0,0,1,27.5,10c.62,1.9,1.88,3.13,1,5.13S26.13,22,22.75,22.48A13,13,0,0,1,17.69,22.48Z"/><path class="cls-1" d="M68.19,15.73s1.88-3.75,4.38-3.81,5.5-.31,6.81.63,7.06,1.13,8.13,2.06,2.69,1.88,3.13,4.5,3.63,6.5,2.81,10.19-.87,7.5-3.75,10.88-9.75,5.56-15.06,4.31-9.31-6.69-9.06-7.19,2.13-1.19,2.5-4-.12-4.87,0-6.19.5-1.25,1.5-2.94S71.63,20.1,68.19,15.73Z"/><path class="cls-1" d="M36.5,16.48A26.85,26.85,0,0,0,39,12.73c.86-1.7,4.53-9.81,6.75-9.81s8,1.69,9.13,2.19S64.75,7,65.13,8.6s1.8,3.65,2.21,4.82,4.79,9.05,3,11.18-1.75,5.25-1.87,6.25-1.62,10-12.37,9.88S35.88,35.35,36.5,30.6s.71-6.91.71-6.91S35.38,21.73,36.5,16.48Z"/><path class="cls-2" d="M14.7,42.4C11,46,8.25,50,9,54.5c.9,5.51,7.84,12.37-.62,16.11M110,65.27c-19-10.74-47.35-9.35-65.86-14.5M70.71,13.07c2.5-1.54,4.06-1.8,5.31-1.58,3.06.53,3.64,2.84,8.14,2.13,2.92-.46,6.95,2.27,7,5.89a5.86,5.86,0,0,0,1.09,3.74C94,27,93.67,30.93,92.26,35c0,7.29-6.8,9.45-13.52,9m-3.17,0c-3.3-.29-7-1.59-9.05-4.08m12.22,9V40m-28.66.25c-6-.31-13.26-3.51-13.26-10.38,0-2.32,1.78-4.47.39-6.14a6.57,6.57,0,0,1,.86-9.38A4.12,4.12,0,0,0,39.86,11,8.11,8.11,0,0,1,48,2.91c5.14,0,2.47,2.58,11.43,2.58a7.93,7.93,0,0,1,7.93,7.93A3.44,3.44,0,0,0,69,16.68a5.45,5.45,0,0,1,.65,8.37c-1.82,1.94-.8,2.3-.8,4.6,0,8.49-7.92,11-15.75,10.49m0,8V34.71M98.16,71.46c-15-9.68-37-14.91-59.48-22.49-13.43-4.92-7.52-11.65.26-13.45m-17,35.94C27.27,64,17.75,60,13.17,54.39,10.5,51.11,11,47,14.15,43c5-6.18,16.31-8.29,23.85-7.28M40.92,66c2.28,2.58,8.1,2.57,10.38,0,2.28,2.58,8.1,2.57,10.38,0,2.28,2.58,8.1,2.57,10.38,0M26.89,60.1c2.28,2.58,8.1,2.57,10.38,0,2.28,2.58,8.1,2.57,10.38,0,2.28,2.58,8.1,2.57,10.38,0M56.77,71.47C59,74,64.87,74,67.15,71.47c2.28,2.57,8.1,2.57,10.38,0M1.5,28.2c3-.06,7.83-.11,11.29,0m7.3.12a61.94,61.94,0,0,1,17.38,3.74M20.06,20v7.73m-2.11-5.2c-3.48-.22-5.79-1.94-6.45-4.4-2.32-7,1.93-8.32,2.12-11.59C14,.68,23.43-.77,26.26,6c1,2.29,1,5,1.86,6,1.72,2-.37,5.37-1.51,7.71s-4.68,2.47-6.88,3m78.48,13s11-1.94,19.21-1.47"/></g></g></svg>