<svg xmlns="http://www.w3.org/2000/svg" viewBox="0 0 72.81 38.03"><defs><style>.cls-1{fill:#ccc;}</style></defs><title>ICONO_PA_BACKGOUND_01</title><g id="Capa_2" data-name="Capa 2"><g id="_0" data-name="0"><path class="cls-1" d="M54.37,12.77h0L46.89.24A.5.5,0,0,0,46.46,0h0A.5.5,0,0,0,46,.25L31,26.33l-4.85-5.25h0L19.58,14a.53.53,0,0,0-.38-.16.5.5,0,0,0-.37.19L.11,37.2a.5.5,0,1,0,.78.63L13.3,22.45l2.93,2.91a.5.5,0,0,0,.67,0l2.61-2.21,2,2.21a.5.5,0,0,0,.35.16h0a.5.5,0,0,0,.34-.13l3.51-3.29,4.72,5.11L24.83,37H17.76a.5.5,0,0,0,0,1h7.36a.5.5,0,0,0,.43-.25l5.69-9.87a.49.49,0,0,0,.45-.78l7.82-13.56,2.83,3.77a.5.5,0,0,0,.39.2h0a.5.5,0,0,0,.39-.19l2.45-3.1,3.76,4.52a.5.5,0,0,0,.38.18h0a.5.5,0,0,0,.39-.19l3.76-4.85L68.13,37.78a.5.5,0,0,0,.86-.51ZM21.92,24.34l-2-2.19a.5.5,0,0,0-.69,0l-2.63,2.22-2.68-2.66,5.31-6.57,5.82,6.3Zm27.79-6.7L46,13.13a.5.5,0,0,0-.78,0l-2.43,3.07-2.69-3.6L46.47,1.49,53.32,13Z"/><path class="cls-1" d="M27.74,13.32a.5.5,0,0,0,0,1h4.5a.5.5,0,0,0,0-1Z"/><path class="cls-1" d="M17.51,9.67H34.95a.5.5,0,0,0,0-1H17.51a.5.5,0,0,0,0,1Z"/><path class="cls-1" d="M29.44,5H39.52a.5.5,0,0,0,0-1H29.44a.5.5,0,0,0,0,1Z"/><path class="cls-1" d="M67.12,14.32a.5.5,0,0,0,0-1h-4.5a.5.5,0,0,0,0,1Z"/><path class="cls-1" d="M69.84,8.67H55.57a.5.5,0,0,0,0,1H69.84a.5.5,0,0,0,0-1Z"/><path class="cls-1" d="M72.31,4H62.23a.5.5,0,0,0,0,1H72.31a.5.5,0,0,0,0-1Z"/></g></g></svg>