<svg xmlns="http://www.w3.org/2000/svg" viewBox="0 0 77.67 61.53"><defs><style>.cls-1{fill:#2e73ba;}.cls-2{fill:#fff;stroke:#fff;stroke-linecap:round;stroke-linejoin:round;stroke-width:0.75px;}</style></defs><title>ICONO_INVERSION_BIOFISICA</title><g id="Capa_2" data-name="Capa 2"><g id="Capa_1-2" data-name="Capa 1"><g id="Capa_2-2" data-name="Capa 2"><g id="Capa_1-2-2" data-name="Capa 1-2"><path class="cls-1" d="M7.22,11.18l10.29,1.17s6.17-3.25,7.83-1.75,6.58,6.91,8.33,11.45l11.25-9.2.42,6.08L48.6,17.6s-.5,9.33-7.83,11.17l9.58,16.92L63,58.13l-5.25,2.31H52l-6.83-5.17-6.92-7.75-8-4.25-8.83-9.42-.92-4.75-.42-2.92-2.17-4.13-2-4.7L15.85,15Z"/><path class="cls-2" d="M76.41,9c-.48.11-6.29,1.11-13.2,2.86a19.14,19.14,0,0,1,8-10,.82.82,0,0,0-.43-1.5C55.19.71,38.28,16.83,34.26,21c-1.14-2.62-4.09-8.84-7.79-10.71A7.55,7.55,0,0,0,18,11.34L1.3,8.93a.82.82,0,0,0-.42,1.57l14.87,5.83c.34,2.06,1.46,7.64,3.68,10.1,0,2.16.66,13.44,15.8,20.11C34.14,48,32.44,51,34.31,53.48a.83.83,0,0,0,1.32-1h0c-1.37-1.84.38-4.35,1.17-5.32l.23.1a6.89,6.89,0,0,1,1.92,1.18l-.64.82c-.2.22-1.94,2.21-1.5,4.17A3.27,3.27,0,0,0,39,55.71a.82.82,0,0,0,.63-1.51c-1-.43-1.15-1-1.19-1.12-.22-1,.75-2.32,1.14-2.75l.6-.73A43.73,43.73,0,0,1,43,53.16c2.85,3.79,6,8,11.23,8A10.3,10.3,0,0,0,56.07,61l9.48-1.69a.82.82,0,0,0,.22-1.6c-.12-.07-12.44-6.49-15.76-14.86a44.53,44.53,0,0,0-2.92-6A18.28,18.28,0,0,0,52.68,34h0a30.8,30.8,0,0,0,6-5.72h0a15.07,15.07,0,0,0,1.75-2.75c1-2.11,4.73-5.54,8.37-8.59h0c4.09-3.43,8.11-6.38,8.18-6.43A.82.82,0,0,0,76.36,9ZM46.18,17.69a11.5,11.5,0,0,0,.12-1.29c6.17-3.17,13.26-6.15,15.82-6.28a13.8,13.8,0,0,0-.73,2.17v.07A85.34,85.34,0,0,0,46.18,17.69Zm16.7-9.15c-3.48-.34-12.41,3.93-16.58,6a9.88,9.88,0,0,0-.2-1.77C52.32,8.13,60.26,3.4,68,2.26A20.67,20.67,0,0,0,62.88,8.55ZM63,58.13l-1.82.33c-3.38-.53-8.52-6.89-10.24-9.33a.82.82,0,0,0-1.33.94c.22.31,4.48,6.32,8.64,8.9L56,59.37c-5.87-1.62-8.92-11-9-11a.82.82,0,1,0-1.58.43l0,.07h0c.11.34,2.27,7,6.7,10.41-3.27-1-5.57-4.09-7.83-7.07a42.7,42.7,0,0,0-3.13-3.86l3.27-4a.82.82,0,0,0-1.14-1.18l-.08.09,0,.06L40,47.22a8.44,8.44,0,0,0-2.37-1.44C23.36,40.24,21.33,31,21.12,27.5c.07,0,.15.06.23.07h2.11a.82.82,0,1,0,0-1.64H21.54a1.59,1.59,0,0,1-.67-.38h0c-1.64-1.48-3-6.39-3.53-9.94a.82.82,0,0,0-.51-.64L8,11.52,18.12,13a.82.82,0,0,0,.7-.24,6,6,0,0,1,6.83-1.06c4.09,2.09,7.46,10.92,7.49,11a.82.82,0,0,0,1.37.27,99.77,99.77,0,0,1,10-9,10.24,10.24,0,0,1-.4,4.82q-.49.29-.94.59c-9,5.91-15.15,5.5-15.24,5.5a.82.82,0,0,0-.14,1.63c.28,0,6.77.52,16.29-5.72A29.44,29.44,0,0,1,48,18.67,11.81,11.81,0,0,1,46.16,24h0a9.07,9.07,0,0,1-3.72,3.15h-.11a8.55,8.55,0,0,1-2.57.73.82.82,0,0,0-.52,1.4,46.29,46.29,0,0,1,9.23,14.28C51.2,50.4,59.21,55.87,63,58.13Zm-21.58-29a11.85,11.85,0,0,0,1.41-.52c2.15.47,7.36,2.09,8.42,4.37a14.16,14.16,0,0,1-5.1,2.45A48.34,48.34,0,0,0,41.44,29.13ZM52.6,32c-1.35-2.37-5.26-3.84-7.71-4.53a10.63,10.63,0,0,0,2.34-2.29c1.64,0,8.13.82,9.81,2.58a28.79,28.79,0,0,1-4.44,4.35ZM59,24.81a12,12,0,0,1-1,1.64c-2.39-2.15-8.24-2.73-9.81-2.85a12.46,12.46,0,0,0,.65-1.47,106.31,106.31,0,0,0,15-3A24.12,24.12,0,0,0,59,24.85Zm8.78-9.18C65,17.86,54.49,19.72,49.37,20.38a17.52,17.52,0,0,0,.34-2.52c7.67-3.18,18.15-5.52,23.5-6.6-1.47,1.19-3.43,2.73-5.42,4.4Z"/></g></g></g></g></svg>