<?xml version="1.0" encoding="utf-8"?>
<!-- Generator: Adobe Illustrator 21.0.2, SVG Export Plug-In . SVG Version: 6.00 Build 0)  -->
<svg version="1.1" id="Capa_1" xmlns="http://www.w3.org/2000/svg" xmlns:xlink="http://www.w3.org/1999/xlink" x="0px" y="0px"
	 viewBox="0 0 19 20" style="enable-background:new 0 0 19 20;" xml:space="preserve">
<style type="text/css">
	.st0{fill:#FFFFFF;}
</style>
<path id="Forma_811" class="st0" d="M18.7,18.3l-3.3-3.4c1.6-1.6,2.4-3.8,2.4-6c0.1-4.9-3.9-9-8.8-9s-9,3.9-9,8.8
	c-0.1,4.9,3.9,9,8.8,9c0.1,0,0.2,0,0.2,0c1.7,0,3.4-0.5,4.9-1.5l3.4,3.5c0.4,0.4,1,0.4,1.4,0C19.1,19.3,19.1,18.7,18.7,18.3
	C18.7,18.3,18.7,18.3,18.7,18.3z M1.9,8.9c0-3.8,3.1-7,6.9-7c3.8,0,7,3.1,7,6.9c0,3.8-3.1,7-6.9,7c0,0,0,0,0,0
	C5.1,15.8,2,12.7,1.9,8.9z"/>
</svg>
