<svg xmlns="http://www.w3.org/2000/svg" viewBox="0 0 58.37 87.03"><defs><style>.cls-1{fill:#2e73ba;}.cls-2{fill:#fff;}</style></defs><title>ICON_POLITICA_AMBIENTAL_7</title><g id="Capa_2" data-name="Capa 2"><g id="Modo_de_aislamiento" data-name="Modo de aislamiento"><path class="cls-1" d="M34.52,22.39s-9.86-2.78-8.46,13.42c.24,2.74,8.85,0,7.94,8.29C32.92,53.94,23.93,50.68,23.93,54V77.15c0,8.82,5.74,8.8,5.74,8.8H41.28s2.17.38,2.42-3,0-19.87,0-19.87,1.15-1.5,2.17-1.25a22.44,22.44,0,0,0,4.21,0L41.41,29.57l10.21,23.6s3.06,1.8,4.08.77,1.15-3.83,1.15-3.83l-11.1-27-4.59-1.25A33.06,33.06,0,0,1,34.52,22.39Z"/><path class="cls-2" d="M58,49.37,47.2,23.44a4.13,4.13,0,0,0-.61-1h0l-.13-.15h0A4.3,4.3,0,0,0,43.3,20.8l-.69,0L43,20.3a8.94,8.94,0,1,0-15-2.84l.26.68-.66-.31a10.73,10.73,0,0,0-4.47-1H22.2l.56-.52a9.43,9.43,0,1,0-12.82,0l.55.51H9.55C3.93,16.85,0,21.29,0,27.65V49.57a4.12,4.12,0,0,0,4.12,4.12,4.08,4.08,0,0,0,1.64-.34l.42-.18V82.54A4.49,4.49,0,0,0,10.67,87H21.16a1.15,1.15,0,0,0,.63-2.1,1.35,1.35,0,0,1-.66-1.12V58.41a1.15,1.15,0,0,0-.82-1.1,1.14,1.14,0,0,0-1.29.47,27,27,0,0,0-3.29,9.66.87.87,0,0,1-.89.71h0a.83.83,0,0,1-.71-.93,32.49,32.49,0,0,1,1.8-6.84,16.33,16.33,0,0,1,2.66-4.67,6.94,6.94,0,0,1,4.36-2.56H23l.23,0h6.06l.32,0h.15c2.89.39,5.22,2.82,6.94,7.23a32.78,32.78,0,0,1,1.79,6.84.8.8,0,0,1-.16.6.92.92,0,0,1-.62.34h0a.83.83,0,0,1-.82-.72,26.93,26.93,0,0,0-3.29-9.66,1.15,1.15,0,0,0-2.1.63V83.8a1.36,1.36,0,0,1-.65,1.12,1.14,1.14,0,0,0-.47,1.29,1.15,1.15,0,0,0,1.1.82H42a1.14,1.14,0,0,0,1-.55l0-.06.06,0a4.25,4.25,0,0,0,2-3.65V63.35h5.5a1.15,1.15,0,0,0,1.1-1.46l-3.3-11.47L42.67,33l6.51,17.45.94,2.26A4.29,4.29,0,0,0,58,49.37ZM36.39,7.69a6.65,6.65,0,0,1,1.36,13.15h0l-1.81,0h-.82a6.65,6.65,0,0,1,1.3-13.16ZM9.21,9.43a7.14,7.14,0,1,1,7.14,7.14A7.15,7.15,0,0,1,9.21,9.43Zm17.11,41.3a6.45,6.45,0,1,1,6.45-6.45A6.46,6.46,0,0,1,26.32,50.73Zm29.6,1.05a2,2,0,0,1-1.08,1.09,1.93,1.93,0,0,1-.75.15,2,2,0,0,1-1.87-1.22l-10-23.86a1.15,1.15,0,0,0-.89-.69H41.2a1.14,1.14,0,0,0-.87.41l-.26.31A1.14,1.14,0,0,0,39.85,29l9.21,32.06H43.94a1.15,1.15,0,0,0-1.15,1.15V82.74a2,2,0,0,1-1.25,1.85l-.19.1-.07,0H33.69l.06-.35a3.48,3.48,0,0,0,0-.59V66.42h0l-.42-4.77,1,4.71h0c.1.51.18,1,.24,1.4a3.17,3.17,0,0,0,3.09,2.7l.42,0a3.12,3.12,0,0,0,2.67-3.5c-.29-2.13-2.05-12.87-8.7-15.52l-.46-.18L32,50.9a8.74,8.74,0,0,0-5.7-15.37H25.9A8.74,8.74,0,0,0,20.62,50.9l.37.32-.46.18c-6.65,2.66-8.41,13.39-8.7,15.52a3.12,3.12,0,0,0,2.66,3.5,3,3,0,0,0,.43,0A3.17,3.17,0,0,0,18,67.76c0-.32.1-.66.17-1h0l.07-.37h0l1-4.71-.42,4.77h0V83.8a3.49,3.49,0,0,0,0,.59l.06.35H10.67a2.2,2.2,0,0,1-2.2-2.2V26.15a1.15,1.15,0,0,0-2.3,0L5.94,49.57A1.83,1.83,0,0,1,4.12,51.4H3.94a1.86,1.86,0,0,1-1.65-1.86V27.65c0-4.24,2.25-8.51,7.26-8.51H23.15A8.43,8.43,0,0,1,30,22.64a1.15,1.15,0,0,0,.91.47l12.31,0a2.09,2.09,0,0,1,1.54.71l0,0a2,2,0,0,1,.32.5L55.92,50.25A2,2,0,0,1,55.93,51.78Z"/></g></g></svg>