<svg xmlns="http://www.w3.org/2000/svg" viewBox="0 0 90 82.6"><defs><style>.cls-1{fill:red;}</style></defs><title>Icono_rojo_05</title><g id="Capa_2" data-name="Capa 2"><g id="Capa_1-2" data-name="Capa 1"><path class="cls-1" d="M90,37.8H47.93L65.93,0l1.88.92A39.22,39.22,0,0,1,90,35.7ZM54.49,33.66H85.72a35.06,35.06,0,0,0-17.87-28Z"/><path class="cls-1" d="M39.39,82.6a39.39,39.39,0,1,1,0-78.79,39,39,0,0,1,17.22,4l1.85.9L43.3,40.51H78.73l0,2.25c0,.15,0,.3,0,.45A39.44,39.44,0,0,1,39.39,82.6ZM39.39,8a35.25,35.25,0,1,0,35.22,36.7H36.73l16.19-34A34.91,34.91,0,0,0,39.39,8Z"/></g></g></svg>