<svg xmlns="http://www.w3.org/2000/svg" viewBox="0 0 59.3 58.8"><defs><style>.cls-1{fill:red;}</style></defs><title>Icono_rojo_01</title><g id="Capa_2" data-name="Capa 2"><g id="Modo_de_aislamiento" data-name="Modo de aislamiento"><path class="cls-1" d="M52.8,0H21.7a6.43,6.43,0,0,0-6.5,6.5V26.1a6.43,6.43,0,0,0,6.5,6.5H38.42L48.66,43.46a1.69,1.69,0,0,0,1.14.44,1.59,1.59,0,0,0,.48,0,1.45,1.45,0,0,0,1-1.35l.21-9.9H52.8a6.43,6.43,0,0,0,6.5-6.5V6.5A6.43,6.43,0,0,0,52.8,0Zm3.5,25.9a3.46,3.46,0,0,1-3.5,3.5H50a1.5,1.5,0,0,0-1.5,1.5l-.12,7.75-8.15-8.7a1.53,1.53,0,0,0-1.13-.44H21.7A3.46,3.46,0,0,1,18.2,26V6.4a3.46,3.46,0,0,1,3-3.47v0l.5-.1H52.8a3.46,3.46,0,0,1,3.5,3.5Z"/><path class="cls-1" d="M37.6,47.4a6.43,6.43,0,0,0,6.5-6.5,1.5,1.5,0,0,0-3,0,3.46,3.46,0,0,1-3.5,3.5H20.2a1.54,1.54,0,0,0-1.15.45L11,53.47V45.9a1.5,1.5,0,0,0-1.5-1.5h-3A3.46,3.46,0,0,1,3,40.9V21.3a3.46,3.46,0,0,1,3.5-3.5h4.4a1.5,1.5,0,1,0,0-3H6.5A6.43,6.43,0,0,0,0,21.3V40.9a6.43,6.43,0,0,0,6.5,6.5H8v9.9a1.46,1.46,0,0,0,1,1.43,1.48,1.48,0,0,0,.52.07,1.15,1.15,0,0,0,1-.46l.06-.09L20.78,47.4Z"/></g></g></svg>