<svg xmlns="http://www.w3.org/2000/svg" viewBox="0 0 86.29 61.35"><defs><style>.cls-1{fill:#fff;}</style></defs><title>icono youtubemdpi</title><g id="Capa_2" data-name="Capa 2"><g id="Capa_1-2" data-name="Capa 1"><path class="cls-1" d="M84.79,10.37a10.88,10.88,0,0,0-9.33-8.44A291.27,291.27,0,0,0,43.16,0,291.32,291.32,0,0,0,10.84,1.93a10.88,10.88,0,0,0-9.32,8.44C0,16.88,0,24,0,30.68S0,44.48,1.5,51a10.88,10.88,0,0,0,9.32,8.44,291.51,291.51,0,0,0,32.31,1.93,291.25,291.25,0,0,0,32.31-1.93A10.88,10.88,0,0,0,84.77,51c1.5-6.51,1.51-13.61,1.51-20.31s0-13.8-1.49-20.31M57.85,32.66l-20.34,11c-2,1.09-3.68.11-3.68-2.19V19.88c0-2.3,1.65-3.29,3.68-2.19l20.34,11c2,1.09,2,2.88,0,4"/></g></g></svg>