<svg xmlns="http://www.w3.org/2000/svg" viewBox="0 0 39 39"><defs><style>.cls-1{fill:#2e73ba;}.cls-2{fill:#fff;}</style></defs><title>ICONO_CARGAR_ARCHIVO_01</title><g id="Capa_2" data-name="Capa 2"><g id="Capa_1-2" data-name="Capa 1"><rect class="cls-1" width="39" height="39"/><path class="cls-2" d="M26.73,8.65H12.27a1.08,1.08,0,0,0,0,2.17H26.73a1.08,1.08,0,0,0,0-2.17Z"/><path class="cls-2" d="M20.58,17.8l4.74,4.74a1.06,1.06,0,0,0,1.51,0,1.08,1.08,0,0,0,0-1.55l-6.58-6.58-.07-.06-.12-.1L20,14.2l-.11,0a.48.48,0,0,1-.15,0l-.17,0h-.2l-.08,0h0l-.11,0-.05,0-.08,0-.08.05,0,0-.05,0-.12.11-.11.11h0L12.16,21a1.08,1.08,0,0,0,0,1.55,1.06,1.06,0,0,0,1.51,0l4.74-4.74V29.26a1.08,1.08,0,0,0,2.17,0Z"/></g></g></svg>