<svg xmlns="http://www.w3.org/2000/svg" viewBox="0 0 153.82 154.99"><defs><style>.cls-1{fill:#9e9e9e;}</style></defs><title>Icono_5</title><g id="Capa_2" data-name="Capa 2"><g id="Capa_1-2" data-name="Capa 1"><path class="cls-1" d="M145,52.4l5.16-5.15.16-.18a12.6,12.6,0,0,0-.18-17.66,12.35,12.35,0,0,0-5.5-3.17,12.32,12.32,0,0,0,1.58-6,12.58,12.58,0,0,0-18.62-11,12.58,12.58,0,0,0-21-5.5L81.51,28.74A16.34,16.34,0,0,0,81,25.59c-1.12-4.17-3.83-7.2-7.25-8.12-2-.53-5.93-.78-10.21,3.5L37.8,46.75A47.46,47.46,0,0,0,24.45,86.07L1,109.5a3.52,3.52,0,0,0,0,5,3.72,3.72,0,0,0,5,0L26.14,94.37a51.33,51.33,0,0,0,2,5.65,3.58,3.58,0,0,0,4.61,1.9,3.53,3.53,0,0,0,1.9-4.61c-6.67-16-3.46-33.93,8.18-45.58L68.56,26c1.3-1.3,2.54-1.91,3.4-1.67s1.81,1.48,2.25,3.13c.88,3.29.18,8.45-4.44,13.07L57.22,53a3.53,3.53,0,0,0,0,5,20.51,20.51,0,0,1,0,29,3.54,3.54,0,0,0,0,5,3.57,3.57,0,0,0,5,0A27.58,27.58,0,0,0,64.54,55.7l47-47a5.7,5.7,0,0,1,7.87,0,5.56,5.56,0,0,1,0,7.85L85.7,50.27a3.53,3.53,0,0,0,5,5l39-39a5.71,5.71,0,0,1,7.87,0,5.56,5.56,0,0,1,0,7.87l-39,39a3.53,3.53,0,0,0,0,5,3.72,3.72,0,0,0,5,0l33.72-33.72a5.56,5.56,0,1,1,7.85,7.88L109.43,78a3.53,3.53,0,0,0,0,5,3.72,3.72,0,0,0,5,0L137,60.36a5.7,5.7,0,0,1,7.87,0,5.57,5.57,0,0,1,0,7.86L99.64,113.5a41,41,0,0,1-29.95,9.62h-.08a3.42,3.42,0,0,0-1.93-.22,41.62,41.62,0,0,1-10.26-2.7,3.53,3.53,0,1,0-2.67,6.53,46.61,46.61,0,0,0,6.08,2L40.53,149a3.53,3.53,0,0,0,5,5l23.84-23.84c1.09.09,2.36.17,3.65.17a48.73,48.73,0,0,0,31.41-11.63l45.47-45.47a12.63,12.63,0,0,0,0-17.84A12.35,12.35,0,0,0,145,52.4Z"/></g></g></svg>