<svg xmlns="http://www.w3.org/2000/svg" viewBox="0 0 89.05 123.58"><defs><style>.cls-1{fill:#68c460;}</style></defs><title>Icono_v2</title><g id="Capa_2" data-name="Capa 2"><g id="Capa_1-2" data-name="Capa 1"><path class="cls-1" d="M81.28,13.57H74.07a2.79,2.79,0,0,0,0,5.58h7.21a2.12,2.12,0,0,1,2.19,2.19v94.47A2.12,2.12,0,0,1,81.28,118H7.77a2.12,2.12,0,0,1-2.19-2.19V21.34a2.12,2.12,0,0,1,2.19-2.19H15a2.79,2.79,0,0,0,0-5.58H7.77A7.88,7.88,0,0,0,0,21.34v94.47a7.88,7.88,0,0,0,7.77,7.77H81.28a7.69,7.69,0,0,0,7.77-7.77V21.34A7.88,7.88,0,0,0,81.28,13.57Z"/><path class="cls-1" d="M27.78,29.63H61.44A5,5,0,0,0,65,28.08a4.6,4.6,0,0,0,1.25-3.44V11.89a5,5,0,0,0-5-5h-7.4a9.68,9.68,0,0,0-18.53,0H27.78a5,5,0,0,0-5,5V24.6A5,5,0,0,0,27.78,29.63Zm16.83-24a4,4,0,0,1,4.08,4.08,2.86,2.86,0,0,0,2.79,2.79h9.23V24H28.33V12.45h9.4a2.86,2.86,0,0,0,2.79-2.79A4,4,0,0,1,44.61,5.58Z"/><path class="cls-1" d="M23.05,90.61H66A2.79,2.79,0,0,0,66,85H23.05a2.79,2.79,0,1,0,0,5.58Z"/><path class="cls-1" d="M23.05,62.44H66a2.79,2.79,0,0,0,0-5.58H23.05a2.79,2.79,0,1,0,0,5.58Z"/></g></g></svg>