<svg xmlns="http://www.w3.org/2000/svg" viewBox="0 0 49 44.17"><defs><style>.cls-1{fill:#d9d9d9;}</style></defs><title>Icono_Iniciativas_globales03</title><g id="Capa_2" data-name="Capa 2"><g id="Capa_1-2" data-name="Capa 1"><path class="cls-1" d="M42.93,37.87c4.43-4.43,7.61-12.76,5.29-18.09a1,1,0,0,0-.54-.54,10.69,10.69,0,0,0-4.3-.82,15.71,15.71,0,0,0-1.73.1c-.3-8-6.15-15.15-14.75-18a1,1,0,0,0-.65,2c7.87,2.6,13.18,9.15,13.32,16.36a21.78,21.78,0,0,0-10.19,5.44,14.88,14.88,0,0,0-2.3,3V20.94a1,1,0,0,0,.16-.09l6.82-5.75a1,1,0,1,0-1.34-1.6l-5.64,4.75V7.93a1,1,0,0,0-2.09,0V40.1a1,1,0,0,0,.09.42L23.5,42.09A1,1,0,1,0,25,43.57l2.31-2.28a14.22,14.22,0,0,0,5.16,1h0A14.77,14.77,0,0,0,42.93,37.87Zm-1.47-1.47a12.69,12.69,0,0,1-9,3.77h0a12.21,12.21,0,0,1-3.51-.51l3.21-3.17,7.56-.74a1,1,0,0,0-.2-2.07l-5,.49,1.88-1.86h0l5-5a1,1,0,0,0-1.47-1.48L36.7,29l0-2.9a1,1,0,0,0-1-1.05h0a1,1,0,0,0-1,1l0,5-7.06,7a12.74,12.74,0,0,1,3.32-12.31A19.49,19.49,0,0,1,43.38,20.5a9,9,0,0,1,3.08.49C48.1,25.51,45.21,32.64,41.46,36.39Z"/><path class="cls-1" d="M22.08,42.09a20,20,0,1,1,0-40V0a22.08,22.08,0,0,0,0,44.17Z"/><path class="cls-1" d="M22.47,44.17s-.64,0-2-.06V.06s.93-.07,2-.06Z"/><path class="cls-1" d="M20.47,35.44l-.11.13a2.47,2.47,0,0,0-.48,1.31,12.73,12.73,0,0,1-.07-2.77,11.28,11.28,0,0,0-.25-3.73A5.17,5.17,0,0,0,17.86,28l-.09-.08a3.86,3.86,0,0,1-1-1.21,5.21,5.21,0,0,1-.31-2.11,8.56,8.56,0,0,0-.15-1.95,3.32,3.32,0,0,0-2.19-2.53c.24,0,.49-.08.76-.13L15,20a6.16,6.16,0,0,1,2.92-.16c.35.1.69.23,1.06.37l.62.23.86.3V18.52l-.35-.13a9.78,9.78,0,0,0-1.69-.6,7.71,7.71,0,0,0-3.72.09l-.27.05L14.1,18l-.32.06-.09-.35a2.92,2.92,0,0,0-2.29-1.91l-.1,0c-.85-.21-.85-.21-.71-.81a1.86,1.86,0,0,1,1.31-1.3,2.09,2.09,0,0,1,2,.41,1,1,0,0,0,1.07.21,1,1,0,0,0,.68-.88,7.65,7.65,0,0,1,2-3.91,2.82,2.82,0,0,1,2.86-1.26V2.47a3.23,3.23,0,0,0-2.33-2A1,1,0,0,0,17,1.37a1.06,1.06,0,0,0,.87,1.19c.44.07.77.75,1.14,1.62a8.21,8.21,0,0,0,.74,1.49,1.92,1.92,0,0,0,.55.58A4.58,4.58,0,0,0,16,8.3a11.85,11.85,0,0,0-2.09,3.53,4.08,4.08,0,0,0-2.55,0A3.77,3.77,0,0,0,8.63,14.5,2.35,2.35,0,0,0,9.16,17l-.44-.13H8.65a1,1,0,0,0-.27-.08l-.16,0c-.81-.24-1.07-.72-1.45-2.13a13.64,13.64,0,0,1-.67-4.82.92.92,0,0,0-.25-.74,1.12,1.12,0,0,0-.68-.35,1,1,0,0,0-1.1.94,15.38,15.38,0,0,0,.74,5.53l0,.11c.38,1.23.89,2.91,2.86,3.41l.26.06.2,0a3.21,3.21,0,0,1,1.42.6,4.22,4.22,0,0,1,.65.5l.22.19A11.64,11.64,0,0,0,12,21.27a13.19,13.19,0,0,0,1.19.59c.76.33,1,.48,1.2,1.18a5.37,5.37,0,0,1,.13,1.52,6.81,6.81,0,0,0,.51,3,5.64,5.64,0,0,0,1.54,1.9,3.58,3.58,0,0,1,1.16,1.5,10.28,10.28,0,0,1,.13,3V34c-.09,2.41-.2,5.37,2.65,6.48Zm-8.74-16.8a8.13,8.13,0,0,0-1-.84h0c.65.19.87.3.92.47s.08.3.13.43Z"/></g></g></svg>