<svg xmlns="http://www.w3.org/2000/svg" viewBox="0 0 80.51 74.62"><defs><style>.cls-1{fill:#249ec3;fill-rule:evenodd;}.cls-2{fill:#fff;}</style></defs><title>ICON_POLITICA_AMBIENTAL_5</title><g id="Capa_2" data-name="Capa 2"><g id="Modo_de_aislamiento" data-name="Modo de aislamiento"><path class="cls-1" d="M8.23,33.67S6.67,17.11,16.48,17.3s14.63,1.5,14.69,7.31A11,11,0,0,1,40,21.3c5.5.5,8.5,1.75,8.63,4.88,0,0,1.69-9.65,11.44-8.54s11.75,3.29,12,9.29.31,6.75.31,6.75Z"/><path class="cls-2" d="M.36,45.42a1.49,1.49,0,0,0,.22,2.14L30.41,70.83a16.32,16.32,0,0,0,10.4,3.78,16.05,16.05,0,0,0,4.81-.74L71.9,66.94H79a1.49,1.49,0,1,0,0-3H71.66a1.55,1.55,0,0,0-.38,0L44.79,71a13.32,13.32,0,0,1-12.52-2.51L3.73,46.25,4.14,46a8.14,8.14,0,0,1,7.72-1l16.75,7.72-.37.38a16,16,0,0,0-1.66,2,4.88,4.88,0,0,0-.22,5.25,5.13,5.13,0,0,0,4.84,2.61L55,61.24a1.49,1.49,0,0,0,.85-2.62,1.43,1.43,0,0,0-1.06-.35L31,60a2.2,2.2,0,0,1-2-1.11A1.93,1.93,0,0,1,29,56.77a14.45,14.45,0,0,1,3.07-3.11c.26-.13,19.82-9.19,25.52-9.49s13.66,4.56,13.74,4.61a1.48,1.48,0,0,0,.77.22H79a1.49,1.49,0,1,0,0-3H72.53l-.09,0c-1.48-.85-9.13-5.08-15-4.77-1.81.09-4.89.92-9.15,2.45l-.17.06-5.19-3.22a10.87,10.87,0,0,0-9.35-.89l-4.14,1.72-1-.57A11.71,11.71,0,0,0,18,40.48l-4.4,2.06L13,42.26A11.22,11.22,0,0,0,.36,45.42Zm34.32-3.06a7.76,7.76,0,0,1,6.7.66l3.24,2-.69.27c-1.36.54-2.7,1.09-4,1.63l-.17.07-7-3.85Zm-15.39.81a8.67,8.67,0,0,1,7.72.19l9.31,5.13-.69.31c-1.78.78-3.21,1.44-4.1,1.84l-.16.07-14.2-6.54Z"/><path class="cls-2" d="M73.56,25.48a9.53,9.53,0,0,0-6.14-8.92l-.52-.2.39-.41a9.31,9.31,0,0,0,2.63-5.76A9.46,9.46,0,0,0,61.24,0a9.31,9.31,0,0,0-6.85,2.19,9.47,9.47,0,0,0-1.07,13.35,2.08,2.08,0,0,0,.19.19l.2.19.39.41-.52.2a9.67,9.67,0,0,0-5.31,5.08l-.2.46-.38-.32a7.62,7.62,0,0,0-1.51-1l-.42-.21.3-.37a7.46,7.46,0,1,0-11.56,0l.3.37-.42.21a7.55,7.55,0,0,0-1.52,1l-.38.32-.2-.46a9.67,9.67,0,0,0-5.32-5.08l-.52-.2.39-.41a9.32,9.32,0,0,0,2.63-5.76A9.46,9.46,0,0,0,20.75,0,9.41,9.41,0,0,0,10.6,8.7a9.38,9.38,0,0,0,2.23,6.87,2.08,2.08,0,0,0,.19.19l.2.19.39.41-.52.2A9.53,9.53,0,0,0,7,25.48v8.29a1.49,1.49,0,0,0,3,0V25.48a6.62,6.62,0,0,1,6.62-6.62h2.84l.63,0,.25,0h3.21a6.62,6.62,0,0,1,6.62,6.62v8.29a1.49,1.49,0,0,0,3,0V27.55A4.6,4.6,0,0,1,37.66,23h2.12l.49,0,.21,0h2.38a4.6,4.6,0,0,1,4.59,4.59v6.22a1.49,1.49,0,0,0,3,0V25.48A6.62,6.62,0,0,1,57,18.86h2.84l.63,0,.25,0H64a6.62,6.62,0,0,1,6.61,6.62v8.29a1.49,1.49,0,0,0,3,0ZM20,15.89H19.5A6.46,6.46,0,0,1,15.81,4.53h0A6.46,6.46,0,1,1,20,15.89Zm23.14,3A4.42,4.42,0,0,1,40.25,20H40a4.47,4.47,0,1,1,.65-8.92,4.48,4.48,0,0,1,2.55,7.87ZM64.7,14.36a6.34,6.34,0,0,1-4.18,1.53H60a6.46,6.46,0,1,1,4.71-1.53Z"/></g></g></svg>