<svg xmlns="http://www.w3.org/2000/svg" viewBox="0 0 121.2 148.76"><defs><style>.cls-1{fill:#68c460;}</style></defs><title>Icono_v3</title><g id="Capa_2" data-name="Capa 2"><g id="Capa_1-2" data-name="Capa 1"><path class="cls-1" d="M114.81,142.34a22,22,0,0,0,0-31,22.12,22.12,0,0,0-30.42-.56l-.73.68-.28-.18L41.49,84.06l.43-1a22.15,22.15,0,0,0,0-17.39l-.43-1L83.66,37.23l.73.68a22.13,22.13,0,0,0,30.42-.56,21.92,21.92,0,1,0-35.89-7.55l.37,1L79,31,36.87,58.39l-.73-.63A22,22,0,0,0,6.39,58.88a22,22,0,0,0,0,31,22,22,0,0,0,29.81,1.06l.73-.63L79.3,117.84l-.38,1a21.91,21.91,0,0,0,35.89,23.53ZM89.26,116.85a14,14,0,1,1-4.21,10A14.15,14.15,0,0,1,89.26,116.85Zm0-105a14.05,14.05,0,1,1-4.19,10A14.16,14.16,0,0,1,89.26,11.86ZM31.88,84.37a14.15,14.15,0,1,1-10-24.26h.08a14.19,14.19,0,0,1,10,24.26Z"/></g></g></svg>