<svg xmlns="http://www.w3.org/2000/svg" viewBox="0 0 47.9 48"><defs><style>.cls-1{fill:red;}</style></defs><title>Icono_gris_03_1</title><g id="Capa_2" data-name="Capa 2"><g id="Modo_de_aislamiento" data-name="Modo de aislamiento"><path class="cls-1" d="M1.45,33.56A1.45,1.45,0,0,0,0,35V46.55a1.45,1.45,0,0,0,2.91,0V35A1.45,1.45,0,0,0,1.45,33.56Z"/><path class="cls-1" d="M16.45,26.3A1.45,1.45,0,0,0,15,27.76V46.55a1.45,1.45,0,0,0,2.91,0V27.76A1.45,1.45,0,0,0,16.45,26.3Z"/><path class="cls-1" d="M31.45,18.56A1.46,1.46,0,0,0,30,20V46.54a1.45,1.45,0,0,0,2.91,0V20A1.46,1.46,0,0,0,31.45,18.56Z"/><path class="cls-1" d="M46.45,2.65A1.45,1.45,0,0,0,45,4.1V46.54a1.45,1.45,0,0,0,2.91,0V4.1A1.45,1.45,0,0,0,46.45,2.65Z"/><path class="cls-1" d="M31.45.91a1.45,1.45,0,0,0-2-.75L23.29,3.29a1.45,1.45,0,1,0,1.32,2.59l3.22-1.64C21.13,24.69,3.43,21,2.67,20.78A1.45,1.45,0,0,0,2,23.61,22.27,22.27,0,0,0,6.43,24c6.48,0,18.39-2.3,23.91-18.06l1.2,3a1.45,1.45,0,1,0,2.7-1.09Z"/></g></g></svg>