<svg xmlns="http://www.w3.org/2000/svg" viewBox="0 0 66.78 99.58"><defs><style>.cls-1{fill:#68c460;}.cls-2{fill:#2e73ba;}</style></defs><title>Icono_PA_invertido_03</title><g id="Capa_2" data-name="Capa 2"><g id="Modo_de_aislamiento" data-name="Modo de aislamiento"><path class="cls-1" d="M39.5,25.62S28.21,22.44,29.82,41c.27,3.13,10.13,0,9.09,9.49C37.67,61.72,27.38,58,27.38,61.82V88.28c0,10.09,6.57,10.07,6.57,10.07H47.23s2.48.44,2.77-3.43,0-22.73,0-22.73,1.31-1.72,2.48-1.43a25.68,25.68,0,0,0,4.82,0L47.37,33.83l11.68,27s3.5,2.06,4.67.88S65,57.33,65,57.33L52.34,26.38l-5.26-1.43A37.83,37.83,0,0,1,39.5,25.62Z"/><path class="cls-2" d="M66.4,56.49,54,26.81a4.72,4.72,0,0,0-.7-1.15v0l-.14-.17h0a4.92,4.92,0,0,0-3.59-1.66l-.79,0,.5-.55A10.22,10.22,0,1,0,32.06,20l.29.78-.76-.35a12.28,12.28,0,0,0-5.12-1.13H25.4l.64-.59a10.79,10.79,0,1,0-14.67,0l.63.59H10.93C4.49,19.28,0,24.36,0,31.64V56.72a4.72,4.72,0,0,0,4.71,4.71A4.67,4.67,0,0,0,6.59,61l.48-.21V94.44a5.14,5.14,0,0,0,5.14,5.14h12a1.31,1.31,0,0,0,.72-2.41,1.55,1.55,0,0,1-.75-1.29V66.83a1.32,1.32,0,0,0-.94-1.26,1.31,1.31,0,0,0-1.47.54c-2.25,3.45-3.45,8.74-3.76,11.05A1,1,0,0,1,17,78h0a1,1,0,0,1-.81-1.06,37.17,37.17,0,0,1,2.06-7.83,18.69,18.69,0,0,1,3-5.35,7.94,7.94,0,0,1,5-2.93h.13l.27,0h6.93a2,2,0,0,0,.37,0h.17c3.3.44,6,3.22,7.95,8.28a37.5,37.5,0,0,1,2,7.83.91.91,0,0,1-.18.68,1,1,0,0,1-.71.39h0a1,1,0,0,1-.93-.82c-.32-2.31-1.51-7.6-3.76-11.06a1.31,1.31,0,0,0-2.41.72V95.89a1.55,1.55,0,0,1-.75,1.29,1.3,1.3,0,0,0-.54,1.47,1.32,1.32,0,0,0,1.26.93H48a1.3,1.3,0,0,0,1.12-.63l0-.07.07,0a4.87,4.87,0,0,0,2.32-4.17V72.48h6.29a1.31,1.31,0,0,0,1.26-1.67L55.36,57.69l-6.54-20,7.44,20,1.08,2.58a4.91,4.91,0,0,0,9.06-3.78ZM41.64,8.8a7.61,7.61,0,0,1,1.55,15.05h0l-2.07,0h-.94A7.61,7.61,0,0,1,41.64,8.8Zm-31.1,2A8.17,8.17,0,1,1,18.71,19,8.18,8.18,0,0,1,10.54,10.79ZM30.12,58a7.38,7.38,0,1,1,7.38-7.39A7.39,7.39,0,0,1,30.12,58ZM64,59.25a2.27,2.27,0,0,1-1.23,1.24,2.2,2.2,0,0,1-.86.17,2.33,2.33,0,0,1-2.14-1.4L48.36,32a1.32,1.32,0,0,0-1-.79l-.2,0a1.3,1.3,0,0,0-1,.47l-.3.35a1.31,1.31,0,0,0-.26,1.2L56.13,69.86H50.27A1.31,1.31,0,0,0,49,71.17V94.67a2.28,2.28,0,0,1-1.43,2.12l-.22.12-.09.06H38.55l.07-.4a4,4,0,0,0,.06-.67V76h0l-.48-5.46,1.13,5.39h0c.12.58.21,1.12.28,1.6a3.63,3.63,0,0,0,3.53,3.09,3.43,3.43,0,0,0,.48,0,3.57,3.57,0,0,0,3.06-4c-.33-2.43-2.35-14.72-10-17.76l-.52-.21.43-.37a10,10,0,0,0-6.52-17.58h-.48a10,10,0,0,0-6,17.57l.43.37-.52.21c-7.61,3-9.63,15.33-10,17.76a3.56,3.56,0,0,0,3,4,3.42,3.42,0,0,0,.49,0,3.62,3.62,0,0,0,3.53-3.09c0-.36.11-.75.19-1.17h0l.08-.43h0L22,70.54,21.54,76h0V95.89a4,4,0,0,0,.06.67l.07.4H12.2a2.52,2.52,0,0,1-2.52-2.52V29.92a1.32,1.32,0,0,0-2.64,0L6.8,56.72a2.09,2.09,0,0,1-2.09,2.09h-.2a2.13,2.13,0,0,1-1.89-2.13v-25c0-4.85,2.57-9.74,8.31-9.74H26.48a9.65,9.65,0,0,1,7.83,4,1.31,1.31,0,0,0,1,.53l14.09,0a2.4,2.4,0,0,1,1.76.81l0,0a2.25,2.25,0,0,1,.36.57L64,57.5A2.27,2.27,0,0,1,64,59.25Z"/></g></g></svg>