<svg xmlns="http://www.w3.org/2000/svg" viewBox="0 0 52.49 51"><defs><style>.cls-1,.cls-2{fill:none;stroke:#d9d9d9;stroke-width:2px;}.cls-1{stroke-linecap:round;stroke-linejoin:round;}.cls-2,.cls-3{stroke-miterlimit:10;}.cls-3{fill:#fff;stroke:#000;stroke-width:6px;}.cls-4{fill:#d9d9d9;}</style></defs><title>icono_gestion_de_riesgos_home</title><g id="Capa_2" data-name="Capa 2"><g id="Capa_1-2" data-name="Capa 1"><g id="Capa_2-2" data-name="Capa 2"><g id="Capa_1-2-2" data-name="Capa 1-2"><path class="cls-1" d="M19.54,28.81c2.36,0,6.63-3.16,7.21-4.12a9,9,0,0,0,1-3.1,13.77,13.77,0,0,1,1-2.06c1-1.29,1-5.15,1-5.15l-1-1s-.25-3.24-.4-4.82C27.83,3.91,24.64,1,19.54,1s-8.28,2.91-8.88,7.54c-.14,1.59-.4,4.82-.4,4.82l-1,1s.06,3.86,1,5.15a13.78,13.78,0,0,1,1,2.05,9,9,0,0,0,1,3.1C12.91,25.66,17.18,28.81,19.54,28.81Z"/><line class="cls-2" x1="13.36" y1="30.87" x2="13.36" y2="25.72"/><line class="cls-1" x1="25.72" y1="30.87" x2="25.72" y2="25.72"/><path class="cls-1" d="M23.59,46.6l8.87-13.28-5.71-2.45S23,34,19.54,34s-6.18-3.09-6.18-3.09L5.12,34C3.23,35,1.58,36,1,38.09v4.1A26,26,0,0,0,19.54,49.4a30,30,0,0,0,3.93-.26A2.25,2.25,0,0,1,23.59,46.6Z"/><path class="cls-3" d="M38.09,38.09"/><path class="cls-2" d="M32.46,33.32,23.59,46.6a2.27,2.27,0,0,0-.12,2.56,2.49,2.49,0,0,0,2.1.84H49.06c2.17,0,3.06-1.53,2-3.41L39.27,29c-1.09-1.88-2.85-1.88-3.94,0Z"/><path class="cls-4" d="M37.29,34.2a1.44,1.44,0,0,1,1.53,1.35s0,0,0,.07l-.42,5c0,.51-.22.94-1.13.94s-1.09-.42-1.13-.94l-.42-5a1.43,1.43,0,0,1,1.43-1.42Z"/><circle class="cls-4" cx="37.29" cy="44.8" r="1.53"/></g></g></g></g></svg>