<svg xmlns="http://www.w3.org/2000/svg" viewBox="0 0 49.75 44.24"><defs><style>.cls-1{fill:#d9d9d9;stroke:#d9d9d9;stroke-miterlimit:10;stroke-width:0.25px;}</style></defs><title>Icono_Derechos humanos_y_paz</title><g id="Capa_2" data-name="Capa 2"><g id="Capa_1-2" data-name="Capa 1"><path class="cls-1" d="M41.95,15.66A1.07,1.07,0,1,0,43,16.74a1.07,1.07,0,0,0-1.07-1.07m5.28,1.65a9.45,9.45,0,0,0-2.66-2.52,7.75,7.75,0,0,0-5-1c-3.07.51-5.41,2.95-7.33,5.22a10.15,10.15,0,0,1,1,2.13.86.86,0,0,1-1.62.57c-1.52-4.32-6.25-6.38-10.2-7.69C15.75,12.12,10.73,10.24,7,6.29l-.46-.5a26.51,26.51,0,0,0-1,9c.47,7.15,4.19,12.42,11.06,15.67A.86.86,0,1,1,15.8,32a25.67,25.67,0,0,1-3.63-2.08c-2.84.51-6.1.94-9.9,1.28,4.29,8.75,13.12,11.55,20.15,11.2,6.07-.3,11.45-2.9,14-6.8a52.12,52.12,0,0,0,4.14-8.37c2-4.68,3.74-8.81,6.63-9.89m2.4.58a.86.86,0,0,1-.86.86c-2.72,0-4.6,4.43-6.59,9.13a53.33,53.33,0,0,1-4.29,8.65C35,40.93,29.21,43.76,22.5,44.08q-.64,0-1.28,0A24.18,24.18,0,0,1,9.69,41.27,21.22,21.22,0,0,1,.19,30.75a.86.86,0,0,1,.72-1.19c3.58-.3,6.69-.66,9.42-1.09a18.59,18.59,0,0,1-6.25-11A27.09,27.09,0,0,1,4.93,5.08c.14-.47.26-.82.34-1,.15-.4.37-1,1.07-.9a.86.86,0,0,1,.58.37A12.53,12.53,0,0,0,8.21,5.1c3.48,3.66,8.3,5.46,13.78,7.28,3.15,1,6.76,2.54,9.17,5.22,2-2.34,4.63-4.94,8.12-5.52a9.41,9.41,0,0,1,6.1,1.2,12.45,12.45,0,0,1,3.68,3.62l.24.32a.86.86,0,0,1,.33.67M13.3,5.88A29.29,29.29,0,0,1,14.75,2c.23-.49.42-.86.53-1.08.24-.44.5-.94,1.15-.8A.86.86,0,0,1,17,.61a12.52,12.52,0,0,0,1,1.76C21,6.5,25.49,9,30.65,11.57c.59.3,1.12.58,1.62.85a.86.86,0,1,1-.83,1.5c-.48-.27-1-.53-1.56-.82-1.82-.91-3.56-1.81-5.2-2.78a24.94,24.94,0,0,1-8-7l-.38-.56a27.3,27.3,0,0,0-1.34,3.57l0,.07a.86.86,0,0,1-1.62-.56"/></g></g></svg>