<svg xmlns="http://www.w3.org/2000/svg" viewBox="0 0 173.5 39.96"><defs><style>.cls-1{fill:#ccc;}</style></defs><title>ICONO_PA_BACKGOUND_03</title><g id="Capa_2" data-name="Capa 2"><g id="_0" data-name="0"><path class="cls-1" d="M173,40a.49.49,0,0,1-.2,0c-.4-.18-39.46-17.18-69.22-12A56.37,56.37,0,0,1,112.69,31a.5.5,0,0,1-.4.92c-15.37-6.77-27.64-4.79-39-1.1a.5.5,0,0,1-.24.08c-2.85.93-5.65,2-8.44,3C56.14,37,48.17,40,39.31,40a.5.5,0,0,1,0-1C48,39,55.88,36,64.23,33c2.3-.85,4.61-1.7,6.95-2.5C36.12,21.93,1.09,39.72.73,39.9A.5.5,0,0,1,.27,39C.63,38.82,37,20.34,72.94,29.88c8.59-2.78,17.67-4.62,28.19-2.56h0c30.32-6.5,71.65,11.5,72.06,11.68a.5.5,0,0,1-.2,1Zm-44.47,0a.5.5,0,0,1-.22-.05C104.53,28.07,84,35.2,83.8,35.27a.5.5,0,1,1-.34-.94c.21-.08,21.13-7.34,45.29,4.65a.5.5,0,0,1-.22.95ZM71.25,21.7a11,11,0,0,1-2.37-.26.5.5,0,0,1,.22-1,9.93,9.93,0,0,0,4.3,0,.5.5,0,1,1,.22,1A11,11,0,0,1,71.25,21.7ZM65.7,20.09a.5.5,0,0,1-.27-.08,11,11,0,0,1-3.35-3.35.5.5,0,1,1,.84-.54,10,10,0,0,0,3,3,.5.5,0,0,1-.27.92Zm11.09,0a.5.5,0,0,1-.27-.92,10,10,0,0,0,3-3,.5.5,0,1,1,.84.54A11,11,0,0,1,77.06,20,.5.5,0,0,1,76.79,20.09ZM71.25,18a7.16,7.16,0,1,1,7.16-7.16A7.17,7.17,0,0,1,71.25,18Zm0-13.33a6.16,6.16,0,1,0,6.16,6.16A6.17,6.17,0,0,0,71.25,4.68Zm-10.1,8.92a.5.5,0,0,1-.49-.39,11,11,0,0,1,0-4.74.5.5,0,1,1,1,.22,10,10,0,0,0,0,4.3.5.5,0,0,1-.38.6Zm20.2,0h-.11a.5.5,0,0,1-.38-.6,10,10,0,0,0,0-4.3.5.5,0,1,1,1-.22,11,11,0,0,1,0,4.74A.5.5,0,0,1,81.35,13.61ZM62.51,5.8A.5.5,0,0,1,62.09,5a11,11,0,0,1,3.35-3.35.5.5,0,1,1,.54.84,10,10,0,0,0-3,3A.5.5,0,0,1,62.51,5.8ZM80,5.8a.5.5,0,0,1-.42-.23,10,10,0,0,0-3-3,.5.5,0,1,1,.54-.84A11,11,0,0,1,80.41,5,.5.5,0,0,1,80,5.8ZM69,1.25a.5.5,0,0,1-.11-1,11,11,0,0,1,4.74,0,.5.5,0,0,1-.22,1,9.93,9.93,0,0,0-4.3,0Z"/></g></g></svg>