<svg xmlns="http://www.w3.org/2000/svg" viewBox="0 0 59.78 79"><defs><style>.cls-1{fill:#7c7c7c;}</style></defs><title>icono_pdfmdpi</title><g id="Capa_2" data-name="Capa 2"><g id="Capa_1-2" data-name="Capa 1"><path id="Forma_18" data-name="Forma 18" class="cls-1" d="M59.68,18.62a2.7,2.7,0,0,0-.79-1.92L44,.88A2.75,2.75,0,0,0,41.89,0H4.7A4.71,4.71,0,0,0,0,4.66V74.34A4.71,4.71,0,0,0,4.7,79H55.09a4.71,4.71,0,0,0,4.7-4.66ZM18.06,58.16H15.76v3.08a.93.93,0,0,1-1,1.05H13.45a.93.93,0,0,1-1-1.05V50.08a.93.93,0,0,1,1-1.05H18a4.24,4.24,0,0,1,4.33,4.57,4.17,4.17,0,0,1-3.76,4.55Zm12,4H26.3a.94.94,0,0,1-1.07-1.05V50.08A.94.94,0,0,1,26.3,49H30A6.59,6.59,0,1,1,30,62.2ZM48.17,50.78a.93.93,0,0,1-1.07,1.05H43.22v2.72h3a.94.94,0,0,1,1.07,1.05v.7a.94.94,0,0,1-1.07,1.05h-3v3.87a.94.94,0,0,1-1.07,1.05H40.91a.94.94,0,0,1-1.07-1.05V50.08A.94.94,0,0,1,40.91,49H47a.94.94,0,0,1,1.07,1.05v.7h.09ZM55.62,19.5H45.86a4.7,4.7,0,0,1-4.68-4.66V4.47a.29.29,0,0,1,.51-.18L55.88,19a.37.37,0,0,1-.17.5l-.08,0ZM17.44,51.84H15.76v3.6h1.6A1.63,1.63,0,0,0,19,53.59a1.54,1.54,0,0,0-1.3-1.74h-.3Zm12.41,0H28.53v7.65h1.32a3.42,3.42,0,0,0,3.63-3.87,3.36,3.36,0,0,0-3.63-3.78Z"/></g></g></svg>