<svg xmlns="http://www.w3.org/2000/svg" viewBox="0 0 66.05 74.74"><defs><style>.cls-1{fill:#249ec3;fill-rule:evenodd;}.cls-2{fill:#fff;}</style></defs><title>ICON_POLITICA_AMBIENTAL_6</title><g id="Capa_2" data-name="Capa 2"><g id="Modo_de_aislamiento" data-name="Modo de aislamiento"><path class="cls-1" d="M10,62.42s.1-22.81.48-24.43,5.55-13,16-13.5c2.66,3.14,3.33,8.27,3.33,8.27V47.4S28.24,59.56,20.25,62,10,62.42,10,62.42Z"/><path class="cls-2" d="M8.79,42.32V51.8L0,65H28s4.09,4.91,6.76,8.07c1.8,2.06,5.22,2.3,3.29,0L31.34,65h4.77s6.09,7.3,6.76,8.07c2,2.21,4.14,1,3.29,0l-6.87-8.21A28.49,28.49,0,0,0,65,36.58V27.5c.15-.45.3-.9.42-1.36A20.37,20.37,0,0,0,54.5,2.79a12.06,12.06,0,0,1,3.7-.2c2.15.3,2.18-2.33.26-2.51a14.25,14.25,0,0,0-7.7,1.34,20.35,20.35,0,0,0-24.9,14.87C23.7,17.84,21.5,20.65,21,22.43a1.26,1.26,0,0,0,2.33,1,13.8,13.8,0,0,1,1.93-3.16,20.44,20.44,0,0,0,.09,3.11A19.19,19.19,0,0,0,8.79,42.32Zm0,20.19H4.71l4.08-6.14ZM62.48,36.58A26,26,0,0,1,36.55,62.5H21.68A17.61,17.61,0,0,0,31,47V35.33a20.24,20.24,0,0,0,9.64,5.59,20.51,20.51,0,0,0,5,.63l.46,0a20.18,20.18,0,0,0,8.08-1.89,20.71,20.71,0,0,0,1.88-1,20.31,20.31,0,0,0,6.38-6v3.94ZM36.49,5.8a17.76,17.76,0,0,1,9.13-2.52,17.94,17.94,0,0,1,2.08.13,14.41,14.41,0,0,0-5,12.84,14.33,14.33,0,0,0-13.65-1.72A17.77,17.77,0,0,1,36.49,5.8Zm-8.37,12,.12-.08a11.87,11.87,0,0,1,16.26,4.11c.17.28,2,3.31,2.9,4.93l.2-.11,0,0,1-.61,1-.57,0,0,.2-.12c-1-1.6-2.8-4.61-3-4.89A11.87,11.87,0,0,1,50.89,4.2L51,4.13A17.88,17.88,0,1,1,28.12,17.8Zm-2.32,8a20.33,20.33,0,0,0,2.34,5.77c.11.18.24.35.35.53V47A15.09,15.09,0,0,1,13.42,62H11.31V42.32A16.65,16.65,0,0,1,25.8,25.83Z"/><path class="cls-2" d="M36.86,29.21a3.89,3.89,0,0,0,3.33-5.88h0a3.89,3.89,0,1,0-3.33,5.88Zm-.71-5.06A1.36,1.36,0,1,1,35.68,26,1.35,1.35,0,0,1,36.15,24.16Z"/><path class="cls-2" d="M53.5,19.28a3.89,3.89,0,1,0-3.34-1.89A3.87,3.87,0,0,0,53.5,19.28Zm-.7-5.05a1.36,1.36,0,0,1,1.87.47h0a1.36,1.36,0,1,1-1.87-.47Z"/></g></g></svg>