<svg xmlns="http://www.w3.org/2000/svg" viewBox="0 0 41 41"><defs><style>.cls-1{fill:none;stroke:#2e73ba;stroke-miterlimit:10;stroke-width:2px;}.cls-2{fill:#2e73ba;}</style></defs><title>ICONO_CARGAR_ARCHIVO_02</title><g id="Capa_2" data-name="Capa 2"><g id="Capa_1-2" data-name="Capa 1"><rect class="cls-1" x="1" y="1" width="39" height="39"/><path class="cls-2" d="M27.73,9.65H13.27a1.08,1.08,0,0,0,0,2.17H27.73a1.08,1.08,0,0,0,0-2.17Z"/><path class="cls-2" d="M21.58,18.8l4.74,4.74a1.06,1.06,0,0,0,1.51,0,1.08,1.08,0,0,0,0-1.55l-6.58-6.58-.07-.06-.12-.1L21,15.2l-.11,0a.48.48,0,0,1-.15,0l-.17,0h-.2l-.08,0h0l-.11,0-.05,0-.08,0-.08.05,0,0-.05,0-.12.11-.11.11h0L13.16,22a1.08,1.08,0,0,0,0,1.55,1.06,1.06,0,0,0,1.51,0l4.74-4.74V30.26a1.08,1.08,0,0,0,2.17,0Z"/></g></g></svg>