<svg xmlns="http://www.w3.org/2000/svg" viewBox="0 0 94.91 73.22"><defs><style>.cls-1,.cls-3{fill:none;}.cls-1,.cls-2{stroke:#fff;stroke-linecap:round;stroke-linejoin:round;}.cls-1{stroke-width:3px;}.cls-2{fill:#249ec3;}.cls-2,.cls-3{stroke-width:2px;}.cls-3{stroke:#2a5082;stroke-miterlimit:10;}.cls-4{fill:#fff;}</style></defs><title>ICON_POLITICA_AMBIENTAL_3</title><g id="Capa_2" data-name="Capa 2"><g id="Modo_de_aislamiento" data-name="Modo de aislamiento"><polygon class="cls-1" points="93.41 18.13 33.19 49.71 1.5 33.09 61.72 1.5 93.41 18.13"/><polyline class="cls-1" points="93.41 25.46 33.19 57.05 1.5 40.42"/><polyline class="cls-1" points="93.41 32.8 33.19 64.39 1.5 47.76"/><polyline class="cls-1" points="93.41 40.13 33.19 71.72 1.5 55.1"/><path class="cls-2" d="M76.51,17,63.83,10.37a7,7,0,0,1-6.34,0L18.38,30.88c2.11,1.11,1.77,2.4,0,3.31l12.68,6.65a6.94,6.94,0,0,1,6.32,0L76.51,20.34C74.76,19.42,74.4,18.12,76.51,17Z"/><path class="cls-3" d="M62.4,19.43"/><path class="cls-3" d="M62.4,16.44"/><path class="cls-3" d="M32.52,34.37"/><path class="cls-3" d="M32.52,31.38"/><path class="cls-4" d="M53.62,24.78a4.92,4.92,0,0,1-4.18,5.31,4.63,4.63,0,0,1-5.41-4,5,5,0,0,1,4.29-5.32A4.86,4.86,0,0,1,53.62,24.78Z"/></g></g></svg>