<svg xmlns="http://www.w3.org/2000/svg" viewBox="0 0 158.69 131.05"><defs><style>.cls-1{fill:#9e9e9e;}</style></defs><title>Icono4</title><g id="Capa_2" data-name="Capa 2"><g id="Capa_1-2" data-name="Capa 1"><path class="cls-1" d="M158.27,53a3.1,3.1,0,0,0-2.67-1.62H139.88C136,26.08,117.32,6.57,91.47,1.23,63.72-4.42,35.6,9.75,23.09,35.65a2.9,2.9,0,0,0-.06,3,3.3,3.3,0,0,0,2.83,1.6,2.72,2.72,0,0,0,2.4-1.55v0C39.65,15.25,63.86,2.89,89.91,7.2a54,54,0,0,1,43.78,44.18H118.85A3.1,3.1,0,0,0,116.18,53a3,3,0,0,0,0,3.08l15.43,26.75,0,0h0l0,.05c.5.84,1,1.64,1.43,2.44s.94,1.63,1.46,2.49a3.08,3.08,0,0,0,5.33,0C143,82.56,146,77.32,149,72.07s6.14-10.63,9.25-16A3,3,0,0,0,158.27,53ZM137,79.79,124.23,57.7h26l-6.45,11.16-6.54,11.32Z"/><path class="cls-1" d="M134.05,90.92a2.6,2.6,0,0,0-3.63,1.27C119,115.62,94.85,128,68.77,123.69c-22.81-3.58-39.92-21.1-43.36-44H39.84a3.1,3.1,0,0,0,2.66-1.62,3,3,0,0,0,0-3.08L27.07,48.23l0,0h0l0-.05c-.5-.84-1-1.64-1.43-2.44s-.95-1.63-1.46-2.49a3.08,3.08,0,0,0-5.33,0c-3.78,6.41-7.57,13-11.23,19.38Q4,68.77.42,75a3,3,0,0,0,0,3.09,3.1,3.1,0,0,0,2.67,1.62H19.24c3.7,25.4,22.27,44.93,48,50.14a60.88,60.88,0,0,0,12.16,1.23,63.14,63.14,0,0,0,56.41-35.69A3.33,3.33,0,0,0,134.05,90.92ZM21.72,51.27,34.46,73.36h-26l4.45-7.73c2.79-4.86,5.66-9.85,8.54-14.79Z"/></g></g></svg>