<svg xmlns="http://www.w3.org/2000/svg" viewBox="0 0 151.14 151.14"><defs><style>.cls-1{fill:#9e9e9e;}</style></defs><title>Icono_1</title><g id="Capa_2" data-name="Capa 2"><g id="Capa_1-2" data-name="Capa 1"><path class="cls-1" d="M75.57,0a75.57,75.57,0,1,0,75.57,75.57A75.62,75.62,0,0,0,75.57,0Zm0,6.87a68.7,68.7,0,1,1-68.7,68.7A68.65,68.65,0,0,1,75.57,6.87ZM115,32.58l-.38.05a3.44,3.44,0,0,0-1.23.43l-42.94,24a3.44,3.44,0,0,0-.7.48A19.08,19.08,0,0,0,57.65,69.67a3.44,3.44,0,0,0-.54.75l-24,42.94A3.44,3.44,0,0,0,37.73,118L80.67,94a3.44,3.44,0,0,0,.91-.54,19,19,0,0,0,12-12.13,3.44,3.44,0,0,0,.48-.64l24-42.94A3.44,3.44,0,0,0,115,32.58ZM106.11,45,93,68.38A19,19,0,0,0,82.76,58.13ZM75.57,63.55a12,12,0,1,1-12,12A12,12,0,0,1,75.57,63.55ZM58.13,82.76A19,19,0,0,0,68.38,93L45,106.11Z"/></g></g></svg>