<svg xmlns="http://www.w3.org/2000/svg" viewBox="0 0 53.67 64.03"><defs><style>.cls-1{fill:red;}</style></defs><title>Icono_rojo_05</title><g id="Capa_2" data-name="Capa 2"><g id="Capa_1-2" data-name="Capa 1"><path class="cls-1" d="M33.24,40.29a8.65,8.65,0,0,0-2.09-1.55,26.46,26.46,0,0,0-3.41-1.48,8.75,8.75,0,0,1-3.08-1.69,3.17,3.17,0,0,1-.91-2.37,3.36,3.36,0,0,1,.92-2.53,3.51,3.51,0,0,1,2.54-.88A3.12,3.12,0,0,1,29.83,31a5.28,5.28,0,0,1,1,3.36h4.11A8.54,8.54,0,0,0,33.28,29a6.69,6.69,0,0,0-4.56-2.5V22.75H26v3.7a7.28,7.28,0,0,0-4.65,2.15,6.47,6.47,0,0,0-1.72,4.63,6.75,6.75,0,0,0,4,6.27,23.18,23.18,0,0,0,3.33,1.4A8,8,0,0,1,30,42.6,3.28,3.28,0,0,1,30.89,45a3.22,3.22,0,0,1-1,2.48,4.2,4.2,0,0,1-2.94.94,4,4,0,0,1-3-1.17,4.71,4.71,0,0,1-1.08-3.31H18.69a7.81,7.81,0,0,0,1.81,5.4,7.76,7.76,0,0,0,5.17,2.41V55h2.69V51.71a7.7,7.7,0,0,0,4.9-2.1A6.34,6.34,0,0,0,35,45a7.1,7.1,0,0,0-.46-2.66A6.28,6.28,0,0,0,33.24,40.29Zm3.76-26c2.07-2,5.44-5.72,5.57-8.52a3.23,3.23,0,0,0-.86-2.42,3.78,3.78,0,0,0-2.87-1.08,14.59,14.59,0,0,0-2.89.39A13.1,13.1,0,0,1,33.68,3a1.83,1.83,0,0,1-.5-.06A8.27,8.27,0,0,1,31.1,1.79,7.67,7.67,0,0,0,26.84,0a7.7,7.7,0,0,0-4.26,1.79A8.23,8.23,0,0,1,20.51,3,2,2,0,0,1,20,3a12.93,12.93,0,0,1-2.27-.33,15.13,15.13,0,0,0-2.89-.39A3.78,3.78,0,0,0,12,3.39a3.24,3.24,0,0,0-.85,2.42c.13,2.81,3.5,6.51,5.56,8.52C7,21.58,0,37.41,0,47.64,0,64,14.88,64,26.83,64s26.83,0,26.83-16.4C53.68,37.41,46.65,21.58,37,14.33ZM14.12,5.67c0-.17,0-.21,0-.22a1.09,1.09,0,0,1,.69-.15,13.68,13.68,0,0,1,2.29.33,9.65,9.65,0,0,0,4.19.22,10.14,10.14,0,0,0,2.94-1.6A5.56,5.56,0,0,1,26.84,3,5.56,5.56,0,0,1,29.4,4.26a10.48,10.48,0,0,0,2.94,1.6,9.58,9.58,0,0,0,4.19-.22,13.69,13.69,0,0,1,2.3-.33c.41,0,.63.07.69.15s0,.05,0,.22C39.49,7.34,36.42,10.82,34,13H19.64C17.27,10.82,14.2,7.34,14.12,5.67ZM26.85,61C12.89,61,3,60.07,3,47.64,3,37.76,10,22.28,19.52,16H34.17c9.47,6.28,16.51,21.76,16.51,31.64C50.68,60.07,40.8,61,26.85,61Z"/></g></g></svg>