<svg xmlns="http://www.w3.org/2000/svg" viewBox="0 0 72.26 50.29"><defs><style>.cls-1{fill:#ccc;}</style></defs><title>ICONO_PA_BACKGOUND_02</title><g id="Capa_2" data-name="Capa 2"><g id="_0" data-name="0"><path class="cls-1" d="M36.1,50.29a.5.5,0,0,1-.5-.44A9.69,9.69,0,0,1,48.84,39.72a9.68,9.68,0,0,1,16.72,3.06,6.8,6.8,0,0,1,6.7,6.79.5.5,0,0,1-1,0,5.79,5.79,0,0,0-11.58,0,.5.5,0,0,1-1,0,6.8,6.8,0,0,1,5.84-6.72,8.68,8.68,0,0,0-16.85,3,.5.5,0,0,1-1,0,9.62,9.62,0,0,1,1.55-5.25,8.69,8.69,0,0,0-11.69,8.15,8.89,8.89,0,0,0,.06,1,.5.5,0,0,1-.44.55Zm-7.22-.65a.5.5,0,0,1-.5-.5v-13a7.42,7.42,0,0,0-5.55-6.54.5.5,0,1,1,.2-1,8.35,8.35,0,0,1,5.35,4.17V28.51h0V23.23a10.93,10.93,0,0,0-5.55-3.5.5.5,0,1,1,.2-1,11.36,11.36,0,0,1,5.35,3V16.49h0v-8a.5.5,0,0,1,1,0v6.7a11.36,11.36,0,0,1,5.35-3,.5.5,0,1,1,.2,1,10.93,10.93,0,0,0-5.56,3.5V23h0v4.2a11.36,11.36,0,0,1,5.35-3,.5.5,0,1,1,.2,1,10.93,10.93,0,0,0-5.56,3.5v7.45h0v.76h1.47A5.92,5.92,0,0,0,36.76,31V6.92A5.92,5.92,0,0,0,30.85,1H26.92A5.92,5.92,0,0,0,21,6.92V31a5.94,5.94,0,0,0,4.35,5.7.5.5,0,1,1-.27,1A6.94,6.94,0,0,1,20,31V6.92A6.92,6.92,0,0,1,26.92,0h3.93a6.92,6.92,0,0,1,6.92,6.92V31a6.92,6.92,0,0,1-6.92,6.92H29.38V49.14A.5.5,0,0,1,28.88,49.64ZM8,49.64a.5.5,0,0,1-.5-.5V41.08C7.13,38.92,5,37.9,4.08,37.56a.5.5,0,1,1,.35-.94,7,7,0,0,1,3.08,2.14V36.27h0V33.11A11.24,11.24,0,0,0,4,31.3a.5.5,0,1,1,.29-1,12.42,12.42,0,0,1,3.22,1.53V28.78h0v-5a.5.5,0,0,1,1,0v4a12.4,12.4,0,0,1,3.23-1.53.5.5,0,1,1,.29,1A11.26,11.26,0,0,0,8.52,29v3.84h0v2.41A12.48,12.48,0,0,1,11.6,33.8a.5.5,0,1,1,.31,1,11.3,11.3,0,0,0-3.38,1.76v4.82H9.78c2.85,0,5.25-1.6,5.25-3.5v-15c0-1.9-2.41-3.5-5.25-3.5H6.26C3.41,19.3,1,20.91,1,22.81v15c0,1.55,1.57,2.93,3.83,3.37a.5.5,0,0,1,.4.58.51.51,0,0,1-.58.4C1.91,41.65,0,39.86,0,37.83v-15c0-2.48,2.81-4.5,6.26-4.5H9.78c3.45,0,6.25,2,6.25,4.5v15c0,2.48-2.81,4.5-6.25,4.5H8.52v6.81A.5.5,0,0,1,8,49.64Zm50.3-25.06H55.13a.5.5,0,0,1,0-1h3.18a.5.5,0,0,1,0,1Zm-7.45-6.25H47.69a.5.5,0,0,1,0-1h3.18a.5.5,0,0,1,0,1Zm18.65-.9H66.34a.5.5,0,0,1,0-1h3.18a.5.5,0,0,1,0,1ZM58.75,14.52H55.57a.5.5,0,0,1,0-1h3.18a.5.5,0,0,1,0,1Zm-44-.83H11.54a.5.5,0,1,1,0-1h3.18a.5.5,0,1,1,0,1Zm31.88-.4H43.42a.5.5,0,0,1,0-1H46.6a.5.5,0,0,1,0,1Zm-42.29-.9H1.13a.5.5,0,0,1,0-1H4.31a.5.5,0,0,1,0,1Zm62.54-4.3H63.67a.5.5,0,0,1,0-1h3.18a.5.5,0,0,1,0,1Zm-55-.76H8.65a.5.5,0,0,1,0-1h3.18a.5.5,0,0,1,0,1Z"/></g></g></svg>