<svg xmlns="http://www.w3.org/2000/svg" viewBox="0 0 74.05 96.88"><defs><style>.cls-1{fill:#2e73ba;}.cls-2{fill:#249ec3;}</style></defs><title>Icono_PA_invertido_02</title><g id="Capa_2" data-name="Capa 2"><g id="Modo_de_aislamiento" data-name="Modo de aislamiento"><path class="cls-1" d="M29.27,41h0a1.5,1.5,0,0,1-1.48-1.52l.16-13.78A2.42,2.42,0,0,0,27.19,24a4.29,4.29,0,0,0-3-1.19c-2.07,0-3.82,1.27-3.84,2.82L20.16,39a1.5,1.5,0,0,1-1.5,1.48h0a1.5,1.5,0,0,1-1.48-1.52l.16-13.36c0-3.23,3.09-5.8,6.88-5.78a7.31,7.31,0,0,1,5.14,2.09,5.41,5.41,0,0,1,1.6,3.84l-.17,13.78A1.5,1.5,0,0,1,29.27,41Z"/><path class="cls-1" d="M34,50.39h-.09a6.25,6.25,0,0,1-4.5-2,1.5,1.5,0,0,1,2.21-2,3.24,3.24,0,0,0,2.33,1h0a3.18,3.18,0,0,0,2.24-.89,2.72,2.72,0,0,0,.84-1.92l.18-17.1a3,3,0,0,0-3.08-2.9,3.08,3.08,0,0,0-2.29.89A2.72,2.72,0,0,0,31,27.39l-.12,12a1.5,1.5,0,0,1-1.5,1.48h0a1.5,1.5,0,0,1-1.48-1.52l.12-12a5.7,5.7,0,0,1,1.75-4,6.16,6.16,0,0,1,4.34-1.75h.09a6,6,0,0,1,6,5.94l-.18,17.09a5.7,5.7,0,0,1-1.75,4A6.16,6.16,0,0,1,34,50.39Z"/><path class="cls-1" d="M43.06,48.62H43a5.67,5.67,0,0,1-5.82-5.47l.17-15.27h0a5.14,5.14,0,0,1,1.59-3.63,6.37,6.37,0,0,1,4.36-1.7A5.67,5.67,0,0,1,49.1,28L48.93,43.3a5.14,5.14,0,0,1-1.59,3.63A6.15,6.15,0,0,1,43.06,48.62ZM40.32,27.92l-.17,15.27A2.68,2.68,0,0,0,43,45.62h0a3.13,3.13,0,0,0,2.18-.84,2.14,2.14,0,0,0,.68-1.51L46.1,28a2.68,2.68,0,0,0-2.86-2.43A3.3,3.3,0,0,0,41,26.4a2.15,2.15,0,0,0-.68,1.51Z"/><path class="cls-1" d="M52.49,50.39h-.09a7,7,0,0,1-4.9-2,4.76,4.76,0,0,1-1.41-3.38l.19-14.78h0c0-2.91,2.9-5.27,6.44-5.2a7,7,0,0,1,4.9,2A4.76,4.76,0,0,1,59,30.41l-.19,14.78C58.81,48.08,56,50.39,52.49,50.39Zm-4.71-20.1,1.5,0L49.1,45.09a1.79,1.79,0,0,0,.56,1.25,4,4,0,0,0,2.78,1.06h.05c1.81,0,3.34-1,3.36-2.24L56,30.38a1.79,1.79,0,0,0-.56-1.25,4,4,0,0,0-2.78-1.06c-1.86,0-3.39,1-3.41,2.23Z"/><path class="cls-1" d="M34,69.39a1.5,1.5,0,0,1-1.35-2.16l.17-.34c1.26-2.62.75-6.67-1.2-9.42a8.77,8.77,0,0,0-7.38-3.63,13,13,0,0,0-1.68.09l-.34,0A1.49,1.49,0,0,1,21,53.62l-.14-.12a1.54,1.54,0,0,1-.48-1.07l0-1.61a1.49,1.49,0,0,1,.12-.57c.13-.48.42-2.57.62-4.29a1.5,1.5,0,0,1,2-1.23l.44.17a15.7,15.7,0,0,0,6.72.8,9.58,9.58,0,0,0,4.83-2.22l.09-.07.13-.14.43-.41a6.56,6.56,0,0,0,.74-.83l.12-.18a3.92,3.92,0,0,0,.34-.73h-.1c-.32,0-.68,0-1.1,0h-2L19.41,40.9a2,2,0,0,0-.48.06l-.27.06a1.54,1.54,0,0,1-1.85-1.1,1.46,1.46,0,0,1,1.07-1.8l.08,0,.1,0,.28-.06a5.81,5.81,0,0,1,1.12-.12l14.42.17h2c.49,0,.91,0,1.28,0a6.86,6.86,0,0,1,2.12.41,1.49,1.49,0,0,1,.29.16,1.57,1.57,0,0,1,.54.69,2.81,2.81,0,0,1,.1,1.42l0,.12c0,.11,0,.25-.08.4a7.34,7.34,0,0,1-.84,2.1c-.08.13-.17.27-.27.4A9.42,9.42,0,0,1,37.9,45l-.21.2a1.44,1.44,0,0,1-.35.37l-.34.26a12.53,12.53,0,0,1-6.25,2.81,17.63,17.63,0,0,1-6.83-.57c-.19,1.46-.34,2.28-.45,2.75h.75A11.66,11.66,0,0,1,34,55.73c2.62,3.69,3.22,8.81,1.46,12.47l-.17.35A1.5,1.5,0,0,1,34,69.39ZM20.61,50.11h0ZM37.24,40.2Z"/><path class="cls-1" d="M12.7,38.82a1.5,1.5,0,0,1-1.06-.44L.44,27.18a1.5,1.5,0,1,1,2.12-2.12l11.2,11.2a1.5,1.5,0,0,1-1.06,2.56Z"/><path class="cls-1" d="M20,19.16a1.5,1.5,0,0,1-1.37-.89L13.39,6.53a1.5,1.5,0,1,1,2.74-1.22l5.21,11.74A1.5,1.5,0,0,1,20,19.16Z"/><path class="cls-1" d="M41.4,19.16a1.5,1.5,0,0,1-1.5-1.5V1.5a1.5,1.5,0,0,1,3,0V17.66A1.5,1.5,0,0,1,41.4,19.16Z"/><path class="cls-1" d="M52.57,23.88a1.5,1.5,0,0,1-1-2.63L68.25,6.75a1.5,1.5,0,0,1,2,2.26L53.55,23.51A1.49,1.49,0,0,1,52.57,23.88Z"/><path class="cls-1" d="M62.82,31.91a1.5,1.5,0,0,1-.33-3l9.73-2.23a1.5,1.5,0,0,1,.67,2.92l-9.73,2.23A1.47,1.47,0,0,1,62.82,31.91Z"/><path class="cls-1" d="M68.86,45.16h-.13l-8.25-.74a1.5,1.5,0,1,1,.27-3l8.25.74a1.5,1.5,0,0,1-.13,3Z"/><path class="cls-1" d="M21.79,86.13a1.5,1.5,0,0,1-1.5-1.49c-.09-10-.13-13.93-.15-15.28-5.46-5.06-12-14.84-12-19.23A12.78,12.78,0,0,1,17,38.21l.13-11.28a7.11,7.11,0,0,1,5.81-7,7,7,0,0,1,6.91,2.83,7.35,7.35,0,0,1,3.67-1A7,7,0,0,1,38.57,24a7.27,7.27,0,0,1,4.23-1.35,7,7,0,0,1,5.82,3.21,7.79,7.79,0,0,1,3.47-.8c3.87,0,7,3,6.94,6.49l-.14,11.5C60,46.25,60.06,53.89,60,56.23a17.7,17.7,0,0,1-7.48,14.12l-.16,13.37a4.16,4.16,0,0,1-.09.8,1.5,1.5,0,0,1-2.55.73L49.5,85a1.5,1.5,0,0,1-.1-2l.16-13.48a1.5,1.5,0,0,1,.68-1.24A14.75,14.75,0,0,0,57,56.19c.05-4.65-.24-10.47-1-12.27a1.49,1.49,0,0,1-.12-.61L56,31.52c0-1.87-1.76-3.42-4-3.45a4.31,4.31,0,0,0-3,1.13,1.5,1.5,0,0,1-2.47-.66,4,4,0,0,0-3.8-2.87,4,4,0,0,0-3.23,1.57A1.5,1.5,0,0,1,37,27a4,4,0,0,0-3.55-2.24,4.21,4.21,0,0,0-3,1.32,1.5,1.5,0,0,1-2.53-.53,4,4,0,0,0-4.51-2.67A4.16,4.16,0,0,0,20.09,27l-.15,12.41a1.5,1.5,0,0,1-1.18,1.45,9.74,9.74,0,0,0-7.61,9.33c0,3,5.89,12.46,11.47,17.4a1.5,1.5,0,0,1,.51,1.1s0,2.33.16,16a1.5,1.5,0,0,1-1.49,1.51Z"/><rect class="cls-2" x="18.78" y="79.46" width="34.63" height="15.92" rx="3.24" ry="3.24"/><path class="cls-1" d="M50.16,96.88H22a4.75,4.75,0,0,1-4.75-4.75V82.71A4.75,4.75,0,0,1,22,78H50.16a4.75,4.75,0,0,1,4.74,4.74v9.43A4.75,4.75,0,0,1,50.16,96.88ZM22,81a1.75,1.75,0,0,0-1.75,1.74v9.43A1.75,1.75,0,0,0,22,93.88H50.16a1.75,1.75,0,0,0,1.74-1.75V82.71A1.75,1.75,0,0,0,50.16,81Z"/></g></g></svg>