<svg xmlns="http://www.w3.org/2000/svg" viewBox="0 0 34.47 42.91"><defs><style>.cls-1{fill:red;}</style></defs><title>Icono_rojo_02</title><g id="Capa_2" data-name="Capa 2"><g id="Modo_de_aislamiento" data-name="Modo de aislamiento"><path class="cls-1" d="M7.45,24.36a1,1,0,0,0,0,2h8.81a9,9,0,0,1,2-2H7.45Zm0-7.79a1,1,0,0,0,0,2h13.2a1,1,0,0,0,0-2Zm0-7.79a1,1,0,0,0,0,2h6.77a1,1,0,1,0,0-2Zm11-6.73v4.4c0,1.44,2.12,3.22,3.47,3.3a1.52,1.52,0,0,1,.59.17h3.51V23a9.06,9.06,0,0,1,2,.89V7.17L21,0,3.81,0C2.12,0,.09,2.31,0,3.92V31.26c0,1.44,2.37,4,3.72,3.89H15.27a8.78,8.78,0,0,1-.59-2H4C3.22,33.12,2,31.77,2,31V4.17C1.95,3.33,3.3,1.89,4.15,2.06ZM26.07,7.9H22.81A2.53,2.53,0,0,1,20.52,6V2.42l5.55,5.23ZM28,37.78l4.83,4.83a1,1,0,1,0,1.35-1.35l-4.79-4.79a7.58,7.58,0,1,0-5.84,2.79A7.53,7.53,0,0,0,28,37.78Zm1.14-6.14a5.69,5.69,0,0,1-5.59,5.59,5.59,5.59,0,1,1,5.59-5.59Z"/></g></g></svg>