<svg xmlns="http://www.w3.org/2000/svg" viewBox="0 0 91.85 86.11"><defs><style>.cls-1{fill:#fff;}.cls-2{fill:#249ec3;}</style></defs><title>ICON_POLITICA_AMBIENTAL_1</title><g id="Capa_2" data-name="Capa 2"><g id="Modo_de_aislamiento" data-name="Modo de aislamiento"><path class="cls-1" d="M91.84,43.95a21.43,21.43,0,0,0-.18-3.64,22.48,22.48,0,0,0-.78-3.57,1.4,1.4,0,0,0-1.3-1l-6.86-.17,3.26-6a1.38,1.38,0,0,0-.21-1.61A22,22,0,0,0,80,23.51a1.38,1.38,0,0,0-1.61.22l-5,4.73-2-6.58a1.39,1.39,0,0,0-1.29-1,22.39,22.39,0,0,0-7.2,1,1.4,1.4,0,0,0-1,1.3L61.8,30l-6-3.26a1.39,1.39,0,0,0-1.61.21,22.42,22.42,0,0,0-4.42,5.77,1.39,1.39,0,0,0,.22,1.61l4.73,5-6.58,2a1.4,1.4,0,0,0-1,1.29,22.32,22.32,0,0,0,.18,3.64,22.58,22.58,0,0,0,.78,3.57,1.39,1.39,0,0,0,1.3,1l6.86.18L53,57a1.39,1.39,0,0,0,.21,1.62A22.38,22.38,0,0,0,58.93,63a1.4,1.4,0,0,0,1.62-.22l5-4.73,2,6.59a1.39,1.39,0,0,0,1.29,1,23.21,23.21,0,0,0,3.64-.19A21.91,21.91,0,0,0,76,64.66a1.4,1.4,0,0,0,1-1.29l.17-6.87,6,3.27a1.39,1.39,0,0,0,1.62-.21,22.59,22.59,0,0,0,4.41-5.77A1.39,1.39,0,0,0,89,52.17l-4.72-5,6.58-2A1.38,1.38,0,0,0,91.84,43.95Zm-8.72.68a1.4,1.4,0,0,0-1,1.08,13,13,0,0,1-.47,1.73A1.38,1.38,0,0,0,82,48.84l4.28,4.5-.18.28a19.83,19.83,0,0,1-2.26,2.95l-.23.24-5.46-3a1.4,1.4,0,0,0-1.45.08,11.83,11.83,0,0,1-1.54.9,1.39,1.39,0,0,0-.78,1.22l-.16,6.2-.33.07c-.6.14-1.21.25-1.83.33s-1.26.14-1.85.16h-.34L68.09,56.9a1.4,1.4,0,0,0-1.07-1,11.54,11.54,0,0,1-1.72-.47,1.39,1.39,0,0,0-1.42.3L59.37,60l-.28-.18a19.32,19.32,0,0,1-2.95-2.26l-.25-.23,3-5.46a1.39,1.39,0,0,0-.08-1.45,12.09,12.09,0,0,1-.89-1.54,1.39,1.39,0,0,0-1.22-.78L50.46,48l-.08-.33c-.15-.65-.26-1.24-.33-1.83A18.47,18.47,0,0,1,49.89,44v-.33l5.94-1.77a1.4,1.4,0,0,0,1-1.08,12.08,12.08,0,0,1,.46-1.72,1.38,1.38,0,0,0-.3-1.42l-4.28-4.5.18-.28a19.36,19.36,0,0,1,2.26-2.95l.23-.25,5.46,2.95a1.4,1.4,0,0,0,1.45-.07,12.85,12.85,0,0,1,1.55-.9,1.41,1.41,0,0,0,.78-1.22l.16-6.21.33-.07c.62-.14,1.24-.26,1.83-.33s1.23-.13,1.86-.15h.34l1.78,5.95a1.38,1.38,0,0,0,1.07,1,12.2,12.2,0,0,1,1.73.47,1.39,1.39,0,0,0,1.41-.31l4.5-4.27.28.18a19.34,19.34,0,0,1,2.95,2.26l.25.23-3,5.46A1.37,1.37,0,0,0,80.17,36a12.44,12.44,0,0,1,.9,1.55,1.38,1.38,0,0,0,1.22.78l6.21.16.08.33c.15.62.26,1.23.34,1.83s.13,1.18.15,1.86v.34Zm7.33-1.16h0v0Z"/><path class="cls-2" d="M38.52,66.06s-12.74,7.93-23.31,0C-1.55,53.49,2.5,20.44,2.5,20.44S21,17.06,39.68,31.53,38.52,66.06,38.52,66.06Z"/><path class="cls-1" d="M42.83,85.48a1.44,1.44,0,0,0,.94.6,1.4,1.4,0,0,0,1.69-1.17C47,76.68,50.88,68.82,57.06,61.53a25.1,25.1,0,0,1-2.34-1.77A52.89,52.89,0,0,0,42.6,84.39,1.45,1.45,0,0,0,42.83,85.48Z"/><path class="cls-1" d="M74.76,47.3a6.66,6.66,0,1,0-9.34,1.24,6.5,6.5,0,0,0,4.92,1.31A6.61,6.61,0,0,0,74.76,47.3ZM70,47.09a4.21,4.21,0,0,1-.52,0,3.84,3.84,0,0,1-2.36-.8A3.88,3.88,0,0,1,69,39.4l.51,0A3.88,3.88,0,0,1,70,47.09Z"/><path class="cls-1" d="M16.45,69c5.87,3.38,13.13,2.82,21.48-1.67l.45-.24.16.49a91.6,91.6,0,0,1,4,17.34,1.39,1.39,0,1,0,2.76-.36,94.66,94.66,0,0,0-4.51-18.86l-.09-.26.2-.19c11.39-11.28,10.24-20.55,7.27-26.34-7.92-15.44-36-23-47.07-20.89a1.57,1.57,0,0,0-.42.16l-.1.06a1.7,1.7,0,0,0-.27.24,1.54,1.54,0,0,0-.19.27L.06,19a1.82,1.82,0,0,0-.05.35v.12C0,22.1-.1,59.45,16.45,69ZM7.29,20.45c12.2.63,32.35,7.82,38.44,19.7h0C49.25,47,47.37,54.38,40.14,62l-.46.49-.25-.63A91.47,91.47,0,0,0,7,21.24l-1.26-.87ZM2.82,21.79l.69.44A88.29,88.29,0,0,1,37.28,64.06l.14.35-.33.18c-4.53,2.51-8.64,3.77-12.31,3.77a13.65,13.65,0,0,1-6.93-1.8c-4.17-2.4-14-11.48-15-44Z"/><path class="cls-1" d="M58.07,4.81l.53-.66.23.81a92.14,92.14,0,0,1,3.25,18.4,2.22,2.22,0,0,1,.79-.43c.58-.17,1.2-.33,1.92-.49A96,96,0,0,0,60.54.94L60.43.75a1.42,1.42,0,0,0-.19-.3L60.11.35a1.41,1.41,0,0,0-.29-.19L59.64.08,59.34,0H59C51.23.94,33.78,11.46,29.09,24.05c.84.36,1.69.74,2.54,1.15C34.7,16.57,45.22,8.11,53.74,4.45l1.49-.64-1,1.3A71.44,71.44,0,0,0,42,31.7c.88.73,1.7,1.48,2.48,2.25A71.18,71.18,0,0,1,58.07,4.81Z"/></g></g></svg>