<svg xmlns="http://www.w3.org/2000/svg" viewBox="0 0 82.4 64.66"><defs><style>.cls-1{fill:#2e73ba;fill-rule:evenodd;}.cls-2{fill:#fff;}</style></defs><title>ICON_POLITICA_AMBIENTAL_8</title><g id="Capa_2" data-name="Capa 2"><g id="Modo_de_aislamiento" data-name="Modo de aislamiento"><path class="cls-1" d="M1.15,40.76s-.28-5,3.59-5.06,7.81,0,7.81,0,4.13.2,4,4.13,0,18.87,0,18.87.29,3.54-2.75,3.93a65.63,65.63,0,0,1-9.08,0s-3.9.79-3.6-4.72S1.15,40.76,1.15,40.76Z"/><path class="cls-1" d="M49,1.7S33.47,19.59,33.57,27.45,38.25,42.78,49,42.78,66.78,34.42,63.64,24.3,49,1.7,49,1.7Z"/><path class="cls-2" d="M49,44.36c-9.22,0-16.72-6.77-16.72-15.09C32.31,17.92,47.44,1.11,48.08.4A1.32,1.32,0,0,1,50,.4c.65.71,15.78,17.52,15.78,28.87C65.75,37.6,58.25,44.36,49,44.36ZM49,3.21C45.72,7.08,34.87,20.44,34.87,29.27c0,6.91,6.35,12.53,14.16,12.53s14.16-5.62,14.16-12.53C63.19,20.44,52.34,7.08,49,3.21Z"/><path class="cls-2" d="M49,38.13a1.28,1.28,0,1,1,0-2.56c4.23,0,7.67-3,7.67-6.73a1.28,1.28,0,0,1,2.56,0C59.26,34,54.67,38.13,49,38.13Z"/><path class="cls-2" d="M81.07,44.48c-1.76-1.58-4.87-.44-12.38,2.3-2,.72-4.24,1.55-6.83,2.45,0-.06,0-.12,0-.18a5.76,5.76,0,0,0-1.44-4.63A5.26,5.26,0,0,0,56.67,43c-9.69.16-11.32-.79-13.2-1.9C41,39.66,38.27,38,22.21,38a1.28,1.28,0,0,0-1.28,1.28V58.39a1.27,1.27,0,0,0,.56,1.06c.53.36,7.91,5.22,20.43,5.22,9.76,0,22.64-2.95,37.83-13.26.26-.18,2.5-1.76,2.65-4A3.57,3.57,0,0,0,81.07,44.48Zm-1.23,2.79c0,.75-1.06,1.68-1.54,2C48.06,69.82,27.11,59.72,23.49,57.67V40.6c14.22.08,16.59,1.47,18.69,2.7s4.13,2.43,14.58,2.25a2.74,2.74,0,0,1,1.87.7,3.39,3.39,0,0,1,.69,2.65c0,.28-.07,1.12-1.81,1.82h0l0,0h0c-2,.76-6.29,1.42-15.81.19a1.28,1.28,0,0,0-.33,2.54,75.93,75.93,0,0,0,9.49.7,21.67,21.67,0,0,0,7.58-1h0c4.46-1.48,8.19-2.84,11.18-3.93,4.63-1.69,9-3.29,9.79-2.8C79.87,46.85,79.85,47.16,79.84,47.27Z"/><path class="cls-2" d="M14,63.86H4a4,4,0,0,1-4-4V38.6a4,4,0,0,1,4-4H14a4,4,0,0,1,4,4V59.84A4,4,0,0,1,14,63.86ZM4,37.14A1.46,1.46,0,0,0,2.56,38.6V59.84A1.46,1.46,0,0,0,4,61.29H14a1.46,1.46,0,0,0,1.46-1.46V38.6A1.46,1.46,0,0,0,14,37.14Z"/><circle class="cls-2" cx="11.57" cy="57.47" r="1.71"/><circle class="cls-2" cx="6.45" cy="57.47" r="1.71"/></g></g></svg>