<svg xmlns="http://www.w3.org/2000/svg" viewBox="0 0 108.52 39.03"><defs><style>.cls-1{fill:#fff;}</style></defs><title>logo pragmamdpi</title><g id="Capa_2" data-name="Capa 2"><g id="Capa_1-2" data-name="Capa 1"><path class="cls-1" d="M33.91,15.41a10.24,10.24,0,0,0-3.3-4.66,11,11,0,0,0-2.24-1.35,13.93,13.93,0,0,0-2-.71c-.62-.17-1.27-.23-2-.36l-.62,0a3.35,3.35,0,0,0-.54-.05,3.68,3.68,0,0,0-.55,0h-.38l-.21,0a6.31,6.31,0,0,1,1,.61A3.45,3.45,0,0,1,24.78,12c-.12,2-1.93,3.16-3.08,3.65a8.51,8.51,0,0,1-5.56.34,4.18,4.18,0,0,1-3-2.81,10.28,10.28,0,0,0-1.23,2.7c0,.07,0,.14-.06.22-.1.46-.12.94-.21,1.45,0,.1,0,.21,0,.3a5.5,5.5,0,0,1-.06,1.06,3.24,3.24,0,0,1-.15.47,3.17,3.17,0,0,1-.48.82,5,5,0,0,1-2.46,1.48H8a10.71,10.71,0,0,0-1.38.23,9.6,9.6,0,0,0-3.24,1.6,6.08,6.08,0,0,0-1,1c-.16.19-.35.38-.5.58s-.19.25-.28.39A10.22,10.22,0,0,0,.18,28.92c0,.13-.05.28-.07.42s0,.39-.08.58,0,.21,0,.31c0,.26,0,.52,0,.78.06.42.05.82.13,1.22,0,.2.08.39.13.58a8.51,8.51,0,0,0,.28.91,5.38,5.38,0,0,0,.35.76,12.14,12.14,0,0,0,1,1.43,7.64,7.64,0,0,0,4.71,3L7,39a6,6,0,0,0,2.29-.09c.31-.06.6-.14.85-.21l.64-.22a8.18,8.18,0,0,0,1.76-1,10.68,10.68,0,0,0,2.83-3.12,10.66,10.66,0,0,0,.69-1.45,9.8,9.8,0,0,0,.46-1.63l.1-.7c0-.1,0-.2,0-.3s.16-.37.25-.55A3.81,3.81,0,0,1,18,28.37a3.77,3.77,0,0,1,1.49-.7l.29-.06a5.73,5.73,0,0,1,2,.17l.86.07a2.83,2.83,0,0,0,.62,0h.65l1-.09a19.67,19.67,0,0,0,2.27-.47,11.36,11.36,0,0,0,3.46-1.68,10.42,10.42,0,0,0,1.12-.93,8.46,8.46,0,0,0,1.3-1.57c.12-.19.23-.38.33-.57a12.65,12.65,0,0,0,.77-1.94l.12-.63a6.21,6.21,0,0,0,.12-.68A9.07,9.07,0,0,0,33.91,15.41Z"/><path class="cls-1" d="M11.15,10.09l.83,0a3,3,0,0,1,.47.13,2.06,2.06,0,0,1,.61.35c.6.5.44,1.07.41,2a3.33,3.33,0,0,0,1.33,2.16,4.84,4.84,0,0,0,1.49.76,5.29,5.29,0,0,0,1.09.22,9.82,9.82,0,0,0,2.94-.23,5.05,5.05,0,0,0,1.23-.41,5.91,5.91,0,0,0,2.16-1.88,2.88,2.88,0,0,0,.46-1.36,2.28,2.28,0,0,0,0-.37,3.57,3.57,0,0,0-.14-.73A3,3,0,0,0,22.71,9c-.19-.12-.36-.24-.56-.35s-.44-.23-.73-.37h0c-.25-.07-.5-.14-.75-.18a3.21,3.21,0,0,1-1.42-.48,1.43,1.43,0,0,1-.53-.7,1.36,1.36,0,0,1,0-.19c-.08-.45.19-.78.29-1.12a4.26,4.26,0,0,0,0-2.05,3.81,3.81,0,0,0-.23-.6,4.22,4.22,0,0,0-.25-.44,4.43,4.43,0,0,0-.82-.94,5.32,5.32,0,0,0-.53-.4,6,6,0,0,0-1-.52L15.74.5,15.23.33A8.68,8.68,0,0,0,13,0l-.65,0-.55,0a10.92,10.92,0,0,0-2,.42A7.88,7.88,0,0,0,6.63,2.38a5.38,5.38,0,0,0-.75,1,4.85,4.85,0,0,0-.61,1.8,3.43,3.43,0,0,0,.29,1.94A4.62,4.62,0,0,0,6,7.82l.27.36a3.12,3.12,0,0,0,.56.49,6.19,6.19,0,0,0,1.36.79,8.52,8.52,0,0,0,1.37.44A7.53,7.53,0,0,0,11.15,10.09Z"/><path class="cls-1" d="M43,23a5.16,5.16,0,0,1-2.43-.68,7.78,7.78,0,0,1-1.88-1.49v5.74a.74.74,0,1,1-1.48,0V17.23a5.72,5.72,0,0,1,.45-2.29,5.53,5.53,0,0,1,1.24-1.81,5.68,5.68,0,0,1,1.82-1.19,5.78,5.78,0,0,1,2.23-.43A5.68,5.68,0,0,1,47,13.2,6,6,0,0,1,48.23,15a5.61,5.61,0,0,1,0,4.44A6,6,0,0,1,47,21.31a6.16,6.16,0,0,1-1.82,1.25A5.29,5.29,0,0,1,43,23Zm-4.31-5.79A4.36,4.36,0,0,0,39,18.94,4.65,4.65,0,0,0,40,20.3a4.19,4.19,0,0,0,1.34.89,4.13,4.13,0,0,0,1.62.32,4.2,4.2,0,0,0,1.67-.33A4.31,4.31,0,0,0,46,20.27a4.29,4.29,0,0,0,1.25-3,4.13,4.13,0,0,0-.33-1.66,4.28,4.28,0,0,0-2.29-2.28A4.25,4.25,0,0,0,42.92,13a4.17,4.17,0,0,0-1.66.33A4.3,4.3,0,0,0,39,15.57,4.13,4.13,0,0,0,38.65,17.23Z"/><path class="cls-1" d="M50.1,17.18a5.6,5.6,0,0,1,.44-2.2,5.78,5.78,0,0,1,3-3.06,5.63,5.63,0,0,1,2.19-.48.85.85,0,0,1,.61.21.72.72,0,0,1,0,1,.85.85,0,0,1-.61.21,4.14,4.14,0,0,0-1.62.37,4.41,4.41,0,0,0-1.33.92,4.12,4.12,0,0,0-.89,1.35,4.19,4.19,0,0,0-.32,1.63v5.1a.73.73,0,0,1-.74.74.73.73,0,0,1-.74-.74Z"/><path class="cls-1" d="M61.54,11.49a5.27,5.27,0,0,1,2.18.46,6.1,6.1,0,0,1,1.82,1.25A6,6,0,0,1,66.79,15a5.47,5.47,0,0,1,.47,2.24v5a.74.74,0,0,1-1.26.52.71.71,0,0,1-.21-.52V20.85a7.43,7.43,0,0,1-1.89,1.51,4.73,4.73,0,0,1-2.39.63,5.74,5.74,0,0,1-4.05-1.62,5.56,5.56,0,0,1-1.24-1.81,5.69,5.69,0,0,1-.45-2.29,5.68,5.68,0,0,1,1.66-4A6,6,0,0,1,59.24,12,6.25,6.25,0,0,1,61.54,11.49Zm-4.31,5.79a4.15,4.15,0,0,0,.33,1.66,4.31,4.31,0,0,0,2.28,2.27,4.27,4.27,0,0,0,3.28,0A4.32,4.32,0,0,0,65.39,19a4.77,4.77,0,0,0,.39-1.7,4.21,4.21,0,0,0-.33-1.67,4.24,4.24,0,0,0-2.29-2.29A4.24,4.24,0,0,0,61.49,13a4.15,4.15,0,0,0-1.66.33,4.29,4.29,0,0,0-2.28,2.29A4.24,4.24,0,0,0,57.23,17.28Z"/><path class="cls-1" d="M74.3,11.29a5.89,5.89,0,0,0,0,11.78,5.72,5.72,0,0,0,4.28-1.92v.77a4.33,4.33,0,0,1-4.28,4.37.82.82,0,0,0-.84.75.8.8,0,0,0,.84.75,5.88,5.88,0,0,0,5.89-5.87V17.17A5.9,5.9,0,0,0,74.3,11.29Zm0,10.26a4.42,4.42,0,0,1-4.37-4.37,4.31,4.31,0,0,1,4.37-4.25,4.23,4.23,0,0,1,4.28,4v.51A4.35,4.35,0,0,1,74.3,21.54Z"/><path class="cls-1" d="M88,15.37a2.5,2.5,0,0,0-.75-1.74,2.4,2.4,0,0,0-2.62-.5,2.25,2.25,0,0,0-.76.52,2.58,2.58,0,0,0-.51.77,2.35,2.35,0,0,0-.19.94v6.91a.74.74,0,1,1-1.48,0V15.37a4,4,0,0,1,.3-1.53,3.78,3.78,0,0,1,.82-1.24,3.92,3.92,0,0,1,1.24-.83,3.78,3.78,0,0,1,1.53-.31,3.74,3.74,0,0,1,1.81.44,3.91,3.91,0,0,1,1.33,1.18,4.17,4.17,0,0,1,1.36-1.18,3.74,3.74,0,0,1,1.81-.44,3.78,3.78,0,0,1,1.52.31,3.89,3.89,0,0,1,2.07,2.07,3.78,3.78,0,0,1,.31,1.53v6.91a.72.72,0,0,1-.22.52.71.71,0,0,1-.52.21.73.73,0,0,1-.74-.74V15.37a2.32,2.32,0,0,0-.19-.94,2.4,2.4,0,0,0-.52-.77,2.44,2.44,0,0,0-.77-.52,2.38,2.38,0,0,0-2.64.52,2.58,2.58,0,0,0-.51.77,2.3,2.3,0,0,0-.19.94v6.91a.74.74,0,1,1-1.48,0Z"/><path class="cls-1" d="M102.81,11.49A5.27,5.27,0,0,1,105,12a6.1,6.1,0,0,1,1.82,1.25A6,6,0,0,1,108.06,15a5.45,5.45,0,0,1,.46,2.24v5a.73.73,0,0,1-.74.74.73.73,0,0,1-.74-.74V20.85a7.5,7.5,0,0,1-1.89,1.51,4.74,4.74,0,0,1-2.39.63,5.73,5.73,0,0,1-4-1.62,5.52,5.52,0,0,1-1.24-1.81A5.74,5.74,0,0,1,97,17.28a5.65,5.65,0,0,1,1.66-4A6,6,0,0,1,100.51,12,6.27,6.27,0,0,1,102.81,11.49Zm-4.31,5.79a4.15,4.15,0,0,0,.33,1.66,4.3,4.3,0,0,0,2.28,2.27,4.27,4.27,0,0,0,3.28,0,4.27,4.27,0,0,0,1.35-.9,4.32,4.32,0,0,0,.93-1.34,4.79,4.79,0,0,0,.39-1.7,4.2,4.2,0,0,0-.34-1.67,4.28,4.28,0,0,0-4-2.62,4.15,4.15,0,0,0-1.66.33,4.28,4.28,0,0,0-2.28,2.29A4.25,4.25,0,0,0,98.49,17.28Z"/></g></g></svg>