<svg xmlns="http://www.w3.org/2000/svg" viewBox="0 0 105.93 44.89"><defs><style>.cls-1,.cls-2{fill:#fff;}.cls-2{fill-rule:evenodd;}</style></defs><title>logo vigilado superserviciosmdpi</title><g id="Capa_2" data-name="Capa 2"><g id="logotipo"><path class="cls-1" d="M38.12,25.18h-.74l-2.84-7.71H36l1.76,5.14,1.86-5.14h1.45Z"/><path class="cls-1" d="M42.16,25.08V20.58h-.71V19.52h2v5.56Zm.67-7.71a.75.75,0,1,1-.53.22A.73.73,0,0,1,42.83,17.36Z"/><path class="cls-1" d="M44.57,26.5l.82-1a2.19,2.19,0,0,0,1.52.62,2.23,2.23,0,0,0,.92-.17q.36-.17.36-.46,0-.49-.8-.49a5.9,5.9,0,0,0-.65.05,6,6,0,0,1-.65.05q-1.34,0-1.34-1A.83.83,0,0,1,45,23.6a1.37,1.37,0,0,1,.52-.39,2,2,0,0,1-.95-1.75A1.89,1.89,0,0,1,45.2,20a2.33,2.33,0,0,1,1.61-.58,2.55,2.55,0,0,1,1.25.28l.51-.59.9.81-.62.45A2.25,2.25,0,0,1,48.59,23a2,2,0,0,1-1.46.57l-.37,0-.21,0-.28.11c-.16.07-.24.15-.24.23s.12.21.36.21a3.1,3.1,0,0,0,.54-.08,3.31,3.31,0,0,1,.65-.08q1.89,0,1.89,1.52a1.49,1.49,0,0,1-.76,1.32,3.35,3.35,0,0,1-1.83.48A3.83,3.83,0,0,1,44.57,26.5Zm1.3-5a1.13,1.13,0,0,0,.27.79.94.94,0,0,0,.73.3.89.89,0,0,0,.71-.29,1.19,1.19,0,0,0,.25-.8,1,1,0,0,0-.27-.71.9.9,0,0,0-.69-.29,1,1,0,0,0-1,1Z"/><path class="cls-1" d="M50.67,25.08V20.58H50V19.52h2v5.56Zm.67-7.71a.75.75,0,1,1-.53.22A.73.73,0,0,1,51.34,17.36Z"/><path class="cls-1" d="M53.71,17.45l1.3-.31v6.25q0,1,.61,1.22a1.07,1.07,0,0,1-1,.57q-.88,0-.88-1.22Z"/><path class="cls-1" d="M59.72,24.52a1.26,1.26,0,0,1-.62.48,2.35,2.35,0,0,1-.92.18,2.07,2.07,0,0,1-1.41-.45,1.6,1.6,0,0,1-.51-1.27A1.79,1.79,0,0,1,57,21.95,3.37,3.37,0,0,1,59,21.4a2.27,2.27,0,0,1,.54.08q0-1-1.24-1a2.75,2.75,0,0,0-1.22.24l-.28-1a3.65,3.65,0,0,1,1.59-.32,2.58,2.58,0,0,1,1.86.58,3.07,3.07,0,0,1,.59,2.19v1.19q0,1.11.45,1.4a.7.7,0,0,1-.36.35,1.45,1.45,0,0,1-.45.06A.72.72,0,0,1,60,25,1.06,1.06,0,0,1,59.72,24.52Zm-.12-2.06a2.76,2.76,0,0,0-.5-.07q-1.54,0-1.54,1,0,.75.87.75A1,1,0,0,0,59.59,23Z"/><path class="cls-1" d="M65.86,25.08v-.34a1.32,1.32,0,0,1-.54.31,2.42,2.42,0,0,1-.79.13,2.34,2.34,0,0,1-1.83-.74A3,3,0,0,1,62,22.39a3,3,0,0,1,.77-2.15,2.5,2.5,0,0,1,1.92-.83,2.54,2.54,0,0,1,1.15.26V17.45l1.3-.31v7.94Zm0-4.23a1.37,1.37,0,0,0-.87-.33,1.52,1.52,0,0,0-1.2.47,2,2,0,0,0-.42,1.36q0,1.73,1.67,1.73a1.26,1.26,0,0,0,.46-.11.84.84,0,0,0,.36-.23Z"/><path class="cls-1" d="M68.09,22.28a2.94,2.94,0,0,1,.73-2.07,2.82,2.82,0,0,1,3.91,0,3,3,0,0,1,.7,2.1,3,3,0,0,1-.71,2.11,2.84,2.84,0,0,1-3.92,0A3,3,0,0,1,68.09,22.28Zm1.35,0q0,1.84,1.32,1.84a1.14,1.14,0,0,0,1-.48,2.24,2.24,0,0,0,.36-1.36q0-1.81-1.32-1.81a1.14,1.14,0,0,0-1,.48A2.18,2.18,0,0,0,69.44,22.28Z"/><path class="cls-1" d="M34.92,34.35l.5-1.21A2.74,2.74,0,0,0,37,33.7q1.19,0,1.19-.83a1.18,1.18,0,0,0-.28-.74,3.6,3.6,0,0,0-1.16-.79,5.52,5.52,0,0,1-1.18-.72,1.94,1.94,0,0,1-.47-.67,2.21,2.21,0,0,1-.16-.86,1.89,1.89,0,0,1,.65-1.46A2.38,2.38,0,0,1,37.24,27a3.09,3.09,0,0,1,1.94.49l-.41,1.16a2.54,2.54,0,0,0-1.5-.51,1,1,0,0,0-.72.25.85.85,0,0,0-.26.64q0,.65,1.45,1.36a4.73,4.73,0,0,1,1.1.69,2.11,2.11,0,0,1,.51.73,2.36,2.36,0,0,1,.18.93,1.88,1.88,0,0,1-.73,1.52,3,3,0,0,1-2,.6A3.48,3.48,0,0,1,34.92,34.35Z"/><path class="cls-1" d="M44.22,34.77V34.3a2.33,2.33,0,0,1-.76.4,2.74,2.74,0,0,1-.89.17q-1.94,0-1.94-2.06V29.21h1.3v3.51q0,1.07,1,1.07a1.56,1.56,0,0,0,.82-.23,1.16,1.16,0,0,0,.5-.53V29.21h1.3v5.56Z"/><path class="cls-1" d="M48.11,34.63v2.32h-1.3V29.21h1.3v.37a1.65,1.65,0,0,1,1.2-.48Q52,29.1,52,32a2.85,2.85,0,0,1-.73,2.1,2.7,2.7,0,0,1-2,.74A2.52,2.52,0,0,1,48.11,34.63Zm0-4.06v2.92a1.27,1.27,0,0,0,.83.29,1.68,1.68,0,0,0,1.29-.43A2,2,0,0,0,50.62,32a2,2,0,0,0-.39-1.39,1.74,1.74,0,0,0-1.29-.4A1.14,1.14,0,0,0,48.11,30.57Z"/><path class="cls-1" d="M58.07,32.38h-4a1.41,1.41,0,0,0,.46,1,1.66,1.66,0,0,0,1.13.37A1.83,1.83,0,0,0,57,33.32l.5,1a3.2,3.2,0,0,1-2,.56,2.71,2.71,0,0,1-2-.74A2.82,2.82,0,0,1,52.75,32a2.88,2.88,0,0,1,.81-2.13,2.85,2.85,0,0,1,3.89-.09,2.47,2.47,0,0,1,.73,1.84A3.66,3.66,0,0,1,58.07,32.38Zm-3.92-1h2.73a1.22,1.22,0,0,0-1.35-1.22A1.34,1.34,0,0,0,54.15,31.41Z"/><path class="cls-1" d="M62.43,30.42a1.36,1.36,0,0,0-.76-.23,1,1,0,0,0-.8.41,1.49,1.49,0,0,0-.35,1v3.17h-1.3V29.21h1.3v.51A1.84,1.84,0,0,1,62,29.1a2.07,2.07,0,0,1,1,.2Z"/><path class="cls-1" d="M63.42,34.41l.46-1a2.05,2.05,0,0,0,1.31.46q.76,0,.76-.54a.66.66,0,0,0-.23-.52,3.5,3.5,0,0,0-.89-.48q-1.44-.6-1.44-1.67a1.31,1.31,0,0,1,.55-1.12,2.32,2.32,0,0,1,1.41-.4,3.54,3.54,0,0,1,1.63.39l-.37,1a1.77,1.77,0,0,0-1.18-.36q-.68,0-.68.54a.48.48,0,0,0,.22.38,4.57,4.57,0,0,0,1,.46,2.44,2.44,0,0,1,1.05.7,1.55,1.55,0,0,1,.32,1,1.46,1.46,0,0,1-.57,1.22,2.49,2.49,0,0,1-1.56.44,3.52,3.52,0,0,1-.89-.09A4.35,4.35,0,0,1,63.42,34.41Z"/><path class="cls-1" d="M73.3,32.38h-4a1.41,1.41,0,0,0,.46,1,1.66,1.66,0,0,0,1.13.37,1.82,1.82,0,0,0,1.35-.46l.5,1a3.2,3.2,0,0,1-2,.56,2.71,2.71,0,0,1-2-.74A2.82,2.82,0,0,1,68,32a2.88,2.88,0,0,1,.81-2.13,2.85,2.85,0,0,1,3.89-.09,2.47,2.47,0,0,1,.73,1.84A3.66,3.66,0,0,1,73.3,32.38Zm-3.92-1h2.73a1.22,1.22,0,0,0-1.35-1.22A1.34,1.34,0,0,0,69.38,31.41Z"/><path class="cls-1" d="M77.66,30.42a1.36,1.36,0,0,0-.76-.23,1,1,0,0,0-.8.41,1.49,1.49,0,0,0-.35,1v3.17h-1.3V29.21h1.3v.51a1.84,1.84,0,0,1,1.45-.61,2.07,2.07,0,0,1,1,.2Z"/><path class="cls-1" d="M81.29,34.87h-.47l-2.51-5.66h1.42l1.33,3.39,1.43-3.39h1.37Z"/><path class="cls-1" d="M84.94,34.77V30.27h-.71V29.21h2v5.56Zm.67-7.71a.75.75,0,1,1-.53.22A.73.73,0,0,1,85.61,27.05Z"/><path class="cls-1" d="M92.12,29.65l-.56,1a1.71,1.71,0,0,0-1.22-.43,1.47,1.47,0,0,0-1.16.49A2,2,0,0,0,88.75,32q0,1.75,1.67,1.75a1.88,1.88,0,0,0,1.27-.48l.48,1a3.3,3.3,0,0,1-1,.45,4.69,4.69,0,0,1-1,.09,2.73,2.73,0,0,1-2-.75A2.83,2.83,0,0,1,87.4,32a2.86,2.86,0,0,1,.82-2.12,3,3,0,0,1,2.22-.81A2.71,2.71,0,0,1,92.12,29.65Z"/><path class="cls-1" d="M93.55,34.77V30.27h-.71V29.21h2v5.56Zm.67-7.71a.75.75,0,1,1-.53.22A.73.73,0,0,1,94.22,27.05Z"/><path class="cls-1" d="M96,32a2.94,2.94,0,0,1,.73-2.07,2.82,2.82,0,0,1,3.91,0,3,3,0,0,1,.7,2.1,3,3,0,0,1-.71,2.11,2.84,2.84,0,0,1-3.92,0A3,3,0,0,1,96,32Zm1.35,0q0,1.84,1.32,1.84a1.14,1.14,0,0,0,1-.48A2.24,2.24,0,0,0,100,32q0-1.81-1.32-1.81a1.14,1.14,0,0,0-1,.48A2.18,2.18,0,0,0,97.36,32Z"/><path class="cls-1" d="M102,34.41l.46-1a2.05,2.05,0,0,0,1.31.46q.76,0,.76-.54a.66.66,0,0,0-.23-.52,3.5,3.5,0,0,0-.89-.48Q102,31.7,102,30.63a1.31,1.31,0,0,1,.55-1.12,2.32,2.32,0,0,1,1.41-.4,3.54,3.54,0,0,1,1.63.39l-.37,1a1.77,1.77,0,0,0-1.18-.36q-.68,0-.68.54a.48.48,0,0,0,.22.38,4.57,4.57,0,0,0,1,.46,2.44,2.44,0,0,1,1.05.7,1.55,1.55,0,0,1,.32,1,1.46,1.46,0,0,1-.57,1.22,2.49,2.49,0,0,1-1.56.44,3.52,3.52,0,0,1-.89-.09A4.34,4.34,0,0,1,102,34.41Z"/><path class="cls-2" d="M12.71,44.89a4.87,4.87,0,0,1-1.78-.62L0,37.79a6.64,6.64,0,0,1,2.13-4.21c2.46-2,5.39-.55,6-.19l4.57,2.71Z"/><path class="cls-2" d="M12.71,36.1l12.36-7.34V38L14.48,44.28a4.87,4.87,0,0,1-1.78.61Z"/><polygon class="cls-2" points="12.33 34.11 12.33 25.75 0.72 18.84 0.72 27.2 12.33 34.11"/><path class="cls-2" d="M14.5,11.87a4.94,4.94,0,0,0-1.78-.62,4.84,4.84,0,0,0-1.77.61L.7,18l7.77,4.62L12.71,20h0l4.57,2.71c.62.36,3.55,1.77,6-.19a6.64,6.64,0,0,0,2.13-4.21Z"/><polygon class="cls-2" points="0.72 27.18 7.73 23.01 0.72 18.84 0.72 27.18"/><circle class="cls-1" cx="12.72" cy="4.96" r="4.96"/></g></g></svg>