<?xml version="1.0" encoding="utf-8"?>
<!-- Generator: Adobe Illustrator 21.0.0, SVG Export Plug-In . SVG Version: 6.00 Build 0)  -->
<svg version="1.1" id="Capa_1" xmlns="http://www.w3.org/2000/svg" xmlns:xlink="http://www.w3.org/1999/xlink" x="0px" y="0px"
	 viewBox="0 0 40.1 42.2" style="enable-background:new 0 0 40.1 42.2;" xml:space="preserve">
<style type="text/css">
	.st0{fill:#FFFFFF;}
</style>
<title>lupa_buscador_2mdpi</title>
<g id="Capa_2">
	<g id="Capa_1-2">
		<path class="st0" d="M39.5,38.8l-7.9-7.5c3.2-3.3,5-7.8,5-12.4C36.8,8.8,28.8,0.4,18.7,0.2S0.2,8,0,18.1c0,0.3,0,0.6,0,0.9
			C0.1,29,8.4,37.2,18.5,37c3.6,0,7.1-1.1,10-3.1l8.1,7.7c0.8,0.8,2,0.8,2.8,0C40.3,40.9,40.3,39.6,39.5,38.8z M4,18.9
			C4,11,10.4,4.6,18.3,4.6S32.6,11,32.6,18.9s-6.4,14.3-14.3,14.3S4,26.8,4,18.9L4,18.9z"/>
	</g>
</g>
</svg>
