<svg xmlns="http://www.w3.org/2000/svg" viewBox="0 0 46.09 47.76"><defs><style>.cls-1{fill:none;stroke:#d9d9d9;stroke-linecap:round;stroke-linejoin:round;stroke-width:2px;}</style></defs><title>icono_nuestra_esencia_2_1</title><g id="Capa_2" data-name="Capa 2"><g id="Modo_de_aislamiento" data-name="Modo de aislamiento"><path class="cls-1" d="M41.06,23a6.75,6.75,0,0,0-4.61,3.88l-4.07,2-.14.07a2.81,2.81,0,0,0-2.1-.82H25.79c-.85,0-3.37-1.49-4.73-1.49H15.52A6.55,6.55,0,0,0,11.37,28a46.74,46.74,0,0,1-4.24,3.52c2.44,2.11,7.79,8.44,8.91,9.43,1.52-1.52.2-2.37,1.46-2.37H31.16c1.14,0,7.36-5.67,8.15-6.56s4.83-6.12,5.77-8.33C44.5,22.84,43,22.51,41.06,23Z"/><path class="cls-1" d="M21.92,33.3h8.22a2.62,2.62,0,1,0,0-5.23H25.79c-.85,0-3.37-1.49-4.73-1.49H15.52A6.55,6.55,0,0,0,11.37,28a46.75,46.75,0,0,1-4.24,3.52c2.44,2.11,7.94,8.07,9.06,9.06,1.52-1.52.06-2,1.31-2H31.16c1.14,0,7.36-5.67,8.15-6.56s4.83-6.12,5.77-8.33c-.59-.8-2.13-1.13-4-.69a6.75,6.75,0,0,0-4.61,3.88l-4.07,2"/><rect class="cls-1" x="5.58" y="30.62" width="7.18" height="15.93" transform="translate(-24.6 17.79) rotate(-45.01)"/><rect class="cls-1" x="5.58" y="30.62" width="7.18" height="15.93" transform="translate(-24.6 17.79) rotate(-45.01)"/><line class="cls-1" x1="5.17" y1="34.78" x2="7.14" y2="36.75"/><path class="cls-1" d="M27.29,19a2.53,2.53,0,0,0,2.39-2.41V11.23c0-2-3.89-3-6-3s-6,1-6,3v5.41A2.53,2.53,0,0,0,20.13,19"/><path class="cls-1" d="M34.45,20.25c1.16,0,2.39-.63,2.39-1.8V13c0-2-3.5-3-5.37-3l-.6,0"/><path class="cls-1" d="M23.71,6.41A2.19,2.19,0,0,0,26.1,4.25V3.17A2.19,2.19,0,0,0,23.71,1a2.19,2.19,0,0,0-2.39,2.17V4.25A2.19,2.19,0,0,0,23.71,6.41Z"/><line class="cls-1" x1="34.45" y1="22.66" x2="34.45" y2="14.24"/><line class="cls-1" x1="27.29" y1="22.66" x2="27.29" y2="12.43"/><line class="cls-1" x1="20.13" y1="12.43" x2="20.13" y2="22.66"/><path class="cls-1" d="M32.06,8.22a2.19,2.19,0,0,0,2.39-2.17V5A2.19,2.19,0,0,0,32.06,2.8,2.19,2.19,0,0,0,29.68,5V6.05A2.19,2.19,0,0,0,32.06,8.22Z"/><path class="cls-1" d="M13,20.25c-1.16,0-2.39-.63-2.39-1.8V13c0-2,3.5-3,5.37-3l.6,0"/><line class="cls-1" x1="12.97" y1="22.66" x2="12.97" y2="14.24"/><path class="cls-1" d="M15.36,8.22A2.19,2.19,0,0,1,13,6.05V5A2.19,2.19,0,0,1,15.36,2.8,2.19,2.19,0,0,1,17.74,5V6.05A2.19,2.19,0,0,1,15.36,8.22Z"/></g></g></svg>