<svg xmlns="http://www.w3.org/2000/svg" viewBox="0 0 337.36 140.93"><defs><style>.cls-1{fill:#c6c6c6;}.cls-2{fill:#878787;}</style></defs><title>Objeto_4</title><g id="Capa_2" data-name="Capa 2"><g id="Capa_2-2" data-name="Capa 2"><rect class="cls-1" x="202.64" y="3.86" width="27.76" height="71.68" transform="translate(35.34 164.73) rotate(-45)"/><path class="cls-2" d="M232,76.27l-52.1-52.1,21-21,52.1,52.1Zm-49.27-52.1L232,73.44l18.21-18.21L201,6Z"/><path class="cls-1" d="M321.19,56.53,336,75.67a2,2,0,0,1-.65,2.73A274.83,274.83,0,0,1,2,78.4a2,2,0,0,1-.65-2.73L16.16,56.53a1.89,1.89,0,0,1,2.64-.19,247.08,247.08,0,0,0,299.75,0A1.89,1.89,0,0,1,321.19,56.53Z"/><path class="cls-2" d="M168.68,135.74A275.52,275.52,0,0,1,81.43,121.6,275,275,0,0,1,1.36,79.2,3.39,3.39,0,0,1,0,77a2.55,2.55,0,0,1,.5-1.91L15.37,55.91a2.89,2.89,0,0,1,4-.37A244.06,244.06,0,0,0,168.68,106,244.07,244.07,0,0,0,317.95,55.54a2.89,2.89,0,0,1,4,.37h0l14.85,19.15a2.55,2.55,0,0,1,.5,1.92A3.39,3.39,0,0,1,336,79.2a275,275,0,0,1-80.07,42.41A275.52,275.52,0,0,1,168.68,135.74ZM17.52,56.89a.71.71,0,0,0-.57.25L2.1,76.29a.58.58,0,0,0-.09.43,1.41,1.41,0,0,0,.56.89,273,273,0,0,0,79.49,42.1,273.52,273.52,0,0,0,86.62,14,273.52,273.52,0,0,0,86.61-14,273,273,0,0,0,79.49-42.1,1.4,1.4,0,0,0,.56-.89.58.58,0,0,0-.09-.43L320.41,57.14a.91.91,0,0,0-1.24,0A246,246,0,0,1,168.68,108,246,246,0,0,1,18.2,57.13,1.13,1.13,0,0,0,17.52,56.89Z"/><rect class="cls-1" x="103.44" y="5.14" width="27.76" height="71.68" transform="translate(171.31 152.91) rotate(-135)"/><path class="cls-2" d="M101.79,77.54l-21-21,52.1-52.1,21,21Zm-18.21-21,18.21,18.21,49.27-49.27L132.85,7.23Z"/><polygon class="cls-1" points="137.54 0.99 157.17 20.62 129.38 48.41 126.67 51.12 130.07 54.52 106.27 52.4 103.18 27.64 107.04 31.5 137.54 0.99"/><path class="cls-2" d="M130.07,55.52H130l-23.8-2.12a1,1,0,0,1-.9-.87l-3.08-24.77a1,1,0,0,1,1.7-.83L107,30.08,136.84.28a1,1,0,0,1,1.41,0l19.63,19.63a1,1,0,0,1,0,1.41l-29.8,29.79,2.7,2.7a1,1,0,0,1-.71,1.71Zm-22.91-4,20.26,1.8L126,51.83a1,1,0,0,1,0-1.41l29.8-29.79L137.54,2.4,107.75,32.2a1,1,0,0,1-1.41,0l-1.8-1.8Z"/><path class="cls-1" d="M66.64,114.78c0-7.25.13-23.39,0-27.76,61.79,24.88,117,19.52,117,19.52v-4.81l15.33,18.5-15.33,19.69,0-5.59S123.58,139.4,66.64,114.78Z"/><path class="cls-2" d="M183.61,140.93a1,1,0,0,1-1-1v-4.52c-8.42.52-64,2.92-116.38-19.71a1,1,0,0,1-.6-.92c0-2.23,0-5.3,0-8.61,0-7.55.06-16.11,0-19.12a1,1,0,0,1,1.37-1c56.57,22.78,108.19,20.06,115.6,19.53v-3.89a1,1,0,0,1,1.77-.64l15.33,18.5a1,1,0,0,1,0,1.25L184.4,140.54A1,1,0,0,1,183.61,140.93Zm0-7.59a1,1,0,0,1,1,1V137l13-16.75L184.61,104.5v2a1,1,0,0,1-.9,1c-.55.05-55.29,5-116-19,0,3.82,0,11.12,0,17.67,0,3,0,5.79,0,7.94,55.88,24,115.31,19.27,115.9,19.22Z"/><polygon class="cls-1" points="237.36 34.09 233.95 37.5 220.71 24.22 224.57 20.36 199.8 23.45 197.68 47.25 201.09 43.85 214.33 57.12 210.47 60.98 235.24 57.9 237.36 34.09"/><path class="cls-2" d="M210.47,62a1,1,0,0,1-.71-1.71l3.15-3.15L201.09,45.26l-2.7,2.7a1,1,0,0,1-1.7-.8l2.12-23.8a1,1,0,0,1,.87-.9l24.77-3.08a1,1,0,0,1,.83,1.7l-3.15,3.15L234,36.08l2.7-2.7a1,1,0,0,1,1.7.8L236.24,58a1,1,0,0,1-.87.9L210.59,62Zm-9.38-19.13h0a1,1,0,0,1,.71.29L215,56.41a1,1,0,0,1,0,1.41l-1.8,1.8L234.31,57l1.8-20.26-1.46,1.46a1,1,0,0,1-.71.29h0a1,1,0,0,1-.71-.29L220,24.93a1,1,0,0,1,0-1.41l1.8-1.8-21.08,2.62-1.8,20.26,1.46-1.46A1,1,0,0,1,201.09,42.85Z"/></g></g></svg>