<svg xmlns="http://www.w3.org/2000/svg" viewBox="0 0 81.3 83.3"><defs><style>.cls-1{fill:#d9d9d9;}</style></defs><title>icono_relaciones_con_grupos</title><g id="Capa_2" data-name="Capa 2"><g id="Capa_1-2" data-name="Capa 1"><path class="cls-1" d="M77.8,20.2a12.81,12.81,0,0,0-3.7-4L74,16.08a.84.84,0,0,1-.14-.43l0-.1a1,1,0,0,1,.17-.79A8.78,8.78,0,0,0,67.6,0a8.86,8.86,0,0,0-6.69,14.71,1,1,0,0,1,.29,1,.75.75,0,0,1-.13.34L61,16.2h0a13.2,13.2,0,0,0-3.79,4A22.08,22.08,0,0,0,53.6,32.1a7.4,7.4,0,0,0,2.2,5.2h0C57.9,39.4,62.13,40.6,67.4,40.6s9.5-1.2,11.71-3.31A7,7,0,0,0,81.3,32.1,22.79,22.79,0,0,0,77.8,20.2ZM67.6,36.8c-4,0-7.76-.86-9.15-2.05a3.73,3.73,0,0,1-1-2.65c0-9,5.94-14.6,10.2-14.6s10.2,5.2,10.2,14.6a3.27,3.27,0,0,1-1,2.49C75.37,35.93,71.75,36.8,67.6,36.8ZM67.5,3.4a5.31,5.31,0,0,1,5.3,5.3A5.37,5.37,0,0,1,67.52,14h0a5.14,5.14,0,0,1-3.69-1.55,5.32,5.32,0,0,1,3.67-9Z"/><path class="cls-1" d="M25.51,37.29A7,7,0,0,0,27.7,32.1a22.8,22.8,0,0,0-3.51-11.91,16,16,0,0,0-3.79-4l-.06-.12a.84.84,0,0,1-.14-.43l0-.1a1,1,0,0,1,.16-.79,8.72,8.72,0,0,0,2.35-6A8.85,8.85,0,1,0,7.21,14.71a1.2,1.2,0,0,1,.29,1,.7.7,0,0,1-.13.37l-.06.12h0a14.3,14.3,0,0,0-3.69,4A22.08,22.08,0,0,0,0,32.1a7,7,0,0,0,2.2,5.2c2.1,2.1,6.33,3.3,11.6,3.3S23.3,39.4,25.51,37.29ZM13.8,17.5C18,17.5,24,22.7,24,32.1a3.28,3.28,0,0,1-1,2.5c-1.42,1.32-5.15,2.2-9.3,2.2S6,36,4.64,34.74a3.72,3.72,0,0,1-1-2.64C3.6,23.05,9.54,17.5,13.8,17.5Zm0-3.5h0a5.14,5.14,0,0,1-3.69-1.55,5.28,5.28,0,1,1,9-3.75A5.37,5.37,0,0,1,13.82,14Z"/><path class="cls-1" d="M32.2,21.3h18A1.78,1.78,0,0,0,52,19.4a1.78,1.78,0,0,0-1.8-1.9h-18a1.84,1.84,0,0,0-1.78,2A1.74,1.74,0,0,0,32.2,21.3Z"/><path class="cls-1" d="M51.49,62.89a16.06,16.06,0,0,0-3.79-4l-.06-.11a.85.85,0,0,1-.14-.43l0-.1a1,1,0,0,1,.16-.79,8.72,8.72,0,0,0,2.35-6,8.85,8.85,0,0,0-17.7,0,9,9,0,0,0,2.22,5.92,1.19,1.19,0,0,1,.28,1,.7.7,0,0,1-.13.38l-.06.12h0a13.23,13.23,0,0,0-3.8,4A22.81,22.81,0,0,0,27.3,74.8,6.83,6.83,0,0,0,29.49,80c2.11,2.1,6.34,3.31,11.61,3.31S50.6,82.1,52.81,80A7,7,0,0,0,55,74.8a22.8,22.8,0,0,0-3.5-11.9ZM41.1,79.5c-4.22,0-7.71-.8-9.06-2.06a3.72,3.72,0,0,1-1-2.64c0-9,5.94-14.6,10.2-14.6s10.2,5.2,10.2,14.6a3.28,3.28,0,0,1-1,2.5C48.95,78.66,45.38,79.5,41.1,79.5Zm.1-22.8a5.25,5.25,0,0,1,0-10.5,5.32,5.32,0,0,1,5.3,5.18A5.25,5.25,0,0,1,41.2,56.7Z"/><path class="cls-1" d="M27,57.49,14.3,44.8h0a1.85,1.85,0,0,0-2.65.16,1.75,1.75,0,0,0,0,2.55L24.3,60.2a1.75,1.75,0,0,0,1.25.55,2,2,0,0,0,1.36-.58A1.83,1.83,0,0,0,27,57.49Z"/><path class="cls-1" d="M68.1,44.9,55.4,57.6a1.79,1.79,0,0,0,0,2.62,2,2,0,0,0,1.4.63,1.84,1.84,0,0,0,1.28-.55l12.7-12.7A1.91,1.91,0,0,0,68.1,44.9Z"/></g></g></svg>