<svg xmlns="http://www.w3.org/2000/svg" viewBox="0 0 165.56 165.56"><defs><style>.cls-1{fill:#d9d9d9;}.cls-2{fill:#2e73ba;}.cls-3,.cls-4{fill:#fff;}.cls-4{stroke:#fff;stroke-miterlimit:10;stroke-width:0.25px;}</style></defs><title>seguimiento</title><g id="Capa_2" data-name="Capa 2"><g id="Capa_2-2" data-name="Capa 2"><circle class="cls-1" cx="82.78" cy="82.78" r="82.78"/><circle class="cls-2" cx="82.78" cy="82.78" r="76.63"/><path class="cls-3" d="M49.66,80.12a2.45,2.45,0,0,1-1,2.06,4.15,4.15,0,0,1-2.6.74,6.5,6.5,0,0,1-2.73-.46V81.34a7.24,7.24,0,0,0,1.34.41,7,7,0,0,0,1.44.15,2.9,2.9,0,0,0,1.75-.44,1.45,1.45,0,0,0,.59-1.23,1.57,1.57,0,0,0-.21-.85,1.92,1.92,0,0,0-.7-.61,9.8,9.8,0,0,0-1.49-.64,4.74,4.74,0,0,1-2-1.18,2.61,2.61,0,0,1-.6-1.78,2.22,2.22,0,0,1,.87-1.84,3.61,3.61,0,0,1,2.3-.68,6.78,6.78,0,0,1,2.74.55l-.36,1a6.19,6.19,0,0,0-2.41-.52,2.33,2.33,0,0,0-1.44.4,1.31,1.31,0,0,0-.52,1.1,1.69,1.69,0,0,0,.19.85,1.8,1.8,0,0,0,.65.61,8,8,0,0,0,1.39.61,5.5,5.5,0,0,1,2.16,1.2A2.37,2.37,0,0,1,49.66,80.12Z"/><path class="cls-3" d="M54.56,82.92a3.44,3.44,0,0,1-2.62-1,3.92,3.92,0,0,1-1-2.81,4.35,4.35,0,0,1,.89-2.88,3,3,0,0,1,2.4-1.07,2.83,2.83,0,0,1,2.23.93,3.55,3.55,0,0,1,.82,2.44v.72H52.16a3,3,0,0,0,.67,2,2.3,2.3,0,0,0,1.78.68A6,6,0,0,0,57,81.42v1a6,6,0,0,1-1.14.37A6.33,6.33,0,0,1,54.56,82.92Zm-.31-6.82a1.86,1.86,0,0,0-1.44.59,2.71,2.71,0,0,0-.63,1.63H56.1a2.49,2.49,0,0,0-.48-1.64A1.68,1.68,0,0,0,54.25,76.1Z"/><path class="cls-3" d="M65.24,75.29V76l-1.39.16a2.44,2.44,0,0,1,.49,1.5,2.22,2.22,0,0,1-.75,1.76,3,3,0,0,1-2.06.66A3.47,3.47,0,0,1,60.9,80a1.12,1.12,0,0,0-.72,1,.49.49,0,0,0,.25.46,1.85,1.85,0,0,0,.87.15h1.33a3,3,0,0,1,1.87.51,1.78,1.78,0,0,1,.65,1.49,2.13,2.13,0,0,1-1,1.9,5.35,5.35,0,0,1-2.91.65A4,4,0,0,1,59,85.6a1.77,1.77,0,0,1-.8-1.54,1.73,1.73,0,0,1,.44-1.18,2.23,2.23,0,0,1,1.23-.68,1.18,1.18,0,0,1-.48-.4,1.06,1.06,0,0,1-.2-.64,1.21,1.21,0,0,1,.22-.72,2.3,2.3,0,0,1,.69-.59,2,2,0,0,1-.95-.81,2.39,2.39,0,0,1-.37-1.31,2.43,2.43,0,0,1,.74-1.9,3,3,0,0,1,2.09-.67,3.82,3.82,0,0,1,1.06.14Zm-6,8.75a1,1,0,0,0,.51.92,2.83,2.83,0,0,0,1.47.31,4.11,4.11,0,0,0,2.12-.43,1.31,1.31,0,0,0,.69-1.16.92.92,0,0,0-.38-.84,2.94,2.94,0,0,0-1.42-.24H60.9a1.79,1.79,0,0,0-1.2.37A1.32,1.32,0,0,0,59.27,84Zm.62-6.35a1.53,1.53,0,0,0,.44,1.19,1.78,1.78,0,0,0,1.24.4,1.45,1.45,0,0,0,1.66-1.61A1.49,1.49,0,0,0,61.54,76a1.66,1.66,0,0,0-1.23.43A1.73,1.73,0,0,0,59.88,77.69Z"/><path class="cls-3" d="M67.71,75.29v4.86a2,2,0,0,0,.42,1.37,1.7,1.7,0,0,0,1.31.45,2.13,2.13,0,0,0,1.72-.64,3.24,3.24,0,0,0,.54-2.1V75.29h1.13v7.49h-.94l-.16-1h-.06a2.26,2.26,0,0,1-1,.85,3.24,3.24,0,0,1-1.41.29,2.87,2.87,0,0,1-2-.65,2.77,2.77,0,0,1-.68-2.08v-4.9Z"/><path class="cls-3" d="M75,73.26a.75.75,0,0,1,.19-.57.71.71,0,0,1,1,0,.74.74,0,0,1,.2.57.76.76,0,0,1-.2.57.7.7,0,0,1-1,0A.77.77,0,0,1,75,73.26Zm1.23,9.52H75.09V75.29h1.13Z"/><path class="cls-3" d="M88,82.78V77.91a2,2,0,0,0-.38-1.34,1.48,1.48,0,0,0-1.19-.45,1.92,1.92,0,0,0-1.57.61,2.89,2.89,0,0,0-.51,1.87v4.18H83.27V77.91a2,2,0,0,0-.38-1.34,1.49,1.49,0,0,0-1.2-.45,1.85,1.85,0,0,0-1.56.64,3.45,3.45,0,0,0-.5,2.09v3.93H78.5V75.29h.92l.18,1h.05a2.23,2.23,0,0,1,.91-.85,2.76,2.76,0,0,1,1.31-.31,2.23,2.23,0,0,1,2.3,1.27h.05a2.39,2.39,0,0,1,1-.93,3,3,0,0,1,1.45-.34,2.54,2.54,0,0,1,1.9.65,2.93,2.93,0,0,1,.63,2.09v4.89Z"/><path class="cls-3" d="M91.28,73.26a.75.75,0,0,1,.19-.57.71.71,0,0,1,1,0,.74.74,0,0,1,.2.57.76.76,0,0,1-.2.57.7.7,0,0,1-1,0A.77.77,0,0,1,91.28,73.26Zm1.23,9.52H91.38V75.29h1.13Z"/><path class="cls-3" d="M97.94,82.92a3.44,3.44,0,0,1-2.62-1,3.92,3.92,0,0,1-1-2.81,4.35,4.35,0,0,1,.89-2.88,3,3,0,0,1,2.4-1.07,2.83,2.83,0,0,1,2.23.93,3.55,3.55,0,0,1,.82,2.44v.72H95.54a3,3,0,0,0,.67,2,2.3,2.3,0,0,0,1.78.68,6,6,0,0,0,2.39-.51v1a6,6,0,0,1-1.14.37A6.33,6.33,0,0,1,97.94,82.92Zm-.31-6.82a1.86,1.86,0,0,0-1.44.59,2.71,2.71,0,0,0-.63,1.63h3.92A2.49,2.49,0,0,0,99,76.67,1.68,1.68,0,0,0,97.64,76.1Z"/><path class="cls-3" d="M107.62,82.78V77.93a2,2,0,0,0-.42-1.37,1.7,1.7,0,0,0-1.31-.45,2.15,2.15,0,0,0-1.72.64,3.21,3.21,0,0,0-.55,2.1v3.93h-1.13V75.29h.92l.18,1h.05a2.31,2.31,0,0,1,1-.86,3.17,3.17,0,0,1,1.4-.3,2.85,2.85,0,0,1,2,.65,2.78,2.78,0,0,1,.68,2.09v4.89Z"/><path class="cls-3" d="M113.37,82a3.75,3.75,0,0,0,.58,0l.44-.09v.87a2,2,0,0,1-.54.15,4.06,4.06,0,0,1-.65.06q-2.17,0-2.17-2.29V76.17H110v-.55l1.07-.47.48-1.6h.66v1.74h2.17v.88h-2.17v4.41a1.52,1.52,0,0,0,.32,1A1.12,1.12,0,0,0,113.37,82Z"/><path class="cls-3" d="M122.21,79a4.13,4.13,0,0,1-.92,2.86,3.25,3.25,0,0,1-2.55,1,3.38,3.38,0,0,1-1.78-.47,3.11,3.11,0,0,1-1.2-1.35,4.72,4.72,0,0,1-.42-2.06,4.13,4.13,0,0,1,.92-2.85,3.24,3.24,0,0,1,2.54-1,3.17,3.17,0,0,1,2.5,1A4.12,4.12,0,0,1,122.21,79Zm-5.71,0a3.56,3.56,0,0,0,.57,2.19,2.28,2.28,0,0,0,3.38,0A3.53,3.53,0,0,0,121,79a3.48,3.48,0,0,0-.58-2.17,2,2,0,0,0-1.71-.74,2,2,0,0,0-1.68.73A3.52,3.52,0,0,0,116.51,79Z"/><path class="cls-3" d="M43.35,92.09h1.22l1.64,4.27a16.28,16.28,0,0,1,.67,2.11h.05q.09-.35.37-1.19t1.86-5.19h1.22l-3.22,8.53A4.26,4.26,0,0,1,46,102.41a2.38,2.38,0,0,1-1.57.53,4.58,4.58,0,0,1-1-.12v-.91a4,4,0,0,0,.84.08A1.73,1.73,0,0,0,46,100.69l.42-1.07Z"/><path class="cls-3" d="M58.12,99.72a3.44,3.44,0,0,1-2.62-1,3.92,3.92,0,0,1-1-2.81A4.35,4.35,0,0,1,55.42,93,3,3,0,0,1,57.82,92a2.83,2.83,0,0,1,2.23.93,3.55,3.55,0,0,1,.82,2.44V96H55.71a3,3,0,0,0,.67,2,2.3,2.3,0,0,0,1.78.68,6,6,0,0,0,2.39-.51v1a6,6,0,0,1-1.14.37A6.33,6.33,0,0,1,58.12,99.72Zm-.31-6.82a1.86,1.86,0,0,0-1.44.59,2.71,2.71,0,0,0-.63,1.63h3.92a2.49,2.49,0,0,0-.48-1.64A1.68,1.68,0,0,0,57.81,92.9Z"/><path class="cls-3" d="M64.31,99.58l-2.84-7.49h1.22l1.61,4.44a21.06,21.06,0,0,1,.64,2H65a15.37,15.37,0,0,1,.47-1.5q.4-1.14,1.79-5h1.22l-2.84,7.49Z"/><path class="cls-3" d="M74.15,99.58l-.23-1.07h-.05a3.14,3.14,0,0,1-1.12,1,3.39,3.39,0,0,1-1.39.25,2.5,2.5,0,0,1-1.75-.57A2.09,2.09,0,0,1,69,97.51q0-2.27,3.63-2.38l1.27,0v-.46a1.89,1.89,0,0,0-.38-1.3,1.55,1.55,0,0,0-1.21-.42,4.94,4.94,0,0,0-2.12.57l-.35-.87A5.35,5.35,0,0,1,71,92.13,5.23,5.23,0,0,1,72.36,92a2.86,2.86,0,0,1,2,.59A2.49,2.49,0,0,1,75,94.47v5.11Zm-2.56-.8a2.31,2.31,0,0,0,1.67-.58,2.15,2.15,0,0,0,.6-1.63v-.68l-1.13,0a4.14,4.14,0,0,0-2,.42,1.27,1.27,0,0,0-.6,1.16,1.17,1.17,0,0,0,.37.94A1.55,1.55,0,0,0,71.58,98.78Z"/><path class="cls-3" d="M78.32,99.58H77.18V88.94h1.13Z"/><path class="cls-3" d="M81.65,92.09v4.86a2,2,0,0,0,.42,1.37,1.7,1.7,0,0,0,1.31.45,2.13,2.13,0,0,0,1.72-.64,3.24,3.24,0,0,0,.54-2.1V92.09h1.13v7.49h-.94l-.16-1h-.06a2.26,2.26,0,0,1-1,.85,3.24,3.24,0,0,1-1.41.29,2.87,2.87,0,0,1-2-.65A2.77,2.77,0,0,1,80.5,97v-4.9Z"/><path class="cls-3" d="M93.65,99.58l-.23-1.07h-.05a3.14,3.14,0,0,1-1.12,1,3.39,3.39,0,0,1-1.39.25,2.5,2.5,0,0,1-1.75-.57,2.09,2.09,0,0,1-.63-1.63q0-2.27,3.63-2.38l1.27,0v-.46a1.89,1.89,0,0,0-.38-1.3,1.55,1.55,0,0,0-1.21-.42,4.94,4.94,0,0,0-2.12.57l-.35-.87a5.35,5.35,0,0,1,1.21-.47A5.23,5.23,0,0,1,91.85,92a2.86,2.86,0,0,1,2,.59,2.49,2.49,0,0,1,.65,1.91v5.11Zm-2.56-.8a2.31,2.31,0,0,0,1.67-.58,2.15,2.15,0,0,0,.6-1.63v-.68l-1.13,0a4.14,4.14,0,0,0-2,.42,1.27,1.27,0,0,0-.6,1.16,1.17,1.17,0,0,0,.37.94A1.55,1.55,0,0,0,91.08,98.78Z"/><path class="cls-3" d="M99.68,99.72a3.2,3.2,0,0,1-2.52-1,4.12,4.12,0,0,1-.89-2.83A4.25,4.25,0,0,1,97.17,93a3.26,3.26,0,0,1,2.58-1,5.14,5.14,0,0,1,1.08.12,3.55,3.55,0,0,1,.85.27l-.35,1a5.36,5.36,0,0,0-.82-.25,3.7,3.7,0,0,0-.79-.1q-2.28,0-2.28,2.91A3.46,3.46,0,0,0,98,98a1.94,1.94,0,0,0,1.65.74,5.05,5.05,0,0,0,1.92-.4v1A4.09,4.09,0,0,1,99.68,99.72Z"/><path class="cls-3" d="M103.11,90.06a.75.75,0,0,1,.19-.57.71.71,0,0,1,1,0,.74.74,0,0,1,.2.57.76.76,0,0,1-.2.57.7.7,0,0,1-1,0A.77.77,0,0,1,103.11,90.06Zm1.23,9.52h-1.13V92.09h1.13Z"/><path class="cls-3" d="M113.08,95.83a4.13,4.13,0,0,1-.92,2.86,3.25,3.25,0,0,1-2.55,1,3.38,3.38,0,0,1-1.78-.47,3.11,3.11,0,0,1-1.2-1.35,4.72,4.72,0,0,1-.42-2.06,4.13,4.13,0,0,1,.92-2.85,3.24,3.24,0,0,1,2.54-1,3.17,3.17,0,0,1,2.5,1A4.12,4.12,0,0,1,113.08,95.83Zm-5.71,0a3.56,3.56,0,0,0,.57,2.19,2.28,2.28,0,0,0,3.38,0,3.53,3.53,0,0,0,.58-2.19,3.48,3.48,0,0,0-.58-2.17,2,2,0,0,0-1.71-.74,2,2,0,0,0-1.68.73A3.52,3.52,0,0,0,107.37,95.83Zm1.31-4.9q.33-.42.71-1a12,12,0,0,0,.6-1h1.38V89a10.07,10.07,0,0,1-.9,1.09,10.2,10.2,0,0,1-1,1h-.76Z"/><path class="cls-3" d="M120.05,99.58V94.73a2,2,0,0,0-.42-1.37,1.7,1.7,0,0,0-1.31-.45,2.15,2.15,0,0,0-1.72.64,3.21,3.21,0,0,0-.55,2.1v3.93h-1.13V92.09h.92l.18,1h.05a2.31,2.31,0,0,1,1-.86,3.17,3.17,0,0,1,1.4-.3,2.85,2.85,0,0,1,2,.65,2.78,2.78,0,0,1,.68,2.09v4.89Z"/><path class="cls-3" d="M35.05,108.75a4.44,4.44,0,0,1,.9.08l-.16,1.05a3.86,3.86,0,0,0-.82-.1,2,2,0,0,0-1.55.74,2.69,2.69,0,0,0-.65,1.84v4H31.63v-7.49h.94l.13,1.39h.05a3.31,3.31,0,0,1,1-1.13A2.26,2.26,0,0,1,35.05,108.75Z"/><path class="cls-3" d="M37.11,106.86a.75.75,0,0,1,.19-.57.71.71,0,0,1,1,0,.74.74,0,0,1,.2.57.76.76,0,0,1-.2.57.7.7,0,0,1-1,0A.77.77,0,0,1,37.11,106.86Zm1.23,9.52H37.21v-7.49h1.13Z"/><path class="cls-3" d="M43.77,116.52a3.44,3.44,0,0,1-2.62-1,3.92,3.92,0,0,1-1-2.81,4.35,4.35,0,0,1,.89-2.88,3,3,0,0,1,2.4-1.07,2.83,2.83,0,0,1,2.23.93,3.55,3.55,0,0,1,.82,2.44v.72H41.37a3,3,0,0,0,.67,2,2.3,2.3,0,0,0,1.78.68,6,6,0,0,0,2.39-.51v1a6,6,0,0,1-1.14.37A6.33,6.33,0,0,1,43.77,116.52Zm-.31-6.82a1.86,1.86,0,0,0-1.44.59,2.71,2.71,0,0,0-.63,1.63h3.92a2.49,2.49,0,0,0-.48-1.64A1.68,1.68,0,0,0,43.47,109.7Z"/><path class="cls-3" d="M53.16,114.33a1.88,1.88,0,0,1-.78,1.61,3.67,3.67,0,0,1-2.19.57,4.76,4.76,0,0,1-2.32-.47V115a5.58,5.58,0,0,0,1.16.43,4.85,4.85,0,0,0,1.19.16,2.7,2.7,0,0,0,1.37-.28,1,1,0,0,0,.1-1.61,6,6,0,0,0-1.48-.73,8.09,8.09,0,0,1-1.49-.68,2.06,2.06,0,0,1-.66-.66,1.73,1.73,0,0,1-.21-.88,1.68,1.68,0,0,1,.75-1.45,3.48,3.48,0,0,1,2-.53,6,6,0,0,1,2.37.49l-.4.92a5.44,5.44,0,0,0-2-.46,2.35,2.35,0,0,0-1.22.25.78.78,0,0,0-.41.7.84.84,0,0,0,.15.51,1.51,1.51,0,0,0,.5.4,10.91,10.91,0,0,0,1.31.55,4.9,4.9,0,0,1,1.8,1A1.73,1.73,0,0,1,53.16,114.33Z"/><path class="cls-3" d="M61,108.89v.72l-1.39.16a2.44,2.44,0,0,1,.49,1.5,2.22,2.22,0,0,1-.75,1.76,3,3,0,0,1-2.06.66,3.47,3.47,0,0,1-.63-.05,1.12,1.12,0,0,0-.72,1,.49.49,0,0,0,.25.46,1.85,1.85,0,0,0,.87.15h1.33a3,3,0,0,1,1.87.51,1.78,1.78,0,0,1,.65,1.49,2.13,2.13,0,0,1-1,1.9,5.35,5.35,0,0,1-2.91.65,4,4,0,0,1-2.27-.55,1.77,1.77,0,0,1-.8-1.54,1.73,1.73,0,0,1,.44-1.18,2.23,2.23,0,0,1,1.23-.68,1.18,1.18,0,0,1-.48-.4,1.06,1.06,0,0,1-.2-.64,1.21,1.21,0,0,1,.22-.72,2.3,2.3,0,0,1,.69-.59,2,2,0,0,1-.95-.81,2.39,2.39,0,0,1-.37-1.31,2.43,2.43,0,0,1,.74-1.9,3,3,0,0,1,2.09-.67,3.82,3.82,0,0,1,1.06.14Zm-6,8.75a1,1,0,0,0,.51.92,2.83,2.83,0,0,0,1.47.31,4.11,4.11,0,0,0,2.12-.43,1.31,1.31,0,0,0,.69-1.16.92.92,0,0,0-.38-.84,2.94,2.94,0,0,0-1.42-.24H56.65a1.79,1.79,0,0,0-1.2.37A1.32,1.32,0,0,0,55,117.64Zm.62-6.35a1.53,1.53,0,0,0,.44,1.19,1.78,1.78,0,0,0,1.24.4A1.45,1.45,0,0,0,59,111.27a1.49,1.49,0,0,0-1.68-1.69,1.66,1.66,0,0,0-1.23.43A1.73,1.73,0,0,0,55.63,111.29Z"/><path class="cls-3" d="M68.86,112.63a4.13,4.13,0,0,1-.92,2.86,3.25,3.25,0,0,1-2.55,1A3.38,3.38,0,0,1,63.6,116a3.11,3.11,0,0,1-1.2-1.35,4.72,4.72,0,0,1-.42-2.06,4.13,4.13,0,0,1,.92-2.85,3.24,3.24,0,0,1,2.54-1,3.17,3.17,0,0,1,2.5,1A4.12,4.12,0,0,1,68.86,112.63Zm-5.71,0a3.56,3.56,0,0,0,.57,2.19,2.28,2.28,0,0,0,3.38,0,3.53,3.53,0,0,0,.58-2.19,3.48,3.48,0,0,0-.58-2.17,2,2,0,0,0-1.71-.74,2,2,0,0,0-1.68.73A3.52,3.52,0,0,0,63.15,112.63Z"/><path class="cls-3" d="M79.3,115.37h-.06a2.67,2.67,0,0,1-2.35,1.14,2.78,2.78,0,0,1-2.29-1,4.42,4.42,0,0,1-.82-2.86,4.5,4.5,0,0,1,.82-2.88,2.76,2.76,0,0,1,2.28-1,2.72,2.72,0,0,1,2.34,1.11h.09l0-.54,0-.53v-3h1.13v10.64h-.92Zm-2.27.19a2.07,2.07,0,0,0,1.69-.63,3.2,3.2,0,0,0,.52-2v-.24a3.76,3.76,0,0,0-.53-2.27A2,2,0,0,0,77,109.7a1.74,1.74,0,0,0-1.53.78,3.85,3.85,0,0,0-.53,2.19,3.7,3.7,0,0,0,.53,2.17A1.78,1.78,0,0,0,77,115.57Z"/><path class="cls-3" d="M85.81,116.52a3.44,3.44,0,0,1-2.62-1,3.92,3.92,0,0,1-1-2.81,4.35,4.35,0,0,1,.89-2.88,3,3,0,0,1,2.4-1.07,2.83,2.83,0,0,1,2.23.93,3.55,3.55,0,0,1,.82,2.44v.72H83.4a3,3,0,0,0,.67,2,2.3,2.3,0,0,0,1.78.68,6,6,0,0,0,2.39-.51v1a6,6,0,0,1-1.14.37A6.33,6.33,0,0,1,85.81,116.52Zm-.31-6.82a1.86,1.86,0,0,0-1.44.59,2.71,2.71,0,0,0-.63,1.63h3.92a2.49,2.49,0,0,0-.48-1.64A1.68,1.68,0,0,0,85.5,109.7Z"/><path class="cls-3" d="M97.23,109.77H95.32v6.61H94.19v-6.61H92.85v-.51l1.34-.41v-.42q0-2.76,2.41-2.76a5,5,0,0,1,1.39.24l-.29.91a3.75,3.75,0,0,0-1.12-.21,1.09,1.09,0,0,0-1,.43,2.38,2.38,0,0,0-.31,1.37v.49h1.91Z"/><path class="cls-3" d="M101.88,108.75a4.44,4.44,0,0,1,.9.08l-.16,1.05a3.86,3.86,0,0,0-.82-.1,2,2,0,0,0-1.55.74,2.69,2.69,0,0,0-.65,1.84v4H98.46v-7.49h.94l.13,1.39h.05a3.31,3.31,0,0,1,1-1.13A2.26,2.26,0,0,1,101.88,108.75Z"/><path class="cls-3" d="M108.64,116.38l-.23-1.07h-.05a3.14,3.14,0,0,1-1.12,1,3.39,3.39,0,0,1-1.39.25,2.5,2.5,0,0,1-1.75-.57,2.09,2.09,0,0,1-.63-1.63q0-2.27,3.63-2.38l1.27,0v-.46a1.89,1.89,0,0,0-.38-1.3,1.55,1.55,0,0,0-1.21-.42,4.94,4.94,0,0,0-2.12.57l-.35-.87a5.35,5.35,0,0,1,1.21-.47,5.23,5.23,0,0,1,1.32-.17,2.86,2.86,0,0,1,2,.59,2.49,2.49,0,0,1,.65,1.91v5.11Zm-2.56-.8a2.31,2.31,0,0,0,1.67-.58,2.15,2.15,0,0,0,.6-1.63v-.68l-1.13,0a4.14,4.14,0,0,0-2,.42,1.27,1.27,0,0,0-.6,1.16,1.17,1.17,0,0,0,.37.94A1.55,1.55,0,0,0,106.08,115.58Z"/><path class="cls-3" d="M112.75,108.89v4.86a2,2,0,0,0,.42,1.37,1.7,1.7,0,0,0,1.31.45,2.13,2.13,0,0,0,1.72-.64,3.24,3.24,0,0,0,.54-2.1v-3.94h1.13v7.49h-.94l-.16-1h-.06a2.26,2.26,0,0,1-1,.85,3.24,3.24,0,0,1-1.41.29,2.87,2.87,0,0,1-2-.65,2.77,2.77,0,0,1-.68-2.08v-4.9Z"/><path class="cls-3" d="M125.23,115.37h-.06a2.67,2.67,0,0,1-2.35,1.14,2.78,2.78,0,0,1-2.29-1,4.42,4.42,0,0,1-.82-2.86,4.5,4.5,0,0,1,.82-2.88,2.76,2.76,0,0,1,2.28-1,2.72,2.72,0,0,1,2.34,1.11h.09l0-.54,0-.53v-3h1.13v10.64h-.92Zm-2.27.19a2.07,2.07,0,0,0,1.69-.63,3.2,3.2,0,0,0,.52-2v-.24a3.76,3.76,0,0,0-.53-2.27,2,2,0,0,0-1.69-.68,1.74,1.74,0,0,0-1.53.78,3.85,3.85,0,0,0-.53,2.19,3.7,3.7,0,0,0,.53,2.17A1.78,1.78,0,0,0,123,115.57Z"/><path class="cls-3" d="M131.74,116.52a3.44,3.44,0,0,1-2.62-1,3.92,3.92,0,0,1-1-2.81,4.35,4.35,0,0,1,.89-2.88,3,3,0,0,1,2.4-1.07,2.83,2.83,0,0,1,2.23.93,3.55,3.55,0,0,1,.82,2.44v.72h-5.16a3,3,0,0,0,.67,2,2.3,2.3,0,0,0,1.78.68,6,6,0,0,0,2.39-.51v1a6,6,0,0,1-1.14.37A6.33,6.33,0,0,1,131.74,116.52Zm-.31-6.82a1.86,1.86,0,0,0-1.44.59,2.71,2.71,0,0,0-.63,1.63h3.92a2.49,2.49,0,0,0-.48-1.64A1.68,1.68,0,0,0,131.43,109.7Z"/><path class="cls-4" d="M95.77,33.37a.69.69,0,0,0-.15-.22L88.78,26.3a.67.67,0,0,0-.22-.15.69.69,0,0,0-.26-.05H70.51a.68.68,0,0,0-.68.68V59.63a.68.68,0,0,0,.68.68H95.14a.68.68,0,0,0,.68-.68v-26A.69.69,0,0,0,95.77,33.37ZM89,28.44l4.51,4.51H89ZM71.19,58.95V27.47H87.62v6.16a.68.68,0,0,0,.68.68h6.16V58.95Z"/><path class="cls-4" d="M82.83,32.94H76a.68.68,0,0,0,0,1.37h6.84a.68.68,0,0,0,0-1.37Z"/><path class="cls-4" d="M82.83,39.79H76a.68.68,0,1,0,0,1.37h6.84a.68.68,0,1,0,0-1.37Z"/><path class="cls-4" d="M82.83,46.63H76A.68.68,0,1,0,76,48h6.84a.68.68,0,1,0,0-1.37Z"/><path class="cls-4" d="M82.83,53.47H76a.68.68,0,0,0,0,1.37h6.84a.68.68,0,0,0,0-1.37Z"/><path class="cls-4" d="M90.47,37.35l-2.27,3.41L87.42,40a.68.68,0,0,0-1,1l1.37,1.37a.68.68,0,0,0,.48.2h.07a.68.68,0,0,0,.5-.3l2.74-4.11a.68.68,0,0,0-1.14-.76Z"/><path class="cls-4" d="M90.47,44.2l-2.27,3.41-.78-.78a.68.68,0,0,0-1,1l1.37,1.37a.68.68,0,0,0,.48.2h.07a.68.68,0,0,0,.5-.3L91.61,45a.68.68,0,1,0-1.14-.76Z"/></g></g></svg>