<svg xmlns="http://www.w3.org/2000/svg" viewBox="0 0 89 89"><defs><style>.cls-1{fill:#68c460;}.cls-2{fill:#fff;}</style></defs><title>exito</title><g id="Capa_2" data-name="Capa 2"><g id="Capa_1-2" data-name="Capa 1"><circle class="cls-1" cx="44.5" cy="44.5" r="44.5"/><g id="Capa_2-2" data-name="Capa 2"><g id="Capa_1-2-2" data-name="Capa 1-2"><path class="cls-2" d="M62.56,32a1.33,1.33,0,0,0-1.88,0l0,0L38.56,54,28.35,43.84a1.38,1.38,0,0,0-1.91,2l11.2,11.25a1.71,1.71,0,0,0,.93.33,1.36,1.36,0,0,0,1-.37l23-23a1.33,1.33,0,0,0,0-1.88l0,0Z"/><path class="cls-2" d="M44.5,12.15A32.35,32.35,0,1,0,76.85,44.5h0A32.38,32.38,0,0,0,44.5,12.15ZM74.15,44.5A29.62,29.62,0,1,1,44.5,14.88,29.62,29.62,0,0,1,74.15,44.5Z"/></g></g></g></g></svg>