<svg xmlns="http://www.w3.org/2000/svg" viewBox="0 0 165.56 165.56"><defs><style>.cls-1{fill:#d9d9d9;}.cls-2{fill:#68c460;}.cls-3{fill:#fff;}</style></defs><title>trainig-hover</title><g id="Capa_2" data-name="Capa 2"><g id="Capa_2-2" data-name="Capa 2"><circle class="cls-1" cx="82.78" cy="82.78" r="82.78"/><circle class="cls-2" cx="82.78" cy="82.78" r="76.63"/><path class="cls-3" d="M60.14,82.78H59v-9H55.82v-1h7.49v1H60.14Z"/><path class="cls-3" d="M67.92,75.15a4.44,4.44,0,0,1,.9.08l-.16,1.05a3.86,3.86,0,0,0-.82-.1,2,2,0,0,0-1.55.74,2.69,2.69,0,0,0-.65,1.84v4H64.5V75.29h.94l.13,1.39h.05a3.31,3.31,0,0,1,1-1.13A2.26,2.26,0,0,1,67.92,75.15Z"/><path class="cls-3" d="M74.68,82.78l-.23-1.07H74.4a3.14,3.14,0,0,1-1.12,1,3.39,3.39,0,0,1-1.39.25,2.5,2.5,0,0,1-1.75-.57,2.09,2.09,0,0,1-.63-1.63q0-2.27,3.63-2.38l1.27,0v-.46a1.89,1.89,0,0,0-.38-1.3,1.55,1.55,0,0,0-1.21-.42,4.94,4.94,0,0,0-2.12.57l-.35-.87a5.35,5.35,0,0,1,1.21-.47,5.23,5.23,0,0,1,1.32-.17,2.86,2.86,0,0,1,2,.59,2.49,2.49,0,0,1,.65,1.91v5.11ZM72.12,82a2.31,2.31,0,0,0,1.67-.58,2.15,2.15,0,0,0,.6-1.63V79.1l-1.13,0a4.14,4.14,0,0,0-2,.42,1.27,1.27,0,0,0-.6,1.16,1.17,1.17,0,0,0,.37.94A1.55,1.55,0,0,0,72.12,82Z"/><path class="cls-3" d="M77.63,73.26a.75.75,0,0,1,.19-.57.71.71,0,0,1,1,0,.74.74,0,0,1,.2.57.76.76,0,0,1-.2.57.7.7,0,0,1-1,0A.77.77,0,0,1,77.63,73.26Zm1.23,9.52H77.72V75.29h1.13Z"/><path class="cls-3" d="M86.25,82.78V77.93a2,2,0,0,0-.42-1.37,1.7,1.7,0,0,0-1.31-.45,2.15,2.15,0,0,0-1.72.64,3.21,3.21,0,0,0-.55,2.1v3.93H81.12V75.29H82l.18,1h.05a2.31,2.31,0,0,1,1-.86,3.17,3.17,0,0,1,1.4-.3,2.85,2.85,0,0,1,2,.65,2.78,2.78,0,0,1,.68,2.09v4.89Z"/><path class="cls-3" d="M89.48,73.26a.75.75,0,0,1,.19-.57.71.71,0,0,1,1,0,.74.74,0,0,1,.2.57.76.76,0,0,1-.2.57.7.7,0,0,1-1,0A.77.77,0,0,1,89.48,73.26Zm1.23,9.52H89.57V75.29h1.13Z"/><path class="cls-3" d="M98.1,82.78V77.93a2,2,0,0,0-.42-1.37,1.7,1.7,0,0,0-1.31-.45,2.15,2.15,0,0,0-1.72.64,3.21,3.21,0,0,0-.55,2.1v3.93H93V75.29h.92l.18,1h.05a2.31,2.31,0,0,1,1-.86,3.17,3.17,0,0,1,1.4-.3,2.85,2.85,0,0,1,2,.65,2.78,2.78,0,0,1,.68,2.09v4.89Z"/><path class="cls-3" d="M107.56,75.29V76l-1.39.16a2.44,2.44,0,0,1,.49,1.5,2.22,2.22,0,0,1-.75,1.76,3,3,0,0,1-2.06.66,3.47,3.47,0,0,1-.63-.05,1.12,1.12,0,0,0-.72,1,.49.49,0,0,0,.25.46,1.85,1.85,0,0,0,.87.15h1.33a3,3,0,0,1,1.87.51,1.78,1.78,0,0,1,.65,1.49,2.13,2.13,0,0,1-1,1.9,5.35,5.35,0,0,1-2.91.65,4,4,0,0,1-2.27-.55,1.77,1.77,0,0,1-.8-1.54,1.73,1.73,0,0,1,.44-1.18,2.23,2.23,0,0,1,1.23-.68,1.18,1.18,0,0,1-.48-.4,1.06,1.06,0,0,1-.2-.64,1.21,1.21,0,0,1,.22-.72,2.3,2.3,0,0,1,.69-.59,2,2,0,0,1-.95-.81,2.39,2.39,0,0,1-.37-1.31,2.43,2.43,0,0,1,.74-1.9,3,3,0,0,1,2.09-.67,3.82,3.82,0,0,1,1.06.14Zm-6,8.75a1,1,0,0,0,.51.92,2.83,2.83,0,0,0,1.47.31,4.11,4.11,0,0,0,2.12-.43,1.31,1.31,0,0,0,.69-1.16.92.92,0,0,0-.38-.84,2.94,2.94,0,0,0-1.42-.24h-1.36A1.79,1.79,0,0,0,102,83,1.32,1.32,0,0,0,101.59,84Zm.62-6.35a1.53,1.53,0,0,0,.44,1.19,1.78,1.78,0,0,0,1.24.4,1.45,1.45,0,0,0,1.66-1.61A1.49,1.49,0,0,0,103.86,76a1.66,1.66,0,0,0-1.23.43A1.73,1.73,0,0,0,102.2,77.69Z"/><path class="cls-3" d="M110.15,81.15l.1.16q-.18.68-.51,1.59t-.7,1.69h-.85q.18-.71.41-1.76t.31-1.67Z"/><path class="cls-3" d="M25.65,96.78l-.23-1.07h-.05a3.14,3.14,0,0,1-1.12,1,3.39,3.39,0,0,1-1.39.25,2.5,2.5,0,0,1-1.75-.57,2.09,2.09,0,0,1-.63-1.63q0-2.27,3.63-2.38l1.27,0v-.46a1.89,1.89,0,0,0-.38-1.3,1.55,1.55,0,0,0-1.21-.42,4.94,4.94,0,0,0-2.12.57l-.35-.87a5.35,5.35,0,0,1,1.21-.47,5.23,5.23,0,0,1,1.32-.17,2.86,2.86,0,0,1,2,.59,2.49,2.49,0,0,1,.65,1.91v5.11ZM23.09,96a2.31,2.31,0,0,0,1.67-.58,2.15,2.15,0,0,0,.6-1.63V93.1l-1.13,0a4.14,4.14,0,0,0-2,.42,1.27,1.27,0,0,0-.6,1.16,1.17,1.17,0,0,0,.37.94A1.55,1.55,0,0,0,23.09,96Z"/><path class="cls-3" d="M34.81,96.78l-1.37-4.4q-.13-.4-.49-1.83H32.9q-.27,1.2-.48,1.85L31,96.78H29.69l-2-7.49h1.19l1.1,4.3a17.53,17.53,0,0,1,.43,2h.05q.07-.39.24-1t.29-1l1.37-4.3h1.23l1.34,4.3a14.52,14.52,0,0,1,.52,2h.05a7.28,7.28,0,0,1,.15-.76q.12-.51,1.42-5.52h1.18l-2.07,7.49Z"/><path class="cls-3" d="M44,96.78l-.23-1.07h-.05a3.14,3.14,0,0,1-1.12,1,3.39,3.39,0,0,1-1.39.25,2.5,2.5,0,0,1-1.75-.57,2.09,2.09,0,0,1-.63-1.63q0-2.27,3.63-2.38l1.27,0v-.46a1.89,1.89,0,0,0-.38-1.3,1.55,1.55,0,0,0-1.21-.42,4.94,4.94,0,0,0-2.12.57l-.35-.87a5.35,5.35,0,0,1,1.21-.47,5.23,5.23,0,0,1,1.32-.17,2.86,2.86,0,0,1,2,.59,2.49,2.49,0,0,1,.65,1.91v5.11ZM41.49,96a2.31,2.31,0,0,0,1.67-.58,2.15,2.15,0,0,0,.6-1.63V93.1l-1.13,0a4.14,4.14,0,0,0-2,.42,1.27,1.27,0,0,0-.6,1.16,1.17,1.17,0,0,0,.37.94A1.55,1.55,0,0,0,41.49,96Z"/><path class="cls-3" d="M50.51,89.15a4.44,4.44,0,0,1,.9.08l-.16,1.05a3.86,3.86,0,0,0-.82-.1,2,2,0,0,0-1.55.74,2.69,2.69,0,0,0-.65,1.84v4H47.09V89.29H48l.13,1.39h.05a3.31,3.31,0,0,1,1-1.13A2.26,2.26,0,0,1,50.51,89.15Z"/><path class="cls-3" d="M55.83,96.92a3.44,3.44,0,0,1-2.62-1,3.92,3.92,0,0,1-1-2.81,4.35,4.35,0,0,1,.89-2.88,3,3,0,0,1,2.4-1.07,2.83,2.83,0,0,1,2.23.93,3.55,3.55,0,0,1,.82,2.44v.72H53.42a3,3,0,0,0,.67,2,2.3,2.3,0,0,0,1.78.68,6,6,0,0,0,2.39-.51v1a6,6,0,0,1-1.14.37A6.33,6.33,0,0,1,55.83,96.92Zm-.31-6.82a1.86,1.86,0,0,0-1.44.59,2.71,2.71,0,0,0-.63,1.63h3.92a2.49,2.49,0,0,0-.48-1.64A1.68,1.68,0,0,0,55.52,90.1Z"/><path class="cls-3" d="M65.5,96.78V91.93a2,2,0,0,0-.42-1.37,1.7,1.7,0,0,0-1.31-.45,2.15,2.15,0,0,0-1.72.64,3.21,3.21,0,0,0-.55,2.1v3.93H60.38V89.29h.92l.18,1h.05a2.31,2.31,0,0,1,1-.86,3.17,3.17,0,0,1,1.4-.3,2.85,2.85,0,0,1,2,.65,2.78,2.78,0,0,1,.68,2.09v4.89Z"/><path class="cls-3" d="M72,96.92a3.44,3.44,0,0,1-2.62-1,3.92,3.92,0,0,1-1-2.81,4.35,4.35,0,0,1,.89-2.88,3,3,0,0,1,2.4-1.07,2.83,2.83,0,0,1,2.23.93,3.55,3.55,0,0,1,.82,2.44v.72H69.59a3,3,0,0,0,.67,2,2.3,2.3,0,0,0,1.78.68,6,6,0,0,0,2.39-.51v1a6,6,0,0,1-1.14.37A6.33,6.33,0,0,1,72,96.92Zm-.31-6.82a1.86,1.86,0,0,0-1.44.59,2.71,2.71,0,0,0-.63,1.63h3.92a2.49,2.49,0,0,0-.48-1.64A1.68,1.68,0,0,0,71.69,90.1Z"/><path class="cls-3" d="M81.38,94.74a1.88,1.88,0,0,1-.78,1.61,3.67,3.67,0,0,1-2.19.57,4.76,4.76,0,0,1-2.32-.47V95.39a5.58,5.58,0,0,0,1.16.43,4.85,4.85,0,0,0,1.19.16,2.7,2.7,0,0,0,1.37-.28,1,1,0,0,0,.1-1.61,6,6,0,0,0-1.48-.73,8.09,8.09,0,0,1-1.49-.68,2.06,2.06,0,0,1-.66-.66,1.73,1.73,0,0,1-.21-.88,1.68,1.68,0,0,1,.75-1.45,3.48,3.48,0,0,1,2-.53,6,6,0,0,1,2.37.49l-.4.92a5.44,5.44,0,0,0-2-.46,2.35,2.35,0,0,0-1.22.25.78.78,0,0,0-.41.7.84.84,0,0,0,.15.51,1.51,1.51,0,0,0,.5.4,10.91,10.91,0,0,0,1.31.55,4.9,4.9,0,0,1,1.8,1A1.73,1.73,0,0,1,81.38,94.74Z"/><path class="cls-3" d="M87.92,94.74a1.88,1.88,0,0,1-.78,1.61,3.67,3.67,0,0,1-2.19.57,4.76,4.76,0,0,1-2.32-.47V95.39a5.58,5.58,0,0,0,1.16.43A4.85,4.85,0,0,0,85,96a2.7,2.7,0,0,0,1.37-.28,1,1,0,0,0,.1-1.61A6,6,0,0,0,85,93.35a8.09,8.09,0,0,1-1.49-.68,2.06,2.06,0,0,1-.66-.66,1.73,1.73,0,0,1-.21-.88,1.68,1.68,0,0,1,.75-1.45,3.48,3.48,0,0,1,2-.53,6,6,0,0,1,2.37.49l-.4.92a5.44,5.44,0,0,0-2-.46,2.35,2.35,0,0,0-1.22.25.78.78,0,0,0-.41.7.84.84,0,0,0,.15.51,1.51,1.51,0,0,0,.5.4,10.91,10.91,0,0,0,1.31.55,4.9,4.9,0,0,1,1.8,1A1.73,1.73,0,0,1,87.92,94.74Z"/><path class="cls-3" d="M99.58,93a4.13,4.13,0,0,1-.92,2.86,3.25,3.25,0,0,1-2.55,1,3.38,3.38,0,0,1-1.78-.47,3.11,3.11,0,0,1-1.2-1.35A4.72,4.72,0,0,1,92.7,93a4.13,4.13,0,0,1,.92-2.85,3.24,3.24,0,0,1,2.54-1,3.17,3.17,0,0,1,2.5,1A4.12,4.12,0,0,1,99.58,93Zm-5.71,0a3.56,3.56,0,0,0,.57,2.19,2.28,2.28,0,0,0,3.38,0A3.53,3.53,0,0,0,98.41,93a3.48,3.48,0,0,0-.58-2.17,2,2,0,0,0-1.71-.74,2,2,0,0,0-1.68.73A3.52,3.52,0,0,0,93.88,93Z"/><path class="cls-3" d="M106.56,96.78V91.93a2,2,0,0,0-.42-1.37,1.7,1.7,0,0,0-1.31-.45,2.15,2.15,0,0,0-1.72.64,3.21,3.21,0,0,0-.55,2.1v3.93h-1.13V89.29h.92l.18,1h.05a2.31,2.31,0,0,1,1-.86,3.17,3.17,0,0,1,1.4-.3,2.85,2.85,0,0,1,2,.65,2.78,2.78,0,0,1,.68,2.09v4.89Z"/><path class="cls-3" d="M116.76,90.17h-1.91v6.61h-1.13V90.17h-1.34v-.51l1.34-.41v-.42q0-2.76,2.41-2.76a5,5,0,0,1,1.39.24l-.29.91a3.75,3.75,0,0,0-1.12-.21,1.09,1.09,0,0,0-1,.43,2.38,2.38,0,0,0-.31,1.37v.49h1.91Z"/><path class="cls-3" d="M121.41,89.15a4.44,4.44,0,0,1,.9.08l-.16,1.05a3.86,3.86,0,0,0-.82-.1,2,2,0,0,0-1.55.74,2.69,2.69,0,0,0-.65,1.84v4H118V89.29h.94l.13,1.39h.05a3.31,3.31,0,0,1,1-1.13A2.26,2.26,0,0,1,121.41,89.15Z"/><path class="cls-3" d="M128.17,96.78l-.23-1.07h-.05a3.14,3.14,0,0,1-1.12,1,3.39,3.39,0,0,1-1.39.25,2.5,2.5,0,0,1-1.75-.57,2.09,2.09,0,0,1-.63-1.63q0-2.27,3.63-2.38l1.27,0v-.46a1.89,1.89,0,0,0-.38-1.3,1.55,1.55,0,0,0-1.21-.42,4.94,4.94,0,0,0-2.12.57l-.35-.87a5.35,5.35,0,0,1,1.21-.47,5.23,5.23,0,0,1,1.32-.17,2.86,2.86,0,0,1,2,.59,2.49,2.49,0,0,1,.65,1.91v5.11Zm-2.56-.8a2.31,2.31,0,0,0,1.67-.58,2.15,2.15,0,0,0,.6-1.63V93.1l-1.13,0a4.14,4.14,0,0,0-2,.42,1.27,1.27,0,0,0-.6,1.16,1.17,1.17,0,0,0,.37.94A1.55,1.55,0,0,0,125.61,96Z"/><path class="cls-3" d="M132.28,89.29v4.86a2,2,0,0,0,.42,1.37A1.7,1.7,0,0,0,134,96a2.13,2.13,0,0,0,1.72-.64,3.24,3.24,0,0,0,.54-2.1V89.29h1.13v7.49h-.94l-.16-1h-.06a2.26,2.26,0,0,1-1,.85,3.24,3.24,0,0,1-1.41.29,2.87,2.87,0,0,1-2-.65,2.77,2.77,0,0,1-.68-2.08v-4.9Z"/><path class="cls-3" d="M144.76,95.77h-.06a2.67,2.67,0,0,1-2.35,1.14,2.78,2.78,0,0,1-2.29-1,4.42,4.42,0,0,1-.82-2.86,4.5,4.5,0,0,1,.82-2.88,2.76,2.76,0,0,1,2.28-1,2.72,2.72,0,0,1,2.34,1.11h.09l0-.54,0-.53v-3h1.13V96.78h-.92Zm-2.27.19a2.07,2.07,0,0,0,1.69-.63,3.2,3.2,0,0,0,.52-2v-.24a3.76,3.76,0,0,0-.53-2.27,2,2,0,0,0-1.69-.68,1.74,1.74,0,0,0-1.53.78,3.85,3.85,0,0,0-.53,2.19,3.7,3.7,0,0,0,.53,2.17A1.78,1.78,0,0,0,142.49,96Z"/><path class="cls-3" d="M50.87,101.26a.75.75,0,0,1,.19-.57.71.71,0,0,1,1,0,.74.74,0,0,1,.2.57.76.76,0,0,1-.2.57.7.7,0,0,1-1,0A.77.77,0,0,1,50.87,101.26Zm1.23,9.52H51v-7.49H52.1Z"/><path class="cls-3" d="M59.2,108.74a1.88,1.88,0,0,1-.78,1.61,3.67,3.67,0,0,1-2.19.57,4.76,4.76,0,0,1-2.32-.47v-1.05a5.58,5.58,0,0,0,1.16.43,4.85,4.85,0,0,0,1.19.16,2.7,2.7,0,0,0,1.37-.28,1,1,0,0,0,.1-1.61,6,6,0,0,0-1.48-.73,8.09,8.09,0,0,1-1.49-.68,2.06,2.06,0,0,1-.66-.66,1.73,1.73,0,0,1-.21-.88,1.68,1.68,0,0,1,.75-1.45,3.48,3.48,0,0,1,2-.53,6,6,0,0,1,2.37.49l-.4.92a5.44,5.44,0,0,0-2-.46,2.35,2.35,0,0,0-1.22.25.78.78,0,0,0-.41.7.84.84,0,0,0,.15.51,1.51,1.51,0,0,0,.5.4,10.91,10.91,0,0,0,1.31.55,4.9,4.9,0,0,1,1.8,1A1.73,1.73,0,0,1,59.2,108.74Z"/><path class="cls-3" d="M65.74,108.74a1.88,1.88,0,0,1-.78,1.61,3.67,3.67,0,0,1-2.19.57,4.76,4.76,0,0,1-2.32-.47v-1.05a5.58,5.58,0,0,0,1.16.43,4.85,4.85,0,0,0,1.19.16,2.7,2.7,0,0,0,1.37-.28,1,1,0,0,0,.1-1.61,6,6,0,0,0-1.48-.73,8.09,8.09,0,0,1-1.49-.68,2.06,2.06,0,0,1-.66-.66,1.73,1.73,0,0,1-.21-.88,1.68,1.68,0,0,1,.75-1.45,3.48,3.48,0,0,1,2-.53,6,6,0,0,1,2.37.49l-.4.92a5.44,5.44,0,0,0-2-.46,2.35,2.35,0,0,0-1.22.25.78.78,0,0,0-.41.7.84.84,0,0,0,.15.51,1.51,1.51,0,0,0,.5.4,10.91,10.91,0,0,0,1.31.55,4.9,4.9,0,0,1,1.8,1A1.73,1.73,0,0,1,65.74,108.74Z"/><path class="cls-3" d="M68.51,103.29v4.86a2,2,0,0,0,.42,1.37,1.7,1.7,0,0,0,1.31.45,2.13,2.13,0,0,0,1.72-.64,3.24,3.24,0,0,0,.54-2.1v-3.94h1.13v7.49h-.94l-.16-1h-.06a2.26,2.26,0,0,1-1,.85,3.24,3.24,0,0,1-1.41.29,2.87,2.87,0,0,1-2-.65,2.77,2.77,0,0,1-.68-2.08v-4.9Z"/><path class="cls-3" d="M79.06,110.92a3.44,3.44,0,0,1-2.62-1,3.92,3.92,0,0,1-1-2.81,4.35,4.35,0,0,1,.89-2.88,3,3,0,0,1,2.4-1.07,2.83,2.83,0,0,1,2.23.93,3.55,3.55,0,0,1,.82,2.44v.72H76.65a3,3,0,0,0,.67,2,2.3,2.3,0,0,0,1.78.68,6,6,0,0,0,2.39-.51v1a6,6,0,0,1-1.14.37A6.33,6.33,0,0,1,79.06,110.92Zm-.31-6.82a1.86,1.86,0,0,0-1.44.59,2.71,2.71,0,0,0-.63,1.63H80.6a2.49,2.49,0,0,0-.48-1.64A1.68,1.68,0,0,0,78.75,104.1Z"/><path class="cls-3" d="M88.44,108.74a1.88,1.88,0,0,1-.78,1.61,3.67,3.67,0,0,1-2.19.57,4.76,4.76,0,0,1-2.32-.47v-1.05a5.58,5.58,0,0,0,1.16.43,4.85,4.85,0,0,0,1.19.16,2.7,2.7,0,0,0,1.37-.28,1,1,0,0,0,.1-1.61,6,6,0,0,0-1.48-.73,8.09,8.09,0,0,1-1.49-.68,2.06,2.06,0,0,1-.66-.66,1.73,1.73,0,0,1-.21-.88,1.68,1.68,0,0,1,.75-1.45,3.48,3.48,0,0,1,2-.53,6,6,0,0,1,2.37.49l-.4.92a5.44,5.44,0,0,0-2-.46,2.35,2.35,0,0,0-1.22.25.78.78,0,0,0-.41.7.84.84,0,0,0,.15.51,1.51,1.51,0,0,0,.5.4,10.91,10.91,0,0,0,1.31.55,4.9,4.9,0,0,1,1.8,1A1.73,1.73,0,0,1,88.44,108.74Z"/><path class="cls-3" d="M98.25,110.78,98,109.71H98a3.14,3.14,0,0,1-1.12,1,3.39,3.39,0,0,1-1.39.25,2.5,2.5,0,0,1-1.75-.57,2.09,2.09,0,0,1-.63-1.63q0-2.27,3.63-2.38l1.27,0v-.46a1.89,1.89,0,0,0-.38-1.3,1.55,1.55,0,0,0-1.21-.42,4.94,4.94,0,0,0-2.12.57l-.35-.87a5.35,5.35,0,0,1,1.21-.47,5.23,5.23,0,0,1,1.32-.17,2.86,2.86,0,0,1,2,.59,2.49,2.49,0,0,1,.65,1.91v5.11Zm-2.56-.8a2.31,2.31,0,0,0,1.67-.58,2.15,2.15,0,0,0,.6-1.63v-.68l-1.13,0a4.14,4.14,0,0,0-2,.42,1.27,1.27,0,0,0-.6,1.16,1.17,1.17,0,0,0,.37.94A1.55,1.55,0,0,0,95.69,110Z"/><path class="cls-3" d="M106.42,110.78v-4.85a2,2,0,0,0-.42-1.37,1.7,1.7,0,0,0-1.31-.45,2.15,2.15,0,0,0-1.72.64,3.21,3.21,0,0,0-.55,2.1v3.93h-1.13v-7.49h.92l.18,1h.05a2.31,2.31,0,0,1,1-.86,3.17,3.17,0,0,1,1.4-.3,2.85,2.85,0,0,1,2,.65,2.78,2.78,0,0,1,.68,2.09v4.89Z"/><path class="cls-3" d="M114.84,109.77h-.06a2.67,2.67,0,0,1-2.35,1.14,2.78,2.78,0,0,1-2.29-1,4.42,4.42,0,0,1-.82-2.86,4.5,4.5,0,0,1,.82-2.88,2.76,2.76,0,0,1,2.28-1,2.72,2.72,0,0,1,2.34,1.11h.09l0-.54,0-.53v-3h1.13v10.64H115Zm-2.27.19a2.07,2.07,0,0,0,1.69-.63,3.2,3.2,0,0,0,.52-2v-.24a3.76,3.76,0,0,0-.53-2.27,2,2,0,0,0-1.69-.68,1.74,1.74,0,0,0-1.53.78,3.85,3.85,0,0,0-.53,2.19,3.7,3.7,0,0,0,.53,2.17A1.78,1.78,0,0,0,112.57,110Z"/><path class="cls-3" d="M46.55,115.26a.75.75,0,0,1,.19-.57.71.71,0,0,1,1,0,.74.74,0,0,1,.2.57.76.76,0,0,1-.2.57.7.7,0,0,1-1,0A.77.77,0,0,1,46.55,115.26Zm1.23,9.52H46.65v-7.49h1.13Z"/><path class="cls-3" d="M55.18,124.78v-4.85a2,2,0,0,0-.42-1.37,1.7,1.7,0,0,0-1.31-.45,2.15,2.15,0,0,0-1.72.64,3.21,3.21,0,0,0-.55,2.1v3.93H50v-7.49H51l.18,1h.05a2.31,2.31,0,0,1,1-.86,3.17,3.17,0,0,1,1.4-.3,2.85,2.85,0,0,1,2,.65,2.78,2.78,0,0,1,.68,2.09v4.89Z"/><path class="cls-3" d="M61.88,118.17H60v6.61H58.84v-6.61H57.5v-.51l1.34-.41v-.42q0-2.76,2.41-2.76a5,5,0,0,1,1.39.24l-.29.91a3.75,3.75,0,0,0-1.12-.21,1.09,1.09,0,0,0-1,.43A2.38,2.38,0,0,0,60,116.8v.49h1.91Z"/><path class="cls-3" d="M69.57,121a4.13,4.13,0,0,1-.92,2.86,3.25,3.25,0,0,1-2.55,1,3.38,3.38,0,0,1-1.78-.47,3.11,3.11,0,0,1-1.2-1.35,4.72,4.72,0,0,1-.42-2.06,4.13,4.13,0,0,1,.92-2.85,3.24,3.24,0,0,1,2.54-1,3.17,3.17,0,0,1,2.5,1A4.12,4.12,0,0,1,69.57,121Zm-5.71,0a3.56,3.56,0,0,0,.57,2.19,2.28,2.28,0,0,0,3.38,0A3.53,3.53,0,0,0,68.4,121a3.48,3.48,0,0,0-.58-2.17,2,2,0,0,0-1.71-.74,2,2,0,0,0-1.68.73A3.52,3.52,0,0,0,63.86,121Z"/><path class="cls-3" d="M74.84,117.15a4.44,4.44,0,0,1,.9.08l-.16,1.05a3.86,3.86,0,0,0-.82-.1,2,2,0,0,0-1.55.74,2.69,2.69,0,0,0-.65,1.84v4H71.42v-7.49h.94l.13,1.39h.05a3.31,3.31,0,0,1,1-1.13A2.26,2.26,0,0,1,74.84,117.15Z"/><path class="cls-3" d="M86.55,124.78v-4.87a2,2,0,0,0-.38-1.34,1.48,1.48,0,0,0-1.19-.45,1.92,1.92,0,0,0-1.57.61,2.89,2.89,0,0,0-.51,1.87v4.18H81.77v-4.87a2,2,0,0,0-.38-1.34,1.49,1.49,0,0,0-1.2-.45,1.85,1.85,0,0,0-1.56.64,3.45,3.45,0,0,0-.5,2.09v3.93H77v-7.49h.92l.18,1h.05a2.23,2.23,0,0,1,.91-.85,2.76,2.76,0,0,1,1.31-.31,2.23,2.23,0,0,1,2.3,1.27h.05a2.39,2.39,0,0,1,1-.93,3,3,0,0,1,1.45-.34,2.54,2.54,0,0,1,1.9.65,2.93,2.93,0,0,1,.63,2.09v4.89Z"/><path class="cls-3" d="M94.49,124.78l-.23-1.07h-.05a3.14,3.14,0,0,1-1.12,1,3.39,3.39,0,0,1-1.39.25,2.5,2.5,0,0,1-1.75-.57,2.09,2.09,0,0,1-.63-1.63q0-2.27,3.63-2.38l1.27,0v-.46a1.89,1.89,0,0,0-.38-1.3,1.55,1.55,0,0,0-1.21-.42,4.94,4.94,0,0,0-2.12.57l-.35-.87a5.35,5.35,0,0,1,1.21-.47,5.23,5.23,0,0,1,1.32-.17,2.86,2.86,0,0,1,2,.59,2.49,2.49,0,0,1,.65,1.91v5.11Zm-2.56-.8a2.31,2.31,0,0,0,1.67-.58,2.15,2.15,0,0,0,.6-1.63v-.68l-1.13,0a4.14,4.14,0,0,0-2,.42,1.27,1.27,0,0,0-.6,1.16,1.17,1.17,0,0,0,.37.94A1.55,1.55,0,0,0,91.92,124Z"/><path class="cls-3" d="M99.95,124a3.75,3.75,0,0,0,.58,0l.44-.09v.87a2,2,0,0,1-.54.15,4.06,4.06,0,0,1-.65.06q-2.17,0-2.17-2.29v-4.46H96.53v-.55l1.07-.47.48-1.6h.66v1.74h2.17v.88H98.74v4.41a1.52,1.52,0,0,0,.32,1A1.12,1.12,0,0,0,99.95,124Z"/><path class="cls-3" d="M102.23,115.26a.75.75,0,0,1,.19-.57.71.71,0,0,1,1,0,.74.74,0,0,1,.2.57.76.76,0,0,1-.2.57.7.7,0,0,1-1,0A.77.77,0,0,1,102.23,115.26Zm1.23,9.52h-1.13v-7.49h1.13Z"/><path class="cls-3" d="M112.2,121a4.13,4.13,0,0,1-.92,2.86,3.25,3.25,0,0,1-2.55,1,3.38,3.38,0,0,1-1.78-.47,3.11,3.11,0,0,1-1.2-1.35,4.72,4.72,0,0,1-.42-2.06,4.13,4.13,0,0,1,.92-2.85,3.24,3.24,0,0,1,2.54-1,3.17,3.17,0,0,1,2.5,1A4.12,4.12,0,0,1,112.2,121Zm-5.71,0a3.56,3.56,0,0,0,.57,2.19,2.28,2.28,0,0,0,3.38,0A3.53,3.53,0,0,0,111,121a3.48,3.48,0,0,0-.58-2.17,2,2,0,0,0-1.71-.74,2,2,0,0,0-1.68.73A3.52,3.52,0,0,0,106.49,121Z"/><path class="cls-3" d="M119.17,124.78v-4.85a2,2,0,0,0-.42-1.37,1.7,1.7,0,0,0-1.31-.45,2.15,2.15,0,0,0-1.72.64,3.21,3.21,0,0,0-.55,2.1v3.93H114v-7.49H115l.18,1h.05a2.31,2.31,0,0,1,1-.86,3.17,3.17,0,0,1,1.4-.3,2.85,2.85,0,0,1,2,.65,2.78,2.78,0,0,1,.68,2.09v4.89Z"/><path class="cls-3" d="M42.52,137.77h-.06a2.67,2.67,0,0,1-2.35,1.14,2.78,2.78,0,0,1-2.29-1,4.42,4.42,0,0,1-.82-2.86,4.5,4.5,0,0,1,.82-2.88,2.76,2.76,0,0,1,2.28-1,2.72,2.72,0,0,1,2.34,1.11h.09l0-.54,0-.53v-3H43.6v10.64h-.92Zm-2.27.19a2.07,2.07,0,0,0,1.69-.63,3.2,3.2,0,0,0,.52-2v-.24a3.76,3.76,0,0,0-.53-2.27,2,2,0,0,0-1.69-.68,1.74,1.74,0,0,0-1.53.78,3.85,3.85,0,0,0-.53,2.19,3.7,3.7,0,0,0,.53,2.17A1.78,1.78,0,0,0,40.25,138Z"/><path class="cls-3" d="M49,138.92a3.44,3.44,0,0,1-2.62-1,3.92,3.92,0,0,1-1-2.81,4.35,4.35,0,0,1,.89-2.88,3,3,0,0,1,2.4-1.07,2.83,2.83,0,0,1,2.23.93,3.55,3.55,0,0,1,.82,2.44v.72H46.62a3,3,0,0,0,.67,2,2.3,2.3,0,0,0,1.78.68,6,6,0,0,0,2.39-.51v1a6,6,0,0,1-1.14.37A6.33,6.33,0,0,1,49,138.92Zm-.31-6.82a1.86,1.86,0,0,0-1.44.59,2.71,2.71,0,0,0-.63,1.63h3.92a2.49,2.49,0,0,0-.48-1.64A1.68,1.68,0,0,0,48.72,132.1Z"/><path class="cls-3" d="M58.41,136.74a1.88,1.88,0,0,1-.78,1.61,3.67,3.67,0,0,1-2.19.57,4.76,4.76,0,0,1-2.32-.47v-1.05a5.58,5.58,0,0,0,1.16.43,4.85,4.85,0,0,0,1.19.16,2.7,2.7,0,0,0,1.37-.28,1,1,0,0,0,.1-1.61,6,6,0,0,0-1.48-.73,8.09,8.09,0,0,1-1.49-.68,2.06,2.06,0,0,1-.66-.66,1.73,1.73,0,0,1-.21-.88,1.68,1.68,0,0,1,.75-1.45,3.48,3.48,0,0,1,2-.53,6,6,0,0,1,2.37.49l-.4.92a5.44,5.44,0,0,0-2-.46,2.35,2.35,0,0,0-1.22.25.78.78,0,0,0-.41.7.84.84,0,0,0,.15.51,1.51,1.51,0,0,0,.5.4,10.91,10.91,0,0,0,1.31.55,4.9,4.9,0,0,1,1.8,1A1.73,1.73,0,0,1,58.41,136.74Z"/><path class="cls-3" d="M64.95,136.74a1.88,1.88,0,0,1-.78,1.61,3.67,3.67,0,0,1-2.19.57,4.76,4.76,0,0,1-2.32-.47v-1.05a5.58,5.58,0,0,0,1.16.43A4.85,4.85,0,0,0,62,138a2.7,2.7,0,0,0,1.37-.28,1,1,0,0,0,.1-1.61,6,6,0,0,0-1.48-.73,8.09,8.09,0,0,1-1.49-.68,2.06,2.06,0,0,1-.66-.66,1.73,1.73,0,0,1-.21-.88,1.68,1.68,0,0,1,.75-1.45,3.48,3.48,0,0,1,2-.53,6,6,0,0,1,2.37.49l-.4.92a5.44,5.44,0,0,0-2-.46,2.35,2.35,0,0,0-1.22.25.78.78,0,0,0-.41.7.84.84,0,0,0,.15.51,1.51,1.51,0,0,0,.5.4,10.91,10.91,0,0,0,1.31.55,4.9,4.9,0,0,1,1.8,1A1.73,1.73,0,0,1,64.95,136.74Z"/><path class="cls-3" d="M69.82,138.92a3.44,3.44,0,0,1-2.62-1,3.92,3.92,0,0,1-1-2.81,4.35,4.35,0,0,1,.89-2.88,3,3,0,0,1,2.4-1.07,2.83,2.83,0,0,1,2.23.93,3.55,3.55,0,0,1,.82,2.44v.72H67.41a3,3,0,0,0,.67,2,2.3,2.3,0,0,0,1.78.68,6,6,0,0,0,2.39-.51v1a6,6,0,0,1-1.14.37A6.33,6.33,0,0,1,69.82,138.92Zm-.31-6.82a1.86,1.86,0,0,0-1.44.59,2.71,2.71,0,0,0-.63,1.63h3.92a2.49,2.49,0,0,0-.48-1.64A1.68,1.68,0,0,0,69.51,132.1Z"/><path class="cls-3" d="M83.92,138.78v-4.87a2,2,0,0,0-.38-1.34,1.48,1.48,0,0,0-1.19-.45,1.92,1.92,0,0,0-1.57.61,2.89,2.89,0,0,0-.51,1.87v4.18H79.14v-4.87a2,2,0,0,0-.38-1.34,1.49,1.49,0,0,0-1.2-.45,1.85,1.85,0,0,0-1.56.64,3.45,3.45,0,0,0-.5,2.09v3.93H74.37v-7.49h.92l.18,1h.05a2.23,2.23,0,0,1,.91-.85,2.76,2.76,0,0,1,1.31-.31,2.23,2.23,0,0,1,2.3,1.27h.05a2.39,2.39,0,0,1,1-.93,3,3,0,0,1,1.45-.34,2.54,2.54,0,0,1,1.9.65,2.93,2.93,0,0,1,.63,2.09v4.89Z"/><path class="cls-3" d="M87.16,129.26a.75.75,0,0,1,.19-.57.71.71,0,0,1,1,0,.74.74,0,0,1,.2.57.76.76,0,0,1-.2.57.7.7,0,0,1-1,0A.77.77,0,0,1,87.16,129.26Zm1.23,9.52H87.25v-7.49h1.13Z"/><path class="cls-3" d="M95.78,138.78v-4.85a2,2,0,0,0-.42-1.37,1.7,1.7,0,0,0-1.31-.45,2.15,2.15,0,0,0-1.72.64,3.21,3.21,0,0,0-.55,2.1v3.93H90.65v-7.49h.92l.18,1h.05a2.31,2.31,0,0,1,1-.86,3.17,3.17,0,0,1,1.4-.3,2.85,2.85,0,0,1,2,.65,2.78,2.78,0,0,1,.68,2.09v4.89Z"/><path class="cls-3" d="M103.71,138.78l-.23-1.07h-.05a3.14,3.14,0,0,1-1.12,1,3.39,3.39,0,0,1-1.39.25,2.5,2.5,0,0,1-1.75-.57,2.09,2.09,0,0,1-.63-1.63q0-2.27,3.63-2.38l1.27,0v-.46a1.89,1.89,0,0,0-.38-1.3,1.55,1.55,0,0,0-1.21-.42,4.94,4.94,0,0,0-2.12.57l-.35-.87a5.35,5.35,0,0,1,1.21-.47,5.23,5.23,0,0,1,1.32-.17,2.86,2.86,0,0,1,2,.59,2.49,2.49,0,0,1,.65,1.91v5.11Zm-2.56-.8a2.31,2.31,0,0,0,1.67-.58,2.15,2.15,0,0,0,.6-1.63v-.68l-1.13,0a4.14,4.14,0,0,0-2,.42,1.27,1.27,0,0,0-.6,1.16,1.17,1.17,0,0,0,.37.94A1.55,1.55,0,0,0,101.15,138Z"/><path class="cls-3" d="M109.17,138a3.75,3.75,0,0,0,.58,0l.44-.09v.87a2,2,0,0,1-.54.15,4.06,4.06,0,0,1-.65.06q-2.17,0-2.17-2.29v-4.46h-1.07v-.55l1.07-.47.48-1.6H108v1.74h2.17v.88H108v4.41a1.52,1.52,0,0,0,.32,1A1.12,1.12,0,0,0,109.17,138Z"/><path class="cls-3" d="M111.46,129.26a.75.75,0,0,1,.19-.57.71.71,0,0,1,1,0,.74.74,0,0,1,.2.57.76.76,0,0,1-.2.57.7.7,0,0,1-1,0A.77.77,0,0,1,111.46,129.26Zm1.23,9.52h-1.13v-7.49h1.13Z"/><path class="cls-3" d="M121.42,135a4.13,4.13,0,0,1-.92,2.86,3.25,3.25,0,0,1-2.55,1,3.38,3.38,0,0,1-1.78-.47,3.11,3.11,0,0,1-1.2-1.35,4.72,4.72,0,0,1-.42-2.06,4.13,4.13,0,0,1,.92-2.85,3.24,3.24,0,0,1,2.54-1,3.17,3.17,0,0,1,2.5,1A4.12,4.12,0,0,1,121.42,135Zm-5.71,0a3.56,3.56,0,0,0,.57,2.19,2.28,2.28,0,0,0,3.38,0,3.53,3.53,0,0,0,.58-2.19,3.48,3.48,0,0,0-.58-2.17,2,2,0,0,0-1.71-.74,2,2,0,0,0-1.68.73A3.52,3.52,0,0,0,115.71,135Z"/><path class="cls-3" d="M128.4,138.78v-4.85a2,2,0,0,0-.42-1.37,1.7,1.7,0,0,0-1.31-.45,2.15,2.15,0,0,0-1.72.64,3.21,3.21,0,0,0-.55,2.1v3.93h-1.13v-7.49h.92l.18,1h.05a2.31,2.31,0,0,1,1-.86,3.17,3.17,0,0,1,1.4-.3,2.85,2.85,0,0,1,2,.65,2.78,2.78,0,0,1,.68,2.09v4.89Z"/><path class="cls-3" d="M64,25.82V48.35h7.37c-.62-.69-1.12-1-1.44-1.39H65.39V27.21h31.9V47h-.9s.08.33.12.5.12.54.17.88h2V25.82Z"/><path class="cls-3" d="M95.09,47.69a25.65,25.65,0,0,0-1.42-4.46l0-.06,0-.05a6.71,6.71,0,0,0-2.71-3,7.67,7.67,0,0,0-2.34-.85c.14-.12.28-.24.41-.38a5.55,5.55,0,1,0-7.83,0,5.57,5.57,0,0,0,.65.55,7.18,7.18,0,0,0-1.6.66,6.69,6.69,0,0,0-2.71,3h0L77,44.18l-3.33-2.45a2.4,2.4,0,0,0-3.85,2.21,2.47,2.47,0,0,0,.81,1.54c.37.39,2.38,2.53,5.11,5H73l.37,1.72,1.53,7.2.24,1.14h20.1l.22-1.19,1.31-7.18.31-1.68H95.47A21.73,21.73,0,0,0,95.09,47.69ZM81,34.94a4.1,4.1,0,0,1,8.19,0A4.15,4.15,0,0,1,85.61,39h-1A4.09,4.09,0,0,1,81,34.94ZM81,46.53s-1.4,2.32-1.82,2.94a1,1,0,0,1-.91.45,3.3,3.3,0,0,1-1.45-.46c-3-2.73-5.26-5.07-5.26-5.07A1,1,0,0,1,71.42,43a1,1,0,0,1,.76-.37.93.93,0,0,1,.59.2l4.75,3.49,1.27-2.62c1-1.94,2.39-3.17,5.78-3.29.17,0,.34,0,.51,0s.42-.07.62-.07H86c3.82,0,5.37,1.31,6.38,3.37A20.75,20.75,0,0,1,94,50.44H91.26l-1.19-3.87L90,50.44H81.15Zm13,12.57H76.34l-1.53-7.28H95.38Z"/></g></g></svg>